%TF.GenerationSoftware,KiCad,Pcbnew,8.0.2*%
%TF.CreationDate,2024-05-30T16:08:45+01:00*%
%TF.ProjectId,board,626f6172-642e-46b6-9963-61645f706362,0.3*%
%TF.SameCoordinates,Original*%
%TF.FileFunction,Drillmap*%
%TF.FilePolarity,Positive*%
%FSLAX45Y45*%
G04 Gerber Fmt 4.5, Leading zero omitted, Abs format (unit mm)*
G04 Created by KiCad (PCBNEW 8.0.2) date 2024-05-30 16:08:45*
%MOMM*%
%LPD*%
G01*
G04 APERTURE LIST*
%ADD10C,0.150000*%
%ADD11C,0.200000*%
%ADD12C,0.100000*%
%ADD13C,0.109220*%
%ADD14C,0.130000*%
G04 APERTURE END LIST*
D10*
X2600000Y7380000D02*
G75*
G02*
X2800000Y7580000I200000J0D01*
G01*
X6200000Y7240000D02*
G75*
G02*
X6397739Y7069987I0J-200000D01*
G01*
X8000000Y7070000D02*
G75*
G02*
X8200000Y6870000I0J-200000D01*
G01*
X2600000Y7380000D02*
X2600000Y7240000D01*
X5605000Y-612000D02*
G75*
G02*
X5195000Y-612000I-205000J0D01*
G01*
X5195000Y-612000D02*
G75*
G02*
X5605000Y-612000I205000J0D01*
G01*
X800000Y7040000D02*
X800000Y6050000D01*
X9828883Y-4168666D02*
X5470711Y-1652474D01*
X10111726Y-4168666D02*
G75*
G02*
X9828879Y-4168671I-141426J141416D01*
G01*
X1105000Y0D02*
G75*
G02*
X695000Y0I-205000J0D01*
G01*
X695000Y0D02*
G75*
G02*
X1105000Y0I205000J0D01*
G01*
X-800000Y-950000D02*
X800000Y-950000D01*
X10200000Y5185000D02*
G75*
G02*
X10400000Y4985000I0J-200000D01*
G01*
X800000Y7040000D02*
G75*
G02*
X1000000Y7240000I200000J0D01*
G01*
X6505000Y6120000D02*
G75*
G02*
X6095000Y6120000I-205000J0D01*
G01*
X6095000Y6120000D02*
G75*
G02*
X6505000Y6120000I205000J0D01*
G01*
X10111726Y-4168666D02*
X11172386Y-3108006D01*
X2600000Y7240000D02*
X1000000Y7240000D01*
X9439913Y-2231194D02*
G75*
G02*
X9029913Y-2231194I-205000J0D01*
G01*
X9029913Y-2231194D02*
G75*
G02*
X9439913Y-2231194I205000J0D01*
G01*
X-1000000Y5850000D02*
G75*
G02*
X-800000Y6050000I200000J0D01*
G01*
X11172386Y-2825164D02*
G75*
G02*
X11172386Y-3108006I-141421J-141421D01*
G01*
X-800000Y-950000D02*
G75*
G02*
X-1000000Y-750000I0J200000D01*
G01*
X8200000Y5185000D02*
X8200000Y6870000D01*
X800000Y6050000D02*
X-800000Y6050000D01*
X8000000Y7070000D02*
X6400000Y7070000D01*
X4400000Y7580000D02*
X2800000Y7580000D01*
X5470711Y-1652474D02*
X800000Y-950000D01*
X10400000Y-2020873D02*
X10400000Y4985000D01*
X6200000Y7240000D02*
X4600000Y7240000D01*
X6397739Y7069987D02*
G75*
G02*
X6400000Y7070000I2261J-199657D01*
G01*
X1105000Y2890000D02*
G75*
G02*
X695000Y2890000I-205000J0D01*
G01*
X695000Y2890000D02*
G75*
G02*
X1105000Y2890000I205000J0D01*
G01*
X4400000Y7580000D02*
G75*
G02*
X4600000Y7380000I0J-200000D01*
G01*
X-1000000Y-750000D02*
X-1000000Y5850000D01*
X4600000Y7240000D02*
X4600000Y7380000D01*
X10400000Y-2020873D02*
X11172386Y-2825164D01*
X10200000Y5185000D02*
X8200000Y5185000D01*
D11*
D12*
X640010Y2425020D02*
X680010Y2385020D01*
X680010Y2425020D02*
X640010Y2385020D01*
X880000Y4491170D02*
X920000Y4451170D01*
X920000Y4491170D02*
X880000Y4451170D01*
X1471480Y1999370D02*
X1511480Y1959370D01*
X1511480Y1999370D02*
X1471480Y1959370D01*
X2607500Y4290390D02*
X2647500Y4250390D01*
X2647500Y4290390D02*
X2607500Y4250390D01*
X2607500Y2295300D02*
X2647500Y2255300D01*
X2647500Y2295300D02*
X2607500Y2255300D01*
X4305200Y832670D02*
X4345200Y792670D01*
X4345200Y832670D02*
X4305200Y792670D01*
X4407500Y6230380D02*
X4447500Y6190380D01*
X4447500Y6230380D02*
X4407500Y6190380D01*
X4407500Y3911000D02*
X4447500Y3871000D01*
X4447500Y3911000D02*
X4407500Y3871000D01*
X6038770Y5842880D02*
X6078770Y5802880D01*
X6078770Y5842880D02*
X6038770Y5802880D01*
X6207500Y171110D02*
X6247500Y131110D01*
X6247500Y171110D02*
X6207500Y131110D01*
X6480890Y-1281030D02*
X6520890Y-1321030D01*
X6520890Y-1281030D02*
X6480890Y-1321030D01*
X7365690Y-356630D02*
X7405690Y-396630D01*
X7405690Y-356630D02*
X7365690Y-396630D01*
X7939330Y634020D02*
X7979330Y594020D01*
X7979330Y634020D02*
X7939330Y594020D01*
X8007500Y5836130D02*
X8047500Y5796130D01*
X8047500Y5836130D02*
X8007500Y5796130D01*
X8007500Y2832000D02*
X8047500Y2792000D01*
X8047500Y2832000D02*
X8007500Y2792000D01*
X8151440Y2705000D02*
X8191440Y2665000D01*
X8191440Y2705000D02*
X8151440Y2665000D01*
X8259620Y2076140D02*
X8299620Y2036140D01*
X8299620Y2076140D02*
X8259620Y2036140D01*
X9330270Y-931940D02*
X9370270Y-971940D01*
X9370270Y-931940D02*
X9330270Y-971940D01*
X9341970Y3864880D02*
X9381970Y3824880D01*
X9381970Y3864880D02*
X9341970Y3824880D01*
X9412040Y989960D02*
X9452040Y949960D01*
X9452040Y989960D02*
X9412040Y949960D01*
X9572170Y1209660D02*
X9612170Y1169660D01*
X9612170Y1209660D02*
X9572170Y1169660D01*
X10647480Y-2407040D02*
X10687480Y-2447040D01*
X10687480Y-2407040D02*
X10647480Y-2447040D01*
X9315000Y-250000D02*
G75*
G02*
X9225000Y-250000I-45000J0D01*
G01*
X9225000Y-250000D02*
G75*
G02*
X9315000Y-250000I45000J0D01*
G01*
X9300000Y-205000D02*
X9240000Y-205000D01*
X9240000Y-295000D02*
G75*
G02*
X9240000Y-205000I0J45000D01*
G01*
X9240000Y-295000D02*
X9300000Y-295000D01*
X9300000Y-295000D02*
G75*
G03*
X9300000Y-205000I0J45000D01*
G01*
X9315000Y-480000D02*
G75*
G02*
X9225000Y-480000I-45000J0D01*
G01*
X9225000Y-480000D02*
G75*
G02*
X9315000Y-480000I45000J0D01*
G01*
X9300000Y-435000D02*
X9240000Y-435000D01*
X9240000Y-525000D02*
G75*
G02*
X9240000Y-435000I0J45000D01*
G01*
X9240000Y-525000D02*
X9300000Y-525000D01*
X9300000Y-525000D02*
G75*
G03*
X9300000Y-435000I0J45000D01*
G01*
X9425000Y-20000D02*
G75*
G02*
X9335000Y-20000I-45000J0D01*
G01*
X9335000Y-20000D02*
G75*
G02*
X9425000Y-20000I45000J0D01*
G01*
X9410000Y25000D02*
X9350000Y25000D01*
X9350000Y-65000D02*
G75*
G02*
X9350000Y25000I0J45000D01*
G01*
X9350000Y-65000D02*
X9410000Y-65000D01*
X9410000Y-65000D02*
G75*
G03*
X9410000Y25000I0J45000D01*
G01*
X9425000Y-710000D02*
G75*
G02*
X9335000Y-710000I-45000J0D01*
G01*
X9335000Y-710000D02*
G75*
G02*
X9425000Y-710000I45000J0D01*
G01*
X9410000Y-665000D02*
X9350000Y-665000D01*
X9350000Y-755000D02*
G75*
G02*
X9350000Y-665000I0J45000D01*
G01*
X9350000Y-755000D02*
X9410000Y-755000D01*
X9410000Y-755000D02*
G75*
G03*
X9410000Y-665000I0J45000D01*
G01*
X9825000Y-20000D02*
G75*
G02*
X9735000Y-20000I-45000J0D01*
G01*
X9735000Y-20000D02*
G75*
G02*
X9825000Y-20000I45000J0D01*
G01*
X9810000Y25000D02*
X9750000Y25000D01*
X9750000Y-65000D02*
G75*
G02*
X9750000Y25000I0J45000D01*
G01*
X9750000Y-65000D02*
X9810000Y-65000D01*
X9810000Y-65000D02*
G75*
G03*
X9810000Y25000I0J45000D01*
G01*
X9825000Y-710000D02*
G75*
G02*
X9735000Y-710000I-45000J0D01*
G01*
X9735000Y-710000D02*
G75*
G02*
X9825000Y-710000I45000J0D01*
G01*
X9810000Y-665000D02*
X9750000Y-665000D01*
X9750000Y-755000D02*
G75*
G02*
X9750000Y-665000I0J45000D01*
G01*
X9750000Y-755000D02*
X9810000Y-755000D01*
X9810000Y-755000D02*
G75*
G03*
X9810000Y-665000I0J45000D01*
G01*
X10125000Y-20000D02*
G75*
G02*
X10035000Y-20000I-45000J0D01*
G01*
X10035000Y-20000D02*
G75*
G02*
X10125000Y-20000I45000J0D01*
G01*
X10110000Y25000D02*
X10050000Y25000D01*
X10050000Y-65000D02*
G75*
G02*
X10050000Y25000I0J45000D01*
G01*
X10050000Y-65000D02*
X10110000Y-65000D01*
X10110000Y-65000D02*
G75*
G03*
X10110000Y25000I0J45000D01*
G01*
X10125000Y-710000D02*
G75*
G02*
X10035000Y-710000I-45000J0D01*
G01*
X10035000Y-710000D02*
G75*
G02*
X10125000Y-710000I45000J0D01*
G01*
X10110000Y-665000D02*
X10050000Y-665000D01*
X10050000Y-755000D02*
G75*
G02*
X10050000Y-665000I0J45000D01*
G01*
X10050000Y-755000D02*
X10110000Y-755000D01*
X10110000Y-755000D02*
G75*
G03*
X10110000Y-665000I0J45000D01*
G01*
X-381000Y4649530D02*
X-381000Y4550470D01*
X-430530Y4600000D02*
X-331470Y4600000D01*
X-381000Y2949530D02*
X-381000Y2850470D01*
X-430530Y2900000D02*
X-331470Y2900000D01*
X-381000Y1249530D02*
X-381000Y1150470D01*
X-430530Y1200000D02*
X-331470Y1200000D01*
X-381000Y-450470D02*
X-381000Y-549530D01*
X-430530Y-500000D02*
X-331470Y-500000D01*
X381000Y4649530D02*
X381000Y4550470D01*
X331470Y4600000D02*
X430530Y4600000D01*
X381000Y2949530D02*
X381000Y2850470D01*
X331470Y2900000D02*
X430530Y2900000D01*
X381000Y1249530D02*
X381000Y1150470D01*
X331470Y1200000D02*
X430530Y1200000D01*
X381000Y-450470D02*
X381000Y-549530D01*
X331470Y-500000D02*
X430530Y-500000D01*
X1419000Y5839530D02*
X1419000Y5740470D01*
X1369470Y5790000D02*
X1468530Y5790000D01*
X1419000Y4139530D02*
X1419000Y4040470D01*
X1369470Y4090000D02*
X1468530Y4090000D01*
X1419000Y2439530D02*
X1419000Y2340470D01*
X1369470Y2390000D02*
X1468530Y2390000D01*
X1419000Y739530D02*
X1419000Y640470D01*
X1369470Y690000D02*
X1468530Y690000D01*
X2181000Y5839530D02*
X2181000Y5740470D01*
X2131470Y5790000D02*
X2230530Y5790000D01*
X2181000Y4139530D02*
X2181000Y4040470D01*
X2131470Y4090000D02*
X2230530Y4090000D01*
X2181000Y2439530D02*
X2181000Y2340470D01*
X2131470Y2390000D02*
X2230530Y2390000D01*
X2181000Y739530D02*
X2181000Y640470D01*
X2131470Y690000D02*
X2230530Y690000D01*
X3219000Y6179530D02*
X3219000Y6080470D01*
X3169470Y6130000D02*
X3268530Y6130000D01*
X3219000Y4479530D02*
X3219000Y4380470D01*
X3169470Y4430000D02*
X3268530Y4430000D01*
X3219000Y2779530D02*
X3219000Y2680470D01*
X3169470Y2730000D02*
X3268530Y2730000D01*
X3219000Y1079530D02*
X3219000Y980470D01*
X3169470Y1030000D02*
X3268530Y1030000D01*
X3981000Y6179530D02*
X3981000Y6080470D01*
X3931470Y6130000D02*
X4030530Y6130000D01*
X3981000Y4479530D02*
X3981000Y4380470D01*
X3931470Y4430000D02*
X4030530Y4430000D01*
X3981000Y2779530D02*
X3981000Y2680470D01*
X3931470Y2730000D02*
X4030530Y2730000D01*
X3981000Y1079530D02*
X3981000Y980470D01*
X3931470Y1030000D02*
X4030530Y1030000D01*
X5019000Y5839530D02*
X5019000Y5740470D01*
X4969470Y5790000D02*
X5068530Y5790000D01*
X5019000Y4139530D02*
X5019000Y4040470D01*
X4969470Y4090000D02*
X5068530Y4090000D01*
X5019000Y2439530D02*
X5019000Y2340470D01*
X4969470Y2390000D02*
X5068530Y2390000D01*
X5019000Y739530D02*
X5019000Y640470D01*
X4969470Y690000D02*
X5068530Y690000D01*
X5781000Y5839530D02*
X5781000Y5740470D01*
X5731470Y5790000D02*
X5830530Y5790000D01*
X5781000Y4139530D02*
X5781000Y4040470D01*
X5731470Y4090000D02*
X5830530Y4090000D01*
X5781000Y2439530D02*
X5781000Y2340470D01*
X5731470Y2390000D02*
X5830530Y2390000D01*
X5781000Y739530D02*
X5781000Y640470D01*
X5731470Y690000D02*
X5830530Y690000D01*
X5991902Y-1276720D02*
X5991902Y-1375780D01*
X5942372Y-1326250D02*
X6041432Y-1326250D01*
X6727938Y-1473940D02*
X6727938Y-1573000D01*
X6678408Y-1523470D02*
X6777468Y-1523470D01*
X6819000Y5669530D02*
X6819000Y5570470D01*
X6769470Y5620000D02*
X6868530Y5620000D01*
X6819000Y3969530D02*
X6819000Y3870470D01*
X6769470Y3920000D02*
X6868530Y3920000D01*
X6819000Y2269530D02*
X6819000Y2170470D01*
X6769470Y2220000D02*
X6868530Y2220000D01*
X6819000Y569530D02*
X6819000Y470470D01*
X6769470Y520000D02*
X6868530Y520000D01*
X7581000Y5669530D02*
X7581000Y5570470D01*
X7531470Y5620000D02*
X7630530Y5620000D01*
X7581000Y3969530D02*
X7581000Y3870470D01*
X7531470Y3920000D02*
X7630530Y3920000D01*
X7581000Y2269530D02*
X7581000Y2170470D01*
X7531470Y2220000D02*
X7630530Y2220000D01*
X7581000Y569530D02*
X7581000Y470470D01*
X7531470Y520000D02*
X7630530Y520000D01*
X7763134Y-1902740D02*
X7763134Y-2001800D01*
X7713604Y-1952270D02*
X7812664Y-1952270D01*
X8423046Y-2283740D02*
X8423046Y-2382800D01*
X8373516Y-2333270D02*
X8472576Y-2333270D01*
X9311992Y-2965842D02*
X9311992Y-3064902D01*
X9262462Y-3015372D02*
X9361522Y-3015372D01*
X9850808Y-3504658D02*
X9850808Y-3603718D01*
X9801278Y-3554188D02*
X9900338Y-3554188D01*
D13*
X8476616Y4678385D02*
X8476616Y4755616D01*
X8399385Y4755616D01*
X8399385Y4678385D01*
X8476616Y4678385D01*
X8476616Y4424385D02*
X8476616Y4501616D01*
X8399385Y4501616D01*
X8399385Y4424385D01*
X8476616Y4424385D01*
X8476616Y4170384D02*
X8476616Y4247616D01*
X8399385Y4247616D01*
X8399385Y4170384D01*
X8476616Y4170384D01*
X8476616Y3916384D02*
X8476616Y3993615D01*
X8399385Y3993615D01*
X8399385Y3916384D01*
X8476616Y3916384D01*
X8476616Y3662384D02*
X8476616Y3739615D01*
X8399385Y3739615D01*
X8399385Y3662384D01*
X8476616Y3662384D01*
X8476616Y3408384D02*
X8476616Y3485615D01*
X8399385Y3485615D01*
X8399385Y3408384D01*
X8476616Y3408384D01*
X8476616Y3154384D02*
X8476616Y3231615D01*
X8399385Y3231615D01*
X8399385Y3154384D01*
X8476616Y3154384D01*
X8476616Y2900384D02*
X8476616Y2977615D01*
X8399385Y2977615D01*
X8399385Y2900384D01*
X8476616Y2900384D01*
X8476616Y2646385D02*
X8476616Y2723616D01*
X8399385Y2723616D01*
X8399385Y2646385D01*
X8476616Y2646385D01*
X8476616Y2392385D02*
X8476616Y2469616D01*
X8399385Y2469616D01*
X8399385Y2392385D01*
X8476616Y2392385D01*
X8476616Y2138385D02*
X8476616Y2215616D01*
X8399385Y2215616D01*
X8399385Y2138385D01*
X8476616Y2138385D01*
X8476616Y1884384D02*
X8476616Y1961615D01*
X8399385Y1961615D01*
X8399385Y1884384D01*
X8476616Y1884384D01*
X8726616Y4553385D02*
X8726616Y4630616D01*
X8649385Y4630616D01*
X8649385Y4553385D01*
X8726616Y4553385D01*
X8726616Y4299385D02*
X8726616Y4376616D01*
X8649385Y4376616D01*
X8649385Y4299385D01*
X8726616Y4299385D01*
X8726616Y4045384D02*
X8726616Y4122615D01*
X8649385Y4122615D01*
X8649385Y4045384D01*
X8726616Y4045384D01*
X8726616Y3791384D02*
X8726616Y3868615D01*
X8649385Y3868615D01*
X8649385Y3791384D01*
X8726616Y3791384D01*
X8726616Y3537384D02*
X8726616Y3614615D01*
X8649385Y3614615D01*
X8649385Y3537384D01*
X8726616Y3537384D01*
X8726616Y3283384D02*
X8726616Y3360615D01*
X8649385Y3360615D01*
X8649385Y3283384D01*
X8726616Y3283384D01*
X8726616Y3029384D02*
X8726616Y3106615D01*
X8649385Y3106615D01*
X8649385Y3029384D01*
X8726616Y3029384D01*
X8726616Y2775385D02*
X8726616Y2852615D01*
X8649385Y2852615D01*
X8649385Y2775385D01*
X8726616Y2775385D01*
X8726616Y2521385D02*
X8726616Y2598616D01*
X8649385Y2598616D01*
X8649385Y2521385D01*
X8726616Y2521385D01*
X8726616Y2267385D02*
X8726616Y2344616D01*
X8649385Y2344616D01*
X8649385Y2267385D01*
X8726616Y2267385D01*
X8726616Y2013384D02*
X8726616Y2090615D01*
X8649385Y2090615D01*
X8649385Y2013384D01*
X8726616Y2013384D01*
X8726616Y1759384D02*
X8726616Y1836615D01*
X8649385Y1836615D01*
X8649385Y1759384D01*
X8726616Y1759384D01*
X10000616Y4678385D02*
X10000616Y4755616D01*
X9923385Y4755616D01*
X9923385Y4678385D01*
X10000616Y4678385D01*
X10000616Y4424385D02*
X10000616Y4501616D01*
X9923385Y4501616D01*
X9923385Y4424385D01*
X10000616Y4424385D01*
X10000616Y4170384D02*
X10000616Y4247616D01*
X9923385Y4247616D01*
X9923385Y4170384D01*
X10000616Y4170384D01*
X10000616Y3916384D02*
X10000616Y3993615D01*
X9923385Y3993615D01*
X9923385Y3916384D01*
X10000616Y3916384D01*
X10000616Y3662384D02*
X10000616Y3739615D01*
X9923385Y3739615D01*
X9923385Y3662384D01*
X10000616Y3662384D01*
X10000616Y3408384D02*
X10000616Y3485615D01*
X9923385Y3485615D01*
X9923385Y3408384D01*
X10000616Y3408384D01*
X10000616Y3154384D02*
X10000616Y3231615D01*
X9923385Y3231615D01*
X9923385Y3154384D01*
X10000616Y3154384D01*
X10000616Y2900384D02*
X10000616Y2977615D01*
X9923385Y2977615D01*
X9923385Y2900384D01*
X10000616Y2900384D01*
X10000616Y2646385D02*
X10000616Y2723616D01*
X9923385Y2723616D01*
X9923385Y2646385D01*
X10000616Y2646385D01*
X10000616Y2392385D02*
X10000616Y2469616D01*
X9923385Y2469616D01*
X9923385Y2392385D01*
X10000616Y2392385D01*
X10000616Y2138385D02*
X10000616Y2215616D01*
X9923385Y2215616D01*
X9923385Y2138385D01*
X10000616Y2138385D01*
X10000616Y1884384D02*
X10000616Y1961615D01*
X9923385Y1961615D01*
X9923385Y1884384D01*
X10000616Y1884384D01*
X10250616Y4553385D02*
X10250616Y4630616D01*
X10173385Y4630616D01*
X10173385Y4553385D01*
X10250616Y4553385D01*
X10250616Y4299385D02*
X10250616Y4376616D01*
X10173385Y4376616D01*
X10173385Y4299385D01*
X10250616Y4299385D01*
X10250616Y4045384D02*
X10250616Y4122615D01*
X10173385Y4122615D01*
X10173385Y4045384D01*
X10250616Y4045384D01*
X10250616Y3791384D02*
X10250616Y3868615D01*
X10173385Y3868615D01*
X10173385Y3791384D01*
X10250616Y3791384D01*
X10250616Y3537384D02*
X10250616Y3614615D01*
X10173385Y3614615D01*
X10173385Y3537384D01*
X10250616Y3537384D01*
X10250616Y3283384D02*
X10250616Y3360615D01*
X10173385Y3360615D01*
X10173385Y3283384D01*
X10250616Y3283384D01*
X10250616Y3029384D02*
X10250616Y3106615D01*
X10173385Y3106615D01*
X10173385Y3029384D01*
X10250616Y3029384D01*
X10250616Y2775385D02*
X10250616Y2852615D01*
X10173385Y2852615D01*
X10173385Y2775385D01*
X10250616Y2775385D01*
X10250616Y2521385D02*
X10250616Y2598616D01*
X10173385Y2598616D01*
X10173385Y2521385D01*
X10250616Y2521385D01*
X10250616Y2267385D02*
X10250616Y2344616D01*
X10173385Y2344616D01*
X10173385Y2267385D01*
X10250616Y2267385D01*
X10250616Y2013384D02*
X10250616Y2090615D01*
X10173385Y2090615D01*
X10173385Y2013384D01*
X10250616Y2013384D01*
X10250616Y1759384D02*
X10250616Y1836615D01*
X10173385Y1836615D01*
X10173385Y1759384D01*
X10250616Y1759384D01*
D14*
X8900000Y1280000D02*
X8965000Y1345000D01*
X8900000Y1410000D01*
X8835000Y1345000D01*
X8900000Y1280000D01*
X8900000Y630000D02*
X8965000Y695000D01*
X8900000Y760000D01*
X8835000Y695000D01*
X8900000Y630000D01*
D11*
X-746723Y-4546233D02*
X-746723Y-4346233D01*
X-746723Y-4346233D02*
X-699104Y-4346233D01*
X-699104Y-4346233D02*
X-670533Y-4355757D01*
X-670533Y-4355757D02*
X-651485Y-4374805D01*
X-651485Y-4374805D02*
X-641961Y-4393852D01*
X-641961Y-4393852D02*
X-632437Y-4431948D01*
X-632437Y-4431948D02*
X-632437Y-4460519D01*
X-632437Y-4460519D02*
X-641961Y-4498614D01*
X-641961Y-4498614D02*
X-651485Y-4517662D01*
X-651485Y-4517662D02*
X-670533Y-4536710D01*
X-670533Y-4536710D02*
X-699104Y-4546233D01*
X-699104Y-4546233D02*
X-746723Y-4546233D01*
X-546723Y-4546233D02*
X-546723Y-4412900D01*
X-546723Y-4450995D02*
X-537199Y-4431948D01*
X-537199Y-4431948D02*
X-527676Y-4422424D01*
X-527676Y-4422424D02*
X-508628Y-4412900D01*
X-508628Y-4412900D02*
X-489580Y-4412900D01*
X-422914Y-4546233D02*
X-422914Y-4412900D01*
X-422914Y-4346233D02*
X-432437Y-4355757D01*
X-432437Y-4355757D02*
X-422914Y-4365281D01*
X-422914Y-4365281D02*
X-413390Y-4355757D01*
X-413390Y-4355757D02*
X-422914Y-4346233D01*
X-422914Y-4346233D02*
X-422914Y-4365281D01*
X-299104Y-4546233D02*
X-318152Y-4536710D01*
X-318152Y-4536710D02*
X-327676Y-4517662D01*
X-327676Y-4517662D02*
X-327676Y-4346233D01*
X-194342Y-4546233D02*
X-213390Y-4536710D01*
X-213390Y-4536710D02*
X-222914Y-4517662D01*
X-222914Y-4517662D02*
X-222914Y-4346233D01*
X34229Y-4546233D02*
X34229Y-4346233D01*
X34229Y-4346233D02*
X100896Y-4489091D01*
X100896Y-4489091D02*
X167563Y-4346233D01*
X167563Y-4346233D02*
X167563Y-4546233D01*
X348515Y-4546233D02*
X348515Y-4441472D01*
X348515Y-4441472D02*
X338991Y-4422424D01*
X338991Y-4422424D02*
X319944Y-4412900D01*
X319944Y-4412900D02*
X281848Y-4412900D01*
X281848Y-4412900D02*
X262801Y-4422424D01*
X348515Y-4536710D02*
X329467Y-4546233D01*
X329467Y-4546233D02*
X281848Y-4546233D01*
X281848Y-4546233D02*
X262801Y-4536710D01*
X262801Y-4536710D02*
X253277Y-4517662D01*
X253277Y-4517662D02*
X253277Y-4498614D01*
X253277Y-4498614D02*
X262801Y-4479567D01*
X262801Y-4479567D02*
X281848Y-4470043D01*
X281848Y-4470043D02*
X329467Y-4470043D01*
X329467Y-4470043D02*
X348515Y-4460519D01*
X443753Y-4412900D02*
X443753Y-4612900D01*
X443753Y-4422424D02*
X462801Y-4412900D01*
X462801Y-4412900D02*
X500896Y-4412900D01*
X500896Y-4412900D02*
X519943Y-4422424D01*
X519943Y-4422424D02*
X529467Y-4431948D01*
X529467Y-4431948D02*
X538991Y-4450995D01*
X538991Y-4450995D02*
X538991Y-4508138D01*
X538991Y-4508138D02*
X529467Y-4527186D01*
X529467Y-4527186D02*
X519943Y-4536710D01*
X519943Y-4536710D02*
X500896Y-4546233D01*
X500896Y-4546233D02*
X462801Y-4546233D01*
X462801Y-4546233D02*
X443753Y-4536710D01*
X624705Y-4527186D02*
X634229Y-4536710D01*
X634229Y-4536710D02*
X624705Y-4546233D01*
X624705Y-4546233D02*
X615182Y-4536710D01*
X615182Y-4536710D02*
X624705Y-4527186D01*
X624705Y-4527186D02*
X624705Y-4546233D01*
X624705Y-4422424D02*
X634229Y-4431948D01*
X634229Y-4431948D02*
X624705Y-4441472D01*
X624705Y-4441472D02*
X615182Y-4431948D01*
X615182Y-4431948D02*
X624705Y-4422424D01*
X624705Y-4422424D02*
X624705Y-4441472D01*
D12*
X-1047500Y-4854750D02*
X-1007500Y-4894750D01*
X-1007500Y-4854750D02*
X-1047500Y-4894750D01*
D11*
X-708628Y-4766233D02*
X-689580Y-4766233D01*
X-689580Y-4766233D02*
X-670533Y-4775757D01*
X-670533Y-4775757D02*
X-661009Y-4785281D01*
X-661009Y-4785281D02*
X-651485Y-4804329D01*
X-651485Y-4804329D02*
X-641961Y-4842424D01*
X-641961Y-4842424D02*
X-641961Y-4890043D01*
X-641961Y-4890043D02*
X-651485Y-4928138D01*
X-651485Y-4928138D02*
X-661009Y-4947186D01*
X-661009Y-4947186D02*
X-670533Y-4956710D01*
X-670533Y-4956710D02*
X-689580Y-4966233D01*
X-689580Y-4966233D02*
X-708628Y-4966233D01*
X-708628Y-4966233D02*
X-727675Y-4956710D01*
X-727675Y-4956710D02*
X-737199Y-4947186D01*
X-737199Y-4947186D02*
X-746723Y-4928138D01*
X-746723Y-4928138D02*
X-756247Y-4890043D01*
X-756247Y-4890043D02*
X-756247Y-4842424D01*
X-756247Y-4842424D02*
X-746723Y-4804329D01*
X-746723Y-4804329D02*
X-737199Y-4785281D01*
X-737199Y-4785281D02*
X-727675Y-4775757D01*
X-727675Y-4775757D02*
X-708628Y-4766233D01*
X-556247Y-4947186D02*
X-546723Y-4956710D01*
X-546723Y-4956710D02*
X-556247Y-4966233D01*
X-556247Y-4966233D02*
X-565771Y-4956710D01*
X-565771Y-4956710D02*
X-556247Y-4947186D01*
X-556247Y-4947186D02*
X-556247Y-4966233D01*
X-375294Y-4832900D02*
X-375294Y-4966233D01*
X-422914Y-4756710D02*
X-470533Y-4899567D01*
X-470533Y-4899567D02*
X-346723Y-4899567D01*
X-232437Y-4766233D02*
X-213390Y-4766233D01*
X-213390Y-4766233D02*
X-194342Y-4775757D01*
X-194342Y-4775757D02*
X-184818Y-4785281D01*
X-184818Y-4785281D02*
X-175294Y-4804329D01*
X-175294Y-4804329D02*
X-165771Y-4842424D01*
X-165771Y-4842424D02*
X-165771Y-4890043D01*
X-165771Y-4890043D02*
X-175294Y-4928138D01*
X-175294Y-4928138D02*
X-184818Y-4947186D01*
X-184818Y-4947186D02*
X-194342Y-4956710D01*
X-194342Y-4956710D02*
X-213390Y-4966233D01*
X-213390Y-4966233D02*
X-232437Y-4966233D01*
X-232437Y-4966233D02*
X-251485Y-4956710D01*
X-251485Y-4956710D02*
X-261009Y-4947186D01*
X-261009Y-4947186D02*
X-270533Y-4928138D01*
X-270533Y-4928138D02*
X-280056Y-4890043D01*
X-280056Y-4890043D02*
X-280056Y-4842424D01*
X-280056Y-4842424D02*
X-270533Y-4804329D01*
X-270533Y-4804329D02*
X-261009Y-4785281D01*
X-261009Y-4785281D02*
X-251485Y-4775757D01*
X-251485Y-4775757D02*
X-232437Y-4766233D01*
X-41961Y-4766233D02*
X-22913Y-4766233D01*
X-22913Y-4766233D02*
X-3866Y-4775757D01*
X-3866Y-4775757D02*
X5658Y-4785281D01*
X5658Y-4785281D02*
X15182Y-4804329D01*
X15182Y-4804329D02*
X24705Y-4842424D01*
X24705Y-4842424D02*
X24705Y-4890043D01*
X24705Y-4890043D02*
X15182Y-4928138D01*
X15182Y-4928138D02*
X5658Y-4947186D01*
X5658Y-4947186D02*
X-3866Y-4956710D01*
X-3866Y-4956710D02*
X-22913Y-4966233D01*
X-22913Y-4966233D02*
X-41961Y-4966233D01*
X-41961Y-4966233D02*
X-61009Y-4956710D01*
X-61009Y-4956710D02*
X-70533Y-4947186D01*
X-70533Y-4947186D02*
X-80056Y-4928138D01*
X-80056Y-4928138D02*
X-89580Y-4890043D01*
X-89580Y-4890043D02*
X-89580Y-4842424D01*
X-89580Y-4842424D02*
X-80056Y-4804329D01*
X-80056Y-4804329D02*
X-70533Y-4785281D01*
X-70533Y-4785281D02*
X-61009Y-4775757D01*
X-61009Y-4775757D02*
X-41961Y-4766233D01*
X110420Y-4966233D02*
X110420Y-4832900D01*
X110420Y-4851948D02*
X119943Y-4842424D01*
X119943Y-4842424D02*
X138991Y-4832900D01*
X138991Y-4832900D02*
X167563Y-4832900D01*
X167563Y-4832900D02*
X186610Y-4842424D01*
X186610Y-4842424D02*
X196134Y-4861472D01*
X196134Y-4861472D02*
X196134Y-4966233D01*
X196134Y-4861472D02*
X205658Y-4842424D01*
X205658Y-4842424D02*
X224705Y-4832900D01*
X224705Y-4832900D02*
X253277Y-4832900D01*
X253277Y-4832900D02*
X272325Y-4842424D01*
X272325Y-4842424D02*
X281848Y-4861472D01*
X281848Y-4861472D02*
X281848Y-4966233D01*
X377086Y-4966233D02*
X377086Y-4832900D01*
X377086Y-4851948D02*
X386610Y-4842424D01*
X386610Y-4842424D02*
X405658Y-4832900D01*
X405658Y-4832900D02*
X434229Y-4832900D01*
X434229Y-4832900D02*
X453277Y-4842424D01*
X453277Y-4842424D02*
X462801Y-4861472D01*
X462801Y-4861472D02*
X462801Y-4966233D01*
X462801Y-4861472D02*
X472324Y-4842424D01*
X472324Y-4842424D02*
X491372Y-4832900D01*
X491372Y-4832900D02*
X519943Y-4832900D01*
X519943Y-4832900D02*
X538991Y-4842424D01*
X538991Y-4842424D02*
X548515Y-4861472D01*
X548515Y-4861472D02*
X548515Y-4966233D01*
X938991Y-4756710D02*
X767563Y-5013852D01*
X1196134Y-4766233D02*
X1215182Y-4766233D01*
X1215182Y-4766233D02*
X1234229Y-4775757D01*
X1234229Y-4775757D02*
X1243753Y-4785281D01*
X1243753Y-4785281D02*
X1253277Y-4804329D01*
X1253277Y-4804329D02*
X1262801Y-4842424D01*
X1262801Y-4842424D02*
X1262801Y-4890043D01*
X1262801Y-4890043D02*
X1253277Y-4928138D01*
X1253277Y-4928138D02*
X1243753Y-4947186D01*
X1243753Y-4947186D02*
X1234229Y-4956710D01*
X1234229Y-4956710D02*
X1215182Y-4966233D01*
X1215182Y-4966233D02*
X1196134Y-4966233D01*
X1196134Y-4966233D02*
X1177087Y-4956710D01*
X1177087Y-4956710D02*
X1167563Y-4947186D01*
X1167563Y-4947186D02*
X1158039Y-4928138D01*
X1158039Y-4928138D02*
X1148515Y-4890043D01*
X1148515Y-4890043D02*
X1148515Y-4842424D01*
X1148515Y-4842424D02*
X1158039Y-4804329D01*
X1158039Y-4804329D02*
X1167563Y-4785281D01*
X1167563Y-4785281D02*
X1177087Y-4775757D01*
X1177087Y-4775757D02*
X1196134Y-4766233D01*
X1348515Y-4947186D02*
X1358039Y-4956710D01*
X1358039Y-4956710D02*
X1348515Y-4966233D01*
X1348515Y-4966233D02*
X1338991Y-4956710D01*
X1338991Y-4956710D02*
X1348515Y-4947186D01*
X1348515Y-4947186D02*
X1348515Y-4966233D01*
X1481848Y-4766233D02*
X1500896Y-4766233D01*
X1500896Y-4766233D02*
X1519944Y-4775757D01*
X1519944Y-4775757D02*
X1529467Y-4785281D01*
X1529467Y-4785281D02*
X1538991Y-4804329D01*
X1538991Y-4804329D02*
X1548515Y-4842424D01*
X1548515Y-4842424D02*
X1548515Y-4890043D01*
X1548515Y-4890043D02*
X1538991Y-4928138D01*
X1538991Y-4928138D02*
X1529467Y-4947186D01*
X1529467Y-4947186D02*
X1519944Y-4956710D01*
X1519944Y-4956710D02*
X1500896Y-4966233D01*
X1500896Y-4966233D02*
X1481848Y-4966233D01*
X1481848Y-4966233D02*
X1462801Y-4956710D01*
X1462801Y-4956710D02*
X1453277Y-4947186D01*
X1453277Y-4947186D02*
X1443753Y-4928138D01*
X1443753Y-4928138D02*
X1434229Y-4890043D01*
X1434229Y-4890043D02*
X1434229Y-4842424D01*
X1434229Y-4842424D02*
X1443753Y-4804329D01*
X1443753Y-4804329D02*
X1453277Y-4785281D01*
X1453277Y-4785281D02*
X1462801Y-4775757D01*
X1462801Y-4775757D02*
X1481848Y-4766233D01*
X1738991Y-4966233D02*
X1624706Y-4966233D01*
X1681848Y-4966233D02*
X1681848Y-4766233D01*
X1681848Y-4766233D02*
X1662801Y-4794805D01*
X1662801Y-4794805D02*
X1643753Y-4813852D01*
X1643753Y-4813852D02*
X1624706Y-4823376D01*
X1919944Y-4766233D02*
X1824706Y-4766233D01*
X1824706Y-4766233D02*
X1815182Y-4861472D01*
X1815182Y-4861472D02*
X1824706Y-4851948D01*
X1824706Y-4851948D02*
X1843753Y-4842424D01*
X1843753Y-4842424D02*
X1891372Y-4842424D01*
X1891372Y-4842424D02*
X1910420Y-4851948D01*
X1910420Y-4851948D02*
X1919944Y-4861472D01*
X1919944Y-4861472D02*
X1929467Y-4880519D01*
X1929467Y-4880519D02*
X1929467Y-4928138D01*
X1929467Y-4928138D02*
X1919944Y-4947186D01*
X1919944Y-4947186D02*
X1910420Y-4956710D01*
X1910420Y-4956710D02*
X1891372Y-4966233D01*
X1891372Y-4966233D02*
X1843753Y-4966233D01*
X1843753Y-4966233D02*
X1824706Y-4956710D01*
X1824706Y-4956710D02*
X1815182Y-4947186D01*
X1996134Y-4766233D02*
X2129468Y-4766233D01*
X2129468Y-4766233D02*
X2043753Y-4966233D01*
X2196134Y-4766233D02*
X2196134Y-4804329D01*
X2272325Y-4766233D02*
X2272325Y-4804329D01*
X2567563Y-5042424D02*
X2558039Y-5032900D01*
X2558039Y-5032900D02*
X2538991Y-5004329D01*
X2538991Y-5004329D02*
X2529468Y-4985281D01*
X2529468Y-4985281D02*
X2519944Y-4956710D01*
X2519944Y-4956710D02*
X2510420Y-4909091D01*
X2510420Y-4909091D02*
X2510420Y-4870995D01*
X2510420Y-4870995D02*
X2519944Y-4823376D01*
X2519944Y-4823376D02*
X2529468Y-4794805D01*
X2529468Y-4794805D02*
X2538991Y-4775757D01*
X2538991Y-4775757D02*
X2558039Y-4747186D01*
X2558039Y-4747186D02*
X2567563Y-4737662D01*
X2634230Y-4785281D02*
X2643753Y-4775757D01*
X2643753Y-4775757D02*
X2662801Y-4766233D01*
X2662801Y-4766233D02*
X2710420Y-4766233D01*
X2710420Y-4766233D02*
X2729468Y-4775757D01*
X2729468Y-4775757D02*
X2738991Y-4785281D01*
X2738991Y-4785281D02*
X2748515Y-4804329D01*
X2748515Y-4804329D02*
X2748515Y-4823376D01*
X2748515Y-4823376D02*
X2738991Y-4851948D01*
X2738991Y-4851948D02*
X2624706Y-4966233D01*
X2624706Y-4966233D02*
X2748515Y-4966233D01*
X2824706Y-4785281D02*
X2834229Y-4775757D01*
X2834229Y-4775757D02*
X2853277Y-4766233D01*
X2853277Y-4766233D02*
X2900896Y-4766233D01*
X2900896Y-4766233D02*
X2919944Y-4775757D01*
X2919944Y-4775757D02*
X2929468Y-4785281D01*
X2929468Y-4785281D02*
X2938991Y-4804329D01*
X2938991Y-4804329D02*
X2938991Y-4823376D01*
X2938991Y-4823376D02*
X2929468Y-4851948D01*
X2929468Y-4851948D02*
X2815182Y-4966233D01*
X2815182Y-4966233D02*
X2938991Y-4966233D01*
X3177087Y-4966233D02*
X3177087Y-4766233D01*
X3262801Y-4966233D02*
X3262801Y-4861472D01*
X3262801Y-4861472D02*
X3253277Y-4842424D01*
X3253277Y-4842424D02*
X3234230Y-4832900D01*
X3234230Y-4832900D02*
X3205658Y-4832900D01*
X3205658Y-4832900D02*
X3186610Y-4842424D01*
X3186610Y-4842424D02*
X3177087Y-4851948D01*
X3386610Y-4966233D02*
X3367563Y-4956710D01*
X3367563Y-4956710D02*
X3358039Y-4947186D01*
X3358039Y-4947186D02*
X3348515Y-4928138D01*
X3348515Y-4928138D02*
X3348515Y-4870995D01*
X3348515Y-4870995D02*
X3358039Y-4851948D01*
X3358039Y-4851948D02*
X3367563Y-4842424D01*
X3367563Y-4842424D02*
X3386610Y-4832900D01*
X3386610Y-4832900D02*
X3415182Y-4832900D01*
X3415182Y-4832900D02*
X3434230Y-4842424D01*
X3434230Y-4842424D02*
X3443753Y-4851948D01*
X3443753Y-4851948D02*
X3453277Y-4870995D01*
X3453277Y-4870995D02*
X3453277Y-4928138D01*
X3453277Y-4928138D02*
X3443753Y-4947186D01*
X3443753Y-4947186D02*
X3434230Y-4956710D01*
X3434230Y-4956710D02*
X3415182Y-4966233D01*
X3415182Y-4966233D02*
X3386610Y-4966233D01*
X3567563Y-4966233D02*
X3548515Y-4956710D01*
X3548515Y-4956710D02*
X3538991Y-4937662D01*
X3538991Y-4937662D02*
X3538991Y-4766233D01*
X3719944Y-4956710D02*
X3700896Y-4966233D01*
X3700896Y-4966233D02*
X3662801Y-4966233D01*
X3662801Y-4966233D02*
X3643753Y-4956710D01*
X3643753Y-4956710D02*
X3634230Y-4937662D01*
X3634230Y-4937662D02*
X3634230Y-4861472D01*
X3634230Y-4861472D02*
X3643753Y-4842424D01*
X3643753Y-4842424D02*
X3662801Y-4832900D01*
X3662801Y-4832900D02*
X3700896Y-4832900D01*
X3700896Y-4832900D02*
X3719944Y-4842424D01*
X3719944Y-4842424D02*
X3729468Y-4861472D01*
X3729468Y-4861472D02*
X3729468Y-4880519D01*
X3729468Y-4880519D02*
X3634230Y-4899567D01*
X3805658Y-4956710D02*
X3824706Y-4966233D01*
X3824706Y-4966233D02*
X3862801Y-4966233D01*
X3862801Y-4966233D02*
X3881849Y-4956710D01*
X3881849Y-4956710D02*
X3891372Y-4937662D01*
X3891372Y-4937662D02*
X3891372Y-4928138D01*
X3891372Y-4928138D02*
X3881849Y-4909091D01*
X3881849Y-4909091D02*
X3862801Y-4899567D01*
X3862801Y-4899567D02*
X3834230Y-4899567D01*
X3834230Y-4899567D02*
X3815182Y-4890043D01*
X3815182Y-4890043D02*
X3805658Y-4870995D01*
X3805658Y-4870995D02*
X3805658Y-4861472D01*
X3805658Y-4861472D02*
X3815182Y-4842424D01*
X3815182Y-4842424D02*
X3834230Y-4832900D01*
X3834230Y-4832900D02*
X3862801Y-4832900D01*
X3862801Y-4832900D02*
X3881849Y-4842424D01*
X3958039Y-5042424D02*
X3967563Y-5032900D01*
X3967563Y-5032900D02*
X3986611Y-5004329D01*
X3986611Y-5004329D02*
X3996134Y-4985281D01*
X3996134Y-4985281D02*
X4005658Y-4956710D01*
X4005658Y-4956710D02*
X4015182Y-4909091D01*
X4015182Y-4909091D02*
X4015182Y-4870995D01*
X4015182Y-4870995D02*
X4005658Y-4823376D01*
X4005658Y-4823376D02*
X3996134Y-4794805D01*
X3996134Y-4794805D02*
X3986611Y-4775757D01*
X3986611Y-4775757D02*
X3967563Y-4747186D01*
X3967563Y-4747186D02*
X3958039Y-4737662D01*
D12*
X-1007500Y-5138750D02*
G75*
G02*
X-1097500Y-5138750I-45000J0D01*
G01*
X-1097500Y-5138750D02*
G75*
G02*
X-1007500Y-5138750I45000J0D01*
G01*
D11*
X-708628Y-5030233D02*
X-689580Y-5030233D01*
X-689580Y-5030233D02*
X-670533Y-5039757D01*
X-670533Y-5039757D02*
X-661009Y-5049281D01*
X-661009Y-5049281D02*
X-651485Y-5068329D01*
X-651485Y-5068329D02*
X-641961Y-5106424D01*
X-641961Y-5106424D02*
X-641961Y-5154043D01*
X-641961Y-5154043D02*
X-651485Y-5192138D01*
X-651485Y-5192138D02*
X-661009Y-5211186D01*
X-661009Y-5211186D02*
X-670533Y-5220710D01*
X-670533Y-5220710D02*
X-689580Y-5230233D01*
X-689580Y-5230233D02*
X-708628Y-5230233D01*
X-708628Y-5230233D02*
X-727675Y-5220710D01*
X-727675Y-5220710D02*
X-737199Y-5211186D01*
X-737199Y-5211186D02*
X-746723Y-5192138D01*
X-746723Y-5192138D02*
X-756247Y-5154043D01*
X-756247Y-5154043D02*
X-756247Y-5106424D01*
X-756247Y-5106424D02*
X-746723Y-5068329D01*
X-746723Y-5068329D02*
X-737199Y-5049281D01*
X-737199Y-5049281D02*
X-727675Y-5039757D01*
X-727675Y-5039757D02*
X-708628Y-5030233D01*
X-556247Y-5211186D02*
X-546723Y-5220710D01*
X-546723Y-5220710D02*
X-556247Y-5230233D01*
X-556247Y-5230233D02*
X-565771Y-5220710D01*
X-565771Y-5220710D02*
X-556247Y-5211186D01*
X-556247Y-5211186D02*
X-556247Y-5230233D01*
X-451485Y-5230233D02*
X-413390Y-5230233D01*
X-413390Y-5230233D02*
X-394342Y-5220710D01*
X-394342Y-5220710D02*
X-384818Y-5211186D01*
X-384818Y-5211186D02*
X-365771Y-5182614D01*
X-365771Y-5182614D02*
X-356247Y-5144519D01*
X-356247Y-5144519D02*
X-356247Y-5068329D01*
X-356247Y-5068329D02*
X-365771Y-5049281D01*
X-365771Y-5049281D02*
X-375294Y-5039757D01*
X-375294Y-5039757D02*
X-394342Y-5030233D01*
X-394342Y-5030233D02*
X-432437Y-5030233D01*
X-432437Y-5030233D02*
X-451485Y-5039757D01*
X-451485Y-5039757D02*
X-461009Y-5049281D01*
X-461009Y-5049281D02*
X-470533Y-5068329D01*
X-470533Y-5068329D02*
X-470533Y-5115948D01*
X-470533Y-5115948D02*
X-461009Y-5134995D01*
X-461009Y-5134995D02*
X-451485Y-5144519D01*
X-451485Y-5144519D02*
X-432437Y-5154043D01*
X-432437Y-5154043D02*
X-394342Y-5154043D01*
X-394342Y-5154043D02*
X-375294Y-5144519D01*
X-375294Y-5144519D02*
X-365771Y-5134995D01*
X-365771Y-5134995D02*
X-356247Y-5115948D01*
X-232437Y-5030233D02*
X-213390Y-5030233D01*
X-213390Y-5030233D02*
X-194342Y-5039757D01*
X-194342Y-5039757D02*
X-184818Y-5049281D01*
X-184818Y-5049281D02*
X-175294Y-5068329D01*
X-175294Y-5068329D02*
X-165771Y-5106424D01*
X-165771Y-5106424D02*
X-165771Y-5154043D01*
X-165771Y-5154043D02*
X-175294Y-5192138D01*
X-175294Y-5192138D02*
X-184818Y-5211186D01*
X-184818Y-5211186D02*
X-194342Y-5220710D01*
X-194342Y-5220710D02*
X-213390Y-5230233D01*
X-213390Y-5230233D02*
X-232437Y-5230233D01*
X-232437Y-5230233D02*
X-251485Y-5220710D01*
X-251485Y-5220710D02*
X-261009Y-5211186D01*
X-261009Y-5211186D02*
X-270533Y-5192138D01*
X-270533Y-5192138D02*
X-280056Y-5154043D01*
X-280056Y-5154043D02*
X-280056Y-5106424D01*
X-280056Y-5106424D02*
X-270533Y-5068329D01*
X-270533Y-5068329D02*
X-261009Y-5049281D01*
X-261009Y-5049281D02*
X-251485Y-5039757D01*
X-251485Y-5039757D02*
X-232437Y-5030233D01*
X-41961Y-5030233D02*
X-22913Y-5030233D01*
X-22913Y-5030233D02*
X-3866Y-5039757D01*
X-3866Y-5039757D02*
X5658Y-5049281D01*
X5658Y-5049281D02*
X15182Y-5068329D01*
X15182Y-5068329D02*
X24705Y-5106424D01*
X24705Y-5106424D02*
X24705Y-5154043D01*
X24705Y-5154043D02*
X15182Y-5192138D01*
X15182Y-5192138D02*
X5658Y-5211186D01*
X5658Y-5211186D02*
X-3866Y-5220710D01*
X-3866Y-5220710D02*
X-22913Y-5230233D01*
X-22913Y-5230233D02*
X-41961Y-5230233D01*
X-41961Y-5230233D02*
X-61009Y-5220710D01*
X-61009Y-5220710D02*
X-70533Y-5211186D01*
X-70533Y-5211186D02*
X-80056Y-5192138D01*
X-80056Y-5192138D02*
X-89580Y-5154043D01*
X-89580Y-5154043D02*
X-89580Y-5106424D01*
X-89580Y-5106424D02*
X-80056Y-5068329D01*
X-80056Y-5068329D02*
X-70533Y-5049281D01*
X-70533Y-5049281D02*
X-61009Y-5039757D01*
X-61009Y-5039757D02*
X-41961Y-5030233D01*
X110420Y-5230233D02*
X110420Y-5096900D01*
X110420Y-5115948D02*
X119943Y-5106424D01*
X119943Y-5106424D02*
X138991Y-5096900D01*
X138991Y-5096900D02*
X167563Y-5096900D01*
X167563Y-5096900D02*
X186610Y-5106424D01*
X186610Y-5106424D02*
X196134Y-5125472D01*
X196134Y-5125472D02*
X196134Y-5230233D01*
X196134Y-5125472D02*
X205658Y-5106424D01*
X205658Y-5106424D02*
X224705Y-5096900D01*
X224705Y-5096900D02*
X253277Y-5096900D01*
X253277Y-5096900D02*
X272325Y-5106424D01*
X272325Y-5106424D02*
X281848Y-5125472D01*
X281848Y-5125472D02*
X281848Y-5230233D01*
X377086Y-5230233D02*
X377086Y-5096900D01*
X377086Y-5115948D02*
X386610Y-5106424D01*
X386610Y-5106424D02*
X405658Y-5096900D01*
X405658Y-5096900D02*
X434229Y-5096900D01*
X434229Y-5096900D02*
X453277Y-5106424D01*
X453277Y-5106424D02*
X462801Y-5125472D01*
X462801Y-5125472D02*
X462801Y-5230233D01*
X462801Y-5125472D02*
X472324Y-5106424D01*
X472324Y-5106424D02*
X491372Y-5096900D01*
X491372Y-5096900D02*
X519943Y-5096900D01*
X519943Y-5096900D02*
X538991Y-5106424D01*
X538991Y-5106424D02*
X548515Y-5125472D01*
X548515Y-5125472D02*
X548515Y-5230233D01*
X938991Y-5020710D02*
X767563Y-5277852D01*
X1196134Y-5030233D02*
X1215182Y-5030233D01*
X1215182Y-5030233D02*
X1234229Y-5039757D01*
X1234229Y-5039757D02*
X1243753Y-5049281D01*
X1243753Y-5049281D02*
X1253277Y-5068329D01*
X1253277Y-5068329D02*
X1262801Y-5106424D01*
X1262801Y-5106424D02*
X1262801Y-5154043D01*
X1262801Y-5154043D02*
X1253277Y-5192138D01*
X1253277Y-5192138D02*
X1243753Y-5211186D01*
X1243753Y-5211186D02*
X1234229Y-5220710D01*
X1234229Y-5220710D02*
X1215182Y-5230233D01*
X1215182Y-5230233D02*
X1196134Y-5230233D01*
X1196134Y-5230233D02*
X1177087Y-5220710D01*
X1177087Y-5220710D02*
X1167563Y-5211186D01*
X1167563Y-5211186D02*
X1158039Y-5192138D01*
X1158039Y-5192138D02*
X1148515Y-5154043D01*
X1148515Y-5154043D02*
X1148515Y-5106424D01*
X1148515Y-5106424D02*
X1158039Y-5068329D01*
X1158039Y-5068329D02*
X1167563Y-5049281D01*
X1167563Y-5049281D02*
X1177087Y-5039757D01*
X1177087Y-5039757D02*
X1196134Y-5030233D01*
X1348515Y-5211186D02*
X1358039Y-5220710D01*
X1358039Y-5220710D02*
X1348515Y-5230233D01*
X1348515Y-5230233D02*
X1338991Y-5220710D01*
X1338991Y-5220710D02*
X1348515Y-5211186D01*
X1348515Y-5211186D02*
X1348515Y-5230233D01*
X1481848Y-5030233D02*
X1500896Y-5030233D01*
X1500896Y-5030233D02*
X1519944Y-5039757D01*
X1519944Y-5039757D02*
X1529467Y-5049281D01*
X1529467Y-5049281D02*
X1538991Y-5068329D01*
X1538991Y-5068329D02*
X1548515Y-5106424D01*
X1548515Y-5106424D02*
X1548515Y-5154043D01*
X1548515Y-5154043D02*
X1538991Y-5192138D01*
X1538991Y-5192138D02*
X1529467Y-5211186D01*
X1529467Y-5211186D02*
X1519944Y-5220710D01*
X1519944Y-5220710D02*
X1500896Y-5230233D01*
X1500896Y-5230233D02*
X1481848Y-5230233D01*
X1481848Y-5230233D02*
X1462801Y-5220710D01*
X1462801Y-5220710D02*
X1453277Y-5211186D01*
X1453277Y-5211186D02*
X1443753Y-5192138D01*
X1443753Y-5192138D02*
X1434229Y-5154043D01*
X1434229Y-5154043D02*
X1434229Y-5106424D01*
X1434229Y-5106424D02*
X1443753Y-5068329D01*
X1443753Y-5068329D02*
X1453277Y-5049281D01*
X1453277Y-5049281D02*
X1462801Y-5039757D01*
X1462801Y-5039757D02*
X1481848Y-5030233D01*
X1615182Y-5030233D02*
X1738991Y-5030233D01*
X1738991Y-5030233D02*
X1672325Y-5106424D01*
X1672325Y-5106424D02*
X1700896Y-5106424D01*
X1700896Y-5106424D02*
X1719944Y-5115948D01*
X1719944Y-5115948D02*
X1729467Y-5125472D01*
X1729467Y-5125472D02*
X1738991Y-5144519D01*
X1738991Y-5144519D02*
X1738991Y-5192138D01*
X1738991Y-5192138D02*
X1729467Y-5211186D01*
X1729467Y-5211186D02*
X1719944Y-5220710D01*
X1719944Y-5220710D02*
X1700896Y-5230233D01*
X1700896Y-5230233D02*
X1643753Y-5230233D01*
X1643753Y-5230233D02*
X1624706Y-5220710D01*
X1624706Y-5220710D02*
X1615182Y-5211186D01*
X1919944Y-5030233D02*
X1824706Y-5030233D01*
X1824706Y-5030233D02*
X1815182Y-5125472D01*
X1815182Y-5125472D02*
X1824706Y-5115948D01*
X1824706Y-5115948D02*
X1843753Y-5106424D01*
X1843753Y-5106424D02*
X1891372Y-5106424D01*
X1891372Y-5106424D02*
X1910420Y-5115948D01*
X1910420Y-5115948D02*
X1919944Y-5125472D01*
X1919944Y-5125472D02*
X1929467Y-5144519D01*
X1929467Y-5144519D02*
X1929467Y-5192138D01*
X1929467Y-5192138D02*
X1919944Y-5211186D01*
X1919944Y-5211186D02*
X1910420Y-5220710D01*
X1910420Y-5220710D02*
X1891372Y-5230233D01*
X1891372Y-5230233D02*
X1843753Y-5230233D01*
X1843753Y-5230233D02*
X1824706Y-5220710D01*
X1824706Y-5220710D02*
X1815182Y-5211186D01*
X2100896Y-5096900D02*
X2100896Y-5230233D01*
X2053277Y-5020710D02*
X2005658Y-5163567D01*
X2005658Y-5163567D02*
X2129468Y-5163567D01*
X2196134Y-5030233D02*
X2196134Y-5068329D01*
X2272325Y-5030233D02*
X2272325Y-5068329D01*
X2567563Y-5306424D02*
X2558039Y-5296900D01*
X2558039Y-5296900D02*
X2538991Y-5268329D01*
X2538991Y-5268329D02*
X2529468Y-5249281D01*
X2529468Y-5249281D02*
X2519944Y-5220710D01*
X2519944Y-5220710D02*
X2510420Y-5173091D01*
X2510420Y-5173091D02*
X2510420Y-5134995D01*
X2510420Y-5134995D02*
X2519944Y-5087376D01*
X2519944Y-5087376D02*
X2529468Y-5058805D01*
X2529468Y-5058805D02*
X2538991Y-5039757D01*
X2538991Y-5039757D02*
X2558039Y-5011186D01*
X2558039Y-5011186D02*
X2567563Y-5001662D01*
X2681849Y-5030233D02*
X2700896Y-5030233D01*
X2700896Y-5030233D02*
X2719944Y-5039757D01*
X2719944Y-5039757D02*
X2729468Y-5049281D01*
X2729468Y-5049281D02*
X2738991Y-5068329D01*
X2738991Y-5068329D02*
X2748515Y-5106424D01*
X2748515Y-5106424D02*
X2748515Y-5154043D01*
X2748515Y-5154043D02*
X2738991Y-5192138D01*
X2738991Y-5192138D02*
X2729468Y-5211186D01*
X2729468Y-5211186D02*
X2719944Y-5220710D01*
X2719944Y-5220710D02*
X2700896Y-5230233D01*
X2700896Y-5230233D02*
X2681849Y-5230233D01*
X2681849Y-5230233D02*
X2662801Y-5220710D01*
X2662801Y-5220710D02*
X2653277Y-5211186D01*
X2653277Y-5211186D02*
X2643753Y-5192138D01*
X2643753Y-5192138D02*
X2634230Y-5154043D01*
X2634230Y-5154043D02*
X2634230Y-5106424D01*
X2634230Y-5106424D02*
X2643753Y-5068329D01*
X2643753Y-5068329D02*
X2653277Y-5049281D01*
X2653277Y-5049281D02*
X2662801Y-5039757D01*
X2662801Y-5039757D02*
X2681849Y-5030233D01*
X2986610Y-5230233D02*
X2986610Y-5030233D01*
X3072325Y-5230233D02*
X3072325Y-5125472D01*
X3072325Y-5125472D02*
X3062801Y-5106424D01*
X3062801Y-5106424D02*
X3043753Y-5096900D01*
X3043753Y-5096900D02*
X3015182Y-5096900D01*
X3015182Y-5096900D02*
X2996134Y-5106424D01*
X2996134Y-5106424D02*
X2986610Y-5115948D01*
X3196134Y-5230233D02*
X3177087Y-5220710D01*
X3177087Y-5220710D02*
X3167563Y-5211186D01*
X3167563Y-5211186D02*
X3158039Y-5192138D01*
X3158039Y-5192138D02*
X3158039Y-5134995D01*
X3158039Y-5134995D02*
X3167563Y-5115948D01*
X3167563Y-5115948D02*
X3177087Y-5106424D01*
X3177087Y-5106424D02*
X3196134Y-5096900D01*
X3196134Y-5096900D02*
X3224706Y-5096900D01*
X3224706Y-5096900D02*
X3243753Y-5106424D01*
X3243753Y-5106424D02*
X3253277Y-5115948D01*
X3253277Y-5115948D02*
X3262801Y-5134995D01*
X3262801Y-5134995D02*
X3262801Y-5192138D01*
X3262801Y-5192138D02*
X3253277Y-5211186D01*
X3253277Y-5211186D02*
X3243753Y-5220710D01*
X3243753Y-5220710D02*
X3224706Y-5230233D01*
X3224706Y-5230233D02*
X3196134Y-5230233D01*
X3377087Y-5230233D02*
X3358039Y-5220710D01*
X3358039Y-5220710D02*
X3348515Y-5201662D01*
X3348515Y-5201662D02*
X3348515Y-5030233D01*
X3529468Y-5220710D02*
X3510420Y-5230233D01*
X3510420Y-5230233D02*
X3472325Y-5230233D01*
X3472325Y-5230233D02*
X3453277Y-5220710D01*
X3453277Y-5220710D02*
X3443753Y-5201662D01*
X3443753Y-5201662D02*
X3443753Y-5125472D01*
X3443753Y-5125472D02*
X3453277Y-5106424D01*
X3453277Y-5106424D02*
X3472325Y-5096900D01*
X3472325Y-5096900D02*
X3510420Y-5096900D01*
X3510420Y-5096900D02*
X3529468Y-5106424D01*
X3529468Y-5106424D02*
X3538991Y-5125472D01*
X3538991Y-5125472D02*
X3538991Y-5144519D01*
X3538991Y-5144519D02*
X3443753Y-5163567D01*
X3615182Y-5220710D02*
X3634230Y-5230233D01*
X3634230Y-5230233D02*
X3672325Y-5230233D01*
X3672325Y-5230233D02*
X3691372Y-5220710D01*
X3691372Y-5220710D02*
X3700896Y-5201662D01*
X3700896Y-5201662D02*
X3700896Y-5192138D01*
X3700896Y-5192138D02*
X3691372Y-5173091D01*
X3691372Y-5173091D02*
X3672325Y-5163567D01*
X3672325Y-5163567D02*
X3643753Y-5163567D01*
X3643753Y-5163567D02*
X3624706Y-5154043D01*
X3624706Y-5154043D02*
X3615182Y-5134995D01*
X3615182Y-5134995D02*
X3615182Y-5125472D01*
X3615182Y-5125472D02*
X3624706Y-5106424D01*
X3624706Y-5106424D02*
X3643753Y-5096900D01*
X3643753Y-5096900D02*
X3672325Y-5096900D01*
X3672325Y-5096900D02*
X3691372Y-5106424D01*
X3938992Y-5154043D02*
X4091373Y-5154043D01*
X4015182Y-5230233D02*
X4015182Y-5077852D01*
X4367563Y-5115948D02*
X4348515Y-5106424D01*
X4348515Y-5106424D02*
X4338992Y-5096900D01*
X4338992Y-5096900D02*
X4329468Y-5077852D01*
X4329468Y-5077852D02*
X4329468Y-5068329D01*
X4329468Y-5068329D02*
X4338992Y-5049281D01*
X4338992Y-5049281D02*
X4348515Y-5039757D01*
X4348515Y-5039757D02*
X4367563Y-5030233D01*
X4367563Y-5030233D02*
X4405658Y-5030233D01*
X4405658Y-5030233D02*
X4424706Y-5039757D01*
X4424706Y-5039757D02*
X4434230Y-5049281D01*
X4434230Y-5049281D02*
X4443754Y-5068329D01*
X4443754Y-5068329D02*
X4443754Y-5077852D01*
X4443754Y-5077852D02*
X4434230Y-5096900D01*
X4434230Y-5096900D02*
X4424706Y-5106424D01*
X4424706Y-5106424D02*
X4405658Y-5115948D01*
X4405658Y-5115948D02*
X4367563Y-5115948D01*
X4367563Y-5115948D02*
X4348515Y-5125472D01*
X4348515Y-5125472D02*
X4338992Y-5134995D01*
X4338992Y-5134995D02*
X4329468Y-5154043D01*
X4329468Y-5154043D02*
X4329468Y-5192138D01*
X4329468Y-5192138D02*
X4338992Y-5211186D01*
X4338992Y-5211186D02*
X4348515Y-5220710D01*
X4348515Y-5220710D02*
X4367563Y-5230233D01*
X4367563Y-5230233D02*
X4405658Y-5230233D01*
X4405658Y-5230233D02*
X4424706Y-5220710D01*
X4424706Y-5220710D02*
X4434230Y-5211186D01*
X4434230Y-5211186D02*
X4443754Y-5192138D01*
X4443754Y-5192138D02*
X4443754Y-5154043D01*
X4443754Y-5154043D02*
X4434230Y-5134995D01*
X4434230Y-5134995D02*
X4424706Y-5125472D01*
X4424706Y-5125472D02*
X4405658Y-5115948D01*
X4672325Y-5220710D02*
X4691373Y-5230233D01*
X4691373Y-5230233D02*
X4729468Y-5230233D01*
X4729468Y-5230233D02*
X4748516Y-5220710D01*
X4748516Y-5220710D02*
X4758039Y-5201662D01*
X4758039Y-5201662D02*
X4758039Y-5192138D01*
X4758039Y-5192138D02*
X4748516Y-5173091D01*
X4748516Y-5173091D02*
X4729468Y-5163567D01*
X4729468Y-5163567D02*
X4700896Y-5163567D01*
X4700896Y-5163567D02*
X4681849Y-5154043D01*
X4681849Y-5154043D02*
X4672325Y-5134995D01*
X4672325Y-5134995D02*
X4672325Y-5125472D01*
X4672325Y-5125472D02*
X4681849Y-5106424D01*
X4681849Y-5106424D02*
X4700896Y-5096900D01*
X4700896Y-5096900D02*
X4729468Y-5096900D01*
X4729468Y-5096900D02*
X4748516Y-5106424D01*
X4872325Y-5230233D02*
X4853277Y-5220710D01*
X4853277Y-5220710D02*
X4843754Y-5201662D01*
X4843754Y-5201662D02*
X4843754Y-5030233D01*
X4977087Y-5230233D02*
X4958039Y-5220710D01*
X4958039Y-5220710D02*
X4948516Y-5211186D01*
X4948516Y-5211186D02*
X4938992Y-5192138D01*
X4938992Y-5192138D02*
X4938992Y-5134995D01*
X4938992Y-5134995D02*
X4948516Y-5115948D01*
X4948516Y-5115948D02*
X4958039Y-5106424D01*
X4958039Y-5106424D02*
X4977087Y-5096900D01*
X4977087Y-5096900D02*
X5005658Y-5096900D01*
X5005658Y-5096900D02*
X5024706Y-5106424D01*
X5024706Y-5106424D02*
X5034230Y-5115948D01*
X5034230Y-5115948D02*
X5043754Y-5134995D01*
X5043754Y-5134995D02*
X5043754Y-5192138D01*
X5043754Y-5192138D02*
X5034230Y-5211186D01*
X5034230Y-5211186D02*
X5024706Y-5220710D01*
X5024706Y-5220710D02*
X5005658Y-5230233D01*
X5005658Y-5230233D02*
X4977087Y-5230233D01*
X5100897Y-5096900D02*
X5177087Y-5096900D01*
X5129468Y-5030233D02*
X5129468Y-5201662D01*
X5129468Y-5201662D02*
X5138992Y-5220710D01*
X5138992Y-5220710D02*
X5158039Y-5230233D01*
X5158039Y-5230233D02*
X5177087Y-5230233D01*
X5234230Y-5220710D02*
X5253277Y-5230233D01*
X5253277Y-5230233D02*
X5291373Y-5230233D01*
X5291373Y-5230233D02*
X5310420Y-5220710D01*
X5310420Y-5220710D02*
X5319944Y-5201662D01*
X5319944Y-5201662D02*
X5319944Y-5192138D01*
X5319944Y-5192138D02*
X5310420Y-5173091D01*
X5310420Y-5173091D02*
X5291373Y-5163567D01*
X5291373Y-5163567D02*
X5262801Y-5163567D01*
X5262801Y-5163567D02*
X5243754Y-5154043D01*
X5243754Y-5154043D02*
X5234230Y-5134995D01*
X5234230Y-5134995D02*
X5234230Y-5125472D01*
X5234230Y-5125472D02*
X5243754Y-5106424D01*
X5243754Y-5106424D02*
X5262801Y-5096900D01*
X5262801Y-5096900D02*
X5291373Y-5096900D01*
X5291373Y-5096900D02*
X5310420Y-5106424D01*
X5386611Y-5306424D02*
X5396135Y-5296900D01*
X5396135Y-5296900D02*
X5415182Y-5268329D01*
X5415182Y-5268329D02*
X5424706Y-5249281D01*
X5424706Y-5249281D02*
X5434230Y-5220710D01*
X5434230Y-5220710D02*
X5443754Y-5173091D01*
X5443754Y-5173091D02*
X5443754Y-5134995D01*
X5443754Y-5134995D02*
X5434230Y-5087376D01*
X5434230Y-5087376D02*
X5424706Y-5058805D01*
X5424706Y-5058805D02*
X5415182Y-5039757D01*
X5415182Y-5039757D02*
X5396135Y-5011186D01*
X5396135Y-5011186D02*
X5386611Y-5001662D01*
D12*
X-1057030Y-5353220D02*
X-1057030Y-5452280D01*
X-1106560Y-5402750D02*
X-1007500Y-5402750D01*
D11*
X-708628Y-5294233D02*
X-689580Y-5294233D01*
X-689580Y-5294233D02*
X-670533Y-5303757D01*
X-670533Y-5303757D02*
X-661009Y-5313281D01*
X-661009Y-5313281D02*
X-651485Y-5332329D01*
X-651485Y-5332329D02*
X-641961Y-5370424D01*
X-641961Y-5370424D02*
X-641961Y-5418043D01*
X-641961Y-5418043D02*
X-651485Y-5456138D01*
X-651485Y-5456138D02*
X-661009Y-5475186D01*
X-661009Y-5475186D02*
X-670533Y-5484710D01*
X-670533Y-5484710D02*
X-689580Y-5494233D01*
X-689580Y-5494233D02*
X-708628Y-5494233D01*
X-708628Y-5494233D02*
X-727675Y-5484710D01*
X-727675Y-5484710D02*
X-737199Y-5475186D01*
X-737199Y-5475186D02*
X-746723Y-5456138D01*
X-746723Y-5456138D02*
X-756247Y-5418043D01*
X-756247Y-5418043D02*
X-756247Y-5370424D01*
X-756247Y-5370424D02*
X-746723Y-5332329D01*
X-746723Y-5332329D02*
X-737199Y-5313281D01*
X-737199Y-5313281D02*
X-727675Y-5303757D01*
X-727675Y-5303757D02*
X-708628Y-5294233D01*
X-556247Y-5475186D02*
X-546723Y-5484710D01*
X-546723Y-5484710D02*
X-556247Y-5494233D01*
X-556247Y-5494233D02*
X-565771Y-5484710D01*
X-565771Y-5484710D02*
X-556247Y-5475186D01*
X-556247Y-5475186D02*
X-556247Y-5494233D01*
X-451485Y-5494233D02*
X-413390Y-5494233D01*
X-413390Y-5494233D02*
X-394342Y-5484710D01*
X-394342Y-5484710D02*
X-384818Y-5475186D01*
X-384818Y-5475186D02*
X-365771Y-5446614D01*
X-365771Y-5446614D02*
X-356247Y-5408519D01*
X-356247Y-5408519D02*
X-356247Y-5332329D01*
X-356247Y-5332329D02*
X-365771Y-5313281D01*
X-365771Y-5313281D02*
X-375294Y-5303757D01*
X-375294Y-5303757D02*
X-394342Y-5294233D01*
X-394342Y-5294233D02*
X-432437Y-5294233D01*
X-432437Y-5294233D02*
X-451485Y-5303757D01*
X-451485Y-5303757D02*
X-461009Y-5313281D01*
X-461009Y-5313281D02*
X-470533Y-5332329D01*
X-470533Y-5332329D02*
X-470533Y-5379948D01*
X-470533Y-5379948D02*
X-461009Y-5398995D01*
X-461009Y-5398995D02*
X-451485Y-5408519D01*
X-451485Y-5408519D02*
X-432437Y-5418043D01*
X-432437Y-5418043D02*
X-394342Y-5418043D01*
X-394342Y-5418043D02*
X-375294Y-5408519D01*
X-375294Y-5408519D02*
X-365771Y-5398995D01*
X-365771Y-5398995D02*
X-356247Y-5379948D01*
X-261009Y-5494233D02*
X-222914Y-5494233D01*
X-222914Y-5494233D02*
X-203866Y-5484710D01*
X-203866Y-5484710D02*
X-194342Y-5475186D01*
X-194342Y-5475186D02*
X-175294Y-5446614D01*
X-175294Y-5446614D02*
X-165771Y-5408519D01*
X-165771Y-5408519D02*
X-165771Y-5332329D01*
X-165771Y-5332329D02*
X-175294Y-5313281D01*
X-175294Y-5313281D02*
X-184818Y-5303757D01*
X-184818Y-5303757D02*
X-203866Y-5294233D01*
X-203866Y-5294233D02*
X-241961Y-5294233D01*
X-241961Y-5294233D02*
X-261009Y-5303757D01*
X-261009Y-5303757D02*
X-270533Y-5313281D01*
X-270533Y-5313281D02*
X-280056Y-5332329D01*
X-280056Y-5332329D02*
X-280056Y-5379948D01*
X-280056Y-5379948D02*
X-270533Y-5398995D01*
X-270533Y-5398995D02*
X-261009Y-5408519D01*
X-261009Y-5408519D02*
X-241961Y-5418043D01*
X-241961Y-5418043D02*
X-203866Y-5418043D01*
X-203866Y-5418043D02*
X-184818Y-5408519D01*
X-184818Y-5408519D02*
X-175294Y-5398995D01*
X-175294Y-5398995D02*
X-165771Y-5379948D01*
X24705Y-5494233D02*
X-89580Y-5494233D01*
X-32437Y-5494233D02*
X-32437Y-5294233D01*
X-32437Y-5294233D02*
X-51485Y-5322805D01*
X-51485Y-5322805D02*
X-70533Y-5341852D01*
X-70533Y-5341852D02*
X-89580Y-5351376D01*
X110420Y-5494233D02*
X110420Y-5360900D01*
X110420Y-5379948D02*
X119943Y-5370424D01*
X119943Y-5370424D02*
X138991Y-5360900D01*
X138991Y-5360900D02*
X167563Y-5360900D01*
X167563Y-5360900D02*
X186610Y-5370424D01*
X186610Y-5370424D02*
X196134Y-5389472D01*
X196134Y-5389472D02*
X196134Y-5494233D01*
X196134Y-5389472D02*
X205658Y-5370424D01*
X205658Y-5370424D02*
X224705Y-5360900D01*
X224705Y-5360900D02*
X253277Y-5360900D01*
X253277Y-5360900D02*
X272325Y-5370424D01*
X272325Y-5370424D02*
X281848Y-5389472D01*
X281848Y-5389472D02*
X281848Y-5494233D01*
X377086Y-5494233D02*
X377086Y-5360900D01*
X377086Y-5379948D02*
X386610Y-5370424D01*
X386610Y-5370424D02*
X405658Y-5360900D01*
X405658Y-5360900D02*
X434229Y-5360900D01*
X434229Y-5360900D02*
X453277Y-5370424D01*
X453277Y-5370424D02*
X462801Y-5389472D01*
X462801Y-5389472D02*
X462801Y-5494233D01*
X462801Y-5389472D02*
X472324Y-5370424D01*
X472324Y-5370424D02*
X491372Y-5360900D01*
X491372Y-5360900D02*
X519943Y-5360900D01*
X519943Y-5360900D02*
X538991Y-5370424D01*
X538991Y-5370424D02*
X548515Y-5389472D01*
X548515Y-5389472D02*
X548515Y-5494233D01*
X938991Y-5284710D02*
X767563Y-5541852D01*
X1196134Y-5294233D02*
X1215182Y-5294233D01*
X1215182Y-5294233D02*
X1234229Y-5303757D01*
X1234229Y-5303757D02*
X1243753Y-5313281D01*
X1243753Y-5313281D02*
X1253277Y-5332329D01*
X1253277Y-5332329D02*
X1262801Y-5370424D01*
X1262801Y-5370424D02*
X1262801Y-5418043D01*
X1262801Y-5418043D02*
X1253277Y-5456138D01*
X1253277Y-5456138D02*
X1243753Y-5475186D01*
X1243753Y-5475186D02*
X1234229Y-5484710D01*
X1234229Y-5484710D02*
X1215182Y-5494233D01*
X1215182Y-5494233D02*
X1196134Y-5494233D01*
X1196134Y-5494233D02*
X1177087Y-5484710D01*
X1177087Y-5484710D02*
X1167563Y-5475186D01*
X1167563Y-5475186D02*
X1158039Y-5456138D01*
X1158039Y-5456138D02*
X1148515Y-5418043D01*
X1148515Y-5418043D02*
X1148515Y-5370424D01*
X1148515Y-5370424D02*
X1158039Y-5332329D01*
X1158039Y-5332329D02*
X1167563Y-5313281D01*
X1167563Y-5313281D02*
X1177087Y-5303757D01*
X1177087Y-5303757D02*
X1196134Y-5294233D01*
X1348515Y-5475186D02*
X1358039Y-5484710D01*
X1358039Y-5484710D02*
X1348515Y-5494233D01*
X1348515Y-5494233D02*
X1338991Y-5484710D01*
X1338991Y-5484710D02*
X1348515Y-5475186D01*
X1348515Y-5475186D02*
X1348515Y-5494233D01*
X1481848Y-5294233D02*
X1500896Y-5294233D01*
X1500896Y-5294233D02*
X1519944Y-5303757D01*
X1519944Y-5303757D02*
X1529467Y-5313281D01*
X1529467Y-5313281D02*
X1538991Y-5332329D01*
X1538991Y-5332329D02*
X1548515Y-5370424D01*
X1548515Y-5370424D02*
X1548515Y-5418043D01*
X1548515Y-5418043D02*
X1538991Y-5456138D01*
X1538991Y-5456138D02*
X1529467Y-5475186D01*
X1529467Y-5475186D02*
X1519944Y-5484710D01*
X1519944Y-5484710D02*
X1500896Y-5494233D01*
X1500896Y-5494233D02*
X1481848Y-5494233D01*
X1481848Y-5494233D02*
X1462801Y-5484710D01*
X1462801Y-5484710D02*
X1453277Y-5475186D01*
X1453277Y-5475186D02*
X1443753Y-5456138D01*
X1443753Y-5456138D02*
X1434229Y-5418043D01*
X1434229Y-5418043D02*
X1434229Y-5370424D01*
X1434229Y-5370424D02*
X1443753Y-5332329D01*
X1443753Y-5332329D02*
X1453277Y-5313281D01*
X1453277Y-5313281D02*
X1462801Y-5303757D01*
X1462801Y-5303757D02*
X1481848Y-5294233D01*
X1615182Y-5294233D02*
X1738991Y-5294233D01*
X1738991Y-5294233D02*
X1672325Y-5370424D01*
X1672325Y-5370424D02*
X1700896Y-5370424D01*
X1700896Y-5370424D02*
X1719944Y-5379948D01*
X1719944Y-5379948D02*
X1729467Y-5389472D01*
X1729467Y-5389472D02*
X1738991Y-5408519D01*
X1738991Y-5408519D02*
X1738991Y-5456138D01*
X1738991Y-5456138D02*
X1729467Y-5475186D01*
X1729467Y-5475186D02*
X1719944Y-5484710D01*
X1719944Y-5484710D02*
X1700896Y-5494233D01*
X1700896Y-5494233D02*
X1643753Y-5494233D01*
X1643753Y-5494233D02*
X1624706Y-5484710D01*
X1624706Y-5484710D02*
X1615182Y-5475186D01*
X1834229Y-5494233D02*
X1872325Y-5494233D01*
X1872325Y-5494233D02*
X1891372Y-5484710D01*
X1891372Y-5484710D02*
X1900896Y-5475186D01*
X1900896Y-5475186D02*
X1919944Y-5446614D01*
X1919944Y-5446614D02*
X1929467Y-5408519D01*
X1929467Y-5408519D02*
X1929467Y-5332329D01*
X1929467Y-5332329D02*
X1919944Y-5313281D01*
X1919944Y-5313281D02*
X1910420Y-5303757D01*
X1910420Y-5303757D02*
X1891372Y-5294233D01*
X1891372Y-5294233D02*
X1853277Y-5294233D01*
X1853277Y-5294233D02*
X1834229Y-5303757D01*
X1834229Y-5303757D02*
X1824706Y-5313281D01*
X1824706Y-5313281D02*
X1815182Y-5332329D01*
X1815182Y-5332329D02*
X1815182Y-5379948D01*
X1815182Y-5379948D02*
X1824706Y-5398995D01*
X1824706Y-5398995D02*
X1834229Y-5408519D01*
X1834229Y-5408519D02*
X1853277Y-5418043D01*
X1853277Y-5418043D02*
X1891372Y-5418043D01*
X1891372Y-5418043D02*
X1910420Y-5408519D01*
X1910420Y-5408519D02*
X1919944Y-5398995D01*
X1919944Y-5398995D02*
X1929467Y-5379948D01*
X2053277Y-5294233D02*
X2072325Y-5294233D01*
X2072325Y-5294233D02*
X2091372Y-5303757D01*
X2091372Y-5303757D02*
X2100896Y-5313281D01*
X2100896Y-5313281D02*
X2110420Y-5332329D01*
X2110420Y-5332329D02*
X2119944Y-5370424D01*
X2119944Y-5370424D02*
X2119944Y-5418043D01*
X2119944Y-5418043D02*
X2110420Y-5456138D01*
X2110420Y-5456138D02*
X2100896Y-5475186D01*
X2100896Y-5475186D02*
X2091372Y-5484710D01*
X2091372Y-5484710D02*
X2072325Y-5494233D01*
X2072325Y-5494233D02*
X2053277Y-5494233D01*
X2053277Y-5494233D02*
X2034229Y-5484710D01*
X2034229Y-5484710D02*
X2024706Y-5475186D01*
X2024706Y-5475186D02*
X2015182Y-5456138D01*
X2015182Y-5456138D02*
X2005658Y-5418043D01*
X2005658Y-5418043D02*
X2005658Y-5370424D01*
X2005658Y-5370424D02*
X2015182Y-5332329D01*
X2015182Y-5332329D02*
X2024706Y-5313281D01*
X2024706Y-5313281D02*
X2034229Y-5303757D01*
X2034229Y-5303757D02*
X2053277Y-5294233D01*
X2196134Y-5294233D02*
X2196134Y-5332329D01*
X2272325Y-5294233D02*
X2272325Y-5332329D01*
X2567563Y-5570424D02*
X2558039Y-5560900D01*
X2558039Y-5560900D02*
X2538991Y-5532329D01*
X2538991Y-5532329D02*
X2529468Y-5513281D01*
X2529468Y-5513281D02*
X2519944Y-5484710D01*
X2519944Y-5484710D02*
X2510420Y-5437091D01*
X2510420Y-5437091D02*
X2510420Y-5398995D01*
X2510420Y-5398995D02*
X2519944Y-5351376D01*
X2519944Y-5351376D02*
X2529468Y-5322805D01*
X2529468Y-5322805D02*
X2538991Y-5303757D01*
X2538991Y-5303757D02*
X2558039Y-5275186D01*
X2558039Y-5275186D02*
X2567563Y-5265662D01*
X2729468Y-5360900D02*
X2729468Y-5494233D01*
X2681849Y-5284710D02*
X2634230Y-5427567D01*
X2634230Y-5427567D02*
X2758039Y-5427567D01*
X2919944Y-5294233D02*
X2881848Y-5294233D01*
X2881848Y-5294233D02*
X2862801Y-5303757D01*
X2862801Y-5303757D02*
X2853277Y-5313281D01*
X2853277Y-5313281D02*
X2834229Y-5341852D01*
X2834229Y-5341852D02*
X2824706Y-5379948D01*
X2824706Y-5379948D02*
X2824706Y-5456138D01*
X2824706Y-5456138D02*
X2834229Y-5475186D01*
X2834229Y-5475186D02*
X2843753Y-5484710D01*
X2843753Y-5484710D02*
X2862801Y-5494233D01*
X2862801Y-5494233D02*
X2900896Y-5494233D01*
X2900896Y-5494233D02*
X2919944Y-5484710D01*
X2919944Y-5484710D02*
X2929468Y-5475186D01*
X2929468Y-5475186D02*
X2938991Y-5456138D01*
X2938991Y-5456138D02*
X2938991Y-5408519D01*
X2938991Y-5408519D02*
X2929468Y-5389472D01*
X2929468Y-5389472D02*
X2919944Y-5379948D01*
X2919944Y-5379948D02*
X2900896Y-5370424D01*
X2900896Y-5370424D02*
X2862801Y-5370424D01*
X2862801Y-5370424D02*
X2843753Y-5379948D01*
X2843753Y-5379948D02*
X2834229Y-5389472D01*
X2834229Y-5389472D02*
X2824706Y-5408519D01*
X3177087Y-5494233D02*
X3177087Y-5294233D01*
X3262801Y-5494233D02*
X3262801Y-5389472D01*
X3262801Y-5389472D02*
X3253277Y-5370424D01*
X3253277Y-5370424D02*
X3234230Y-5360900D01*
X3234230Y-5360900D02*
X3205658Y-5360900D01*
X3205658Y-5360900D02*
X3186610Y-5370424D01*
X3186610Y-5370424D02*
X3177087Y-5379948D01*
X3386610Y-5494233D02*
X3367563Y-5484710D01*
X3367563Y-5484710D02*
X3358039Y-5475186D01*
X3358039Y-5475186D02*
X3348515Y-5456138D01*
X3348515Y-5456138D02*
X3348515Y-5398995D01*
X3348515Y-5398995D02*
X3358039Y-5379948D01*
X3358039Y-5379948D02*
X3367563Y-5370424D01*
X3367563Y-5370424D02*
X3386610Y-5360900D01*
X3386610Y-5360900D02*
X3415182Y-5360900D01*
X3415182Y-5360900D02*
X3434230Y-5370424D01*
X3434230Y-5370424D02*
X3443753Y-5379948D01*
X3443753Y-5379948D02*
X3453277Y-5398995D01*
X3453277Y-5398995D02*
X3453277Y-5456138D01*
X3453277Y-5456138D02*
X3443753Y-5475186D01*
X3443753Y-5475186D02*
X3434230Y-5484710D01*
X3434230Y-5484710D02*
X3415182Y-5494233D01*
X3415182Y-5494233D02*
X3386610Y-5494233D01*
X3567563Y-5494233D02*
X3548515Y-5484710D01*
X3548515Y-5484710D02*
X3538991Y-5465662D01*
X3538991Y-5465662D02*
X3538991Y-5294233D01*
X3719944Y-5484710D02*
X3700896Y-5494233D01*
X3700896Y-5494233D02*
X3662801Y-5494233D01*
X3662801Y-5494233D02*
X3643753Y-5484710D01*
X3643753Y-5484710D02*
X3634230Y-5465662D01*
X3634230Y-5465662D02*
X3634230Y-5389472D01*
X3634230Y-5389472D02*
X3643753Y-5370424D01*
X3643753Y-5370424D02*
X3662801Y-5360900D01*
X3662801Y-5360900D02*
X3700896Y-5360900D01*
X3700896Y-5360900D02*
X3719944Y-5370424D01*
X3719944Y-5370424D02*
X3729468Y-5389472D01*
X3729468Y-5389472D02*
X3729468Y-5408519D01*
X3729468Y-5408519D02*
X3634230Y-5427567D01*
X3805658Y-5484710D02*
X3824706Y-5494233D01*
X3824706Y-5494233D02*
X3862801Y-5494233D01*
X3862801Y-5494233D02*
X3881849Y-5484710D01*
X3881849Y-5484710D02*
X3891372Y-5465662D01*
X3891372Y-5465662D02*
X3891372Y-5456138D01*
X3891372Y-5456138D02*
X3881849Y-5437091D01*
X3881849Y-5437091D02*
X3862801Y-5427567D01*
X3862801Y-5427567D02*
X3834230Y-5427567D01*
X3834230Y-5427567D02*
X3815182Y-5418043D01*
X3815182Y-5418043D02*
X3805658Y-5398995D01*
X3805658Y-5398995D02*
X3805658Y-5389472D01*
X3805658Y-5389472D02*
X3815182Y-5370424D01*
X3815182Y-5370424D02*
X3834230Y-5360900D01*
X3834230Y-5360900D02*
X3862801Y-5360900D01*
X3862801Y-5360900D02*
X3881849Y-5370424D01*
X3958039Y-5570424D02*
X3967563Y-5560900D01*
X3967563Y-5560900D02*
X3986611Y-5532329D01*
X3986611Y-5532329D02*
X3996134Y-5513281D01*
X3996134Y-5513281D02*
X4005658Y-5484710D01*
X4005658Y-5484710D02*
X4015182Y-5437091D01*
X4015182Y-5437091D02*
X4015182Y-5398995D01*
X4015182Y-5398995D02*
X4005658Y-5351376D01*
X4005658Y-5351376D02*
X3996134Y-5322805D01*
X3996134Y-5322805D02*
X3986611Y-5303757D01*
X3986611Y-5303757D02*
X3967563Y-5275186D01*
X3967563Y-5275186D02*
X3958039Y-5265662D01*
D13*
X-1023494Y-5705365D02*
X-1023494Y-5628134D01*
X-1100726Y-5628134D01*
X-1100726Y-5705365D01*
X-1023494Y-5705365D01*
D11*
X-641961Y-5758233D02*
X-756247Y-5758233D01*
X-699104Y-5758233D02*
X-699104Y-5558233D01*
X-699104Y-5558233D02*
X-718152Y-5586805D01*
X-718152Y-5586805D02*
X-737199Y-5605852D01*
X-737199Y-5605852D02*
X-756247Y-5615376D01*
X-556247Y-5739186D02*
X-546723Y-5748710D01*
X-546723Y-5748710D02*
X-556247Y-5758233D01*
X-556247Y-5758233D02*
X-565771Y-5748710D01*
X-565771Y-5748710D02*
X-556247Y-5739186D01*
X-556247Y-5739186D02*
X-556247Y-5758233D01*
X-422914Y-5558233D02*
X-403866Y-5558233D01*
X-403866Y-5558233D02*
X-384818Y-5567757D01*
X-384818Y-5567757D02*
X-375294Y-5577281D01*
X-375294Y-5577281D02*
X-365771Y-5596329D01*
X-365771Y-5596329D02*
X-356247Y-5634424D01*
X-356247Y-5634424D02*
X-356247Y-5682043D01*
X-356247Y-5682043D02*
X-365771Y-5720138D01*
X-365771Y-5720138D02*
X-375294Y-5739186D01*
X-375294Y-5739186D02*
X-384818Y-5748710D01*
X-384818Y-5748710D02*
X-403866Y-5758233D01*
X-403866Y-5758233D02*
X-422914Y-5758233D01*
X-422914Y-5758233D02*
X-441961Y-5748710D01*
X-441961Y-5748710D02*
X-451485Y-5739186D01*
X-451485Y-5739186D02*
X-461009Y-5720138D01*
X-461009Y-5720138D02*
X-470533Y-5682043D01*
X-470533Y-5682043D02*
X-470533Y-5634424D01*
X-470533Y-5634424D02*
X-461009Y-5596329D01*
X-461009Y-5596329D02*
X-451485Y-5577281D01*
X-451485Y-5577281D02*
X-441961Y-5567757D01*
X-441961Y-5567757D02*
X-422914Y-5558233D01*
X-261009Y-5758233D02*
X-222914Y-5758233D01*
X-222914Y-5758233D02*
X-203866Y-5748710D01*
X-203866Y-5748710D02*
X-194342Y-5739186D01*
X-194342Y-5739186D02*
X-175294Y-5710614D01*
X-175294Y-5710614D02*
X-165771Y-5672519D01*
X-165771Y-5672519D02*
X-165771Y-5596329D01*
X-165771Y-5596329D02*
X-175294Y-5577281D01*
X-175294Y-5577281D02*
X-184818Y-5567757D01*
X-184818Y-5567757D02*
X-203866Y-5558233D01*
X-203866Y-5558233D02*
X-241961Y-5558233D01*
X-241961Y-5558233D02*
X-261009Y-5567757D01*
X-261009Y-5567757D02*
X-270533Y-5577281D01*
X-270533Y-5577281D02*
X-280056Y-5596329D01*
X-280056Y-5596329D02*
X-280056Y-5643948D01*
X-280056Y-5643948D02*
X-270533Y-5662995D01*
X-270533Y-5662995D02*
X-261009Y-5672519D01*
X-261009Y-5672519D02*
X-241961Y-5682043D01*
X-241961Y-5682043D02*
X-203866Y-5682043D01*
X-203866Y-5682043D02*
X-184818Y-5672519D01*
X-184818Y-5672519D02*
X-175294Y-5662995D01*
X-175294Y-5662995D02*
X-165771Y-5643948D01*
X-89580Y-5577281D02*
X-80056Y-5567757D01*
X-80056Y-5567757D02*
X-61009Y-5558233D01*
X-61009Y-5558233D02*
X-13390Y-5558233D01*
X-13390Y-5558233D02*
X5658Y-5567757D01*
X5658Y-5567757D02*
X15182Y-5577281D01*
X15182Y-5577281D02*
X24705Y-5596329D01*
X24705Y-5596329D02*
X24705Y-5615376D01*
X24705Y-5615376D02*
X15182Y-5643948D01*
X15182Y-5643948D02*
X-99104Y-5758233D01*
X-99104Y-5758233D02*
X24705Y-5758233D01*
X110420Y-5758233D02*
X110420Y-5624900D01*
X110420Y-5643948D02*
X119943Y-5634424D01*
X119943Y-5634424D02*
X138991Y-5624900D01*
X138991Y-5624900D02*
X167563Y-5624900D01*
X167563Y-5624900D02*
X186610Y-5634424D01*
X186610Y-5634424D02*
X196134Y-5653471D01*
X196134Y-5653471D02*
X196134Y-5758233D01*
X196134Y-5653471D02*
X205658Y-5634424D01*
X205658Y-5634424D02*
X224705Y-5624900D01*
X224705Y-5624900D02*
X253277Y-5624900D01*
X253277Y-5624900D02*
X272325Y-5634424D01*
X272325Y-5634424D02*
X281848Y-5653471D01*
X281848Y-5653471D02*
X281848Y-5758233D01*
X377086Y-5758233D02*
X377086Y-5624900D01*
X377086Y-5643948D02*
X386610Y-5634424D01*
X386610Y-5634424D02*
X405658Y-5624900D01*
X405658Y-5624900D02*
X434229Y-5624900D01*
X434229Y-5624900D02*
X453277Y-5634424D01*
X453277Y-5634424D02*
X462801Y-5653471D01*
X462801Y-5653471D02*
X462801Y-5758233D01*
X462801Y-5653471D02*
X472324Y-5634424D01*
X472324Y-5634424D02*
X491372Y-5624900D01*
X491372Y-5624900D02*
X519943Y-5624900D01*
X519943Y-5624900D02*
X538991Y-5634424D01*
X538991Y-5634424D02*
X548515Y-5653471D01*
X548515Y-5653471D02*
X548515Y-5758233D01*
X938991Y-5548710D02*
X767563Y-5805852D01*
X1196134Y-5558233D02*
X1215182Y-5558233D01*
X1215182Y-5558233D02*
X1234229Y-5567757D01*
X1234229Y-5567757D02*
X1243753Y-5577281D01*
X1243753Y-5577281D02*
X1253277Y-5596329D01*
X1253277Y-5596329D02*
X1262801Y-5634424D01*
X1262801Y-5634424D02*
X1262801Y-5682043D01*
X1262801Y-5682043D02*
X1253277Y-5720138D01*
X1253277Y-5720138D02*
X1243753Y-5739186D01*
X1243753Y-5739186D02*
X1234229Y-5748710D01*
X1234229Y-5748710D02*
X1215182Y-5758233D01*
X1215182Y-5758233D02*
X1196134Y-5758233D01*
X1196134Y-5758233D02*
X1177087Y-5748710D01*
X1177087Y-5748710D02*
X1167563Y-5739186D01*
X1167563Y-5739186D02*
X1158039Y-5720138D01*
X1158039Y-5720138D02*
X1148515Y-5682043D01*
X1148515Y-5682043D02*
X1148515Y-5634424D01*
X1148515Y-5634424D02*
X1158039Y-5596329D01*
X1158039Y-5596329D02*
X1167563Y-5577281D01*
X1167563Y-5577281D02*
X1177087Y-5567757D01*
X1177087Y-5567757D02*
X1196134Y-5558233D01*
X1348515Y-5739186D02*
X1358039Y-5748710D01*
X1358039Y-5748710D02*
X1348515Y-5758233D01*
X1348515Y-5758233D02*
X1338991Y-5748710D01*
X1338991Y-5748710D02*
X1348515Y-5739186D01*
X1348515Y-5739186D02*
X1348515Y-5758233D01*
X1481848Y-5558233D02*
X1500896Y-5558233D01*
X1500896Y-5558233D02*
X1519944Y-5567757D01*
X1519944Y-5567757D02*
X1529467Y-5577281D01*
X1529467Y-5577281D02*
X1538991Y-5596329D01*
X1538991Y-5596329D02*
X1548515Y-5634424D01*
X1548515Y-5634424D02*
X1548515Y-5682043D01*
X1548515Y-5682043D02*
X1538991Y-5720138D01*
X1538991Y-5720138D02*
X1529467Y-5739186D01*
X1529467Y-5739186D02*
X1519944Y-5748710D01*
X1519944Y-5748710D02*
X1500896Y-5758233D01*
X1500896Y-5758233D02*
X1481848Y-5758233D01*
X1481848Y-5758233D02*
X1462801Y-5748710D01*
X1462801Y-5748710D02*
X1453277Y-5739186D01*
X1453277Y-5739186D02*
X1443753Y-5720138D01*
X1443753Y-5720138D02*
X1434229Y-5682043D01*
X1434229Y-5682043D02*
X1434229Y-5634424D01*
X1434229Y-5634424D02*
X1443753Y-5596329D01*
X1443753Y-5596329D02*
X1453277Y-5577281D01*
X1453277Y-5577281D02*
X1462801Y-5567757D01*
X1462801Y-5567757D02*
X1481848Y-5558233D01*
X1719944Y-5624900D02*
X1719944Y-5758233D01*
X1672325Y-5548710D02*
X1624706Y-5691567D01*
X1624706Y-5691567D02*
X1748515Y-5691567D01*
X1805658Y-5558233D02*
X1929467Y-5558233D01*
X1929467Y-5558233D02*
X1862801Y-5634424D01*
X1862801Y-5634424D02*
X1891372Y-5634424D01*
X1891372Y-5634424D02*
X1910420Y-5643948D01*
X1910420Y-5643948D02*
X1919944Y-5653471D01*
X1919944Y-5653471D02*
X1929467Y-5672519D01*
X1929467Y-5672519D02*
X1929467Y-5720138D01*
X1929467Y-5720138D02*
X1919944Y-5739186D01*
X1919944Y-5739186D02*
X1910420Y-5748710D01*
X1910420Y-5748710D02*
X1891372Y-5758233D01*
X1891372Y-5758233D02*
X1834229Y-5758233D01*
X1834229Y-5758233D02*
X1815182Y-5748710D01*
X1815182Y-5748710D02*
X1805658Y-5739186D01*
X2053277Y-5558233D02*
X2072325Y-5558233D01*
X2072325Y-5558233D02*
X2091372Y-5567757D01*
X2091372Y-5567757D02*
X2100896Y-5577281D01*
X2100896Y-5577281D02*
X2110420Y-5596329D01*
X2110420Y-5596329D02*
X2119944Y-5634424D01*
X2119944Y-5634424D02*
X2119944Y-5682043D01*
X2119944Y-5682043D02*
X2110420Y-5720138D01*
X2110420Y-5720138D02*
X2100896Y-5739186D01*
X2100896Y-5739186D02*
X2091372Y-5748710D01*
X2091372Y-5748710D02*
X2072325Y-5758233D01*
X2072325Y-5758233D02*
X2053277Y-5758233D01*
X2053277Y-5758233D02*
X2034229Y-5748710D01*
X2034229Y-5748710D02*
X2024706Y-5739186D01*
X2024706Y-5739186D02*
X2015182Y-5720138D01*
X2015182Y-5720138D02*
X2005658Y-5682043D01*
X2005658Y-5682043D02*
X2005658Y-5634424D01*
X2005658Y-5634424D02*
X2015182Y-5596329D01*
X2015182Y-5596329D02*
X2024706Y-5577281D01*
X2024706Y-5577281D02*
X2034229Y-5567757D01*
X2034229Y-5567757D02*
X2053277Y-5558233D01*
X2196134Y-5558233D02*
X2196134Y-5596329D01*
X2272325Y-5558233D02*
X2272325Y-5596329D01*
X2567563Y-5834424D02*
X2558039Y-5824900D01*
X2558039Y-5824900D02*
X2538991Y-5796329D01*
X2538991Y-5796329D02*
X2529468Y-5777281D01*
X2529468Y-5777281D02*
X2519944Y-5748710D01*
X2519944Y-5748710D02*
X2510420Y-5701090D01*
X2510420Y-5701090D02*
X2510420Y-5662995D01*
X2510420Y-5662995D02*
X2519944Y-5615376D01*
X2519944Y-5615376D02*
X2529468Y-5586805D01*
X2529468Y-5586805D02*
X2538991Y-5567757D01*
X2538991Y-5567757D02*
X2558039Y-5539186D01*
X2558039Y-5539186D02*
X2567563Y-5529662D01*
X2729468Y-5624900D02*
X2729468Y-5758233D01*
X2681849Y-5548710D02*
X2634230Y-5691567D01*
X2634230Y-5691567D02*
X2758039Y-5691567D01*
X2862801Y-5643948D02*
X2843753Y-5634424D01*
X2843753Y-5634424D02*
X2834229Y-5624900D01*
X2834229Y-5624900D02*
X2824706Y-5605852D01*
X2824706Y-5605852D02*
X2824706Y-5596329D01*
X2824706Y-5596329D02*
X2834229Y-5577281D01*
X2834229Y-5577281D02*
X2843753Y-5567757D01*
X2843753Y-5567757D02*
X2862801Y-5558233D01*
X2862801Y-5558233D02*
X2900896Y-5558233D01*
X2900896Y-5558233D02*
X2919944Y-5567757D01*
X2919944Y-5567757D02*
X2929468Y-5577281D01*
X2929468Y-5577281D02*
X2938991Y-5596329D01*
X2938991Y-5596329D02*
X2938991Y-5605852D01*
X2938991Y-5605852D02*
X2929468Y-5624900D01*
X2929468Y-5624900D02*
X2919944Y-5634424D01*
X2919944Y-5634424D02*
X2900896Y-5643948D01*
X2900896Y-5643948D02*
X2862801Y-5643948D01*
X2862801Y-5643948D02*
X2843753Y-5653471D01*
X2843753Y-5653471D02*
X2834229Y-5662995D01*
X2834229Y-5662995D02*
X2824706Y-5682043D01*
X2824706Y-5682043D02*
X2824706Y-5720138D01*
X2824706Y-5720138D02*
X2834229Y-5739186D01*
X2834229Y-5739186D02*
X2843753Y-5748710D01*
X2843753Y-5748710D02*
X2862801Y-5758233D01*
X2862801Y-5758233D02*
X2900896Y-5758233D01*
X2900896Y-5758233D02*
X2919944Y-5748710D01*
X2919944Y-5748710D02*
X2929468Y-5739186D01*
X2929468Y-5739186D02*
X2938991Y-5720138D01*
X2938991Y-5720138D02*
X2938991Y-5682043D01*
X2938991Y-5682043D02*
X2929468Y-5662995D01*
X2929468Y-5662995D02*
X2919944Y-5653471D01*
X2919944Y-5653471D02*
X2900896Y-5643948D01*
X3177087Y-5758233D02*
X3177087Y-5558233D01*
X3262801Y-5758233D02*
X3262801Y-5653471D01*
X3262801Y-5653471D02*
X3253277Y-5634424D01*
X3253277Y-5634424D02*
X3234230Y-5624900D01*
X3234230Y-5624900D02*
X3205658Y-5624900D01*
X3205658Y-5624900D02*
X3186610Y-5634424D01*
X3186610Y-5634424D02*
X3177087Y-5643948D01*
X3386610Y-5758233D02*
X3367563Y-5748710D01*
X3367563Y-5748710D02*
X3358039Y-5739186D01*
X3358039Y-5739186D02*
X3348515Y-5720138D01*
X3348515Y-5720138D02*
X3348515Y-5662995D01*
X3348515Y-5662995D02*
X3358039Y-5643948D01*
X3358039Y-5643948D02*
X3367563Y-5634424D01*
X3367563Y-5634424D02*
X3386610Y-5624900D01*
X3386610Y-5624900D02*
X3415182Y-5624900D01*
X3415182Y-5624900D02*
X3434230Y-5634424D01*
X3434230Y-5634424D02*
X3443753Y-5643948D01*
X3443753Y-5643948D02*
X3453277Y-5662995D01*
X3453277Y-5662995D02*
X3453277Y-5720138D01*
X3453277Y-5720138D02*
X3443753Y-5739186D01*
X3443753Y-5739186D02*
X3434230Y-5748710D01*
X3434230Y-5748710D02*
X3415182Y-5758233D01*
X3415182Y-5758233D02*
X3386610Y-5758233D01*
X3567563Y-5758233D02*
X3548515Y-5748710D01*
X3548515Y-5748710D02*
X3538991Y-5729662D01*
X3538991Y-5729662D02*
X3538991Y-5558233D01*
X3719944Y-5748710D02*
X3700896Y-5758233D01*
X3700896Y-5758233D02*
X3662801Y-5758233D01*
X3662801Y-5758233D02*
X3643753Y-5748710D01*
X3643753Y-5748710D02*
X3634230Y-5729662D01*
X3634230Y-5729662D02*
X3634230Y-5653471D01*
X3634230Y-5653471D02*
X3643753Y-5634424D01*
X3643753Y-5634424D02*
X3662801Y-5624900D01*
X3662801Y-5624900D02*
X3700896Y-5624900D01*
X3700896Y-5624900D02*
X3719944Y-5634424D01*
X3719944Y-5634424D02*
X3729468Y-5653471D01*
X3729468Y-5653471D02*
X3729468Y-5672519D01*
X3729468Y-5672519D02*
X3634230Y-5691567D01*
X3805658Y-5748710D02*
X3824706Y-5758233D01*
X3824706Y-5758233D02*
X3862801Y-5758233D01*
X3862801Y-5758233D02*
X3881849Y-5748710D01*
X3881849Y-5748710D02*
X3891372Y-5729662D01*
X3891372Y-5729662D02*
X3891372Y-5720138D01*
X3891372Y-5720138D02*
X3881849Y-5701090D01*
X3881849Y-5701090D02*
X3862801Y-5691567D01*
X3862801Y-5691567D02*
X3834230Y-5691567D01*
X3834230Y-5691567D02*
X3815182Y-5682043D01*
X3815182Y-5682043D02*
X3805658Y-5662995D01*
X3805658Y-5662995D02*
X3805658Y-5653471D01*
X3805658Y-5653471D02*
X3815182Y-5634424D01*
X3815182Y-5634424D02*
X3834230Y-5624900D01*
X3834230Y-5624900D02*
X3862801Y-5624900D01*
X3862801Y-5624900D02*
X3881849Y-5634424D01*
X3958039Y-5834424D02*
X3967563Y-5824900D01*
X3967563Y-5824900D02*
X3986611Y-5796329D01*
X3986611Y-5796329D02*
X3996134Y-5777281D01*
X3996134Y-5777281D02*
X4005658Y-5748710D01*
X4005658Y-5748710D02*
X4015182Y-5701090D01*
X4015182Y-5701090D02*
X4015182Y-5662995D01*
X4015182Y-5662995D02*
X4005658Y-5615376D01*
X4005658Y-5615376D02*
X3996134Y-5586805D01*
X3996134Y-5586805D02*
X3986611Y-5567757D01*
X3986611Y-5567757D02*
X3967563Y-5539186D01*
X3967563Y-5539186D02*
X3958039Y-5529662D01*
D14*
X-1072500Y-5995750D02*
X-1007500Y-5930750D01*
X-1072500Y-5865750D01*
X-1137500Y-5930750D01*
X-1072500Y-5995750D01*
D11*
X-641961Y-6022233D02*
X-756247Y-6022233D01*
X-699104Y-6022233D02*
X-699104Y-5822233D01*
X-699104Y-5822233D02*
X-718152Y-5850805D01*
X-718152Y-5850805D02*
X-737199Y-5869852D01*
X-737199Y-5869852D02*
X-756247Y-5879376D01*
X-556247Y-6003186D02*
X-546723Y-6012710D01*
X-546723Y-6012710D02*
X-556247Y-6022233D01*
X-556247Y-6022233D02*
X-565771Y-6012710D01*
X-565771Y-6012710D02*
X-556247Y-6003186D01*
X-556247Y-6003186D02*
X-556247Y-6022233D01*
X-480056Y-5822233D02*
X-356247Y-5822233D01*
X-356247Y-5822233D02*
X-422914Y-5898424D01*
X-422914Y-5898424D02*
X-394342Y-5898424D01*
X-394342Y-5898424D02*
X-375294Y-5907948D01*
X-375294Y-5907948D02*
X-365771Y-5917471D01*
X-365771Y-5917471D02*
X-356247Y-5936519D01*
X-356247Y-5936519D02*
X-356247Y-5984138D01*
X-356247Y-5984138D02*
X-365771Y-6003186D01*
X-365771Y-6003186D02*
X-375294Y-6012710D01*
X-375294Y-6012710D02*
X-394342Y-6022233D01*
X-394342Y-6022233D02*
X-451485Y-6022233D01*
X-451485Y-6022233D02*
X-470533Y-6012710D01*
X-470533Y-6012710D02*
X-480056Y-6003186D01*
X-232437Y-5822233D02*
X-213390Y-5822233D01*
X-213390Y-5822233D02*
X-194342Y-5831757D01*
X-194342Y-5831757D02*
X-184818Y-5841281D01*
X-184818Y-5841281D02*
X-175294Y-5860329D01*
X-175294Y-5860329D02*
X-165771Y-5898424D01*
X-165771Y-5898424D02*
X-165771Y-5946043D01*
X-165771Y-5946043D02*
X-175294Y-5984138D01*
X-175294Y-5984138D02*
X-184818Y-6003186D01*
X-184818Y-6003186D02*
X-194342Y-6012710D01*
X-194342Y-6012710D02*
X-213390Y-6022233D01*
X-213390Y-6022233D02*
X-232437Y-6022233D01*
X-232437Y-6022233D02*
X-251485Y-6012710D01*
X-251485Y-6012710D02*
X-261009Y-6003186D01*
X-261009Y-6003186D02*
X-270533Y-5984138D01*
X-270533Y-5984138D02*
X-280056Y-5946043D01*
X-280056Y-5946043D02*
X-280056Y-5898424D01*
X-280056Y-5898424D02*
X-270533Y-5860329D01*
X-270533Y-5860329D02*
X-261009Y-5841281D01*
X-261009Y-5841281D02*
X-251485Y-5831757D01*
X-251485Y-5831757D02*
X-232437Y-5822233D01*
X-41961Y-5822233D02*
X-22913Y-5822233D01*
X-22913Y-5822233D02*
X-3866Y-5831757D01*
X-3866Y-5831757D02*
X5658Y-5841281D01*
X5658Y-5841281D02*
X15182Y-5860329D01*
X15182Y-5860329D02*
X24705Y-5898424D01*
X24705Y-5898424D02*
X24705Y-5946043D01*
X24705Y-5946043D02*
X15182Y-5984138D01*
X15182Y-5984138D02*
X5658Y-6003186D01*
X5658Y-6003186D02*
X-3866Y-6012710D01*
X-3866Y-6012710D02*
X-22913Y-6022233D01*
X-22913Y-6022233D02*
X-41961Y-6022233D01*
X-41961Y-6022233D02*
X-61009Y-6012710D01*
X-61009Y-6012710D02*
X-70533Y-6003186D01*
X-70533Y-6003186D02*
X-80056Y-5984138D01*
X-80056Y-5984138D02*
X-89580Y-5946043D01*
X-89580Y-5946043D02*
X-89580Y-5898424D01*
X-89580Y-5898424D02*
X-80056Y-5860329D01*
X-80056Y-5860329D02*
X-70533Y-5841281D01*
X-70533Y-5841281D02*
X-61009Y-5831757D01*
X-61009Y-5831757D02*
X-41961Y-5822233D01*
X110420Y-6022233D02*
X110420Y-5888900D01*
X110420Y-5907948D02*
X119943Y-5898424D01*
X119943Y-5898424D02*
X138991Y-5888900D01*
X138991Y-5888900D02*
X167563Y-5888900D01*
X167563Y-5888900D02*
X186610Y-5898424D01*
X186610Y-5898424D02*
X196134Y-5917471D01*
X196134Y-5917471D02*
X196134Y-6022233D01*
X196134Y-5917471D02*
X205658Y-5898424D01*
X205658Y-5898424D02*
X224705Y-5888900D01*
X224705Y-5888900D02*
X253277Y-5888900D01*
X253277Y-5888900D02*
X272325Y-5898424D01*
X272325Y-5898424D02*
X281848Y-5917471D01*
X281848Y-5917471D02*
X281848Y-6022233D01*
X377086Y-6022233D02*
X377086Y-5888900D01*
X377086Y-5907948D02*
X386610Y-5898424D01*
X386610Y-5898424D02*
X405658Y-5888900D01*
X405658Y-5888900D02*
X434229Y-5888900D01*
X434229Y-5888900D02*
X453277Y-5898424D01*
X453277Y-5898424D02*
X462801Y-5917471D01*
X462801Y-5917471D02*
X462801Y-6022233D01*
X462801Y-5917471D02*
X472324Y-5898424D01*
X472324Y-5898424D02*
X491372Y-5888900D01*
X491372Y-5888900D02*
X519943Y-5888900D01*
X519943Y-5888900D02*
X538991Y-5898424D01*
X538991Y-5898424D02*
X548515Y-5917471D01*
X548515Y-5917471D02*
X548515Y-6022233D01*
X938991Y-5812710D02*
X767563Y-6069852D01*
X1196134Y-5822233D02*
X1215182Y-5822233D01*
X1215182Y-5822233D02*
X1234229Y-5831757D01*
X1234229Y-5831757D02*
X1243753Y-5841281D01*
X1243753Y-5841281D02*
X1253277Y-5860329D01*
X1253277Y-5860329D02*
X1262801Y-5898424D01*
X1262801Y-5898424D02*
X1262801Y-5946043D01*
X1262801Y-5946043D02*
X1253277Y-5984138D01*
X1253277Y-5984138D02*
X1243753Y-6003186D01*
X1243753Y-6003186D02*
X1234229Y-6012710D01*
X1234229Y-6012710D02*
X1215182Y-6022233D01*
X1215182Y-6022233D02*
X1196134Y-6022233D01*
X1196134Y-6022233D02*
X1177087Y-6012710D01*
X1177087Y-6012710D02*
X1167563Y-6003186D01*
X1167563Y-6003186D02*
X1158039Y-5984138D01*
X1158039Y-5984138D02*
X1148515Y-5946043D01*
X1148515Y-5946043D02*
X1148515Y-5898424D01*
X1148515Y-5898424D02*
X1158039Y-5860329D01*
X1158039Y-5860329D02*
X1167563Y-5841281D01*
X1167563Y-5841281D02*
X1177087Y-5831757D01*
X1177087Y-5831757D02*
X1196134Y-5822233D01*
X1348515Y-6003186D02*
X1358039Y-6012710D01*
X1358039Y-6012710D02*
X1348515Y-6022233D01*
X1348515Y-6022233D02*
X1338991Y-6012710D01*
X1338991Y-6012710D02*
X1348515Y-6003186D01*
X1348515Y-6003186D02*
X1348515Y-6022233D01*
X1481848Y-5822233D02*
X1500896Y-5822233D01*
X1500896Y-5822233D02*
X1519944Y-5831757D01*
X1519944Y-5831757D02*
X1529467Y-5841281D01*
X1529467Y-5841281D02*
X1538991Y-5860329D01*
X1538991Y-5860329D02*
X1548515Y-5898424D01*
X1548515Y-5898424D02*
X1548515Y-5946043D01*
X1548515Y-5946043D02*
X1538991Y-5984138D01*
X1538991Y-5984138D02*
X1529467Y-6003186D01*
X1529467Y-6003186D02*
X1519944Y-6012710D01*
X1519944Y-6012710D02*
X1500896Y-6022233D01*
X1500896Y-6022233D02*
X1481848Y-6022233D01*
X1481848Y-6022233D02*
X1462801Y-6012710D01*
X1462801Y-6012710D02*
X1453277Y-6003186D01*
X1453277Y-6003186D02*
X1443753Y-5984138D01*
X1443753Y-5984138D02*
X1434229Y-5946043D01*
X1434229Y-5946043D02*
X1434229Y-5898424D01*
X1434229Y-5898424D02*
X1443753Y-5860329D01*
X1443753Y-5860329D02*
X1453277Y-5841281D01*
X1453277Y-5841281D02*
X1462801Y-5831757D01*
X1462801Y-5831757D02*
X1481848Y-5822233D01*
X1729467Y-5822233D02*
X1634229Y-5822233D01*
X1634229Y-5822233D02*
X1624706Y-5917471D01*
X1624706Y-5917471D02*
X1634229Y-5907948D01*
X1634229Y-5907948D02*
X1653277Y-5898424D01*
X1653277Y-5898424D02*
X1700896Y-5898424D01*
X1700896Y-5898424D02*
X1719944Y-5907948D01*
X1719944Y-5907948D02*
X1729467Y-5917471D01*
X1729467Y-5917471D02*
X1738991Y-5936519D01*
X1738991Y-5936519D02*
X1738991Y-5984138D01*
X1738991Y-5984138D02*
X1729467Y-6003186D01*
X1729467Y-6003186D02*
X1719944Y-6012710D01*
X1719944Y-6012710D02*
X1700896Y-6022233D01*
X1700896Y-6022233D02*
X1653277Y-6022233D01*
X1653277Y-6022233D02*
X1634229Y-6012710D01*
X1634229Y-6012710D02*
X1624706Y-6003186D01*
X1929467Y-6022233D02*
X1815182Y-6022233D01*
X1872325Y-6022233D02*
X1872325Y-5822233D01*
X1872325Y-5822233D02*
X1853277Y-5850805D01*
X1853277Y-5850805D02*
X1834229Y-5869852D01*
X1834229Y-5869852D02*
X1815182Y-5879376D01*
X2005658Y-5841281D02*
X2015182Y-5831757D01*
X2015182Y-5831757D02*
X2034229Y-5822233D01*
X2034229Y-5822233D02*
X2081848Y-5822233D01*
X2081848Y-5822233D02*
X2100896Y-5831757D01*
X2100896Y-5831757D02*
X2110420Y-5841281D01*
X2110420Y-5841281D02*
X2119944Y-5860329D01*
X2119944Y-5860329D02*
X2119944Y-5879376D01*
X2119944Y-5879376D02*
X2110420Y-5907948D01*
X2110420Y-5907948D02*
X1996134Y-6022233D01*
X1996134Y-6022233D02*
X2119944Y-6022233D01*
X2196134Y-5822233D02*
X2196134Y-5860329D01*
X2272325Y-5822233D02*
X2272325Y-5860329D01*
X2567563Y-6098424D02*
X2558039Y-6088900D01*
X2558039Y-6088900D02*
X2538991Y-6060329D01*
X2538991Y-6060329D02*
X2529468Y-6041281D01*
X2529468Y-6041281D02*
X2519944Y-6012710D01*
X2519944Y-6012710D02*
X2510420Y-5965090D01*
X2510420Y-5965090D02*
X2510420Y-5926995D01*
X2510420Y-5926995D02*
X2519944Y-5879376D01*
X2519944Y-5879376D02*
X2529468Y-5850805D01*
X2529468Y-5850805D02*
X2538991Y-5831757D01*
X2538991Y-5831757D02*
X2558039Y-5803186D01*
X2558039Y-5803186D02*
X2567563Y-5793662D01*
X2634230Y-5841281D02*
X2643753Y-5831757D01*
X2643753Y-5831757D02*
X2662801Y-5822233D01*
X2662801Y-5822233D02*
X2710420Y-5822233D01*
X2710420Y-5822233D02*
X2729468Y-5831757D01*
X2729468Y-5831757D02*
X2738991Y-5841281D01*
X2738991Y-5841281D02*
X2748515Y-5860329D01*
X2748515Y-5860329D02*
X2748515Y-5879376D01*
X2748515Y-5879376D02*
X2738991Y-5907948D01*
X2738991Y-5907948D02*
X2624706Y-6022233D01*
X2624706Y-6022233D02*
X2748515Y-6022233D01*
X2986610Y-6022233D02*
X2986610Y-5822233D01*
X3072325Y-6022233D02*
X3072325Y-5917471D01*
X3072325Y-5917471D02*
X3062801Y-5898424D01*
X3062801Y-5898424D02*
X3043753Y-5888900D01*
X3043753Y-5888900D02*
X3015182Y-5888900D01*
X3015182Y-5888900D02*
X2996134Y-5898424D01*
X2996134Y-5898424D02*
X2986610Y-5907948D01*
X3196134Y-6022233D02*
X3177087Y-6012710D01*
X3177087Y-6012710D02*
X3167563Y-6003186D01*
X3167563Y-6003186D02*
X3158039Y-5984138D01*
X3158039Y-5984138D02*
X3158039Y-5926995D01*
X3158039Y-5926995D02*
X3167563Y-5907948D01*
X3167563Y-5907948D02*
X3177087Y-5898424D01*
X3177087Y-5898424D02*
X3196134Y-5888900D01*
X3196134Y-5888900D02*
X3224706Y-5888900D01*
X3224706Y-5888900D02*
X3243753Y-5898424D01*
X3243753Y-5898424D02*
X3253277Y-5907948D01*
X3253277Y-5907948D02*
X3262801Y-5926995D01*
X3262801Y-5926995D02*
X3262801Y-5984138D01*
X3262801Y-5984138D02*
X3253277Y-6003186D01*
X3253277Y-6003186D02*
X3243753Y-6012710D01*
X3243753Y-6012710D02*
X3224706Y-6022233D01*
X3224706Y-6022233D02*
X3196134Y-6022233D01*
X3377087Y-6022233D02*
X3358039Y-6012710D01*
X3358039Y-6012710D02*
X3348515Y-5993662D01*
X3348515Y-5993662D02*
X3348515Y-5822233D01*
X3529468Y-6012710D02*
X3510420Y-6022233D01*
X3510420Y-6022233D02*
X3472325Y-6022233D01*
X3472325Y-6022233D02*
X3453277Y-6012710D01*
X3453277Y-6012710D02*
X3443753Y-5993662D01*
X3443753Y-5993662D02*
X3443753Y-5917471D01*
X3443753Y-5917471D02*
X3453277Y-5898424D01*
X3453277Y-5898424D02*
X3472325Y-5888900D01*
X3472325Y-5888900D02*
X3510420Y-5888900D01*
X3510420Y-5888900D02*
X3529468Y-5898424D01*
X3529468Y-5898424D02*
X3538991Y-5917471D01*
X3538991Y-5917471D02*
X3538991Y-5936519D01*
X3538991Y-5936519D02*
X3443753Y-5955567D01*
X3615182Y-6012710D02*
X3634230Y-6022233D01*
X3634230Y-6022233D02*
X3672325Y-6022233D01*
X3672325Y-6022233D02*
X3691372Y-6012710D01*
X3691372Y-6012710D02*
X3700896Y-5993662D01*
X3700896Y-5993662D02*
X3700896Y-5984138D01*
X3700896Y-5984138D02*
X3691372Y-5965090D01*
X3691372Y-5965090D02*
X3672325Y-5955567D01*
X3672325Y-5955567D02*
X3643753Y-5955567D01*
X3643753Y-5955567D02*
X3624706Y-5946043D01*
X3624706Y-5946043D02*
X3615182Y-5926995D01*
X3615182Y-5926995D02*
X3615182Y-5917471D01*
X3615182Y-5917471D02*
X3624706Y-5898424D01*
X3624706Y-5898424D02*
X3643753Y-5888900D01*
X3643753Y-5888900D02*
X3672325Y-5888900D01*
X3672325Y-5888900D02*
X3691372Y-5898424D01*
X3767563Y-6098424D02*
X3777087Y-6088900D01*
X3777087Y-6088900D02*
X3796134Y-6060329D01*
X3796134Y-6060329D02*
X3805658Y-6041281D01*
X3805658Y-6041281D02*
X3815182Y-6012710D01*
X3815182Y-6012710D02*
X3824706Y-5965090D01*
X3824706Y-5965090D02*
X3824706Y-5926995D01*
X3824706Y-5926995D02*
X3815182Y-5879376D01*
X3815182Y-5879376D02*
X3805658Y-5850805D01*
X3805658Y-5850805D02*
X3796134Y-5831757D01*
X3796134Y-5831757D02*
X3777087Y-5803186D01*
X3777087Y-5803186D02*
X3767563Y-5793662D01*
M02*
