%TF.GenerationSoftware,KiCad,Pcbnew,8.0.2*%
%TF.CreationDate,2024-05-30T16:08:45+01:00*%
%TF.ProjectId,board,626f6172-642e-46b6-9963-61645f706362,0.3*%
%TF.SameCoordinates,Original*%
%TF.FileFunction,Drillmap*%
%TF.FilePolarity,Positive*%
%FSLAX45Y45*%
G04 Gerber Fmt 4.5, Leading zero omitted, Abs format (unit mm)*
G04 Created by KiCad (PCBNEW 8.0.2) date 2024-05-30 16:08:45*
%MOMM*%
%LPD*%
G01*
G04 APERTURE LIST*
%ADD10C,0.150000*%
%ADD11C,0.200000*%
%ADD12C,0.100000*%
%ADD13C,0.120000*%
%ADD14C,0.170180*%
%ADD15C,0.300000*%
%ADD16C,0.342900*%
G04 APERTURE END LIST*
D10*
X2600000Y7380000D02*
G75*
G02*
X2800000Y7580000I200000J0D01*
G01*
X6200000Y7240000D02*
G75*
G02*
X6397739Y7069987I0J-200000D01*
G01*
X8000000Y7070000D02*
G75*
G02*
X8200000Y6870000I0J-200000D01*
G01*
X2600000Y7380000D02*
X2600000Y7240000D01*
X5605000Y-612000D02*
G75*
G02*
X5195000Y-612000I-205000J0D01*
G01*
X5195000Y-612000D02*
G75*
G02*
X5605000Y-612000I205000J0D01*
G01*
X800000Y7040000D02*
X800000Y6050000D01*
X9828883Y-4168666D02*
X5470711Y-1652474D01*
X10111726Y-4168666D02*
G75*
G02*
X9828879Y-4168671I-141426J141416D01*
G01*
X1105000Y0D02*
G75*
G02*
X695000Y0I-205000J0D01*
G01*
X695000Y0D02*
G75*
G02*
X1105000Y0I205000J0D01*
G01*
X-800000Y-950000D02*
X800000Y-950000D01*
X10200000Y5185000D02*
G75*
G02*
X10400000Y4985000I0J-200000D01*
G01*
X800000Y7040000D02*
G75*
G02*
X1000000Y7240000I200000J0D01*
G01*
X6505000Y6120000D02*
G75*
G02*
X6095000Y6120000I-205000J0D01*
G01*
X6095000Y6120000D02*
G75*
G02*
X6505000Y6120000I205000J0D01*
G01*
X10111726Y-4168666D02*
X11172386Y-3108006D01*
X2600000Y7240000D02*
X1000000Y7240000D01*
X9439913Y-2231194D02*
G75*
G02*
X9029913Y-2231194I-205000J0D01*
G01*
X9029913Y-2231194D02*
G75*
G02*
X9439913Y-2231194I205000J0D01*
G01*
X-1000000Y5850000D02*
G75*
G02*
X-800000Y6050000I200000J0D01*
G01*
X11172386Y-2825164D02*
G75*
G02*
X11172386Y-3108006I-141421J-141421D01*
G01*
X-800000Y-950000D02*
G75*
G02*
X-1000000Y-750000I0J200000D01*
G01*
X8200000Y5185000D02*
X8200000Y6870000D01*
X800000Y6050000D02*
X-800000Y6050000D01*
X8000000Y7070000D02*
X6400000Y7070000D01*
X4400000Y7580000D02*
X2800000Y7580000D01*
X5470711Y-1652474D02*
X800000Y-950000D01*
X10400000Y-2020873D02*
X10400000Y4985000D01*
X6200000Y7240000D02*
X4600000Y7240000D01*
X6397739Y7069987D02*
G75*
G02*
X6400000Y7070000I2261J-199657D01*
G01*
X1105000Y2890000D02*
G75*
G02*
X695000Y2890000I-205000J0D01*
G01*
X695000Y2890000D02*
G75*
G02*
X1105000Y2890000I205000J0D01*
G01*
X4400000Y7580000D02*
G75*
G02*
X4600000Y7380000I0J-200000D01*
G01*
X-1000000Y-750000D02*
X-1000000Y5850000D01*
X4600000Y7240000D02*
X4600000Y7380000D01*
X10400000Y-2020873D02*
X11172386Y-2825164D01*
X10200000Y5185000D02*
X8200000Y5185000D01*
D11*
D12*
X10155000Y1215000D02*
X10245000Y1125000D01*
X10245000Y1215000D02*
X10155000Y1125000D01*
X10155000Y1215000D02*
X10245000Y1125000D01*
X10245000Y1215000D02*
X10155000Y1125000D01*
X10155000Y915000D02*
X10245000Y825000D01*
X10245000Y915000D02*
X10155000Y825000D01*
X10155000Y915000D02*
X10245000Y825000D01*
X10245000Y915000D02*
X10155000Y825000D01*
D13*
X9600000Y-250000D02*
G75*
G02*
X9480000Y-250000I-60000J0D01*
G01*
X9480000Y-250000D02*
G75*
G02*
X9600000Y-250000I60000J0D01*
G01*
X9600000Y-480000D02*
G75*
G02*
X9480000Y-480000I-60000J0D01*
G01*
X9480000Y-480000D02*
G75*
G02*
X9600000Y-480000I60000J0D01*
G01*
X10300000Y-250000D02*
G75*
G02*
X10180000Y-250000I-60000J0D01*
G01*
X10180000Y-250000D02*
G75*
G02*
X10300000Y-250000I60000J0D01*
G01*
X10300000Y-480000D02*
G75*
G02*
X10180000Y-480000I-60000J0D01*
G01*
X10180000Y-480000D02*
G75*
G02*
X10300000Y-480000I60000J0D01*
G01*
D14*
X-550000Y5185090D02*
X-550000Y5014910D01*
X-635090Y5100000D02*
X-464910Y5100000D01*
X-550000Y3485090D02*
X-550000Y3314910D01*
X-635090Y3400000D02*
X-464910Y3400000D01*
X-550000Y1785090D02*
X-550000Y1614910D01*
X-635090Y1700000D02*
X-464910Y1700000D01*
X-550000Y85090D02*
X-550000Y-85090D01*
X-635090Y0D02*
X-464910Y0D01*
X550000Y5185090D02*
X550000Y5014910D01*
X464910Y5100000D02*
X635090Y5100000D01*
X550000Y3485090D02*
X550000Y3314910D01*
X464910Y3400000D02*
X635090Y3400000D01*
X550000Y1785090D02*
X550000Y1614910D01*
X464910Y1700000D02*
X635090Y1700000D01*
X550000Y85090D02*
X550000Y-85090D01*
X464910Y0D02*
X635090Y0D01*
X1250000Y6375090D02*
X1250000Y6204910D01*
X1164910Y6290000D02*
X1335090Y6290000D01*
X1250000Y4675090D02*
X1250000Y4504910D01*
X1164910Y4590000D02*
X1335090Y4590000D01*
X1250000Y2975090D02*
X1250000Y2804910D01*
X1164910Y2890000D02*
X1335090Y2890000D01*
X1250000Y1275090D02*
X1250000Y1104910D01*
X1164910Y1190000D02*
X1335090Y1190000D01*
X2350000Y6375090D02*
X2350000Y6204910D01*
X2264910Y6290000D02*
X2435090Y6290000D01*
X2350000Y4675090D02*
X2350000Y4504910D01*
X2264910Y4590000D02*
X2435090Y4590000D01*
X2350000Y2975090D02*
X2350000Y2804910D01*
X2264910Y2890000D02*
X2435090Y2890000D01*
X2350000Y1275090D02*
X2350000Y1104910D01*
X2264910Y1190000D02*
X2435090Y1190000D01*
X3050000Y6715090D02*
X3050000Y6544910D01*
X2964910Y6630000D02*
X3135090Y6630000D01*
X3050000Y5015090D02*
X3050000Y4844910D01*
X2964910Y4930000D02*
X3135090Y4930000D01*
X3050000Y3315090D02*
X3050000Y3144910D01*
X2964910Y3230000D02*
X3135090Y3230000D01*
X3050000Y1615090D02*
X3050000Y1444910D01*
X2964910Y1530000D02*
X3135090Y1530000D01*
X4150000Y6715090D02*
X4150000Y6544910D01*
X4064910Y6630000D02*
X4235090Y6630000D01*
X4150000Y5015090D02*
X4150000Y4844910D01*
X4064910Y4930000D02*
X4235090Y4930000D01*
X4150000Y3315090D02*
X4150000Y3144910D01*
X4064910Y3230000D02*
X4235090Y3230000D01*
X4150000Y1615090D02*
X4150000Y1444910D01*
X4064910Y1530000D02*
X4235090Y1530000D01*
X4850000Y6375090D02*
X4850000Y6204910D01*
X4764910Y6290000D02*
X4935090Y6290000D01*
X4850000Y4675090D02*
X4850000Y4504910D01*
X4764910Y4590000D02*
X4935090Y4590000D01*
X4850000Y2975090D02*
X4850000Y2804910D01*
X4764910Y2890000D02*
X4935090Y2890000D01*
X4850000Y1275090D02*
X4850000Y1104910D01*
X4764910Y1190000D02*
X4935090Y1190000D01*
X5950000Y6375090D02*
X5950000Y6204910D01*
X5864910Y6290000D02*
X6035090Y6290000D01*
X5950000Y4675090D02*
X5950000Y4504910D01*
X5864910Y4590000D02*
X6035090Y4590000D01*
X5950000Y2975090D02*
X5950000Y2804910D01*
X5864910Y2890000D02*
X6035090Y2890000D01*
X5950000Y1275090D02*
X5950000Y1104910D01*
X5864910Y1190000D02*
X6035090Y1190000D01*
X5958071Y-714459D02*
X5958071Y-884639D01*
X5872981Y-799549D02*
X6043161Y-799549D01*
X6650000Y6205090D02*
X6650000Y6034910D01*
X6564910Y6120000D02*
X6735090Y6120000D01*
X6650000Y4505090D02*
X6650000Y4334910D01*
X6564910Y4420000D02*
X6735090Y4420000D01*
X6650000Y2805090D02*
X6650000Y2634910D01*
X6564910Y2720000D02*
X6735090Y2720000D01*
X6650000Y1105090D02*
X6650000Y934910D01*
X6564910Y1020000D02*
X6735090Y1020000D01*
X7020589Y-999160D02*
X7020589Y-1169341D01*
X6935499Y-1084251D02*
X7105679Y-1084251D01*
X7750000Y6205090D02*
X7750000Y6034910D01*
X7664910Y6120000D02*
X7835090Y6120000D01*
X7750000Y4505090D02*
X7750000Y4334910D01*
X7664910Y4420000D02*
X7835090Y4420000D01*
X7750000Y2805090D02*
X7750000Y2634910D01*
X7664910Y2720000D02*
X7835090Y2720000D01*
X7750000Y1105090D02*
X7750000Y934910D01*
X7664910Y1020000D02*
X7835090Y1020000D01*
X7866776Y-1349660D02*
X7866776Y-1519840D01*
X7781686Y-1434750D02*
X7951866Y-1434750D01*
X8819404Y-1899660D02*
X8819404Y-2069840D01*
X8734314Y-1984750D02*
X8904494Y-1984750D01*
X9546041Y-2457231D02*
X9546041Y-2627411D01*
X9460951Y-2542321D02*
X9631131Y-2542321D01*
X10323859Y-3235049D02*
X10323859Y-3405229D01*
X10238769Y-3320139D02*
X10408949Y-3320139D01*
D15*
X-393933Y5368933D02*
X-393933Y5581067D01*
X-606067Y5581067D01*
X-606067Y5368933D01*
X-393933Y5368933D01*
X-393933Y3668933D02*
X-393933Y3881067D01*
X-606067Y3881067D01*
X-606067Y3668933D01*
X-393933Y3668933D01*
X-393933Y1968933D02*
X-393933Y2181067D01*
X-606067Y2181067D01*
X-606067Y1968933D01*
X-393933Y1968933D01*
X-393933Y268933D02*
X-393933Y481067D01*
X-606067Y481067D01*
X-606067Y268933D01*
X-393933Y268933D01*
X106067Y5588933D02*
X106067Y5801067D01*
X-106067Y5801067D01*
X-106067Y5588933D01*
X106067Y5588933D01*
X106067Y5588933D02*
X106067Y5801067D01*
X-106067Y5801067D01*
X-106067Y5588933D01*
X106067Y5588933D01*
X106067Y3888933D02*
X106067Y4101067D01*
X-106067Y4101067D01*
X-106067Y3888933D01*
X106067Y3888933D01*
X106067Y3888933D02*
X106067Y4101067D01*
X-106067Y4101067D01*
X-106067Y3888933D01*
X106067Y3888933D01*
X106067Y2188933D02*
X106067Y2401067D01*
X-106067Y2401067D01*
X-106067Y2188933D01*
X106067Y2188933D01*
X106067Y2188933D02*
X106067Y2401067D01*
X-106067Y2401067D01*
X-106067Y2188933D01*
X106067Y2188933D01*
X106067Y488933D02*
X106067Y701067D01*
X-106067Y701067D01*
X-106067Y488933D01*
X106067Y488933D01*
X106067Y488933D02*
X106067Y701067D01*
X-106067Y701067D01*
X-106067Y488933D01*
X106067Y488933D01*
X606067Y5368933D02*
X606067Y5581067D01*
X393933Y5581067D01*
X393933Y5368933D01*
X606067Y5368933D01*
X606067Y3668933D02*
X606067Y3881067D01*
X393933Y3881067D01*
X393933Y3668933D01*
X606067Y3668933D01*
X606067Y1968933D02*
X606067Y2181067D01*
X393933Y2181067D01*
X393933Y1968933D01*
X606067Y1968933D01*
X606067Y268933D02*
X606067Y481067D01*
X393933Y481067D01*
X393933Y268933D01*
X606067Y268933D01*
X1406067Y6558933D02*
X1406067Y6771067D01*
X1193933Y6771067D01*
X1193933Y6558933D01*
X1406067Y6558933D01*
X1406067Y4858933D02*
X1406067Y5071067D01*
X1193933Y5071067D01*
X1193933Y4858933D01*
X1406067Y4858933D01*
X1406067Y3158933D02*
X1406067Y3371067D01*
X1193933Y3371067D01*
X1193933Y3158933D01*
X1406067Y3158933D01*
X1406067Y1458933D02*
X1406067Y1671067D01*
X1193933Y1671067D01*
X1193933Y1458933D01*
X1406067Y1458933D01*
X1906067Y6778933D02*
X1906067Y6991067D01*
X1693933Y6991067D01*
X1693933Y6778933D01*
X1906067Y6778933D01*
X1906067Y6778933D02*
X1906067Y6991067D01*
X1693933Y6991067D01*
X1693933Y6778933D01*
X1906067Y6778933D01*
X1906067Y5078933D02*
X1906067Y5291067D01*
X1693933Y5291067D01*
X1693933Y5078933D01*
X1906067Y5078933D01*
X1906067Y5078933D02*
X1906067Y5291067D01*
X1693933Y5291067D01*
X1693933Y5078933D01*
X1906067Y5078933D01*
X1906067Y3378933D02*
X1906067Y3591067D01*
X1693933Y3591067D01*
X1693933Y3378933D01*
X1906067Y3378933D01*
X1906067Y3378933D02*
X1906067Y3591067D01*
X1693933Y3591067D01*
X1693933Y3378933D01*
X1906067Y3378933D01*
X1906067Y1678933D02*
X1906067Y1891067D01*
X1693933Y1891067D01*
X1693933Y1678933D01*
X1906067Y1678933D01*
X1906067Y1678933D02*
X1906067Y1891067D01*
X1693933Y1891067D01*
X1693933Y1678933D01*
X1906067Y1678933D01*
X2406067Y6558933D02*
X2406067Y6771067D01*
X2193933Y6771067D01*
X2193933Y6558933D01*
X2406067Y6558933D01*
X2406067Y4858933D02*
X2406067Y5071067D01*
X2193933Y5071067D01*
X2193933Y4858933D01*
X2406067Y4858933D01*
X2406067Y3158933D02*
X2406067Y3371067D01*
X2193933Y3371067D01*
X2193933Y3158933D01*
X2406067Y3158933D01*
X2406067Y1458933D02*
X2406067Y1671067D01*
X2193933Y1671067D01*
X2193933Y1458933D01*
X2406067Y1458933D01*
X3206067Y6898933D02*
X3206067Y7111067D01*
X2993933Y7111067D01*
X2993933Y6898933D01*
X3206067Y6898933D01*
X3206067Y5198933D02*
X3206067Y5411067D01*
X2993933Y5411067D01*
X2993933Y5198933D01*
X3206067Y5198933D01*
X3206067Y3498933D02*
X3206067Y3711067D01*
X2993933Y3711067D01*
X2993933Y3498933D01*
X3206067Y3498933D01*
X3206067Y1798933D02*
X3206067Y2011067D01*
X2993933Y2011067D01*
X2993933Y1798933D01*
X3206067Y1798933D01*
X3706067Y7118933D02*
X3706067Y7331067D01*
X3493933Y7331067D01*
X3493933Y7118933D01*
X3706067Y7118933D01*
X3706067Y7118933D02*
X3706067Y7331067D01*
X3493933Y7331067D01*
X3493933Y7118933D01*
X3706067Y7118933D01*
X3706067Y5418933D02*
X3706067Y5631067D01*
X3493933Y5631067D01*
X3493933Y5418933D01*
X3706067Y5418933D01*
X3706067Y5418933D02*
X3706067Y5631067D01*
X3493933Y5631067D01*
X3493933Y5418933D01*
X3706067Y5418933D01*
X3706067Y3718933D02*
X3706067Y3931067D01*
X3493933Y3931067D01*
X3493933Y3718933D01*
X3706067Y3718933D01*
X3706067Y3718933D02*
X3706067Y3931067D01*
X3493933Y3931067D01*
X3493933Y3718933D01*
X3706067Y3718933D01*
X3706067Y2018933D02*
X3706067Y2231067D01*
X3493933Y2231067D01*
X3493933Y2018933D01*
X3706067Y2018933D01*
X3706067Y2018933D02*
X3706067Y2231067D01*
X3493933Y2231067D01*
X3493933Y2018933D01*
X3706067Y2018933D01*
X4206067Y6898933D02*
X4206067Y7111067D01*
X3993933Y7111067D01*
X3993933Y6898933D01*
X4206067Y6898933D01*
X4206067Y5198933D02*
X4206067Y5411067D01*
X3993933Y5411067D01*
X3993933Y5198933D01*
X4206067Y5198933D01*
X4206067Y3498933D02*
X4206067Y3711067D01*
X3993933Y3711067D01*
X3993933Y3498933D01*
X4206067Y3498933D01*
X4206067Y1798933D02*
X4206067Y2011067D01*
X3993933Y2011067D01*
X3993933Y1798933D01*
X4206067Y1798933D01*
X5006067Y6558933D02*
X5006067Y6771067D01*
X4793933Y6771067D01*
X4793933Y6558933D01*
X5006067Y6558933D01*
X5006067Y4858933D02*
X5006067Y5071067D01*
X4793933Y5071067D01*
X4793933Y4858933D01*
X5006067Y4858933D01*
X5006067Y3158933D02*
X5006067Y3371067D01*
X4793933Y3371067D01*
X4793933Y3158933D01*
X5006067Y3158933D01*
X5006067Y1458933D02*
X5006067Y1671067D01*
X4793933Y1671067D01*
X4793933Y1458933D01*
X5006067Y1458933D01*
X5506067Y6778933D02*
X5506067Y6991067D01*
X5293933Y6991067D01*
X5293933Y6778933D01*
X5506067Y6778933D01*
X5506067Y6778933D02*
X5506067Y6991067D01*
X5293933Y6991067D01*
X5293933Y6778933D01*
X5506067Y6778933D01*
X5506067Y5078933D02*
X5506067Y5291067D01*
X5293933Y5291067D01*
X5293933Y5078933D01*
X5506067Y5078933D01*
X5506067Y5078933D02*
X5506067Y5291067D01*
X5293933Y5291067D01*
X5293933Y5078933D01*
X5506067Y5078933D01*
X5506067Y3378933D02*
X5506067Y3591067D01*
X5293933Y3591067D01*
X5293933Y3378933D01*
X5506067Y3378933D01*
X5506067Y3378933D02*
X5506067Y3591067D01*
X5293933Y3591067D01*
X5293933Y3378933D01*
X5506067Y3378933D01*
X5506067Y1678933D02*
X5506067Y1891067D01*
X5293933Y1891067D01*
X5293933Y1678933D01*
X5506067Y1678933D01*
X5506067Y1678933D02*
X5506067Y1891067D01*
X5293933Y1891067D01*
X5293933Y1678933D01*
X5506067Y1678933D01*
X6006067Y6558933D02*
X6006067Y6771067D01*
X5793933Y6771067D01*
X5793933Y6558933D01*
X6006067Y6558933D01*
X6006067Y4858933D02*
X6006067Y5071067D01*
X5793933Y5071067D01*
X5793933Y4858933D01*
X6006067Y4858933D01*
X6006067Y3158933D02*
X6006067Y3371067D01*
X5793933Y3371067D01*
X5793933Y3158933D01*
X6006067Y3158933D01*
X6006067Y1458933D02*
X6006067Y1671067D01*
X5793933Y1671067D01*
X5793933Y1458933D01*
X6006067Y1458933D01*
X6209491Y-556335D02*
X6209491Y-344201D01*
X5997357Y-344201D01*
X5997357Y-556335D01*
X6209491Y-556335D01*
X6749394Y-473241D02*
X6749394Y-261107D01*
X6537260Y-261107D01*
X6537260Y-473241D01*
X6749394Y-473241D01*
X6749394Y-473241D02*
X6749394Y-261107D01*
X6537260Y-261107D01*
X6537260Y-473241D01*
X6749394Y-473241D01*
X6806067Y6388933D02*
X6806067Y6601067D01*
X6593933Y6601067D01*
X6593933Y6388933D01*
X6806067Y6388933D01*
X6806067Y4688933D02*
X6806067Y4901067D01*
X6593933Y4901067D01*
X6593933Y4688933D01*
X6806067Y4688933D01*
X6806067Y2988933D02*
X6806067Y3201067D01*
X6593933Y3201067D01*
X6593933Y2988933D01*
X6806067Y2988933D01*
X6806067Y1288933D02*
X6806067Y1501067D01*
X6593933Y1501067D01*
X6593933Y1288933D01*
X6806067Y1288933D01*
X7175417Y-815154D02*
X7175417Y-603020D01*
X6963283Y-603020D01*
X6963283Y-815154D01*
X7175417Y-815154D01*
X7306067Y6608933D02*
X7306067Y6821067D01*
X7093933Y6821067D01*
X7093933Y6608933D01*
X7306067Y6608933D01*
X7306067Y6608933D02*
X7306067Y6821067D01*
X7093933Y6821067D01*
X7093933Y6608933D01*
X7306067Y6608933D01*
X7306067Y4908933D02*
X7306067Y5121067D01*
X7093933Y5121067D01*
X7093933Y4908933D01*
X7306067Y4908933D01*
X7306067Y4908933D02*
X7306067Y5121067D01*
X7093933Y5121067D01*
X7093933Y4908933D01*
X7306067Y4908933D01*
X7306067Y3208933D02*
X7306067Y3421067D01*
X7093933Y3421067D01*
X7093933Y3208933D01*
X7306067Y3208933D01*
X7306067Y3208933D02*
X7306067Y3421067D01*
X7093933Y3421067D01*
X7093933Y3208933D01*
X7306067Y3208933D01*
X7306067Y1508933D02*
X7306067Y1721067D01*
X7093933Y1721067D01*
X7093933Y1508933D01*
X7306067Y1508933D01*
X7306067Y1508933D02*
X7306067Y1721067D01*
X7093933Y1721067D01*
X7093933Y1508933D01*
X7306067Y1508933D01*
X7806067Y6388933D02*
X7806067Y6601067D01*
X7593933Y6601067D01*
X7593933Y6388933D01*
X7806067Y6388933D01*
X7806067Y4688933D02*
X7806067Y4901067D01*
X7593933Y4901067D01*
X7593933Y4688933D01*
X7806067Y4688933D01*
X7806067Y2988933D02*
X7806067Y3201067D01*
X7593933Y3201067D01*
X7593933Y2988933D01*
X7806067Y2988933D01*
X7806067Y1288933D02*
X7806067Y1501067D01*
X7593933Y1501067D01*
X7593933Y1288933D01*
X7806067Y1288933D01*
X8203644Y-1241058D02*
X8203644Y-1028923D01*
X7991510Y-1028923D01*
X7991510Y-1241058D01*
X8203644Y-1241058D01*
X8746657Y-1300532D02*
X8746657Y-1088398D01*
X8534523Y-1088398D01*
X8534523Y-1300532D01*
X8746657Y-1300532D01*
X8746657Y-1300532D02*
X8746657Y-1088398D01*
X8534523Y-1088398D01*
X8534523Y-1300532D01*
X8746657Y-1300532D01*
X9069670Y-1741057D02*
X9069670Y-1528923D01*
X8857536Y-1528923D01*
X8857536Y-1741057D01*
X9069670Y-1741057D01*
X9952629Y-2418579D02*
X9952629Y-2206445D01*
X9740495Y-2206445D01*
X9740495Y-2418579D01*
X9952629Y-2418579D01*
X10461746Y-2616569D02*
X10461746Y-2404435D01*
X10249612Y-2404435D01*
X10249612Y-2616569D01*
X10461746Y-2616569D01*
X10461746Y-2616569D02*
X10461746Y-2404435D01*
X10249612Y-2404435D01*
X10249612Y-2616569D01*
X10461746Y-2616569D01*
X10659735Y-3125685D02*
X10659735Y-2913551D01*
X10447601Y-2913551D01*
X10447601Y-3125685D01*
X10659735Y-3125685D01*
D16*
X0Y4928550D02*
X171450Y5100000D01*
X0Y5271450D01*
X-171450Y5100000D01*
X0Y4928550D01*
X0Y3228550D02*
X171450Y3400000D01*
X0Y3571450D01*
X-171450Y3400000D01*
X0Y3228550D01*
X0Y1528550D02*
X171450Y1700000D01*
X0Y1871450D01*
X-171450Y1700000D01*
X0Y1528550D01*
X0Y-171450D02*
X171450Y0D01*
X0Y171450D01*
X-171450Y0D01*
X0Y-171450D01*
X1800000Y6118550D02*
X1971450Y6290000D01*
X1800000Y6461450D01*
X1628550Y6290000D01*
X1800000Y6118550D01*
X1800000Y4418550D02*
X1971450Y4590000D01*
X1800000Y4761450D01*
X1628550Y4590000D01*
X1800000Y4418550D01*
X1800000Y2718550D02*
X1971450Y2890000D01*
X1800000Y3061450D01*
X1628550Y2890000D01*
X1800000Y2718550D01*
X1800000Y1018550D02*
X1971450Y1190000D01*
X1800000Y1361450D01*
X1628550Y1190000D01*
X1800000Y1018550D01*
X3600000Y6458550D02*
X3771450Y6630000D01*
X3600000Y6801450D01*
X3428550Y6630000D01*
X3600000Y6458550D01*
X3600000Y4758550D02*
X3771450Y4930000D01*
X3600000Y5101450D01*
X3428550Y4930000D01*
X3600000Y4758550D01*
X3600000Y3058550D02*
X3771450Y3230000D01*
X3600000Y3401450D01*
X3428550Y3230000D01*
X3600000Y3058550D01*
X3600000Y1358550D02*
X3771450Y1530000D01*
X3600000Y1701450D01*
X3428550Y1530000D01*
X3600000Y1358550D01*
X5400000Y6118550D02*
X5571450Y6290000D01*
X5400000Y6461450D01*
X5228550Y6290000D01*
X5400000Y6118550D01*
X5400000Y4418550D02*
X5571450Y4590000D01*
X5400000Y4761450D01*
X5228550Y4590000D01*
X5400000Y4418550D01*
X5400000Y2718550D02*
X5571450Y2890000D01*
X5400000Y3061450D01*
X5228550Y2890000D01*
X5400000Y2718550D01*
X5400000Y1018550D02*
X5571450Y1190000D01*
X5400000Y1361450D01*
X5228550Y1190000D01*
X5400000Y1018550D01*
X6489330Y-1113350D02*
X6660780Y-941900D01*
X6489330Y-770450D01*
X6317880Y-941900D01*
X6489330Y-1113350D01*
X7200000Y5948550D02*
X7371450Y6120000D01*
X7200000Y6291450D01*
X7028550Y6120000D01*
X7200000Y5948550D01*
X7200000Y4248550D02*
X7371450Y4420000D01*
X7200000Y4591450D01*
X7028550Y4420000D01*
X7200000Y4248550D01*
X7200000Y2548550D02*
X7371450Y2720000D01*
X7200000Y2891450D01*
X7028550Y2720000D01*
X7200000Y2548550D01*
X7200000Y848550D02*
X7371450Y1020000D01*
X7200000Y1191450D01*
X7028550Y1020000D01*
X7200000Y848550D01*
X8343090Y-1881200D02*
X8514540Y-1709750D01*
X8343090Y-1538300D01*
X8171640Y-1709750D01*
X8343090Y-1881200D01*
X9934950Y-3102680D02*
X10106400Y-2931230D01*
X9934950Y-2759780D01*
X9763500Y-2931230D01*
X9934950Y-3102680D01*
D11*
X-746723Y-4546233D02*
X-746723Y-4346233D01*
X-746723Y-4346233D02*
X-699104Y-4346233D01*
X-699104Y-4346233D02*
X-670533Y-4355757D01*
X-670533Y-4355757D02*
X-651485Y-4374805D01*
X-651485Y-4374805D02*
X-641961Y-4393852D01*
X-641961Y-4393852D02*
X-632437Y-4431948D01*
X-632437Y-4431948D02*
X-632437Y-4460519D01*
X-632437Y-4460519D02*
X-641961Y-4498614D01*
X-641961Y-4498614D02*
X-651485Y-4517662D01*
X-651485Y-4517662D02*
X-670533Y-4536710D01*
X-670533Y-4536710D02*
X-699104Y-4546233D01*
X-699104Y-4546233D02*
X-746723Y-4546233D01*
X-546723Y-4546233D02*
X-546723Y-4412900D01*
X-546723Y-4450995D02*
X-537199Y-4431948D01*
X-537199Y-4431948D02*
X-527676Y-4422424D01*
X-527676Y-4422424D02*
X-508628Y-4412900D01*
X-508628Y-4412900D02*
X-489580Y-4412900D01*
X-422914Y-4546233D02*
X-422914Y-4412900D01*
X-422914Y-4346233D02*
X-432437Y-4355757D01*
X-432437Y-4355757D02*
X-422914Y-4365281D01*
X-422914Y-4365281D02*
X-413390Y-4355757D01*
X-413390Y-4355757D02*
X-422914Y-4346233D01*
X-422914Y-4346233D02*
X-422914Y-4365281D01*
X-299104Y-4546233D02*
X-318152Y-4536710D01*
X-318152Y-4536710D02*
X-327676Y-4517662D01*
X-327676Y-4517662D02*
X-327676Y-4346233D01*
X-194342Y-4546233D02*
X-213390Y-4536710D01*
X-213390Y-4536710D02*
X-222914Y-4517662D01*
X-222914Y-4517662D02*
X-222914Y-4346233D01*
X34229Y-4546233D02*
X34229Y-4346233D01*
X34229Y-4346233D02*
X100896Y-4489091D01*
X100896Y-4489091D02*
X167563Y-4346233D01*
X167563Y-4346233D02*
X167563Y-4546233D01*
X348515Y-4546233D02*
X348515Y-4441472D01*
X348515Y-4441472D02*
X338991Y-4422424D01*
X338991Y-4422424D02*
X319944Y-4412900D01*
X319944Y-4412900D02*
X281848Y-4412900D01*
X281848Y-4412900D02*
X262801Y-4422424D01*
X348515Y-4536710D02*
X329467Y-4546233D01*
X329467Y-4546233D02*
X281848Y-4546233D01*
X281848Y-4546233D02*
X262801Y-4536710D01*
X262801Y-4536710D02*
X253277Y-4517662D01*
X253277Y-4517662D02*
X253277Y-4498614D01*
X253277Y-4498614D02*
X262801Y-4479567D01*
X262801Y-4479567D02*
X281848Y-4470043D01*
X281848Y-4470043D02*
X329467Y-4470043D01*
X329467Y-4470043D02*
X348515Y-4460519D01*
X443753Y-4412900D02*
X443753Y-4612900D01*
X443753Y-4422424D02*
X462801Y-4412900D01*
X462801Y-4412900D02*
X500896Y-4412900D01*
X500896Y-4412900D02*
X519943Y-4422424D01*
X519943Y-4422424D02*
X529467Y-4431948D01*
X529467Y-4431948D02*
X538991Y-4450995D01*
X538991Y-4450995D02*
X538991Y-4508138D01*
X538991Y-4508138D02*
X529467Y-4527186D01*
X529467Y-4527186D02*
X519943Y-4536710D01*
X519943Y-4536710D02*
X500896Y-4546233D01*
X500896Y-4546233D02*
X462801Y-4546233D01*
X462801Y-4546233D02*
X443753Y-4536710D01*
X624705Y-4527186D02*
X634229Y-4536710D01*
X634229Y-4536710D02*
X624705Y-4546233D01*
X624705Y-4546233D02*
X615182Y-4536710D01*
X615182Y-4536710D02*
X624705Y-4527186D01*
X624705Y-4527186D02*
X624705Y-4546233D01*
X624705Y-4422424D02*
X634229Y-4431948D01*
X634229Y-4431948D02*
X624705Y-4441472D01*
X624705Y-4441472D02*
X615182Y-4431948D01*
X615182Y-4431948D02*
X624705Y-4422424D01*
X624705Y-4422424D02*
X624705Y-4441472D01*
D12*
X-1097500Y-4829750D02*
X-1007500Y-4919750D01*
X-1007500Y-4829750D02*
X-1097500Y-4919750D01*
D11*
X-708628Y-4766233D02*
X-689580Y-4766233D01*
X-689580Y-4766233D02*
X-670533Y-4775757D01*
X-670533Y-4775757D02*
X-661009Y-4785281D01*
X-661009Y-4785281D02*
X-651485Y-4804329D01*
X-651485Y-4804329D02*
X-641961Y-4842424D01*
X-641961Y-4842424D02*
X-641961Y-4890043D01*
X-641961Y-4890043D02*
X-651485Y-4928138D01*
X-651485Y-4928138D02*
X-661009Y-4947186D01*
X-661009Y-4947186D02*
X-670533Y-4956710D01*
X-670533Y-4956710D02*
X-689580Y-4966233D01*
X-689580Y-4966233D02*
X-708628Y-4966233D01*
X-708628Y-4966233D02*
X-727675Y-4956710D01*
X-727675Y-4956710D02*
X-737199Y-4947186D01*
X-737199Y-4947186D02*
X-746723Y-4928138D01*
X-746723Y-4928138D02*
X-756247Y-4890043D01*
X-756247Y-4890043D02*
X-756247Y-4842424D01*
X-756247Y-4842424D02*
X-746723Y-4804329D01*
X-746723Y-4804329D02*
X-737199Y-4785281D01*
X-737199Y-4785281D02*
X-727675Y-4775757D01*
X-727675Y-4775757D02*
X-708628Y-4766233D01*
X-556247Y-4947186D02*
X-546723Y-4956710D01*
X-546723Y-4956710D02*
X-556247Y-4966233D01*
X-556247Y-4966233D02*
X-565771Y-4956710D01*
X-565771Y-4956710D02*
X-556247Y-4947186D01*
X-556247Y-4947186D02*
X-556247Y-4966233D01*
X-451485Y-4966233D02*
X-413390Y-4966233D01*
X-413390Y-4966233D02*
X-394342Y-4956710D01*
X-394342Y-4956710D02*
X-384818Y-4947186D01*
X-384818Y-4947186D02*
X-365771Y-4918614D01*
X-365771Y-4918614D02*
X-356247Y-4880519D01*
X-356247Y-4880519D02*
X-356247Y-4804329D01*
X-356247Y-4804329D02*
X-365771Y-4785281D01*
X-365771Y-4785281D02*
X-375294Y-4775757D01*
X-375294Y-4775757D02*
X-394342Y-4766233D01*
X-394342Y-4766233D02*
X-432437Y-4766233D01*
X-432437Y-4766233D02*
X-451485Y-4775757D01*
X-451485Y-4775757D02*
X-461009Y-4785281D01*
X-461009Y-4785281D02*
X-470533Y-4804329D01*
X-470533Y-4804329D02*
X-470533Y-4851948D01*
X-470533Y-4851948D02*
X-461009Y-4870995D01*
X-461009Y-4870995D02*
X-451485Y-4880519D01*
X-451485Y-4880519D02*
X-432437Y-4890043D01*
X-432437Y-4890043D02*
X-394342Y-4890043D01*
X-394342Y-4890043D02*
X-375294Y-4880519D01*
X-375294Y-4880519D02*
X-365771Y-4870995D01*
X-365771Y-4870995D02*
X-356247Y-4851948D01*
X-232437Y-4766233D02*
X-213390Y-4766233D01*
X-213390Y-4766233D02*
X-194342Y-4775757D01*
X-194342Y-4775757D02*
X-184818Y-4785281D01*
X-184818Y-4785281D02*
X-175294Y-4804329D01*
X-175294Y-4804329D02*
X-165771Y-4842424D01*
X-165771Y-4842424D02*
X-165771Y-4890043D01*
X-165771Y-4890043D02*
X-175294Y-4928138D01*
X-175294Y-4928138D02*
X-184818Y-4947186D01*
X-184818Y-4947186D02*
X-194342Y-4956710D01*
X-194342Y-4956710D02*
X-213390Y-4966233D01*
X-213390Y-4966233D02*
X-232437Y-4966233D01*
X-232437Y-4966233D02*
X-251485Y-4956710D01*
X-251485Y-4956710D02*
X-261009Y-4947186D01*
X-261009Y-4947186D02*
X-270533Y-4928138D01*
X-270533Y-4928138D02*
X-280056Y-4890043D01*
X-280056Y-4890043D02*
X-280056Y-4842424D01*
X-280056Y-4842424D02*
X-270533Y-4804329D01*
X-270533Y-4804329D02*
X-261009Y-4785281D01*
X-261009Y-4785281D02*
X-251485Y-4775757D01*
X-251485Y-4775757D02*
X-232437Y-4766233D01*
X-41961Y-4766233D02*
X-22913Y-4766233D01*
X-22913Y-4766233D02*
X-3866Y-4775757D01*
X-3866Y-4775757D02*
X5658Y-4785281D01*
X5658Y-4785281D02*
X15182Y-4804329D01*
X15182Y-4804329D02*
X24705Y-4842424D01*
X24705Y-4842424D02*
X24705Y-4890043D01*
X24705Y-4890043D02*
X15182Y-4928138D01*
X15182Y-4928138D02*
X5658Y-4947186D01*
X5658Y-4947186D02*
X-3866Y-4956710D01*
X-3866Y-4956710D02*
X-22913Y-4966233D01*
X-22913Y-4966233D02*
X-41961Y-4966233D01*
X-41961Y-4966233D02*
X-61009Y-4956710D01*
X-61009Y-4956710D02*
X-70533Y-4947186D01*
X-70533Y-4947186D02*
X-80056Y-4928138D01*
X-80056Y-4928138D02*
X-89580Y-4890043D01*
X-89580Y-4890043D02*
X-89580Y-4842424D01*
X-89580Y-4842424D02*
X-80056Y-4804329D01*
X-80056Y-4804329D02*
X-70533Y-4785281D01*
X-70533Y-4785281D02*
X-61009Y-4775757D01*
X-61009Y-4775757D02*
X-41961Y-4766233D01*
X110420Y-4966233D02*
X110420Y-4832900D01*
X110420Y-4851948D02*
X119943Y-4842424D01*
X119943Y-4842424D02*
X138991Y-4832900D01*
X138991Y-4832900D02*
X167563Y-4832900D01*
X167563Y-4832900D02*
X186610Y-4842424D01*
X186610Y-4842424D02*
X196134Y-4861472D01*
X196134Y-4861472D02*
X196134Y-4966233D01*
X196134Y-4861472D02*
X205658Y-4842424D01*
X205658Y-4842424D02*
X224705Y-4832900D01*
X224705Y-4832900D02*
X253277Y-4832900D01*
X253277Y-4832900D02*
X272325Y-4842424D01*
X272325Y-4842424D02*
X281848Y-4861472D01*
X281848Y-4861472D02*
X281848Y-4966233D01*
X377086Y-4966233D02*
X377086Y-4832900D01*
X377086Y-4851948D02*
X386610Y-4842424D01*
X386610Y-4842424D02*
X405658Y-4832900D01*
X405658Y-4832900D02*
X434229Y-4832900D01*
X434229Y-4832900D02*
X453277Y-4842424D01*
X453277Y-4842424D02*
X462801Y-4861472D01*
X462801Y-4861472D02*
X462801Y-4966233D01*
X462801Y-4861472D02*
X472324Y-4842424D01*
X472324Y-4842424D02*
X491372Y-4832900D01*
X491372Y-4832900D02*
X519943Y-4832900D01*
X519943Y-4832900D02*
X538991Y-4842424D01*
X538991Y-4842424D02*
X548515Y-4861472D01*
X548515Y-4861472D02*
X548515Y-4966233D01*
X938991Y-4756710D02*
X767563Y-5013852D01*
X1196134Y-4766233D02*
X1215182Y-4766233D01*
X1215182Y-4766233D02*
X1234229Y-4775757D01*
X1234229Y-4775757D02*
X1243753Y-4785281D01*
X1243753Y-4785281D02*
X1253277Y-4804329D01*
X1253277Y-4804329D02*
X1262801Y-4842424D01*
X1262801Y-4842424D02*
X1262801Y-4890043D01*
X1262801Y-4890043D02*
X1253277Y-4928138D01*
X1253277Y-4928138D02*
X1243753Y-4947186D01*
X1243753Y-4947186D02*
X1234229Y-4956710D01*
X1234229Y-4956710D02*
X1215182Y-4966233D01*
X1215182Y-4966233D02*
X1196134Y-4966233D01*
X1196134Y-4966233D02*
X1177087Y-4956710D01*
X1177087Y-4956710D02*
X1167563Y-4947186D01*
X1167563Y-4947186D02*
X1158039Y-4928138D01*
X1158039Y-4928138D02*
X1148515Y-4890043D01*
X1148515Y-4890043D02*
X1148515Y-4842424D01*
X1148515Y-4842424D02*
X1158039Y-4804329D01*
X1158039Y-4804329D02*
X1167563Y-4785281D01*
X1167563Y-4785281D02*
X1177087Y-4775757D01*
X1177087Y-4775757D02*
X1196134Y-4766233D01*
X1348515Y-4947186D02*
X1358039Y-4956710D01*
X1358039Y-4956710D02*
X1348515Y-4966233D01*
X1348515Y-4966233D02*
X1338991Y-4956710D01*
X1338991Y-4956710D02*
X1348515Y-4947186D01*
X1348515Y-4947186D02*
X1348515Y-4966233D01*
X1481848Y-4766233D02*
X1500896Y-4766233D01*
X1500896Y-4766233D02*
X1519944Y-4775757D01*
X1519944Y-4775757D02*
X1529467Y-4785281D01*
X1529467Y-4785281D02*
X1538991Y-4804329D01*
X1538991Y-4804329D02*
X1548515Y-4842424D01*
X1548515Y-4842424D02*
X1548515Y-4890043D01*
X1548515Y-4890043D02*
X1538991Y-4928138D01*
X1538991Y-4928138D02*
X1529467Y-4947186D01*
X1529467Y-4947186D02*
X1519944Y-4956710D01*
X1519944Y-4956710D02*
X1500896Y-4966233D01*
X1500896Y-4966233D02*
X1481848Y-4966233D01*
X1481848Y-4966233D02*
X1462801Y-4956710D01*
X1462801Y-4956710D02*
X1453277Y-4947186D01*
X1453277Y-4947186D02*
X1443753Y-4928138D01*
X1443753Y-4928138D02*
X1434229Y-4890043D01*
X1434229Y-4890043D02*
X1434229Y-4842424D01*
X1434229Y-4842424D02*
X1443753Y-4804329D01*
X1443753Y-4804329D02*
X1453277Y-4785281D01*
X1453277Y-4785281D02*
X1462801Y-4775757D01*
X1462801Y-4775757D02*
X1481848Y-4766233D01*
X1615182Y-4766233D02*
X1738991Y-4766233D01*
X1738991Y-4766233D02*
X1672325Y-4842424D01*
X1672325Y-4842424D02*
X1700896Y-4842424D01*
X1700896Y-4842424D02*
X1719944Y-4851948D01*
X1719944Y-4851948D02*
X1729467Y-4861472D01*
X1729467Y-4861472D02*
X1738991Y-4880519D01*
X1738991Y-4880519D02*
X1738991Y-4928138D01*
X1738991Y-4928138D02*
X1729467Y-4947186D01*
X1729467Y-4947186D02*
X1719944Y-4956710D01*
X1719944Y-4956710D02*
X1700896Y-4966233D01*
X1700896Y-4966233D02*
X1643753Y-4966233D01*
X1643753Y-4966233D02*
X1624706Y-4956710D01*
X1624706Y-4956710D02*
X1615182Y-4947186D01*
X1919944Y-4766233D02*
X1824706Y-4766233D01*
X1824706Y-4766233D02*
X1815182Y-4861472D01*
X1815182Y-4861472D02*
X1824706Y-4851948D01*
X1824706Y-4851948D02*
X1843753Y-4842424D01*
X1843753Y-4842424D02*
X1891372Y-4842424D01*
X1891372Y-4842424D02*
X1910420Y-4851948D01*
X1910420Y-4851948D02*
X1919944Y-4861472D01*
X1919944Y-4861472D02*
X1929467Y-4880519D01*
X1929467Y-4880519D02*
X1929467Y-4928138D01*
X1929467Y-4928138D02*
X1919944Y-4947186D01*
X1919944Y-4947186D02*
X1910420Y-4956710D01*
X1910420Y-4956710D02*
X1891372Y-4966233D01*
X1891372Y-4966233D02*
X1843753Y-4966233D01*
X1843753Y-4966233D02*
X1824706Y-4956710D01*
X1824706Y-4956710D02*
X1815182Y-4947186D01*
X2100896Y-4832900D02*
X2100896Y-4966233D01*
X2053277Y-4756710D02*
X2005658Y-4899567D01*
X2005658Y-4899567D02*
X2129468Y-4899567D01*
X2196134Y-4766233D02*
X2196134Y-4804329D01*
X2272325Y-4766233D02*
X2272325Y-4804329D01*
X2567563Y-5042424D02*
X2558039Y-5032900D01*
X2558039Y-5032900D02*
X2538991Y-5004329D01*
X2538991Y-5004329D02*
X2529468Y-4985281D01*
X2529468Y-4985281D02*
X2519944Y-4956710D01*
X2519944Y-4956710D02*
X2510420Y-4909091D01*
X2510420Y-4909091D02*
X2510420Y-4870995D01*
X2510420Y-4870995D02*
X2519944Y-4823376D01*
X2519944Y-4823376D02*
X2529468Y-4794805D01*
X2529468Y-4794805D02*
X2538991Y-4775757D01*
X2538991Y-4775757D02*
X2558039Y-4747186D01*
X2558039Y-4747186D02*
X2567563Y-4737662D01*
X2729468Y-4832900D02*
X2729468Y-4966233D01*
X2681849Y-4756710D02*
X2634230Y-4899567D01*
X2634230Y-4899567D02*
X2758039Y-4899567D01*
X2986610Y-4966233D02*
X2986610Y-4766233D01*
X3072325Y-4966233D02*
X3072325Y-4861472D01*
X3072325Y-4861472D02*
X3062801Y-4842424D01*
X3062801Y-4842424D02*
X3043753Y-4832900D01*
X3043753Y-4832900D02*
X3015182Y-4832900D01*
X3015182Y-4832900D02*
X2996134Y-4842424D01*
X2996134Y-4842424D02*
X2986610Y-4851948D01*
X3196134Y-4966233D02*
X3177087Y-4956710D01*
X3177087Y-4956710D02*
X3167563Y-4947186D01*
X3167563Y-4947186D02*
X3158039Y-4928138D01*
X3158039Y-4928138D02*
X3158039Y-4870995D01*
X3158039Y-4870995D02*
X3167563Y-4851948D01*
X3167563Y-4851948D02*
X3177087Y-4842424D01*
X3177087Y-4842424D02*
X3196134Y-4832900D01*
X3196134Y-4832900D02*
X3224706Y-4832900D01*
X3224706Y-4832900D02*
X3243753Y-4842424D01*
X3243753Y-4842424D02*
X3253277Y-4851948D01*
X3253277Y-4851948D02*
X3262801Y-4870995D01*
X3262801Y-4870995D02*
X3262801Y-4928138D01*
X3262801Y-4928138D02*
X3253277Y-4947186D01*
X3253277Y-4947186D02*
X3243753Y-4956710D01*
X3243753Y-4956710D02*
X3224706Y-4966233D01*
X3224706Y-4966233D02*
X3196134Y-4966233D01*
X3377087Y-4966233D02*
X3358039Y-4956710D01*
X3358039Y-4956710D02*
X3348515Y-4937662D01*
X3348515Y-4937662D02*
X3348515Y-4766233D01*
X3529468Y-4956710D02*
X3510420Y-4966233D01*
X3510420Y-4966233D02*
X3472325Y-4966233D01*
X3472325Y-4966233D02*
X3453277Y-4956710D01*
X3453277Y-4956710D02*
X3443753Y-4937662D01*
X3443753Y-4937662D02*
X3443753Y-4861472D01*
X3443753Y-4861472D02*
X3453277Y-4842424D01*
X3453277Y-4842424D02*
X3472325Y-4832900D01*
X3472325Y-4832900D02*
X3510420Y-4832900D01*
X3510420Y-4832900D02*
X3529468Y-4842424D01*
X3529468Y-4842424D02*
X3538991Y-4861472D01*
X3538991Y-4861472D02*
X3538991Y-4880519D01*
X3538991Y-4880519D02*
X3443753Y-4899567D01*
X3615182Y-4956710D02*
X3634230Y-4966233D01*
X3634230Y-4966233D02*
X3672325Y-4966233D01*
X3672325Y-4966233D02*
X3691372Y-4956710D01*
X3691372Y-4956710D02*
X3700896Y-4937662D01*
X3700896Y-4937662D02*
X3700896Y-4928138D01*
X3700896Y-4928138D02*
X3691372Y-4909091D01*
X3691372Y-4909091D02*
X3672325Y-4899567D01*
X3672325Y-4899567D02*
X3643753Y-4899567D01*
X3643753Y-4899567D02*
X3624706Y-4890043D01*
X3624706Y-4890043D02*
X3615182Y-4870995D01*
X3615182Y-4870995D02*
X3615182Y-4861472D01*
X3615182Y-4861472D02*
X3624706Y-4842424D01*
X3624706Y-4842424D02*
X3643753Y-4832900D01*
X3643753Y-4832900D02*
X3672325Y-4832900D01*
X3672325Y-4832900D02*
X3691372Y-4842424D01*
X3767563Y-5042424D02*
X3777087Y-5032900D01*
X3777087Y-5032900D02*
X3796134Y-5004329D01*
X3796134Y-5004329D02*
X3805658Y-4985281D01*
X3805658Y-4985281D02*
X3815182Y-4956710D01*
X3815182Y-4956710D02*
X3824706Y-4909091D01*
X3824706Y-4909091D02*
X3824706Y-4870995D01*
X3824706Y-4870995D02*
X3815182Y-4823376D01*
X3815182Y-4823376D02*
X3805658Y-4794805D01*
X3805658Y-4794805D02*
X3796134Y-4775757D01*
X3796134Y-4775757D02*
X3777087Y-4747186D01*
X3777087Y-4747186D02*
X3767563Y-4737662D01*
X4129468Y-5042424D02*
X4119944Y-5032900D01*
X4119944Y-5032900D02*
X4100896Y-5004329D01*
X4100896Y-5004329D02*
X4091372Y-4985281D01*
X4091372Y-4985281D02*
X4081849Y-4956710D01*
X4081849Y-4956710D02*
X4072325Y-4909091D01*
X4072325Y-4909091D02*
X4072325Y-4870995D01*
X4072325Y-4870995D02*
X4081849Y-4823376D01*
X4081849Y-4823376D02*
X4091372Y-4794805D01*
X4091372Y-4794805D02*
X4100896Y-4775757D01*
X4100896Y-4775757D02*
X4119944Y-4747186D01*
X4119944Y-4747186D02*
X4129468Y-4737662D01*
X4205658Y-4832900D02*
X4205658Y-4966233D01*
X4205658Y-4851948D02*
X4215182Y-4842424D01*
X4215182Y-4842424D02*
X4234230Y-4832900D01*
X4234230Y-4832900D02*
X4262801Y-4832900D01*
X4262801Y-4832900D02*
X4281849Y-4842424D01*
X4281849Y-4842424D02*
X4291373Y-4861472D01*
X4291373Y-4861472D02*
X4291373Y-4966233D01*
X4415182Y-4966233D02*
X4396134Y-4956710D01*
X4396134Y-4956710D02*
X4386611Y-4947186D01*
X4386611Y-4947186D02*
X4377087Y-4928138D01*
X4377087Y-4928138D02*
X4377087Y-4870995D01*
X4377087Y-4870995D02*
X4386611Y-4851948D01*
X4386611Y-4851948D02*
X4396134Y-4842424D01*
X4396134Y-4842424D02*
X4415182Y-4832900D01*
X4415182Y-4832900D02*
X4443754Y-4832900D01*
X4443754Y-4832900D02*
X4462801Y-4842424D01*
X4462801Y-4842424D02*
X4472325Y-4851948D01*
X4472325Y-4851948D02*
X4481849Y-4870995D01*
X4481849Y-4870995D02*
X4481849Y-4928138D01*
X4481849Y-4928138D02*
X4472325Y-4947186D01*
X4472325Y-4947186D02*
X4462801Y-4956710D01*
X4462801Y-4956710D02*
X4443754Y-4966233D01*
X4443754Y-4966233D02*
X4415182Y-4966233D01*
X4538992Y-4832900D02*
X4615182Y-4832900D01*
X4567563Y-4766233D02*
X4567563Y-4937662D01*
X4567563Y-4937662D02*
X4577087Y-4956710D01*
X4577087Y-4956710D02*
X4596134Y-4966233D01*
X4596134Y-4966233D02*
X4615182Y-4966233D01*
X4834230Y-4832900D02*
X4834230Y-5032900D01*
X4834230Y-4842424D02*
X4853277Y-4832900D01*
X4853277Y-4832900D02*
X4891373Y-4832900D01*
X4891373Y-4832900D02*
X4910420Y-4842424D01*
X4910420Y-4842424D02*
X4919944Y-4851948D01*
X4919944Y-4851948D02*
X4929468Y-4870995D01*
X4929468Y-4870995D02*
X4929468Y-4928138D01*
X4929468Y-4928138D02*
X4919944Y-4947186D01*
X4919944Y-4947186D02*
X4910420Y-4956710D01*
X4910420Y-4956710D02*
X4891373Y-4966233D01*
X4891373Y-4966233D02*
X4853277Y-4966233D01*
X4853277Y-4966233D02*
X4834230Y-4956710D01*
X5043754Y-4966233D02*
X5024706Y-4956710D01*
X5024706Y-4956710D02*
X5015182Y-4937662D01*
X5015182Y-4937662D02*
X5015182Y-4766233D01*
X5205658Y-4966233D02*
X5205658Y-4861472D01*
X5205658Y-4861472D02*
X5196135Y-4842424D01*
X5196135Y-4842424D02*
X5177087Y-4832900D01*
X5177087Y-4832900D02*
X5138992Y-4832900D01*
X5138992Y-4832900D02*
X5119944Y-4842424D01*
X5205658Y-4956710D02*
X5186611Y-4966233D01*
X5186611Y-4966233D02*
X5138992Y-4966233D01*
X5138992Y-4966233D02*
X5119944Y-4956710D01*
X5119944Y-4956710D02*
X5110420Y-4937662D01*
X5110420Y-4937662D02*
X5110420Y-4918614D01*
X5110420Y-4918614D02*
X5119944Y-4899567D01*
X5119944Y-4899567D02*
X5138992Y-4890043D01*
X5138992Y-4890043D02*
X5186611Y-4890043D01*
X5186611Y-4890043D02*
X5205658Y-4880519D01*
X5272325Y-4832900D02*
X5348515Y-4832900D01*
X5300896Y-4766233D02*
X5300896Y-4937662D01*
X5300896Y-4937662D02*
X5310420Y-4956710D01*
X5310420Y-4956710D02*
X5329468Y-4966233D01*
X5329468Y-4966233D02*
X5348515Y-4966233D01*
X5491373Y-4956710D02*
X5472325Y-4966233D01*
X5472325Y-4966233D02*
X5434230Y-4966233D01*
X5434230Y-4966233D02*
X5415182Y-4956710D01*
X5415182Y-4956710D02*
X5405658Y-4937662D01*
X5405658Y-4937662D02*
X5405658Y-4861472D01*
X5405658Y-4861472D02*
X5415182Y-4842424D01*
X5415182Y-4842424D02*
X5434230Y-4832900D01*
X5434230Y-4832900D02*
X5472325Y-4832900D01*
X5472325Y-4832900D02*
X5491373Y-4842424D01*
X5491373Y-4842424D02*
X5500896Y-4861472D01*
X5500896Y-4861472D02*
X5500896Y-4880519D01*
X5500896Y-4880519D02*
X5405658Y-4899567D01*
X5672325Y-4966233D02*
X5672325Y-4766233D01*
X5672325Y-4956710D02*
X5653277Y-4966233D01*
X5653277Y-4966233D02*
X5615182Y-4966233D01*
X5615182Y-4966233D02*
X5596134Y-4956710D01*
X5596134Y-4956710D02*
X5586611Y-4947186D01*
X5586611Y-4947186D02*
X5577087Y-4928138D01*
X5577087Y-4928138D02*
X5577087Y-4870995D01*
X5577087Y-4870995D02*
X5586611Y-4851948D01*
X5586611Y-4851948D02*
X5596134Y-4842424D01*
X5596134Y-4842424D02*
X5615182Y-4832900D01*
X5615182Y-4832900D02*
X5653277Y-4832900D01*
X5653277Y-4832900D02*
X5672325Y-4842424D01*
X5748515Y-5042424D02*
X5758039Y-5032900D01*
X5758039Y-5032900D02*
X5777087Y-5004329D01*
X5777087Y-5004329D02*
X5786611Y-4985281D01*
X5786611Y-4985281D02*
X5796134Y-4956710D01*
X5796134Y-4956710D02*
X5805658Y-4909091D01*
X5805658Y-4909091D02*
X5805658Y-4870995D01*
X5805658Y-4870995D02*
X5796134Y-4823376D01*
X5796134Y-4823376D02*
X5786611Y-4794805D01*
X5786611Y-4794805D02*
X5777087Y-4775757D01*
X5777087Y-4775757D02*
X5758039Y-4747186D01*
X5758039Y-4747186D02*
X5748515Y-4737662D01*
D13*
X-1007500Y-5138750D02*
G75*
G02*
X-1127500Y-5138750I-60000J0D01*
G01*
X-1127500Y-5138750D02*
G75*
G02*
X-1007500Y-5138750I60000J0D01*
G01*
D11*
X-641961Y-5230233D02*
X-756247Y-5230233D01*
X-699104Y-5230233D02*
X-699104Y-5030233D01*
X-699104Y-5030233D02*
X-718152Y-5058805D01*
X-718152Y-5058805D02*
X-737199Y-5077852D01*
X-737199Y-5077852D02*
X-756247Y-5087376D01*
X-556247Y-5211186D02*
X-546723Y-5220710D01*
X-546723Y-5220710D02*
X-556247Y-5230233D01*
X-556247Y-5230233D02*
X-565771Y-5220710D01*
X-565771Y-5220710D02*
X-556247Y-5211186D01*
X-556247Y-5211186D02*
X-556247Y-5230233D01*
X-470533Y-5049281D02*
X-461009Y-5039757D01*
X-461009Y-5039757D02*
X-441961Y-5030233D01*
X-441961Y-5030233D02*
X-394342Y-5030233D01*
X-394342Y-5030233D02*
X-375294Y-5039757D01*
X-375294Y-5039757D02*
X-365771Y-5049281D01*
X-365771Y-5049281D02*
X-356247Y-5068329D01*
X-356247Y-5068329D02*
X-356247Y-5087376D01*
X-356247Y-5087376D02*
X-365771Y-5115948D01*
X-365771Y-5115948D02*
X-480056Y-5230233D01*
X-480056Y-5230233D02*
X-356247Y-5230233D01*
X-232437Y-5030233D02*
X-213390Y-5030233D01*
X-213390Y-5030233D02*
X-194342Y-5039757D01*
X-194342Y-5039757D02*
X-184818Y-5049281D01*
X-184818Y-5049281D02*
X-175294Y-5068329D01*
X-175294Y-5068329D02*
X-165771Y-5106424D01*
X-165771Y-5106424D02*
X-165771Y-5154043D01*
X-165771Y-5154043D02*
X-175294Y-5192138D01*
X-175294Y-5192138D02*
X-184818Y-5211186D01*
X-184818Y-5211186D02*
X-194342Y-5220710D01*
X-194342Y-5220710D02*
X-213390Y-5230233D01*
X-213390Y-5230233D02*
X-232437Y-5230233D01*
X-232437Y-5230233D02*
X-251485Y-5220710D01*
X-251485Y-5220710D02*
X-261009Y-5211186D01*
X-261009Y-5211186D02*
X-270533Y-5192138D01*
X-270533Y-5192138D02*
X-280056Y-5154043D01*
X-280056Y-5154043D02*
X-280056Y-5106424D01*
X-280056Y-5106424D02*
X-270533Y-5068329D01*
X-270533Y-5068329D02*
X-261009Y-5049281D01*
X-261009Y-5049281D02*
X-251485Y-5039757D01*
X-251485Y-5039757D02*
X-232437Y-5030233D01*
X-41961Y-5030233D02*
X-22913Y-5030233D01*
X-22913Y-5030233D02*
X-3866Y-5039757D01*
X-3866Y-5039757D02*
X5658Y-5049281D01*
X5658Y-5049281D02*
X15182Y-5068329D01*
X15182Y-5068329D02*
X24705Y-5106424D01*
X24705Y-5106424D02*
X24705Y-5154043D01*
X24705Y-5154043D02*
X15182Y-5192138D01*
X15182Y-5192138D02*
X5658Y-5211186D01*
X5658Y-5211186D02*
X-3866Y-5220710D01*
X-3866Y-5220710D02*
X-22913Y-5230233D01*
X-22913Y-5230233D02*
X-41961Y-5230233D01*
X-41961Y-5230233D02*
X-61009Y-5220710D01*
X-61009Y-5220710D02*
X-70533Y-5211186D01*
X-70533Y-5211186D02*
X-80056Y-5192138D01*
X-80056Y-5192138D02*
X-89580Y-5154043D01*
X-89580Y-5154043D02*
X-89580Y-5106424D01*
X-89580Y-5106424D02*
X-80056Y-5068329D01*
X-80056Y-5068329D02*
X-70533Y-5049281D01*
X-70533Y-5049281D02*
X-61009Y-5039757D01*
X-61009Y-5039757D02*
X-41961Y-5030233D01*
X110420Y-5230233D02*
X110420Y-5096900D01*
X110420Y-5115948D02*
X119943Y-5106424D01*
X119943Y-5106424D02*
X138991Y-5096900D01*
X138991Y-5096900D02*
X167563Y-5096900D01*
X167563Y-5096900D02*
X186610Y-5106424D01*
X186610Y-5106424D02*
X196134Y-5125472D01*
X196134Y-5125472D02*
X196134Y-5230233D01*
X196134Y-5125472D02*
X205658Y-5106424D01*
X205658Y-5106424D02*
X224705Y-5096900D01*
X224705Y-5096900D02*
X253277Y-5096900D01*
X253277Y-5096900D02*
X272325Y-5106424D01*
X272325Y-5106424D02*
X281848Y-5125472D01*
X281848Y-5125472D02*
X281848Y-5230233D01*
X377086Y-5230233D02*
X377086Y-5096900D01*
X377086Y-5115948D02*
X386610Y-5106424D01*
X386610Y-5106424D02*
X405658Y-5096900D01*
X405658Y-5096900D02*
X434229Y-5096900D01*
X434229Y-5096900D02*
X453277Y-5106424D01*
X453277Y-5106424D02*
X462801Y-5125472D01*
X462801Y-5125472D02*
X462801Y-5230233D01*
X462801Y-5125472D02*
X472324Y-5106424D01*
X472324Y-5106424D02*
X491372Y-5096900D01*
X491372Y-5096900D02*
X519943Y-5096900D01*
X519943Y-5096900D02*
X538991Y-5106424D01*
X538991Y-5106424D02*
X548515Y-5125472D01*
X548515Y-5125472D02*
X548515Y-5230233D01*
X938991Y-5020710D02*
X767563Y-5277852D01*
X1196134Y-5030233D02*
X1215182Y-5030233D01*
X1215182Y-5030233D02*
X1234229Y-5039757D01*
X1234229Y-5039757D02*
X1243753Y-5049281D01*
X1243753Y-5049281D02*
X1253277Y-5068329D01*
X1253277Y-5068329D02*
X1262801Y-5106424D01*
X1262801Y-5106424D02*
X1262801Y-5154043D01*
X1262801Y-5154043D02*
X1253277Y-5192138D01*
X1253277Y-5192138D02*
X1243753Y-5211186D01*
X1243753Y-5211186D02*
X1234229Y-5220710D01*
X1234229Y-5220710D02*
X1215182Y-5230233D01*
X1215182Y-5230233D02*
X1196134Y-5230233D01*
X1196134Y-5230233D02*
X1177087Y-5220710D01*
X1177087Y-5220710D02*
X1167563Y-5211186D01*
X1167563Y-5211186D02*
X1158039Y-5192138D01*
X1158039Y-5192138D02*
X1148515Y-5154043D01*
X1148515Y-5154043D02*
X1148515Y-5106424D01*
X1148515Y-5106424D02*
X1158039Y-5068329D01*
X1158039Y-5068329D02*
X1167563Y-5049281D01*
X1167563Y-5049281D02*
X1177087Y-5039757D01*
X1177087Y-5039757D02*
X1196134Y-5030233D01*
X1348515Y-5211186D02*
X1358039Y-5220710D01*
X1358039Y-5220710D02*
X1348515Y-5230233D01*
X1348515Y-5230233D02*
X1338991Y-5220710D01*
X1338991Y-5220710D02*
X1348515Y-5211186D01*
X1348515Y-5211186D02*
X1348515Y-5230233D01*
X1481848Y-5030233D02*
X1500896Y-5030233D01*
X1500896Y-5030233D02*
X1519944Y-5039757D01*
X1519944Y-5039757D02*
X1529467Y-5049281D01*
X1529467Y-5049281D02*
X1538991Y-5068329D01*
X1538991Y-5068329D02*
X1548515Y-5106424D01*
X1548515Y-5106424D02*
X1548515Y-5154043D01*
X1548515Y-5154043D02*
X1538991Y-5192138D01*
X1538991Y-5192138D02*
X1529467Y-5211186D01*
X1529467Y-5211186D02*
X1519944Y-5220710D01*
X1519944Y-5220710D02*
X1500896Y-5230233D01*
X1500896Y-5230233D02*
X1481848Y-5230233D01*
X1481848Y-5230233D02*
X1462801Y-5220710D01*
X1462801Y-5220710D02*
X1453277Y-5211186D01*
X1453277Y-5211186D02*
X1443753Y-5192138D01*
X1443753Y-5192138D02*
X1434229Y-5154043D01*
X1434229Y-5154043D02*
X1434229Y-5106424D01*
X1434229Y-5106424D02*
X1443753Y-5068329D01*
X1443753Y-5068329D02*
X1453277Y-5049281D01*
X1453277Y-5049281D02*
X1462801Y-5039757D01*
X1462801Y-5039757D02*
X1481848Y-5030233D01*
X1719944Y-5096900D02*
X1719944Y-5230233D01*
X1672325Y-5020710D02*
X1624706Y-5163567D01*
X1624706Y-5163567D02*
X1748515Y-5163567D01*
X1805658Y-5030233D02*
X1938991Y-5030233D01*
X1938991Y-5030233D02*
X1853277Y-5230233D01*
X2005658Y-5049281D02*
X2015182Y-5039757D01*
X2015182Y-5039757D02*
X2034229Y-5030233D01*
X2034229Y-5030233D02*
X2081848Y-5030233D01*
X2081848Y-5030233D02*
X2100896Y-5039757D01*
X2100896Y-5039757D02*
X2110420Y-5049281D01*
X2110420Y-5049281D02*
X2119944Y-5068329D01*
X2119944Y-5068329D02*
X2119944Y-5087376D01*
X2119944Y-5087376D02*
X2110420Y-5115948D01*
X2110420Y-5115948D02*
X1996134Y-5230233D01*
X1996134Y-5230233D02*
X2119944Y-5230233D01*
X2196134Y-5030233D02*
X2196134Y-5068329D01*
X2272325Y-5030233D02*
X2272325Y-5068329D01*
X2567563Y-5306424D02*
X2558039Y-5296900D01*
X2558039Y-5296900D02*
X2538991Y-5268329D01*
X2538991Y-5268329D02*
X2529468Y-5249281D01*
X2529468Y-5249281D02*
X2519944Y-5220710D01*
X2519944Y-5220710D02*
X2510420Y-5173091D01*
X2510420Y-5173091D02*
X2510420Y-5134995D01*
X2510420Y-5134995D02*
X2519944Y-5087376D01*
X2519944Y-5087376D02*
X2529468Y-5058805D01*
X2529468Y-5058805D02*
X2538991Y-5039757D01*
X2538991Y-5039757D02*
X2558039Y-5011186D01*
X2558039Y-5011186D02*
X2567563Y-5001662D01*
X2729468Y-5096900D02*
X2729468Y-5230233D01*
X2681849Y-5020710D02*
X2634230Y-5163567D01*
X2634230Y-5163567D02*
X2758039Y-5163567D01*
X2986610Y-5230233D02*
X2986610Y-5030233D01*
X3072325Y-5230233D02*
X3072325Y-5125472D01*
X3072325Y-5125472D02*
X3062801Y-5106424D01*
X3062801Y-5106424D02*
X3043753Y-5096900D01*
X3043753Y-5096900D02*
X3015182Y-5096900D01*
X3015182Y-5096900D02*
X2996134Y-5106424D01*
X2996134Y-5106424D02*
X2986610Y-5115948D01*
X3196134Y-5230233D02*
X3177087Y-5220710D01*
X3177087Y-5220710D02*
X3167563Y-5211186D01*
X3167563Y-5211186D02*
X3158039Y-5192138D01*
X3158039Y-5192138D02*
X3158039Y-5134995D01*
X3158039Y-5134995D02*
X3167563Y-5115948D01*
X3167563Y-5115948D02*
X3177087Y-5106424D01*
X3177087Y-5106424D02*
X3196134Y-5096900D01*
X3196134Y-5096900D02*
X3224706Y-5096900D01*
X3224706Y-5096900D02*
X3243753Y-5106424D01*
X3243753Y-5106424D02*
X3253277Y-5115948D01*
X3253277Y-5115948D02*
X3262801Y-5134995D01*
X3262801Y-5134995D02*
X3262801Y-5192138D01*
X3262801Y-5192138D02*
X3253277Y-5211186D01*
X3253277Y-5211186D02*
X3243753Y-5220710D01*
X3243753Y-5220710D02*
X3224706Y-5230233D01*
X3224706Y-5230233D02*
X3196134Y-5230233D01*
X3377087Y-5230233D02*
X3358039Y-5220710D01*
X3358039Y-5220710D02*
X3348515Y-5201662D01*
X3348515Y-5201662D02*
X3348515Y-5030233D01*
X3529468Y-5220710D02*
X3510420Y-5230233D01*
X3510420Y-5230233D02*
X3472325Y-5230233D01*
X3472325Y-5230233D02*
X3453277Y-5220710D01*
X3453277Y-5220710D02*
X3443753Y-5201662D01*
X3443753Y-5201662D02*
X3443753Y-5125472D01*
X3443753Y-5125472D02*
X3453277Y-5106424D01*
X3453277Y-5106424D02*
X3472325Y-5096900D01*
X3472325Y-5096900D02*
X3510420Y-5096900D01*
X3510420Y-5096900D02*
X3529468Y-5106424D01*
X3529468Y-5106424D02*
X3538991Y-5125472D01*
X3538991Y-5125472D02*
X3538991Y-5144519D01*
X3538991Y-5144519D02*
X3443753Y-5163567D01*
X3615182Y-5220710D02*
X3634230Y-5230233D01*
X3634230Y-5230233D02*
X3672325Y-5230233D01*
X3672325Y-5230233D02*
X3691372Y-5220710D01*
X3691372Y-5220710D02*
X3700896Y-5201662D01*
X3700896Y-5201662D02*
X3700896Y-5192138D01*
X3700896Y-5192138D02*
X3691372Y-5173091D01*
X3691372Y-5173091D02*
X3672325Y-5163567D01*
X3672325Y-5163567D02*
X3643753Y-5163567D01*
X3643753Y-5163567D02*
X3624706Y-5154043D01*
X3624706Y-5154043D02*
X3615182Y-5134995D01*
X3615182Y-5134995D02*
X3615182Y-5125472D01*
X3615182Y-5125472D02*
X3624706Y-5106424D01*
X3624706Y-5106424D02*
X3643753Y-5096900D01*
X3643753Y-5096900D02*
X3672325Y-5096900D01*
X3672325Y-5096900D02*
X3691372Y-5106424D01*
X3767563Y-5306424D02*
X3777087Y-5296900D01*
X3777087Y-5296900D02*
X3796134Y-5268329D01*
X3796134Y-5268329D02*
X3805658Y-5249281D01*
X3805658Y-5249281D02*
X3815182Y-5220710D01*
X3815182Y-5220710D02*
X3824706Y-5173091D01*
X3824706Y-5173091D02*
X3824706Y-5134995D01*
X3824706Y-5134995D02*
X3815182Y-5087376D01*
X3815182Y-5087376D02*
X3805658Y-5058805D01*
X3805658Y-5058805D02*
X3796134Y-5039757D01*
X3796134Y-5039757D02*
X3777087Y-5011186D01*
X3777087Y-5011186D02*
X3767563Y-5001662D01*
X4129468Y-5306424D02*
X4119944Y-5296900D01*
X4119944Y-5296900D02*
X4100896Y-5268329D01*
X4100896Y-5268329D02*
X4091372Y-5249281D01*
X4091372Y-5249281D02*
X4081849Y-5220710D01*
X4081849Y-5220710D02*
X4072325Y-5173091D01*
X4072325Y-5173091D02*
X4072325Y-5134995D01*
X4072325Y-5134995D02*
X4081849Y-5087376D01*
X4081849Y-5087376D02*
X4091372Y-5058805D01*
X4091372Y-5058805D02*
X4100896Y-5039757D01*
X4100896Y-5039757D02*
X4119944Y-5011186D01*
X4119944Y-5011186D02*
X4129468Y-5001662D01*
X4205658Y-5096900D02*
X4205658Y-5230233D01*
X4205658Y-5115948D02*
X4215182Y-5106424D01*
X4215182Y-5106424D02*
X4234230Y-5096900D01*
X4234230Y-5096900D02*
X4262801Y-5096900D01*
X4262801Y-5096900D02*
X4281849Y-5106424D01*
X4281849Y-5106424D02*
X4291373Y-5125472D01*
X4291373Y-5125472D02*
X4291373Y-5230233D01*
X4415182Y-5230233D02*
X4396134Y-5220710D01*
X4396134Y-5220710D02*
X4386611Y-5211186D01*
X4386611Y-5211186D02*
X4377087Y-5192138D01*
X4377087Y-5192138D02*
X4377087Y-5134995D01*
X4377087Y-5134995D02*
X4386611Y-5115948D01*
X4386611Y-5115948D02*
X4396134Y-5106424D01*
X4396134Y-5106424D02*
X4415182Y-5096900D01*
X4415182Y-5096900D02*
X4443754Y-5096900D01*
X4443754Y-5096900D02*
X4462801Y-5106424D01*
X4462801Y-5106424D02*
X4472325Y-5115948D01*
X4472325Y-5115948D02*
X4481849Y-5134995D01*
X4481849Y-5134995D02*
X4481849Y-5192138D01*
X4481849Y-5192138D02*
X4472325Y-5211186D01*
X4472325Y-5211186D02*
X4462801Y-5220710D01*
X4462801Y-5220710D02*
X4443754Y-5230233D01*
X4443754Y-5230233D02*
X4415182Y-5230233D01*
X4538992Y-5096900D02*
X4615182Y-5096900D01*
X4567563Y-5030233D02*
X4567563Y-5201662D01*
X4567563Y-5201662D02*
X4577087Y-5220710D01*
X4577087Y-5220710D02*
X4596134Y-5230233D01*
X4596134Y-5230233D02*
X4615182Y-5230233D01*
X4834230Y-5096900D02*
X4834230Y-5296900D01*
X4834230Y-5106424D02*
X4853277Y-5096900D01*
X4853277Y-5096900D02*
X4891373Y-5096900D01*
X4891373Y-5096900D02*
X4910420Y-5106424D01*
X4910420Y-5106424D02*
X4919944Y-5115948D01*
X4919944Y-5115948D02*
X4929468Y-5134995D01*
X4929468Y-5134995D02*
X4929468Y-5192138D01*
X4929468Y-5192138D02*
X4919944Y-5211186D01*
X4919944Y-5211186D02*
X4910420Y-5220710D01*
X4910420Y-5220710D02*
X4891373Y-5230233D01*
X4891373Y-5230233D02*
X4853277Y-5230233D01*
X4853277Y-5230233D02*
X4834230Y-5220710D01*
X5043754Y-5230233D02*
X5024706Y-5220710D01*
X5024706Y-5220710D02*
X5015182Y-5201662D01*
X5015182Y-5201662D02*
X5015182Y-5030233D01*
X5205658Y-5230233D02*
X5205658Y-5125472D01*
X5205658Y-5125472D02*
X5196135Y-5106424D01*
X5196135Y-5106424D02*
X5177087Y-5096900D01*
X5177087Y-5096900D02*
X5138992Y-5096900D01*
X5138992Y-5096900D02*
X5119944Y-5106424D01*
X5205658Y-5220710D02*
X5186611Y-5230233D01*
X5186611Y-5230233D02*
X5138992Y-5230233D01*
X5138992Y-5230233D02*
X5119944Y-5220710D01*
X5119944Y-5220710D02*
X5110420Y-5201662D01*
X5110420Y-5201662D02*
X5110420Y-5182614D01*
X5110420Y-5182614D02*
X5119944Y-5163567D01*
X5119944Y-5163567D02*
X5138992Y-5154043D01*
X5138992Y-5154043D02*
X5186611Y-5154043D01*
X5186611Y-5154043D02*
X5205658Y-5144519D01*
X5272325Y-5096900D02*
X5348515Y-5096900D01*
X5300896Y-5030233D02*
X5300896Y-5201662D01*
X5300896Y-5201662D02*
X5310420Y-5220710D01*
X5310420Y-5220710D02*
X5329468Y-5230233D01*
X5329468Y-5230233D02*
X5348515Y-5230233D01*
X5491373Y-5220710D02*
X5472325Y-5230233D01*
X5472325Y-5230233D02*
X5434230Y-5230233D01*
X5434230Y-5230233D02*
X5415182Y-5220710D01*
X5415182Y-5220710D02*
X5405658Y-5201662D01*
X5405658Y-5201662D02*
X5405658Y-5125472D01*
X5405658Y-5125472D02*
X5415182Y-5106424D01*
X5415182Y-5106424D02*
X5434230Y-5096900D01*
X5434230Y-5096900D02*
X5472325Y-5096900D01*
X5472325Y-5096900D02*
X5491373Y-5106424D01*
X5491373Y-5106424D02*
X5500896Y-5125472D01*
X5500896Y-5125472D02*
X5500896Y-5144519D01*
X5500896Y-5144519D02*
X5405658Y-5163567D01*
X5672325Y-5230233D02*
X5672325Y-5030233D01*
X5672325Y-5220710D02*
X5653277Y-5230233D01*
X5653277Y-5230233D02*
X5615182Y-5230233D01*
X5615182Y-5230233D02*
X5596134Y-5220710D01*
X5596134Y-5220710D02*
X5586611Y-5211186D01*
X5586611Y-5211186D02*
X5577087Y-5192138D01*
X5577087Y-5192138D02*
X5577087Y-5134995D01*
X5577087Y-5134995D02*
X5586611Y-5115948D01*
X5586611Y-5115948D02*
X5596134Y-5106424D01*
X5596134Y-5106424D02*
X5615182Y-5096900D01*
X5615182Y-5096900D02*
X5653277Y-5096900D01*
X5653277Y-5096900D02*
X5672325Y-5106424D01*
X5748515Y-5306424D02*
X5758039Y-5296900D01*
X5758039Y-5296900D02*
X5777087Y-5268329D01*
X5777087Y-5268329D02*
X5786611Y-5249281D01*
X5786611Y-5249281D02*
X5796134Y-5220710D01*
X5796134Y-5220710D02*
X5805658Y-5173091D01*
X5805658Y-5173091D02*
X5805658Y-5134995D01*
X5805658Y-5134995D02*
X5796134Y-5087376D01*
X5796134Y-5087376D02*
X5786611Y-5058805D01*
X5786611Y-5058805D02*
X5777087Y-5039757D01*
X5777087Y-5039757D02*
X5758039Y-5011186D01*
X5758039Y-5011186D02*
X5748515Y-5001662D01*
D14*
X-1092590Y-5317660D02*
X-1092590Y-5487840D01*
X-1177680Y-5402750D02*
X-1007500Y-5402750D01*
D11*
X-641961Y-5494233D02*
X-756247Y-5494233D01*
X-699104Y-5494233D02*
X-699104Y-5294233D01*
X-699104Y-5294233D02*
X-718152Y-5322805D01*
X-718152Y-5322805D02*
X-737199Y-5341852D01*
X-737199Y-5341852D02*
X-756247Y-5351376D01*
X-556247Y-5475186D02*
X-546723Y-5484710D01*
X-546723Y-5484710D02*
X-556247Y-5494233D01*
X-556247Y-5494233D02*
X-565771Y-5484710D01*
X-565771Y-5484710D02*
X-556247Y-5475186D01*
X-556247Y-5475186D02*
X-556247Y-5494233D01*
X-480056Y-5294233D02*
X-346723Y-5294233D01*
X-346723Y-5294233D02*
X-432437Y-5494233D01*
X-232437Y-5294233D02*
X-213390Y-5294233D01*
X-213390Y-5294233D02*
X-194342Y-5303757D01*
X-194342Y-5303757D02*
X-184818Y-5313281D01*
X-184818Y-5313281D02*
X-175294Y-5332329D01*
X-175294Y-5332329D02*
X-165771Y-5370424D01*
X-165771Y-5370424D02*
X-165771Y-5418043D01*
X-165771Y-5418043D02*
X-175294Y-5456138D01*
X-175294Y-5456138D02*
X-184818Y-5475186D01*
X-184818Y-5475186D02*
X-194342Y-5484710D01*
X-194342Y-5484710D02*
X-213390Y-5494233D01*
X-213390Y-5494233D02*
X-232437Y-5494233D01*
X-232437Y-5494233D02*
X-251485Y-5484710D01*
X-251485Y-5484710D02*
X-261009Y-5475186D01*
X-261009Y-5475186D02*
X-270533Y-5456138D01*
X-270533Y-5456138D02*
X-280056Y-5418043D01*
X-280056Y-5418043D02*
X-280056Y-5370424D01*
X-280056Y-5370424D02*
X-270533Y-5332329D01*
X-270533Y-5332329D02*
X-261009Y-5313281D01*
X-261009Y-5313281D02*
X-251485Y-5303757D01*
X-251485Y-5303757D02*
X-232437Y-5294233D01*
X-89580Y-5313281D02*
X-80056Y-5303757D01*
X-80056Y-5303757D02*
X-61009Y-5294233D01*
X-61009Y-5294233D02*
X-13390Y-5294233D01*
X-13390Y-5294233D02*
X5658Y-5303757D01*
X5658Y-5303757D02*
X15182Y-5313281D01*
X15182Y-5313281D02*
X24705Y-5332329D01*
X24705Y-5332329D02*
X24705Y-5351376D01*
X24705Y-5351376D02*
X15182Y-5379948D01*
X15182Y-5379948D02*
X-99104Y-5494233D01*
X-99104Y-5494233D02*
X24705Y-5494233D01*
X110420Y-5494233D02*
X110420Y-5360900D01*
X110420Y-5379948D02*
X119943Y-5370424D01*
X119943Y-5370424D02*
X138991Y-5360900D01*
X138991Y-5360900D02*
X167563Y-5360900D01*
X167563Y-5360900D02*
X186610Y-5370424D01*
X186610Y-5370424D02*
X196134Y-5389472D01*
X196134Y-5389472D02*
X196134Y-5494233D01*
X196134Y-5389472D02*
X205658Y-5370424D01*
X205658Y-5370424D02*
X224705Y-5360900D01*
X224705Y-5360900D02*
X253277Y-5360900D01*
X253277Y-5360900D02*
X272325Y-5370424D01*
X272325Y-5370424D02*
X281848Y-5389472D01*
X281848Y-5389472D02*
X281848Y-5494233D01*
X377086Y-5494233D02*
X377086Y-5360900D01*
X377086Y-5379948D02*
X386610Y-5370424D01*
X386610Y-5370424D02*
X405658Y-5360900D01*
X405658Y-5360900D02*
X434229Y-5360900D01*
X434229Y-5360900D02*
X453277Y-5370424D01*
X453277Y-5370424D02*
X462801Y-5389472D01*
X462801Y-5389472D02*
X462801Y-5494233D01*
X462801Y-5389472D02*
X472324Y-5370424D01*
X472324Y-5370424D02*
X491372Y-5360900D01*
X491372Y-5360900D02*
X519943Y-5360900D01*
X519943Y-5360900D02*
X538991Y-5370424D01*
X538991Y-5370424D02*
X548515Y-5389472D01*
X548515Y-5389472D02*
X548515Y-5494233D01*
X938991Y-5284710D02*
X767563Y-5541852D01*
X1196134Y-5294233D02*
X1215182Y-5294233D01*
X1215182Y-5294233D02*
X1234229Y-5303757D01*
X1234229Y-5303757D02*
X1243753Y-5313281D01*
X1243753Y-5313281D02*
X1253277Y-5332329D01*
X1253277Y-5332329D02*
X1262801Y-5370424D01*
X1262801Y-5370424D02*
X1262801Y-5418043D01*
X1262801Y-5418043D02*
X1253277Y-5456138D01*
X1253277Y-5456138D02*
X1243753Y-5475186D01*
X1243753Y-5475186D02*
X1234229Y-5484710D01*
X1234229Y-5484710D02*
X1215182Y-5494233D01*
X1215182Y-5494233D02*
X1196134Y-5494233D01*
X1196134Y-5494233D02*
X1177087Y-5484710D01*
X1177087Y-5484710D02*
X1167563Y-5475186D01*
X1167563Y-5475186D02*
X1158039Y-5456138D01*
X1158039Y-5456138D02*
X1148515Y-5418043D01*
X1148515Y-5418043D02*
X1148515Y-5370424D01*
X1148515Y-5370424D02*
X1158039Y-5332329D01*
X1158039Y-5332329D02*
X1167563Y-5313281D01*
X1167563Y-5313281D02*
X1177087Y-5303757D01*
X1177087Y-5303757D02*
X1196134Y-5294233D01*
X1348515Y-5475186D02*
X1358039Y-5484710D01*
X1358039Y-5484710D02*
X1348515Y-5494233D01*
X1348515Y-5494233D02*
X1338991Y-5484710D01*
X1338991Y-5484710D02*
X1348515Y-5475186D01*
X1348515Y-5475186D02*
X1348515Y-5494233D01*
X1481848Y-5294233D02*
X1500896Y-5294233D01*
X1500896Y-5294233D02*
X1519944Y-5303757D01*
X1519944Y-5303757D02*
X1529467Y-5313281D01*
X1529467Y-5313281D02*
X1538991Y-5332329D01*
X1538991Y-5332329D02*
X1548515Y-5370424D01*
X1548515Y-5370424D02*
X1548515Y-5418043D01*
X1548515Y-5418043D02*
X1538991Y-5456138D01*
X1538991Y-5456138D02*
X1529467Y-5475186D01*
X1529467Y-5475186D02*
X1519944Y-5484710D01*
X1519944Y-5484710D02*
X1500896Y-5494233D01*
X1500896Y-5494233D02*
X1481848Y-5494233D01*
X1481848Y-5494233D02*
X1462801Y-5484710D01*
X1462801Y-5484710D02*
X1453277Y-5475186D01*
X1453277Y-5475186D02*
X1443753Y-5456138D01*
X1443753Y-5456138D02*
X1434229Y-5418043D01*
X1434229Y-5418043D02*
X1434229Y-5370424D01*
X1434229Y-5370424D02*
X1443753Y-5332329D01*
X1443753Y-5332329D02*
X1453277Y-5313281D01*
X1453277Y-5313281D02*
X1462801Y-5303757D01*
X1462801Y-5303757D02*
X1481848Y-5294233D01*
X1719944Y-5294233D02*
X1681848Y-5294233D01*
X1681848Y-5294233D02*
X1662801Y-5303757D01*
X1662801Y-5303757D02*
X1653277Y-5313281D01*
X1653277Y-5313281D02*
X1634229Y-5341852D01*
X1634229Y-5341852D02*
X1624706Y-5379948D01*
X1624706Y-5379948D02*
X1624706Y-5456138D01*
X1624706Y-5456138D02*
X1634229Y-5475186D01*
X1634229Y-5475186D02*
X1643753Y-5484710D01*
X1643753Y-5484710D02*
X1662801Y-5494233D01*
X1662801Y-5494233D02*
X1700896Y-5494233D01*
X1700896Y-5494233D02*
X1719944Y-5484710D01*
X1719944Y-5484710D02*
X1729467Y-5475186D01*
X1729467Y-5475186D02*
X1738991Y-5456138D01*
X1738991Y-5456138D02*
X1738991Y-5408519D01*
X1738991Y-5408519D02*
X1729467Y-5389472D01*
X1729467Y-5389472D02*
X1719944Y-5379948D01*
X1719944Y-5379948D02*
X1700896Y-5370424D01*
X1700896Y-5370424D02*
X1662801Y-5370424D01*
X1662801Y-5370424D02*
X1643753Y-5379948D01*
X1643753Y-5379948D02*
X1634229Y-5389472D01*
X1634229Y-5389472D02*
X1624706Y-5408519D01*
X1805658Y-5294233D02*
X1938991Y-5294233D01*
X1938991Y-5294233D02*
X1853277Y-5494233D01*
X2053277Y-5294233D02*
X2072325Y-5294233D01*
X2072325Y-5294233D02*
X2091372Y-5303757D01*
X2091372Y-5303757D02*
X2100896Y-5313281D01*
X2100896Y-5313281D02*
X2110420Y-5332329D01*
X2110420Y-5332329D02*
X2119944Y-5370424D01*
X2119944Y-5370424D02*
X2119944Y-5418043D01*
X2119944Y-5418043D02*
X2110420Y-5456138D01*
X2110420Y-5456138D02*
X2100896Y-5475186D01*
X2100896Y-5475186D02*
X2091372Y-5484710D01*
X2091372Y-5484710D02*
X2072325Y-5494233D01*
X2072325Y-5494233D02*
X2053277Y-5494233D01*
X2053277Y-5494233D02*
X2034229Y-5484710D01*
X2034229Y-5484710D02*
X2024706Y-5475186D01*
X2024706Y-5475186D02*
X2015182Y-5456138D01*
X2015182Y-5456138D02*
X2005658Y-5418043D01*
X2005658Y-5418043D02*
X2005658Y-5370424D01*
X2005658Y-5370424D02*
X2015182Y-5332329D01*
X2015182Y-5332329D02*
X2024706Y-5313281D01*
X2024706Y-5313281D02*
X2034229Y-5303757D01*
X2034229Y-5303757D02*
X2053277Y-5294233D01*
X2196134Y-5294233D02*
X2196134Y-5332329D01*
X2272325Y-5294233D02*
X2272325Y-5332329D01*
X2567563Y-5570424D02*
X2558039Y-5560900D01*
X2558039Y-5560900D02*
X2538991Y-5532329D01*
X2538991Y-5532329D02*
X2529468Y-5513281D01*
X2529468Y-5513281D02*
X2519944Y-5484710D01*
X2519944Y-5484710D02*
X2510420Y-5437091D01*
X2510420Y-5437091D02*
X2510420Y-5398995D01*
X2510420Y-5398995D02*
X2519944Y-5351376D01*
X2519944Y-5351376D02*
X2529468Y-5322805D01*
X2529468Y-5322805D02*
X2538991Y-5303757D01*
X2538991Y-5303757D02*
X2558039Y-5275186D01*
X2558039Y-5275186D02*
X2567563Y-5265662D01*
X2729468Y-5360900D02*
X2729468Y-5494233D01*
X2681849Y-5284710D02*
X2634230Y-5427567D01*
X2634230Y-5427567D02*
X2758039Y-5427567D01*
X2919944Y-5294233D02*
X2881848Y-5294233D01*
X2881848Y-5294233D02*
X2862801Y-5303757D01*
X2862801Y-5303757D02*
X2853277Y-5313281D01*
X2853277Y-5313281D02*
X2834229Y-5341852D01*
X2834229Y-5341852D02*
X2824706Y-5379948D01*
X2824706Y-5379948D02*
X2824706Y-5456138D01*
X2824706Y-5456138D02*
X2834229Y-5475186D01*
X2834229Y-5475186D02*
X2843753Y-5484710D01*
X2843753Y-5484710D02*
X2862801Y-5494233D01*
X2862801Y-5494233D02*
X2900896Y-5494233D01*
X2900896Y-5494233D02*
X2919944Y-5484710D01*
X2919944Y-5484710D02*
X2929468Y-5475186D01*
X2929468Y-5475186D02*
X2938991Y-5456138D01*
X2938991Y-5456138D02*
X2938991Y-5408519D01*
X2938991Y-5408519D02*
X2929468Y-5389472D01*
X2929468Y-5389472D02*
X2919944Y-5379948D01*
X2919944Y-5379948D02*
X2900896Y-5370424D01*
X2900896Y-5370424D02*
X2862801Y-5370424D01*
X2862801Y-5370424D02*
X2843753Y-5379948D01*
X2843753Y-5379948D02*
X2834229Y-5389472D01*
X2834229Y-5389472D02*
X2824706Y-5408519D01*
X3177087Y-5494233D02*
X3177087Y-5294233D01*
X3262801Y-5494233D02*
X3262801Y-5389472D01*
X3262801Y-5389472D02*
X3253277Y-5370424D01*
X3253277Y-5370424D02*
X3234230Y-5360900D01*
X3234230Y-5360900D02*
X3205658Y-5360900D01*
X3205658Y-5360900D02*
X3186610Y-5370424D01*
X3186610Y-5370424D02*
X3177087Y-5379948D01*
X3386610Y-5494233D02*
X3367563Y-5484710D01*
X3367563Y-5484710D02*
X3358039Y-5475186D01*
X3358039Y-5475186D02*
X3348515Y-5456138D01*
X3348515Y-5456138D02*
X3348515Y-5398995D01*
X3348515Y-5398995D02*
X3358039Y-5379948D01*
X3358039Y-5379948D02*
X3367563Y-5370424D01*
X3367563Y-5370424D02*
X3386610Y-5360900D01*
X3386610Y-5360900D02*
X3415182Y-5360900D01*
X3415182Y-5360900D02*
X3434230Y-5370424D01*
X3434230Y-5370424D02*
X3443753Y-5379948D01*
X3443753Y-5379948D02*
X3453277Y-5398995D01*
X3453277Y-5398995D02*
X3453277Y-5456138D01*
X3453277Y-5456138D02*
X3443753Y-5475186D01*
X3443753Y-5475186D02*
X3434230Y-5484710D01*
X3434230Y-5484710D02*
X3415182Y-5494233D01*
X3415182Y-5494233D02*
X3386610Y-5494233D01*
X3567563Y-5494233D02*
X3548515Y-5484710D01*
X3548515Y-5484710D02*
X3538991Y-5465662D01*
X3538991Y-5465662D02*
X3538991Y-5294233D01*
X3719944Y-5484710D02*
X3700896Y-5494233D01*
X3700896Y-5494233D02*
X3662801Y-5494233D01*
X3662801Y-5494233D02*
X3643753Y-5484710D01*
X3643753Y-5484710D02*
X3634230Y-5465662D01*
X3634230Y-5465662D02*
X3634230Y-5389472D01*
X3634230Y-5389472D02*
X3643753Y-5370424D01*
X3643753Y-5370424D02*
X3662801Y-5360900D01*
X3662801Y-5360900D02*
X3700896Y-5360900D01*
X3700896Y-5360900D02*
X3719944Y-5370424D01*
X3719944Y-5370424D02*
X3729468Y-5389472D01*
X3729468Y-5389472D02*
X3729468Y-5408519D01*
X3729468Y-5408519D02*
X3634230Y-5427567D01*
X3805658Y-5484710D02*
X3824706Y-5494233D01*
X3824706Y-5494233D02*
X3862801Y-5494233D01*
X3862801Y-5494233D02*
X3881849Y-5484710D01*
X3881849Y-5484710D02*
X3891372Y-5465662D01*
X3891372Y-5465662D02*
X3891372Y-5456138D01*
X3891372Y-5456138D02*
X3881849Y-5437091D01*
X3881849Y-5437091D02*
X3862801Y-5427567D01*
X3862801Y-5427567D02*
X3834230Y-5427567D01*
X3834230Y-5427567D02*
X3815182Y-5418043D01*
X3815182Y-5418043D02*
X3805658Y-5398995D01*
X3805658Y-5398995D02*
X3805658Y-5389472D01*
X3805658Y-5389472D02*
X3815182Y-5370424D01*
X3815182Y-5370424D02*
X3834230Y-5360900D01*
X3834230Y-5360900D02*
X3862801Y-5360900D01*
X3862801Y-5360900D02*
X3881849Y-5370424D01*
X3958039Y-5570424D02*
X3967563Y-5560900D01*
X3967563Y-5560900D02*
X3986611Y-5532329D01*
X3986611Y-5532329D02*
X3996134Y-5513281D01*
X3996134Y-5513281D02*
X4005658Y-5484710D01*
X4005658Y-5484710D02*
X4015182Y-5437091D01*
X4015182Y-5437091D02*
X4015182Y-5398995D01*
X4015182Y-5398995D02*
X4005658Y-5351376D01*
X4005658Y-5351376D02*
X3996134Y-5322805D01*
X3996134Y-5322805D02*
X3986611Y-5303757D01*
X3986611Y-5303757D02*
X3967563Y-5275186D01*
X3967563Y-5275186D02*
X3958039Y-5265662D01*
X4319944Y-5570424D02*
X4310420Y-5560900D01*
X4310420Y-5560900D02*
X4291373Y-5532329D01*
X4291373Y-5532329D02*
X4281849Y-5513281D01*
X4281849Y-5513281D02*
X4272325Y-5484710D01*
X4272325Y-5484710D02*
X4262801Y-5437091D01*
X4262801Y-5437091D02*
X4262801Y-5398995D01*
X4262801Y-5398995D02*
X4272325Y-5351376D01*
X4272325Y-5351376D02*
X4281849Y-5322805D01*
X4281849Y-5322805D02*
X4291373Y-5303757D01*
X4291373Y-5303757D02*
X4310420Y-5275186D01*
X4310420Y-5275186D02*
X4319944Y-5265662D01*
X4396134Y-5360900D02*
X4396134Y-5494233D01*
X4396134Y-5379948D02*
X4405658Y-5370424D01*
X4405658Y-5370424D02*
X4424706Y-5360900D01*
X4424706Y-5360900D02*
X4453277Y-5360900D01*
X4453277Y-5360900D02*
X4472325Y-5370424D01*
X4472325Y-5370424D02*
X4481849Y-5389472D01*
X4481849Y-5389472D02*
X4481849Y-5494233D01*
X4605658Y-5494233D02*
X4586611Y-5484710D01*
X4586611Y-5484710D02*
X4577087Y-5475186D01*
X4577087Y-5475186D02*
X4567563Y-5456138D01*
X4567563Y-5456138D02*
X4567563Y-5398995D01*
X4567563Y-5398995D02*
X4577087Y-5379948D01*
X4577087Y-5379948D02*
X4586611Y-5370424D01*
X4586611Y-5370424D02*
X4605658Y-5360900D01*
X4605658Y-5360900D02*
X4634230Y-5360900D01*
X4634230Y-5360900D02*
X4653277Y-5370424D01*
X4653277Y-5370424D02*
X4662801Y-5379948D01*
X4662801Y-5379948D02*
X4672325Y-5398995D01*
X4672325Y-5398995D02*
X4672325Y-5456138D01*
X4672325Y-5456138D02*
X4662801Y-5475186D01*
X4662801Y-5475186D02*
X4653277Y-5484710D01*
X4653277Y-5484710D02*
X4634230Y-5494233D01*
X4634230Y-5494233D02*
X4605658Y-5494233D01*
X4729468Y-5360900D02*
X4805658Y-5360900D01*
X4758039Y-5294233D02*
X4758039Y-5465662D01*
X4758039Y-5465662D02*
X4767563Y-5484710D01*
X4767563Y-5484710D02*
X4786611Y-5494233D01*
X4786611Y-5494233D02*
X4805658Y-5494233D01*
X5024706Y-5360900D02*
X5024706Y-5560900D01*
X5024706Y-5370424D02*
X5043754Y-5360900D01*
X5043754Y-5360900D02*
X5081849Y-5360900D01*
X5081849Y-5360900D02*
X5100896Y-5370424D01*
X5100896Y-5370424D02*
X5110420Y-5379948D01*
X5110420Y-5379948D02*
X5119944Y-5398995D01*
X5119944Y-5398995D02*
X5119944Y-5456138D01*
X5119944Y-5456138D02*
X5110420Y-5475186D01*
X5110420Y-5475186D02*
X5100896Y-5484710D01*
X5100896Y-5484710D02*
X5081849Y-5494233D01*
X5081849Y-5494233D02*
X5043754Y-5494233D01*
X5043754Y-5494233D02*
X5024706Y-5484710D01*
X5234230Y-5494233D02*
X5215182Y-5484710D01*
X5215182Y-5484710D02*
X5205658Y-5465662D01*
X5205658Y-5465662D02*
X5205658Y-5294233D01*
X5396135Y-5494233D02*
X5396135Y-5389472D01*
X5396135Y-5389472D02*
X5386611Y-5370424D01*
X5386611Y-5370424D02*
X5367563Y-5360900D01*
X5367563Y-5360900D02*
X5329468Y-5360900D01*
X5329468Y-5360900D02*
X5310420Y-5370424D01*
X5396135Y-5484710D02*
X5377087Y-5494233D01*
X5377087Y-5494233D02*
X5329468Y-5494233D01*
X5329468Y-5494233D02*
X5310420Y-5484710D01*
X5310420Y-5484710D02*
X5300896Y-5465662D01*
X5300896Y-5465662D02*
X5300896Y-5446614D01*
X5300896Y-5446614D02*
X5310420Y-5427567D01*
X5310420Y-5427567D02*
X5329468Y-5418043D01*
X5329468Y-5418043D02*
X5377087Y-5418043D01*
X5377087Y-5418043D02*
X5396135Y-5408519D01*
X5462801Y-5360900D02*
X5538992Y-5360900D01*
X5491373Y-5294233D02*
X5491373Y-5465662D01*
X5491373Y-5465662D02*
X5500896Y-5484710D01*
X5500896Y-5484710D02*
X5519944Y-5494233D01*
X5519944Y-5494233D02*
X5538992Y-5494233D01*
X5681849Y-5484710D02*
X5662801Y-5494233D01*
X5662801Y-5494233D02*
X5624706Y-5494233D01*
X5624706Y-5494233D02*
X5605658Y-5484710D01*
X5605658Y-5484710D02*
X5596134Y-5465662D01*
X5596134Y-5465662D02*
X5596134Y-5389472D01*
X5596134Y-5389472D02*
X5605658Y-5370424D01*
X5605658Y-5370424D02*
X5624706Y-5360900D01*
X5624706Y-5360900D02*
X5662801Y-5360900D01*
X5662801Y-5360900D02*
X5681849Y-5370424D01*
X5681849Y-5370424D02*
X5691373Y-5389472D01*
X5691373Y-5389472D02*
X5691373Y-5408519D01*
X5691373Y-5408519D02*
X5596134Y-5427567D01*
X5862801Y-5494233D02*
X5862801Y-5294233D01*
X5862801Y-5484710D02*
X5843754Y-5494233D01*
X5843754Y-5494233D02*
X5805658Y-5494233D01*
X5805658Y-5494233D02*
X5786611Y-5484710D01*
X5786611Y-5484710D02*
X5777087Y-5475186D01*
X5777087Y-5475186D02*
X5767563Y-5456138D01*
X5767563Y-5456138D02*
X5767563Y-5398995D01*
X5767563Y-5398995D02*
X5777087Y-5379948D01*
X5777087Y-5379948D02*
X5786611Y-5370424D01*
X5786611Y-5370424D02*
X5805658Y-5360900D01*
X5805658Y-5360900D02*
X5843754Y-5360900D01*
X5843754Y-5360900D02*
X5862801Y-5370424D01*
X5938992Y-5570424D02*
X5948515Y-5560900D01*
X5948515Y-5560900D02*
X5967563Y-5532329D01*
X5967563Y-5532329D02*
X5977087Y-5513281D01*
X5977087Y-5513281D02*
X5986611Y-5484710D01*
X5986611Y-5484710D02*
X5996134Y-5437091D01*
X5996134Y-5437091D02*
X5996134Y-5398995D01*
X5996134Y-5398995D02*
X5986611Y-5351376D01*
X5986611Y-5351376D02*
X5977087Y-5322805D01*
X5977087Y-5322805D02*
X5967563Y-5303757D01*
X5967563Y-5303757D02*
X5948515Y-5275186D01*
X5948515Y-5275186D02*
X5938992Y-5265662D01*
X-1036789Y-5763641D02*
X-1036789Y-5622218D01*
X-1178211Y-5622218D01*
X-1178211Y-5763641D01*
X-1036789Y-5763641D01*
X-765771Y-5584413D02*
X-641961Y-5584413D01*
X-641961Y-5584413D02*
X-708628Y-5660604D01*
X-708628Y-5660604D02*
X-680056Y-5660604D01*
X-680056Y-5660604D02*
X-661009Y-5670128D01*
X-661009Y-5670128D02*
X-651485Y-5679651D01*
X-651485Y-5679651D02*
X-641961Y-5698699D01*
X-641961Y-5698699D02*
X-641961Y-5746318D01*
X-641961Y-5746318D02*
X-651485Y-5765366D01*
X-651485Y-5765366D02*
X-661009Y-5774890D01*
X-661009Y-5774890D02*
X-680056Y-5784413D01*
X-680056Y-5784413D02*
X-737199Y-5784413D01*
X-737199Y-5784413D02*
X-756247Y-5774890D01*
X-756247Y-5774890D02*
X-765771Y-5765366D01*
X-556247Y-5765366D02*
X-546723Y-5774890D01*
X-546723Y-5774890D02*
X-556247Y-5784413D01*
X-556247Y-5784413D02*
X-565771Y-5774890D01*
X-565771Y-5774890D02*
X-556247Y-5765366D01*
X-556247Y-5765366D02*
X-556247Y-5784413D01*
X-422914Y-5584413D02*
X-403866Y-5584413D01*
X-403866Y-5584413D02*
X-384818Y-5593937D01*
X-384818Y-5593937D02*
X-375294Y-5603461D01*
X-375294Y-5603461D02*
X-365771Y-5622509D01*
X-365771Y-5622509D02*
X-356247Y-5660604D01*
X-356247Y-5660604D02*
X-356247Y-5708223D01*
X-356247Y-5708223D02*
X-365771Y-5746318D01*
X-365771Y-5746318D02*
X-375294Y-5765366D01*
X-375294Y-5765366D02*
X-384818Y-5774890D01*
X-384818Y-5774890D02*
X-403866Y-5784413D01*
X-403866Y-5784413D02*
X-422914Y-5784413D01*
X-422914Y-5784413D02*
X-441961Y-5774890D01*
X-441961Y-5774890D02*
X-451485Y-5765366D01*
X-451485Y-5765366D02*
X-461009Y-5746318D01*
X-461009Y-5746318D02*
X-470533Y-5708223D01*
X-470533Y-5708223D02*
X-470533Y-5660604D01*
X-470533Y-5660604D02*
X-461009Y-5622509D01*
X-461009Y-5622509D02*
X-451485Y-5603461D01*
X-451485Y-5603461D02*
X-441961Y-5593937D01*
X-441961Y-5593937D02*
X-422914Y-5584413D01*
X-232437Y-5584413D02*
X-213390Y-5584413D01*
X-213390Y-5584413D02*
X-194342Y-5593937D01*
X-194342Y-5593937D02*
X-184818Y-5603461D01*
X-184818Y-5603461D02*
X-175294Y-5622509D01*
X-175294Y-5622509D02*
X-165771Y-5660604D01*
X-165771Y-5660604D02*
X-165771Y-5708223D01*
X-165771Y-5708223D02*
X-175294Y-5746318D01*
X-175294Y-5746318D02*
X-184818Y-5765366D01*
X-184818Y-5765366D02*
X-194342Y-5774890D01*
X-194342Y-5774890D02*
X-213390Y-5784413D01*
X-213390Y-5784413D02*
X-232437Y-5784413D01*
X-232437Y-5784413D02*
X-251485Y-5774890D01*
X-251485Y-5774890D02*
X-261009Y-5765366D01*
X-261009Y-5765366D02*
X-270533Y-5746318D01*
X-270533Y-5746318D02*
X-280056Y-5708223D01*
X-280056Y-5708223D02*
X-280056Y-5660604D01*
X-280056Y-5660604D02*
X-270533Y-5622509D01*
X-270533Y-5622509D02*
X-261009Y-5603461D01*
X-261009Y-5603461D02*
X-251485Y-5593937D01*
X-251485Y-5593937D02*
X-232437Y-5584413D01*
X-41961Y-5584413D02*
X-22913Y-5584413D01*
X-22913Y-5584413D02*
X-3866Y-5593937D01*
X-3866Y-5593937D02*
X5658Y-5603461D01*
X5658Y-5603461D02*
X15182Y-5622509D01*
X15182Y-5622509D02*
X24705Y-5660604D01*
X24705Y-5660604D02*
X24705Y-5708223D01*
X24705Y-5708223D02*
X15182Y-5746318D01*
X15182Y-5746318D02*
X5658Y-5765366D01*
X5658Y-5765366D02*
X-3866Y-5774890D01*
X-3866Y-5774890D02*
X-22913Y-5784413D01*
X-22913Y-5784413D02*
X-41961Y-5784413D01*
X-41961Y-5784413D02*
X-61009Y-5774890D01*
X-61009Y-5774890D02*
X-70533Y-5765366D01*
X-70533Y-5765366D02*
X-80056Y-5746318D01*
X-80056Y-5746318D02*
X-89580Y-5708223D01*
X-89580Y-5708223D02*
X-89580Y-5660604D01*
X-89580Y-5660604D02*
X-80056Y-5622509D01*
X-80056Y-5622509D02*
X-70533Y-5603461D01*
X-70533Y-5603461D02*
X-61009Y-5593937D01*
X-61009Y-5593937D02*
X-41961Y-5584413D01*
X110420Y-5784413D02*
X110420Y-5651080D01*
X110420Y-5670128D02*
X119943Y-5660604D01*
X119943Y-5660604D02*
X138991Y-5651080D01*
X138991Y-5651080D02*
X167563Y-5651080D01*
X167563Y-5651080D02*
X186610Y-5660604D01*
X186610Y-5660604D02*
X196134Y-5679651D01*
X196134Y-5679651D02*
X196134Y-5784413D01*
X196134Y-5679651D02*
X205658Y-5660604D01*
X205658Y-5660604D02*
X224705Y-5651080D01*
X224705Y-5651080D02*
X253277Y-5651080D01*
X253277Y-5651080D02*
X272325Y-5660604D01*
X272325Y-5660604D02*
X281848Y-5679651D01*
X281848Y-5679651D02*
X281848Y-5784413D01*
X377086Y-5784413D02*
X377086Y-5651080D01*
X377086Y-5670128D02*
X386610Y-5660604D01*
X386610Y-5660604D02*
X405658Y-5651080D01*
X405658Y-5651080D02*
X434229Y-5651080D01*
X434229Y-5651080D02*
X453277Y-5660604D01*
X453277Y-5660604D02*
X462801Y-5679651D01*
X462801Y-5679651D02*
X462801Y-5784413D01*
X462801Y-5679651D02*
X472324Y-5660604D01*
X472324Y-5660604D02*
X491372Y-5651080D01*
X491372Y-5651080D02*
X519943Y-5651080D01*
X519943Y-5651080D02*
X538991Y-5660604D01*
X538991Y-5660604D02*
X548515Y-5679651D01*
X548515Y-5679651D02*
X548515Y-5784413D01*
X938991Y-5574890D02*
X767563Y-5832032D01*
X1196134Y-5584413D02*
X1215182Y-5584413D01*
X1215182Y-5584413D02*
X1234229Y-5593937D01*
X1234229Y-5593937D02*
X1243753Y-5603461D01*
X1243753Y-5603461D02*
X1253277Y-5622509D01*
X1253277Y-5622509D02*
X1262801Y-5660604D01*
X1262801Y-5660604D02*
X1262801Y-5708223D01*
X1262801Y-5708223D02*
X1253277Y-5746318D01*
X1253277Y-5746318D02*
X1243753Y-5765366D01*
X1243753Y-5765366D02*
X1234229Y-5774890D01*
X1234229Y-5774890D02*
X1215182Y-5784413D01*
X1215182Y-5784413D02*
X1196134Y-5784413D01*
X1196134Y-5784413D02*
X1177087Y-5774890D01*
X1177087Y-5774890D02*
X1167563Y-5765366D01*
X1167563Y-5765366D02*
X1158039Y-5746318D01*
X1158039Y-5746318D02*
X1148515Y-5708223D01*
X1148515Y-5708223D02*
X1148515Y-5660604D01*
X1148515Y-5660604D02*
X1158039Y-5622509D01*
X1158039Y-5622509D02*
X1167563Y-5603461D01*
X1167563Y-5603461D02*
X1177087Y-5593937D01*
X1177087Y-5593937D02*
X1196134Y-5584413D01*
X1348515Y-5765366D02*
X1358039Y-5774890D01*
X1358039Y-5774890D02*
X1348515Y-5784413D01*
X1348515Y-5784413D02*
X1338991Y-5774890D01*
X1338991Y-5774890D02*
X1348515Y-5765366D01*
X1348515Y-5765366D02*
X1348515Y-5784413D01*
X1548515Y-5784413D02*
X1434229Y-5784413D01*
X1491372Y-5784413D02*
X1491372Y-5584413D01*
X1491372Y-5584413D02*
X1472325Y-5612985D01*
X1472325Y-5612985D02*
X1453277Y-5632032D01*
X1453277Y-5632032D02*
X1434229Y-5641556D01*
X1738991Y-5784413D02*
X1624706Y-5784413D01*
X1681848Y-5784413D02*
X1681848Y-5584413D01*
X1681848Y-5584413D02*
X1662801Y-5612985D01*
X1662801Y-5612985D02*
X1643753Y-5632032D01*
X1643753Y-5632032D02*
X1624706Y-5641556D01*
X1853277Y-5670128D02*
X1834229Y-5660604D01*
X1834229Y-5660604D02*
X1824706Y-5651080D01*
X1824706Y-5651080D02*
X1815182Y-5632032D01*
X1815182Y-5632032D02*
X1815182Y-5622509D01*
X1815182Y-5622509D02*
X1824706Y-5603461D01*
X1824706Y-5603461D02*
X1834229Y-5593937D01*
X1834229Y-5593937D02*
X1853277Y-5584413D01*
X1853277Y-5584413D02*
X1891372Y-5584413D01*
X1891372Y-5584413D02*
X1910420Y-5593937D01*
X1910420Y-5593937D02*
X1919944Y-5603461D01*
X1919944Y-5603461D02*
X1929467Y-5622509D01*
X1929467Y-5622509D02*
X1929467Y-5632032D01*
X1929467Y-5632032D02*
X1919944Y-5651080D01*
X1919944Y-5651080D02*
X1910420Y-5660604D01*
X1910420Y-5660604D02*
X1891372Y-5670128D01*
X1891372Y-5670128D02*
X1853277Y-5670128D01*
X1853277Y-5670128D02*
X1834229Y-5679651D01*
X1834229Y-5679651D02*
X1824706Y-5689175D01*
X1824706Y-5689175D02*
X1815182Y-5708223D01*
X1815182Y-5708223D02*
X1815182Y-5746318D01*
X1815182Y-5746318D02*
X1824706Y-5765366D01*
X1824706Y-5765366D02*
X1834229Y-5774890D01*
X1834229Y-5774890D02*
X1853277Y-5784413D01*
X1853277Y-5784413D02*
X1891372Y-5784413D01*
X1891372Y-5784413D02*
X1910420Y-5774890D01*
X1910420Y-5774890D02*
X1919944Y-5765366D01*
X1919944Y-5765366D02*
X1929467Y-5746318D01*
X1929467Y-5746318D02*
X1929467Y-5708223D01*
X1929467Y-5708223D02*
X1919944Y-5689175D01*
X1919944Y-5689175D02*
X1910420Y-5679651D01*
X1910420Y-5679651D02*
X1891372Y-5670128D01*
X2119944Y-5784413D02*
X2005658Y-5784413D01*
X2062801Y-5784413D02*
X2062801Y-5584413D01*
X2062801Y-5584413D02*
X2043753Y-5612985D01*
X2043753Y-5612985D02*
X2024706Y-5632032D01*
X2024706Y-5632032D02*
X2005658Y-5641556D01*
X2196134Y-5584413D02*
X2196134Y-5622509D01*
X2272325Y-5584413D02*
X2272325Y-5622509D01*
X2567563Y-5860604D02*
X2558039Y-5851080D01*
X2558039Y-5851080D02*
X2538991Y-5822509D01*
X2538991Y-5822509D02*
X2529468Y-5803461D01*
X2529468Y-5803461D02*
X2519944Y-5774890D01*
X2519944Y-5774890D02*
X2510420Y-5727270D01*
X2510420Y-5727270D02*
X2510420Y-5689175D01*
X2510420Y-5689175D02*
X2519944Y-5641556D01*
X2519944Y-5641556D02*
X2529468Y-5612985D01*
X2529468Y-5612985D02*
X2538991Y-5593937D01*
X2538991Y-5593937D02*
X2558039Y-5565366D01*
X2558039Y-5565366D02*
X2567563Y-5555842D01*
X2653277Y-5784413D02*
X2691372Y-5784413D01*
X2691372Y-5784413D02*
X2710420Y-5774890D01*
X2710420Y-5774890D02*
X2719944Y-5765366D01*
X2719944Y-5765366D02*
X2738991Y-5736794D01*
X2738991Y-5736794D02*
X2748515Y-5698699D01*
X2748515Y-5698699D02*
X2748515Y-5622509D01*
X2748515Y-5622509D02*
X2738991Y-5603461D01*
X2738991Y-5603461D02*
X2729468Y-5593937D01*
X2729468Y-5593937D02*
X2710420Y-5584413D01*
X2710420Y-5584413D02*
X2672325Y-5584413D01*
X2672325Y-5584413D02*
X2653277Y-5593937D01*
X2653277Y-5593937D02*
X2643753Y-5603461D01*
X2643753Y-5603461D02*
X2634230Y-5622509D01*
X2634230Y-5622509D02*
X2634230Y-5670128D01*
X2634230Y-5670128D02*
X2643753Y-5689175D01*
X2643753Y-5689175D02*
X2653277Y-5698699D01*
X2653277Y-5698699D02*
X2672325Y-5708223D01*
X2672325Y-5708223D02*
X2710420Y-5708223D01*
X2710420Y-5708223D02*
X2729468Y-5698699D01*
X2729468Y-5698699D02*
X2738991Y-5689175D01*
X2738991Y-5689175D02*
X2748515Y-5670128D01*
X2824706Y-5603461D02*
X2834229Y-5593937D01*
X2834229Y-5593937D02*
X2853277Y-5584413D01*
X2853277Y-5584413D02*
X2900896Y-5584413D01*
X2900896Y-5584413D02*
X2919944Y-5593937D01*
X2919944Y-5593937D02*
X2929468Y-5603461D01*
X2929468Y-5603461D02*
X2938991Y-5622509D01*
X2938991Y-5622509D02*
X2938991Y-5641556D01*
X2938991Y-5641556D02*
X2929468Y-5670128D01*
X2929468Y-5670128D02*
X2815182Y-5784413D01*
X2815182Y-5784413D02*
X2938991Y-5784413D01*
X3177087Y-5784413D02*
X3177087Y-5584413D01*
X3262801Y-5784413D02*
X3262801Y-5679651D01*
X3262801Y-5679651D02*
X3253277Y-5660604D01*
X3253277Y-5660604D02*
X3234230Y-5651080D01*
X3234230Y-5651080D02*
X3205658Y-5651080D01*
X3205658Y-5651080D02*
X3186610Y-5660604D01*
X3186610Y-5660604D02*
X3177087Y-5670128D01*
X3386610Y-5784413D02*
X3367563Y-5774890D01*
X3367563Y-5774890D02*
X3358039Y-5765366D01*
X3358039Y-5765366D02*
X3348515Y-5746318D01*
X3348515Y-5746318D02*
X3348515Y-5689175D01*
X3348515Y-5689175D02*
X3358039Y-5670128D01*
X3358039Y-5670128D02*
X3367563Y-5660604D01*
X3367563Y-5660604D02*
X3386610Y-5651080D01*
X3386610Y-5651080D02*
X3415182Y-5651080D01*
X3415182Y-5651080D02*
X3434230Y-5660604D01*
X3434230Y-5660604D02*
X3443753Y-5670128D01*
X3443753Y-5670128D02*
X3453277Y-5689175D01*
X3453277Y-5689175D02*
X3453277Y-5746318D01*
X3453277Y-5746318D02*
X3443753Y-5765366D01*
X3443753Y-5765366D02*
X3434230Y-5774890D01*
X3434230Y-5774890D02*
X3415182Y-5784413D01*
X3415182Y-5784413D02*
X3386610Y-5784413D01*
X3567563Y-5784413D02*
X3548515Y-5774890D01*
X3548515Y-5774890D02*
X3538991Y-5755842D01*
X3538991Y-5755842D02*
X3538991Y-5584413D01*
X3719944Y-5774890D02*
X3700896Y-5784413D01*
X3700896Y-5784413D02*
X3662801Y-5784413D01*
X3662801Y-5784413D02*
X3643753Y-5774890D01*
X3643753Y-5774890D02*
X3634230Y-5755842D01*
X3634230Y-5755842D02*
X3634230Y-5679651D01*
X3634230Y-5679651D02*
X3643753Y-5660604D01*
X3643753Y-5660604D02*
X3662801Y-5651080D01*
X3662801Y-5651080D02*
X3700896Y-5651080D01*
X3700896Y-5651080D02*
X3719944Y-5660604D01*
X3719944Y-5660604D02*
X3729468Y-5679651D01*
X3729468Y-5679651D02*
X3729468Y-5698699D01*
X3729468Y-5698699D02*
X3634230Y-5717747D01*
X3805658Y-5774890D02*
X3824706Y-5784413D01*
X3824706Y-5784413D02*
X3862801Y-5784413D01*
X3862801Y-5784413D02*
X3881849Y-5774890D01*
X3881849Y-5774890D02*
X3891372Y-5755842D01*
X3891372Y-5755842D02*
X3891372Y-5746318D01*
X3891372Y-5746318D02*
X3881849Y-5727270D01*
X3881849Y-5727270D02*
X3862801Y-5717747D01*
X3862801Y-5717747D02*
X3834230Y-5717747D01*
X3834230Y-5717747D02*
X3815182Y-5708223D01*
X3815182Y-5708223D02*
X3805658Y-5689175D01*
X3805658Y-5689175D02*
X3805658Y-5679651D01*
X3805658Y-5679651D02*
X3815182Y-5660604D01*
X3815182Y-5660604D02*
X3834230Y-5651080D01*
X3834230Y-5651080D02*
X3862801Y-5651080D01*
X3862801Y-5651080D02*
X3881849Y-5660604D01*
X3958039Y-5860604D02*
X3967563Y-5851080D01*
X3967563Y-5851080D02*
X3986611Y-5822509D01*
X3986611Y-5822509D02*
X3996134Y-5803461D01*
X3996134Y-5803461D02*
X4005658Y-5774890D01*
X4005658Y-5774890D02*
X4015182Y-5727270D01*
X4015182Y-5727270D02*
X4015182Y-5689175D01*
X4015182Y-5689175D02*
X4005658Y-5641556D01*
X4005658Y-5641556D02*
X3996134Y-5612985D01*
X3996134Y-5612985D02*
X3986611Y-5593937D01*
X3986611Y-5593937D02*
X3967563Y-5565366D01*
X3967563Y-5565366D02*
X3958039Y-5555842D01*
X4319944Y-5860604D02*
X4310420Y-5851080D01*
X4310420Y-5851080D02*
X4291373Y-5822509D01*
X4291373Y-5822509D02*
X4281849Y-5803461D01*
X4281849Y-5803461D02*
X4272325Y-5774890D01*
X4272325Y-5774890D02*
X4262801Y-5727270D01*
X4262801Y-5727270D02*
X4262801Y-5689175D01*
X4262801Y-5689175D02*
X4272325Y-5641556D01*
X4272325Y-5641556D02*
X4281849Y-5612985D01*
X4281849Y-5612985D02*
X4291373Y-5593937D01*
X4291373Y-5593937D02*
X4310420Y-5565366D01*
X4310420Y-5565366D02*
X4319944Y-5555842D01*
X4396134Y-5651080D02*
X4396134Y-5784413D01*
X4396134Y-5670128D02*
X4405658Y-5660604D01*
X4405658Y-5660604D02*
X4424706Y-5651080D01*
X4424706Y-5651080D02*
X4453277Y-5651080D01*
X4453277Y-5651080D02*
X4472325Y-5660604D01*
X4472325Y-5660604D02*
X4481849Y-5679651D01*
X4481849Y-5679651D02*
X4481849Y-5784413D01*
X4605658Y-5784413D02*
X4586611Y-5774890D01*
X4586611Y-5774890D02*
X4577087Y-5765366D01*
X4577087Y-5765366D02*
X4567563Y-5746318D01*
X4567563Y-5746318D02*
X4567563Y-5689175D01*
X4567563Y-5689175D02*
X4577087Y-5670128D01*
X4577087Y-5670128D02*
X4586611Y-5660604D01*
X4586611Y-5660604D02*
X4605658Y-5651080D01*
X4605658Y-5651080D02*
X4634230Y-5651080D01*
X4634230Y-5651080D02*
X4653277Y-5660604D01*
X4653277Y-5660604D02*
X4662801Y-5670128D01*
X4662801Y-5670128D02*
X4672325Y-5689175D01*
X4672325Y-5689175D02*
X4672325Y-5746318D01*
X4672325Y-5746318D02*
X4662801Y-5765366D01*
X4662801Y-5765366D02*
X4653277Y-5774890D01*
X4653277Y-5774890D02*
X4634230Y-5784413D01*
X4634230Y-5784413D02*
X4605658Y-5784413D01*
X4729468Y-5651080D02*
X4805658Y-5651080D01*
X4758039Y-5584413D02*
X4758039Y-5755842D01*
X4758039Y-5755842D02*
X4767563Y-5774890D01*
X4767563Y-5774890D02*
X4786611Y-5784413D01*
X4786611Y-5784413D02*
X4805658Y-5784413D01*
X5024706Y-5651080D02*
X5024706Y-5851080D01*
X5024706Y-5660604D02*
X5043754Y-5651080D01*
X5043754Y-5651080D02*
X5081849Y-5651080D01*
X5081849Y-5651080D02*
X5100896Y-5660604D01*
X5100896Y-5660604D02*
X5110420Y-5670128D01*
X5110420Y-5670128D02*
X5119944Y-5689175D01*
X5119944Y-5689175D02*
X5119944Y-5746318D01*
X5119944Y-5746318D02*
X5110420Y-5765366D01*
X5110420Y-5765366D02*
X5100896Y-5774890D01*
X5100896Y-5774890D02*
X5081849Y-5784413D01*
X5081849Y-5784413D02*
X5043754Y-5784413D01*
X5043754Y-5784413D02*
X5024706Y-5774890D01*
X5234230Y-5784413D02*
X5215182Y-5774890D01*
X5215182Y-5774890D02*
X5205658Y-5755842D01*
X5205658Y-5755842D02*
X5205658Y-5584413D01*
X5396135Y-5784413D02*
X5396135Y-5679651D01*
X5396135Y-5679651D02*
X5386611Y-5660604D01*
X5386611Y-5660604D02*
X5367563Y-5651080D01*
X5367563Y-5651080D02*
X5329468Y-5651080D01*
X5329468Y-5651080D02*
X5310420Y-5660604D01*
X5396135Y-5774890D02*
X5377087Y-5784413D01*
X5377087Y-5784413D02*
X5329468Y-5784413D01*
X5329468Y-5784413D02*
X5310420Y-5774890D01*
X5310420Y-5774890D02*
X5300896Y-5755842D01*
X5300896Y-5755842D02*
X5300896Y-5736794D01*
X5300896Y-5736794D02*
X5310420Y-5717747D01*
X5310420Y-5717747D02*
X5329468Y-5708223D01*
X5329468Y-5708223D02*
X5377087Y-5708223D01*
X5377087Y-5708223D02*
X5396135Y-5698699D01*
X5462801Y-5651080D02*
X5538992Y-5651080D01*
X5491373Y-5584413D02*
X5491373Y-5755842D01*
X5491373Y-5755842D02*
X5500896Y-5774890D01*
X5500896Y-5774890D02*
X5519944Y-5784413D01*
X5519944Y-5784413D02*
X5538992Y-5784413D01*
X5681849Y-5774890D02*
X5662801Y-5784413D01*
X5662801Y-5784413D02*
X5624706Y-5784413D01*
X5624706Y-5784413D02*
X5605658Y-5774890D01*
X5605658Y-5774890D02*
X5596134Y-5755842D01*
X5596134Y-5755842D02*
X5596134Y-5679651D01*
X5596134Y-5679651D02*
X5605658Y-5660604D01*
X5605658Y-5660604D02*
X5624706Y-5651080D01*
X5624706Y-5651080D02*
X5662801Y-5651080D01*
X5662801Y-5651080D02*
X5681849Y-5660604D01*
X5681849Y-5660604D02*
X5691373Y-5679651D01*
X5691373Y-5679651D02*
X5691373Y-5698699D01*
X5691373Y-5698699D02*
X5596134Y-5717747D01*
X5862801Y-5784413D02*
X5862801Y-5584413D01*
X5862801Y-5774890D02*
X5843754Y-5784413D01*
X5843754Y-5784413D02*
X5805658Y-5784413D01*
X5805658Y-5784413D02*
X5786611Y-5774890D01*
X5786611Y-5774890D02*
X5777087Y-5765366D01*
X5777087Y-5765366D02*
X5767563Y-5746318D01*
X5767563Y-5746318D02*
X5767563Y-5689175D01*
X5767563Y-5689175D02*
X5777087Y-5670128D01*
X5777087Y-5670128D02*
X5786611Y-5660604D01*
X5786611Y-5660604D02*
X5805658Y-5651080D01*
X5805658Y-5651080D02*
X5843754Y-5651080D01*
X5843754Y-5651080D02*
X5862801Y-5660604D01*
X5938992Y-5860604D02*
X5948515Y-5851080D01*
X5948515Y-5851080D02*
X5967563Y-5822509D01*
X5967563Y-5822509D02*
X5977087Y-5803461D01*
X5977087Y-5803461D02*
X5986611Y-5774890D01*
X5986611Y-5774890D02*
X5996134Y-5727270D01*
X5996134Y-5727270D02*
X5996134Y-5689175D01*
X5996134Y-5689175D02*
X5986611Y-5641556D01*
X5986611Y-5641556D02*
X5977087Y-5612985D01*
X5977087Y-5612985D02*
X5967563Y-5593937D01*
X5967563Y-5593937D02*
X5948515Y-5565366D01*
X5948515Y-5565366D02*
X5938992Y-5555842D01*
X-1107500Y-6112930D02*
X-1007500Y-6012930D01*
X-1107500Y-5912930D01*
X-1207500Y-6012930D01*
X-1107500Y-6112930D01*
X-765771Y-5904413D02*
X-641961Y-5904413D01*
X-641961Y-5904413D02*
X-708628Y-5980604D01*
X-708628Y-5980604D02*
X-680056Y-5980604D01*
X-680056Y-5980604D02*
X-661009Y-5990128D01*
X-661009Y-5990128D02*
X-651485Y-5999651D01*
X-651485Y-5999651D02*
X-641961Y-6018699D01*
X-641961Y-6018699D02*
X-641961Y-6066318D01*
X-641961Y-6066318D02*
X-651485Y-6085366D01*
X-651485Y-6085366D02*
X-661009Y-6094890D01*
X-661009Y-6094890D02*
X-680056Y-6104413D01*
X-680056Y-6104413D02*
X-737199Y-6104413D01*
X-737199Y-6104413D02*
X-756247Y-6094890D01*
X-756247Y-6094890D02*
X-765771Y-6085366D01*
X-556247Y-6085366D02*
X-546723Y-6094890D01*
X-546723Y-6094890D02*
X-556247Y-6104413D01*
X-556247Y-6104413D02*
X-565771Y-6094890D01*
X-565771Y-6094890D02*
X-556247Y-6085366D01*
X-556247Y-6085366D02*
X-556247Y-6104413D01*
X-375294Y-5971080D02*
X-375294Y-6104413D01*
X-422914Y-5894890D02*
X-470533Y-6037747D01*
X-470533Y-6037747D02*
X-346723Y-6037747D01*
X-280056Y-5923461D02*
X-270533Y-5913937D01*
X-270533Y-5913937D02*
X-251485Y-5904413D01*
X-251485Y-5904413D02*
X-203866Y-5904413D01*
X-203866Y-5904413D02*
X-184818Y-5913937D01*
X-184818Y-5913937D02*
X-175294Y-5923461D01*
X-175294Y-5923461D02*
X-165771Y-5942509D01*
X-165771Y-5942509D02*
X-165771Y-5961556D01*
X-165771Y-5961556D02*
X-175294Y-5990128D01*
X-175294Y-5990128D02*
X-289580Y-6104413D01*
X-289580Y-6104413D02*
X-165771Y-6104413D01*
X-70533Y-6104413D02*
X-32437Y-6104413D01*
X-32437Y-6104413D02*
X-13390Y-6094890D01*
X-13390Y-6094890D02*
X-3866Y-6085366D01*
X-3866Y-6085366D02*
X15182Y-6056794D01*
X15182Y-6056794D02*
X24705Y-6018699D01*
X24705Y-6018699D02*
X24705Y-5942509D01*
X24705Y-5942509D02*
X15182Y-5923461D01*
X15182Y-5923461D02*
X5658Y-5913937D01*
X5658Y-5913937D02*
X-13390Y-5904413D01*
X-13390Y-5904413D02*
X-51485Y-5904413D01*
X-51485Y-5904413D02*
X-70533Y-5913937D01*
X-70533Y-5913937D02*
X-80056Y-5923461D01*
X-80056Y-5923461D02*
X-89580Y-5942509D01*
X-89580Y-5942509D02*
X-89580Y-5990128D01*
X-89580Y-5990128D02*
X-80056Y-6009175D01*
X-80056Y-6009175D02*
X-70533Y-6018699D01*
X-70533Y-6018699D02*
X-51485Y-6028223D01*
X-51485Y-6028223D02*
X-13390Y-6028223D01*
X-13390Y-6028223D02*
X5658Y-6018699D01*
X5658Y-6018699D02*
X15182Y-6009175D01*
X15182Y-6009175D02*
X24705Y-5990128D01*
X110420Y-6104413D02*
X110420Y-5971080D01*
X110420Y-5990128D02*
X119943Y-5980604D01*
X119943Y-5980604D02*
X138991Y-5971080D01*
X138991Y-5971080D02*
X167563Y-5971080D01*
X167563Y-5971080D02*
X186610Y-5980604D01*
X186610Y-5980604D02*
X196134Y-5999651D01*
X196134Y-5999651D02*
X196134Y-6104413D01*
X196134Y-5999651D02*
X205658Y-5980604D01*
X205658Y-5980604D02*
X224705Y-5971080D01*
X224705Y-5971080D02*
X253277Y-5971080D01*
X253277Y-5971080D02*
X272325Y-5980604D01*
X272325Y-5980604D02*
X281848Y-5999651D01*
X281848Y-5999651D02*
X281848Y-6104413D01*
X377086Y-6104413D02*
X377086Y-5971080D01*
X377086Y-5990128D02*
X386610Y-5980604D01*
X386610Y-5980604D02*
X405658Y-5971080D01*
X405658Y-5971080D02*
X434229Y-5971080D01*
X434229Y-5971080D02*
X453277Y-5980604D01*
X453277Y-5980604D02*
X462801Y-5999651D01*
X462801Y-5999651D02*
X462801Y-6104413D01*
X462801Y-5999651D02*
X472324Y-5980604D01*
X472324Y-5980604D02*
X491372Y-5971080D01*
X491372Y-5971080D02*
X519943Y-5971080D01*
X519943Y-5971080D02*
X538991Y-5980604D01*
X538991Y-5980604D02*
X548515Y-5999651D01*
X548515Y-5999651D02*
X548515Y-6104413D01*
X938991Y-5894890D02*
X767563Y-6152032D01*
X1196134Y-5904413D02*
X1215182Y-5904413D01*
X1215182Y-5904413D02*
X1234229Y-5913937D01*
X1234229Y-5913937D02*
X1243753Y-5923461D01*
X1243753Y-5923461D02*
X1253277Y-5942509D01*
X1253277Y-5942509D02*
X1262801Y-5980604D01*
X1262801Y-5980604D02*
X1262801Y-6028223D01*
X1262801Y-6028223D02*
X1253277Y-6066318D01*
X1253277Y-6066318D02*
X1243753Y-6085366D01*
X1243753Y-6085366D02*
X1234229Y-6094890D01*
X1234229Y-6094890D02*
X1215182Y-6104413D01*
X1215182Y-6104413D02*
X1196134Y-6104413D01*
X1196134Y-6104413D02*
X1177087Y-6094890D01*
X1177087Y-6094890D02*
X1167563Y-6085366D01*
X1167563Y-6085366D02*
X1158039Y-6066318D01*
X1158039Y-6066318D02*
X1148515Y-6028223D01*
X1148515Y-6028223D02*
X1148515Y-5980604D01*
X1148515Y-5980604D02*
X1158039Y-5942509D01*
X1158039Y-5942509D02*
X1167563Y-5923461D01*
X1167563Y-5923461D02*
X1177087Y-5913937D01*
X1177087Y-5913937D02*
X1196134Y-5904413D01*
X1348515Y-6085366D02*
X1358039Y-6094890D01*
X1358039Y-6094890D02*
X1348515Y-6104413D01*
X1348515Y-6104413D02*
X1338991Y-6094890D01*
X1338991Y-6094890D02*
X1348515Y-6085366D01*
X1348515Y-6085366D02*
X1348515Y-6104413D01*
X1548515Y-6104413D02*
X1434229Y-6104413D01*
X1491372Y-6104413D02*
X1491372Y-5904413D01*
X1491372Y-5904413D02*
X1472325Y-5932985D01*
X1472325Y-5932985D02*
X1453277Y-5952032D01*
X1453277Y-5952032D02*
X1434229Y-5961556D01*
X1615182Y-5904413D02*
X1738991Y-5904413D01*
X1738991Y-5904413D02*
X1672325Y-5980604D01*
X1672325Y-5980604D02*
X1700896Y-5980604D01*
X1700896Y-5980604D02*
X1719944Y-5990128D01*
X1719944Y-5990128D02*
X1729467Y-5999651D01*
X1729467Y-5999651D02*
X1738991Y-6018699D01*
X1738991Y-6018699D02*
X1738991Y-6066318D01*
X1738991Y-6066318D02*
X1729467Y-6085366D01*
X1729467Y-6085366D02*
X1719944Y-6094890D01*
X1719944Y-6094890D02*
X1700896Y-6104413D01*
X1700896Y-6104413D02*
X1643753Y-6104413D01*
X1643753Y-6104413D02*
X1624706Y-6094890D01*
X1624706Y-6094890D02*
X1615182Y-6085366D01*
X1919944Y-5904413D02*
X1824706Y-5904413D01*
X1824706Y-5904413D02*
X1815182Y-5999651D01*
X1815182Y-5999651D02*
X1824706Y-5990128D01*
X1824706Y-5990128D02*
X1843753Y-5980604D01*
X1843753Y-5980604D02*
X1891372Y-5980604D01*
X1891372Y-5980604D02*
X1910420Y-5990128D01*
X1910420Y-5990128D02*
X1919944Y-5999651D01*
X1919944Y-5999651D02*
X1929467Y-6018699D01*
X1929467Y-6018699D02*
X1929467Y-6066318D01*
X1929467Y-6066318D02*
X1919944Y-6085366D01*
X1919944Y-6085366D02*
X1910420Y-6094890D01*
X1910420Y-6094890D02*
X1891372Y-6104413D01*
X1891372Y-6104413D02*
X1843753Y-6104413D01*
X1843753Y-6104413D02*
X1824706Y-6094890D01*
X1824706Y-6094890D02*
X1815182Y-6085366D01*
X2053277Y-5904413D02*
X2072325Y-5904413D01*
X2072325Y-5904413D02*
X2091372Y-5913937D01*
X2091372Y-5913937D02*
X2100896Y-5923461D01*
X2100896Y-5923461D02*
X2110420Y-5942509D01*
X2110420Y-5942509D02*
X2119944Y-5980604D01*
X2119944Y-5980604D02*
X2119944Y-6028223D01*
X2119944Y-6028223D02*
X2110420Y-6066318D01*
X2110420Y-6066318D02*
X2100896Y-6085366D01*
X2100896Y-6085366D02*
X2091372Y-6094890D01*
X2091372Y-6094890D02*
X2072325Y-6104413D01*
X2072325Y-6104413D02*
X2053277Y-6104413D01*
X2053277Y-6104413D02*
X2034229Y-6094890D01*
X2034229Y-6094890D02*
X2024706Y-6085366D01*
X2024706Y-6085366D02*
X2015182Y-6066318D01*
X2015182Y-6066318D02*
X2005658Y-6028223D01*
X2005658Y-6028223D02*
X2005658Y-5980604D01*
X2005658Y-5980604D02*
X2015182Y-5942509D01*
X2015182Y-5942509D02*
X2024706Y-5923461D01*
X2024706Y-5923461D02*
X2034229Y-5913937D01*
X2034229Y-5913937D02*
X2053277Y-5904413D01*
X2196134Y-5904413D02*
X2196134Y-5942509D01*
X2272325Y-5904413D02*
X2272325Y-5942509D01*
X2567563Y-6180604D02*
X2558039Y-6171080D01*
X2558039Y-6171080D02*
X2538991Y-6142509D01*
X2538991Y-6142509D02*
X2529468Y-6123461D01*
X2529468Y-6123461D02*
X2519944Y-6094890D01*
X2519944Y-6094890D02*
X2510420Y-6047270D01*
X2510420Y-6047270D02*
X2510420Y-6009175D01*
X2510420Y-6009175D02*
X2519944Y-5961556D01*
X2519944Y-5961556D02*
X2529468Y-5932985D01*
X2529468Y-5932985D02*
X2538991Y-5913937D01*
X2538991Y-5913937D02*
X2558039Y-5885366D01*
X2558039Y-5885366D02*
X2567563Y-5875842D01*
X2634230Y-5923461D02*
X2643753Y-5913937D01*
X2643753Y-5913937D02*
X2662801Y-5904413D01*
X2662801Y-5904413D02*
X2710420Y-5904413D01*
X2710420Y-5904413D02*
X2729468Y-5913937D01*
X2729468Y-5913937D02*
X2738991Y-5923461D01*
X2738991Y-5923461D02*
X2748515Y-5942509D01*
X2748515Y-5942509D02*
X2748515Y-5961556D01*
X2748515Y-5961556D02*
X2738991Y-5990128D01*
X2738991Y-5990128D02*
X2624706Y-6104413D01*
X2624706Y-6104413D02*
X2748515Y-6104413D01*
X2815182Y-5904413D02*
X2938991Y-5904413D01*
X2938991Y-5904413D02*
X2872325Y-5980604D01*
X2872325Y-5980604D02*
X2900896Y-5980604D01*
X2900896Y-5980604D02*
X2919944Y-5990128D01*
X2919944Y-5990128D02*
X2929468Y-5999651D01*
X2929468Y-5999651D02*
X2938991Y-6018699D01*
X2938991Y-6018699D02*
X2938991Y-6066318D01*
X2938991Y-6066318D02*
X2929468Y-6085366D01*
X2929468Y-6085366D02*
X2919944Y-6094890D01*
X2919944Y-6094890D02*
X2900896Y-6104413D01*
X2900896Y-6104413D02*
X2843753Y-6104413D01*
X2843753Y-6104413D02*
X2824706Y-6094890D01*
X2824706Y-6094890D02*
X2815182Y-6085366D01*
X3177087Y-6104413D02*
X3177087Y-5904413D01*
X3262801Y-6104413D02*
X3262801Y-5999651D01*
X3262801Y-5999651D02*
X3253277Y-5980604D01*
X3253277Y-5980604D02*
X3234230Y-5971080D01*
X3234230Y-5971080D02*
X3205658Y-5971080D01*
X3205658Y-5971080D02*
X3186610Y-5980604D01*
X3186610Y-5980604D02*
X3177087Y-5990128D01*
X3386610Y-6104413D02*
X3367563Y-6094890D01*
X3367563Y-6094890D02*
X3358039Y-6085366D01*
X3358039Y-6085366D02*
X3348515Y-6066318D01*
X3348515Y-6066318D02*
X3348515Y-6009175D01*
X3348515Y-6009175D02*
X3358039Y-5990128D01*
X3358039Y-5990128D02*
X3367563Y-5980604D01*
X3367563Y-5980604D02*
X3386610Y-5971080D01*
X3386610Y-5971080D02*
X3415182Y-5971080D01*
X3415182Y-5971080D02*
X3434230Y-5980604D01*
X3434230Y-5980604D02*
X3443753Y-5990128D01*
X3443753Y-5990128D02*
X3453277Y-6009175D01*
X3453277Y-6009175D02*
X3453277Y-6066318D01*
X3453277Y-6066318D02*
X3443753Y-6085366D01*
X3443753Y-6085366D02*
X3434230Y-6094890D01*
X3434230Y-6094890D02*
X3415182Y-6104413D01*
X3415182Y-6104413D02*
X3386610Y-6104413D01*
X3567563Y-6104413D02*
X3548515Y-6094890D01*
X3548515Y-6094890D02*
X3538991Y-6075842D01*
X3538991Y-6075842D02*
X3538991Y-5904413D01*
X3719944Y-6094890D02*
X3700896Y-6104413D01*
X3700896Y-6104413D02*
X3662801Y-6104413D01*
X3662801Y-6104413D02*
X3643753Y-6094890D01*
X3643753Y-6094890D02*
X3634230Y-6075842D01*
X3634230Y-6075842D02*
X3634230Y-5999651D01*
X3634230Y-5999651D02*
X3643753Y-5980604D01*
X3643753Y-5980604D02*
X3662801Y-5971080D01*
X3662801Y-5971080D02*
X3700896Y-5971080D01*
X3700896Y-5971080D02*
X3719944Y-5980604D01*
X3719944Y-5980604D02*
X3729468Y-5999651D01*
X3729468Y-5999651D02*
X3729468Y-6018699D01*
X3729468Y-6018699D02*
X3634230Y-6037747D01*
X3805658Y-6094890D02*
X3824706Y-6104413D01*
X3824706Y-6104413D02*
X3862801Y-6104413D01*
X3862801Y-6104413D02*
X3881849Y-6094890D01*
X3881849Y-6094890D02*
X3891372Y-6075842D01*
X3891372Y-6075842D02*
X3891372Y-6066318D01*
X3891372Y-6066318D02*
X3881849Y-6047270D01*
X3881849Y-6047270D02*
X3862801Y-6037747D01*
X3862801Y-6037747D02*
X3834230Y-6037747D01*
X3834230Y-6037747D02*
X3815182Y-6028223D01*
X3815182Y-6028223D02*
X3805658Y-6009175D01*
X3805658Y-6009175D02*
X3805658Y-5999651D01*
X3805658Y-5999651D02*
X3815182Y-5980604D01*
X3815182Y-5980604D02*
X3834230Y-5971080D01*
X3834230Y-5971080D02*
X3862801Y-5971080D01*
X3862801Y-5971080D02*
X3881849Y-5980604D01*
X3958039Y-6180604D02*
X3967563Y-6171080D01*
X3967563Y-6171080D02*
X3986611Y-6142509D01*
X3986611Y-6142509D02*
X3996134Y-6123461D01*
X3996134Y-6123461D02*
X4005658Y-6094890D01*
X4005658Y-6094890D02*
X4015182Y-6047270D01*
X4015182Y-6047270D02*
X4015182Y-6009175D01*
X4015182Y-6009175D02*
X4005658Y-5961556D01*
X4005658Y-5961556D02*
X3996134Y-5932985D01*
X3996134Y-5932985D02*
X3986611Y-5913937D01*
X3986611Y-5913937D02*
X3967563Y-5885366D01*
X3967563Y-5885366D02*
X3958039Y-5875842D01*
X4319944Y-6180604D02*
X4310420Y-6171080D01*
X4310420Y-6171080D02*
X4291373Y-6142509D01*
X4291373Y-6142509D02*
X4281849Y-6123461D01*
X4281849Y-6123461D02*
X4272325Y-6094890D01*
X4272325Y-6094890D02*
X4262801Y-6047270D01*
X4262801Y-6047270D02*
X4262801Y-6009175D01*
X4262801Y-6009175D02*
X4272325Y-5961556D01*
X4272325Y-5961556D02*
X4281849Y-5932985D01*
X4281849Y-5932985D02*
X4291373Y-5913937D01*
X4291373Y-5913937D02*
X4310420Y-5885366D01*
X4310420Y-5885366D02*
X4319944Y-5875842D01*
X4396134Y-5971080D02*
X4396134Y-6104413D01*
X4396134Y-5990128D02*
X4405658Y-5980604D01*
X4405658Y-5980604D02*
X4424706Y-5971080D01*
X4424706Y-5971080D02*
X4453277Y-5971080D01*
X4453277Y-5971080D02*
X4472325Y-5980604D01*
X4472325Y-5980604D02*
X4481849Y-5999651D01*
X4481849Y-5999651D02*
X4481849Y-6104413D01*
X4605658Y-6104413D02*
X4586611Y-6094890D01*
X4586611Y-6094890D02*
X4577087Y-6085366D01*
X4577087Y-6085366D02*
X4567563Y-6066318D01*
X4567563Y-6066318D02*
X4567563Y-6009175D01*
X4567563Y-6009175D02*
X4577087Y-5990128D01*
X4577087Y-5990128D02*
X4586611Y-5980604D01*
X4586611Y-5980604D02*
X4605658Y-5971080D01*
X4605658Y-5971080D02*
X4634230Y-5971080D01*
X4634230Y-5971080D02*
X4653277Y-5980604D01*
X4653277Y-5980604D02*
X4662801Y-5990128D01*
X4662801Y-5990128D02*
X4672325Y-6009175D01*
X4672325Y-6009175D02*
X4672325Y-6066318D01*
X4672325Y-6066318D02*
X4662801Y-6085366D01*
X4662801Y-6085366D02*
X4653277Y-6094890D01*
X4653277Y-6094890D02*
X4634230Y-6104413D01*
X4634230Y-6104413D02*
X4605658Y-6104413D01*
X4729468Y-5971080D02*
X4805658Y-5971080D01*
X4758039Y-5904413D02*
X4758039Y-6075842D01*
X4758039Y-6075842D02*
X4767563Y-6094890D01*
X4767563Y-6094890D02*
X4786611Y-6104413D01*
X4786611Y-6104413D02*
X4805658Y-6104413D01*
X5024706Y-5971080D02*
X5024706Y-6171080D01*
X5024706Y-5980604D02*
X5043754Y-5971080D01*
X5043754Y-5971080D02*
X5081849Y-5971080D01*
X5081849Y-5971080D02*
X5100896Y-5980604D01*
X5100896Y-5980604D02*
X5110420Y-5990128D01*
X5110420Y-5990128D02*
X5119944Y-6009175D01*
X5119944Y-6009175D02*
X5119944Y-6066318D01*
X5119944Y-6066318D02*
X5110420Y-6085366D01*
X5110420Y-6085366D02*
X5100896Y-6094890D01*
X5100896Y-6094890D02*
X5081849Y-6104413D01*
X5081849Y-6104413D02*
X5043754Y-6104413D01*
X5043754Y-6104413D02*
X5024706Y-6094890D01*
X5234230Y-6104413D02*
X5215182Y-6094890D01*
X5215182Y-6094890D02*
X5205658Y-6075842D01*
X5205658Y-6075842D02*
X5205658Y-5904413D01*
X5396135Y-6104413D02*
X5396135Y-5999651D01*
X5396135Y-5999651D02*
X5386611Y-5980604D01*
X5386611Y-5980604D02*
X5367563Y-5971080D01*
X5367563Y-5971080D02*
X5329468Y-5971080D01*
X5329468Y-5971080D02*
X5310420Y-5980604D01*
X5396135Y-6094890D02*
X5377087Y-6104413D01*
X5377087Y-6104413D02*
X5329468Y-6104413D01*
X5329468Y-6104413D02*
X5310420Y-6094890D01*
X5310420Y-6094890D02*
X5300896Y-6075842D01*
X5300896Y-6075842D02*
X5300896Y-6056794D01*
X5300896Y-6056794D02*
X5310420Y-6037747D01*
X5310420Y-6037747D02*
X5329468Y-6028223D01*
X5329468Y-6028223D02*
X5377087Y-6028223D01*
X5377087Y-6028223D02*
X5396135Y-6018699D01*
X5462801Y-5971080D02*
X5538992Y-5971080D01*
X5491373Y-5904413D02*
X5491373Y-6075842D01*
X5491373Y-6075842D02*
X5500896Y-6094890D01*
X5500896Y-6094890D02*
X5519944Y-6104413D01*
X5519944Y-6104413D02*
X5538992Y-6104413D01*
X5681849Y-6094890D02*
X5662801Y-6104413D01*
X5662801Y-6104413D02*
X5624706Y-6104413D01*
X5624706Y-6104413D02*
X5605658Y-6094890D01*
X5605658Y-6094890D02*
X5596134Y-6075842D01*
X5596134Y-6075842D02*
X5596134Y-5999651D01*
X5596134Y-5999651D02*
X5605658Y-5980604D01*
X5605658Y-5980604D02*
X5624706Y-5971080D01*
X5624706Y-5971080D02*
X5662801Y-5971080D01*
X5662801Y-5971080D02*
X5681849Y-5980604D01*
X5681849Y-5980604D02*
X5691373Y-5999651D01*
X5691373Y-5999651D02*
X5691373Y-6018699D01*
X5691373Y-6018699D02*
X5596134Y-6037747D01*
X5862801Y-6104413D02*
X5862801Y-5904413D01*
X5862801Y-6094890D02*
X5843754Y-6104413D01*
X5843754Y-6104413D02*
X5805658Y-6104413D01*
X5805658Y-6104413D02*
X5786611Y-6094890D01*
X5786611Y-6094890D02*
X5777087Y-6085366D01*
X5777087Y-6085366D02*
X5767563Y-6066318D01*
X5767563Y-6066318D02*
X5767563Y-6009175D01*
X5767563Y-6009175D02*
X5777087Y-5990128D01*
X5777087Y-5990128D02*
X5786611Y-5980604D01*
X5786611Y-5980604D02*
X5805658Y-5971080D01*
X5805658Y-5971080D02*
X5843754Y-5971080D01*
X5843754Y-5971080D02*
X5862801Y-5980604D01*
X5938992Y-6180604D02*
X5948515Y-6171080D01*
X5948515Y-6171080D02*
X5967563Y-6142509D01*
X5967563Y-6142509D02*
X5977087Y-6123461D01*
X5977087Y-6123461D02*
X5986611Y-6094890D01*
X5986611Y-6094890D02*
X5996134Y-6047270D01*
X5996134Y-6047270D02*
X5996134Y-6009175D01*
X5996134Y-6009175D02*
X5986611Y-5961556D01*
X5986611Y-5961556D02*
X5977087Y-5932985D01*
X5977087Y-5932985D02*
X5967563Y-5913937D01*
X5967563Y-5913937D02*
X5948515Y-5885366D01*
X5948515Y-5885366D02*
X5938992Y-5875842D01*
M02*
