%TF.GenerationSoftware,KiCad,Pcbnew,8.0.2*%
%TF.CreationDate,2024-05-30T16:07:25+01:00*%
%TF.ProjectId,board,626f6172-642e-46b6-9963-61645f706362,0.3*%
%TF.SameCoordinates,Original*%
%TF.FileFunction,Profile,NP*%
%FSLAX46Y46*%
G04 Gerber Fmt 4.6, Leading zero omitted, Abs format (unit mm)*
G04 Created by KiCad (PCBNEW 8.0.2) date 2024-05-30 16:07:25*
%MOMM*%
%LPD*%
G01*
G04 APERTURE LIST*
%TA.AperFunction,Profile*%
%ADD10C,0.150000*%
%TD*%
G04 APERTURE END LIST*
D10*
X26000000Y73800000D02*
G75*
G02*
X28000000Y75800000I2000000J0D01*
G01*
X62000000Y72400000D02*
G75*
G02*
X63977391Y70699872I0J-2000000D01*
G01*
X80000000Y70700000D02*
G75*
G02*
X82000000Y68700000I0J-2000000D01*
G01*
X26000000Y73800000D02*
X26000000Y72400000D01*
X56050000Y-6120000D02*
G75*
G02*
X51950000Y-6120000I-2050000J0D01*
G01*
X51950000Y-6120000D02*
G75*
G02*
X56050000Y-6120000I2050000J0D01*
G01*
X8000000Y70400000D02*
X8000000Y60500000D01*
X98288831Y-41686665D02*
X54707107Y-16524745D01*
X101117258Y-41686664D02*
G75*
G02*
X98288787Y-41686709I-1414258J1414164D01*
G01*
X11050000Y0D02*
G75*
G02*
X6950000Y0I-2050000J0D01*
G01*
X6950000Y0D02*
G75*
G02*
X11050000Y0I2050000J0D01*
G01*
X-8000000Y-9500000D02*
X8000000Y-9500000D01*
X102000000Y51850000D02*
G75*
G02*
X104000000Y49850000I0J-2000000D01*
G01*
X8000000Y70400000D02*
G75*
G02*
X10000000Y72400000I2000000J0D01*
G01*
X65050000Y61200000D02*
G75*
G02*
X60950000Y61200000I-2050000J0D01*
G01*
X60950000Y61200000D02*
G75*
G02*
X65050000Y61200000I2050000J0D01*
G01*
X101117258Y-41686665D02*
X111723860Y-31080063D01*
X26000000Y72400000D02*
X10000000Y72400000D01*
X94399134Y-22311939D02*
G75*
G02*
X90299134Y-22311939I-2050000J0D01*
G01*
X90299134Y-22311939D02*
G75*
G02*
X94399134Y-22311939I2050000J0D01*
G01*
X-10000000Y58500000D02*
G75*
G02*
X-8000000Y60500000I1999999J1D01*
G01*
X111723859Y-28251637D02*
G75*
G02*
X111723859Y-31080063I-1414209J-1414213D01*
G01*
X-8000000Y-9500000D02*
G75*
G02*
X-10000000Y-7500000I-1J1999999D01*
G01*
X82000000Y51850000D02*
X82000000Y68700000D01*
X8000000Y60500000D02*
X-8000000Y60500000D01*
X80000000Y70700000D02*
X64000000Y70700000D01*
X44000000Y75800000D02*
X28000000Y75800000D01*
X54707107Y-16524745D02*
X8000000Y-9500000D01*
X104000000Y-20208734D02*
X104000000Y49850000D01*
X62000000Y72400000D02*
X46000000Y72400000D01*
X63977391Y70699872D02*
G75*
G02*
X64000000Y70700000I22609J-1996572D01*
G01*
X11050000Y28900000D02*
G75*
G02*
X6950000Y28900000I-2050000J0D01*
G01*
X6950000Y28900000D02*
G75*
G02*
X11050000Y28900000I2050000J0D01*
G01*
X44000000Y75800000D02*
G75*
G02*
X46000000Y73800000I0J-2000000D01*
G01*
X-10000000Y-7500000D02*
X-10000000Y58500000D01*
X46000000Y72400000D02*
X46000000Y73800000D01*
X104000000Y-20208734D02*
X111723860Y-28251636D01*
X102000000Y51850000D02*
X82000000Y51850000D01*
M02*
