M48
; DRILL file {KiCad 8.0.2} date 2024-05-30T16:08:44+0100
; FORMAT={-:-/ absolute / metric / decimal}
; #@! TF.CreationDate,2024-05-30T16:08:44+01:00
; #@! TF.GenerationSoftware,Kicad,Pcbnew,8.0.2
; #@! TF.FileFunction,Plated,1,2,PTH
FMAT,2
METRIC
; #@! TA.AperFunction,Plated,PTH,ViaDrill
T1C0.400
; #@! TA.AperFunction,Plated,PTH,ComponentDrill
T2C0.900
; #@! TA.AperFunction,Plated,PTH,ComponentDrill
T3C0.991
; #@! TA.AperFunction,Plated,PTH,ComponentDrill
T4C1.092
; #@! TA.AperFunction,Plated,PTH,ComponentDrill
T5C1.300
%
G90
G05
T1
X6.6Y24.05
X9.0Y44.712
X14.915Y19.794
X26.275Y42.704
X26.275Y22.753
X43.252Y8.127
X44.275Y62.104
X44.275Y38.91
X60.588Y58.229
X62.275Y1.511
X65.009Y-13.01
X73.857Y-3.766
X79.593Y6.14
X80.275Y58.161
X80.275Y28.12
X81.714Y26.85
X82.796Y20.561
X93.503Y-9.519
X93.62Y38.449
X94.32Y9.7
X95.922Y11.897
X106.675Y-24.27
T3
X-3.81Y46.0
X-3.81Y29.0
X-3.81Y12.0
X-3.81Y-5.0
X3.81Y46.0
X3.81Y29.0
X3.81Y12.0
X3.81Y-5.0
X14.19Y57.9
X14.19Y40.9
X14.19Y23.9
X14.19Y6.9
X21.81Y57.9
X21.81Y40.9
X21.81Y23.9
X21.81Y6.9
X32.19Y61.3
X32.19Y44.3
X32.19Y27.3
X32.19Y10.3
X39.81Y61.3
X39.81Y44.3
X39.81Y27.3
X39.81Y10.3
X50.19Y57.9
X50.19Y40.9
X50.19Y23.9
X50.19Y6.9
X57.81Y57.9
X57.81Y40.9
X57.81Y23.9
X57.81Y6.9
X59.919Y-13.262
X67.279Y-15.235
X68.19Y56.2
X68.19Y39.2
X68.19Y22.2
X68.19Y5.2
X75.81Y56.2
X75.81Y39.2
X75.81Y22.2
X75.81Y5.2
X77.631Y-19.523
X84.23Y-23.333
X93.12Y-30.154
X98.508Y-35.542
T4
X84.38Y47.17
X84.38Y44.63
X84.38Y42.09
X84.38Y39.55
X84.38Y37.01
X84.38Y34.47
X84.38Y31.93
X84.38Y29.39
X84.38Y26.85
X84.38Y24.31
X84.38Y21.77
X84.38Y19.23
X86.88Y45.92
X86.88Y43.38
X86.88Y40.84
X86.88Y38.3
X86.88Y35.76
X86.88Y33.22
X86.88Y30.68
X86.88Y28.14
X86.88Y25.6
X86.88Y23.06
X86.88Y20.52
X86.88Y17.98
X99.62Y47.17
X99.62Y44.63
X99.62Y42.09
X99.62Y39.55
X99.62Y37.01
X99.62Y34.47
X99.62Y31.93
X99.62Y29.39
X99.62Y26.85
X99.62Y24.31
X99.62Y21.77
X99.62Y19.23
X102.12Y45.92
X102.12Y43.38
X102.12Y40.84
X102.12Y38.3
X102.12Y35.76
X102.12Y33.22
X102.12Y30.68
X102.12Y28.14
X102.12Y25.6
X102.12Y23.06
X102.12Y20.52
X102.12Y17.98
T5
X89.0Y13.45
X89.0Y6.95
T2
X93.0Y-2.5G85X92.4Y-2.5
G05
X93.0Y-4.8G85X92.4Y-4.8
G05
X94.1Y-0.2G85X93.5Y-0.2
G05
X94.1Y-7.1G85X93.5Y-7.1
G05
X98.1Y-0.2G85X97.5Y-0.2
G05
X98.1Y-7.1G85X97.5Y-7.1
G05
X101.1Y-0.2G85X100.5Y-0.2
G05
X101.1Y-7.1G85X100.5Y-7.1
G05
M30
