%TF.GenerationSoftware,KiCad,Pcbnew,8.0.2*%
%TF.CreationDate,2024-05-30T16:07:25+01:00*%
%TF.ProjectId,board,626f6172-642e-46b6-9963-61645f706362,0.3*%
%TF.SameCoordinates,Original*%
%TF.FileFunction,Copper,L2,Bot*%
%TF.FilePolarity,Positive*%
%FSLAX46Y46*%
G04 Gerber Fmt 4.6, Leading zero omitted, Abs format (unit mm)*
G04 Created by KiCad (PCBNEW 8.0.2) date 2024-05-30 16:07:25*
%MOMM*%
%LPD*%
G01*
G04 APERTURE LIST*
G04 Aperture macros list*
%AMRotRect*
0 Rectangle, with rotation*
0 The origin of the aperture is its center*
0 $1 length*
0 $2 width*
0 $3 Rotation angle, in degrees counterclockwise*
0 Add horizontal line*
21,1,$1,$2,0,0,$3*%
G04 Aperture macros list end*
%TA.AperFunction,EtchedComponent*%
%ADD10C,0.000000*%
%TD*%
%TA.AperFunction,WasherPad*%
%ADD11C,1.000000*%
%TD*%
%TA.AperFunction,ComponentPad*%
%ADD12C,2.000000*%
%TD*%
%TA.AperFunction,SMDPad,CuDef*%
%ADD13R,2.600000X2.600000*%
%TD*%
%TA.AperFunction,ComponentPad*%
%ADD14R,1.778000X1.778000*%
%TD*%
%TA.AperFunction,SMDPad,CuDef*%
%ADD15R,0.900000X1.200000*%
%TD*%
%TA.AperFunction,ComponentPad*%
%ADD16C,1.905000*%
%TD*%
%TA.AperFunction,ComponentPad*%
%ADD17RotRect,1.778000X1.778000X345.000000*%
%TD*%
%TA.AperFunction,SMDPad,CuDef*%
%ADD18RotRect,0.900000X1.200000X345.000000*%
%TD*%
%TA.AperFunction,SMDPad,CuDef*%
%ADD19RotRect,2.600000X2.600000X315.000000*%
%TD*%
%TA.AperFunction,SMDPad,CuDef*%
%ADD20R,1.500000X1.500000*%
%TD*%
%TA.AperFunction,ComponentPad*%
%ADD21O,2.200000X1.600000*%
%TD*%
%TA.AperFunction,SMDPad,CuDef*%
%ADD22RotRect,2.600000X2.600000X345.000000*%
%TD*%
%TA.AperFunction,ComponentPad*%
%ADD23RotRect,1.778000X1.778000X315.000000*%
%TD*%
%TA.AperFunction,SMDPad,CuDef*%
%ADD24RotRect,0.900000X1.200000X315.000000*%
%TD*%
%TA.AperFunction,ComponentPad*%
%ADD25RotRect,1.778000X1.778000X330.000000*%
%TD*%
%TA.AperFunction,SMDPad,CuDef*%
%ADD26RotRect,0.900000X1.200000X330.000000*%
%TD*%
%TA.AperFunction,SMDPad,CuDef*%
%ADD27R,0.900000X0.900000*%
%TD*%
%TA.AperFunction,SMDPad,CuDef*%
%ADD28R,1.250000X0.900000*%
%TD*%
%TA.AperFunction,SMDPad,CuDef*%
%ADD29R,1.143000X0.635000*%
%TD*%
%TA.AperFunction,ComponentPad*%
%ADD30R,1.752600X1.752600*%
%TD*%
%TA.AperFunction,ComponentPad*%
%ADD31C,1.752600*%
%TD*%
%TA.AperFunction,SMDPad,CuDef*%
%ADD32RotRect,2.600000X2.600000X330.000000*%
%TD*%
%TA.AperFunction,ViaPad*%
%ADD33C,0.800000*%
%TD*%
%TA.AperFunction,Conductor*%
%ADD34C,0.250000*%
%TD*%
G04 APERTURE END LIST*
D10*
%TA.AperFunction,EtchedComponent*%
%TO.C,G\u002A\u002A\u002A*%
G36*
X31116336Y-2356417D02*
G01*
X31095169Y-2377584D01*
X31074003Y-2356417D01*
X31095169Y-2335251D01*
X31116336Y-2356417D01*
G37*
%TD.AperFunction*%
%TA.AperFunction,EtchedComponent*%
G36*
X31539669Y-3118418D02*
G01*
X31518503Y-3139584D01*
X31497336Y-3118418D01*
X31518503Y-3097251D01*
X31539669Y-3118418D01*
G37*
%TD.AperFunction*%
%TA.AperFunction,EtchedComponent*%
G36*
X31751336Y-4811751D02*
G01*
X31730169Y-4832918D01*
X31709003Y-4811751D01*
X31730169Y-4790584D01*
X31751336Y-4811751D01*
G37*
%TD.AperFunction*%
%TA.AperFunction,EtchedComponent*%
G36*
X32090003Y-9087418D02*
G01*
X32068836Y-9108584D01*
X32047669Y-9087418D01*
X32068836Y-9066251D01*
X32090003Y-9087418D01*
G37*
%TD.AperFunction*%
%TA.AperFunction,EtchedComponent*%
G36*
X33148336Y-5192751D02*
G01*
X33127169Y-5213918D01*
X33106003Y-5192751D01*
X33127169Y-5171584D01*
X33148336Y-5192751D01*
G37*
%TD.AperFunction*%
%TA.AperFunction,EtchedComponent*%
G36*
X33444669Y-10103418D02*
G01*
X33423503Y-10124584D01*
X33402336Y-10103418D01*
X33423503Y-10082251D01*
X33444669Y-10103418D01*
G37*
%TD.AperFunction*%
%TA.AperFunction,EtchedComponent*%
G36*
X33487003Y-4854084D02*
G01*
X33465836Y-4875251D01*
X33444669Y-4854084D01*
X33465836Y-4832918D01*
X33487003Y-4854084D01*
G37*
%TD.AperFunction*%
%TA.AperFunction,EtchedComponent*%
G36*
X33825669Y-4684751D02*
G01*
X33804503Y-4705918D01*
X33783336Y-4684751D01*
X33804503Y-4663584D01*
X33825669Y-4684751D01*
G37*
%TD.AperFunction*%
%TA.AperFunction,EtchedComponent*%
G36*
X34206669Y-4176751D02*
G01*
X34185503Y-4197918D01*
X34164336Y-4176751D01*
X34185503Y-4155584D01*
X34206669Y-4176751D01*
G37*
%TD.AperFunction*%
%TA.AperFunction,EtchedComponent*%
G36*
X34418336Y-11246418D02*
G01*
X34397169Y-11267584D01*
X34376003Y-11246418D01*
X34397169Y-11225251D01*
X34418336Y-11246418D01*
G37*
%TD.AperFunction*%
%TA.AperFunction,EtchedComponent*%
G36*
X34460669Y-11119418D02*
G01*
X34439503Y-11140584D01*
X34418336Y-11119418D01*
X34439503Y-11098251D01*
X34460669Y-11119418D01*
G37*
%TD.AperFunction*%
%TA.AperFunction,EtchedComponent*%
G36*
X34460669Y-11331084D02*
G01*
X34439503Y-11352251D01*
X34418336Y-11331084D01*
X34439503Y-11309918D01*
X34460669Y-11331084D01*
G37*
%TD.AperFunction*%
%TA.AperFunction,EtchedComponent*%
G36*
X34460669Y-11881418D02*
G01*
X34439503Y-11902584D01*
X34418336Y-11881418D01*
X34439503Y-11860251D01*
X34460669Y-11881418D01*
G37*
%TD.AperFunction*%
%TA.AperFunction,EtchedComponent*%
G36*
X34503003Y-3668751D02*
G01*
X34481836Y-3689918D01*
X34460669Y-3668751D01*
X34481836Y-3647584D01*
X34503003Y-3668751D01*
G37*
%TD.AperFunction*%
%TA.AperFunction,EtchedComponent*%
G36*
X34503003Y-11246418D02*
G01*
X34481836Y-11267584D01*
X34460669Y-11246418D01*
X34481836Y-11225251D01*
X34503003Y-11246418D01*
G37*
%TD.AperFunction*%
%TA.AperFunction,EtchedComponent*%
G36*
X34799336Y-11796751D02*
G01*
X34778169Y-11817918D01*
X34757003Y-11796751D01*
X34778169Y-11775584D01*
X34799336Y-11796751D01*
G37*
%TD.AperFunction*%
%TA.AperFunction,EtchedComponent*%
G36*
X36027003Y-12474084D02*
G01*
X36005836Y-12495251D01*
X35984669Y-12474084D01*
X36005836Y-12452918D01*
X36027003Y-12474084D01*
G37*
%TD.AperFunction*%
%TA.AperFunction,EtchedComponent*%
G36*
X37508670Y-8537084D02*
G01*
X37487503Y-8558251D01*
X37466336Y-8537084D01*
X37487503Y-8515918D01*
X37508670Y-8537084D01*
G37*
%TD.AperFunction*%
%TA.AperFunction,EtchedComponent*%
G36*
X37508670Y-9172084D02*
G01*
X37487503Y-9193251D01*
X37466336Y-9172084D01*
X37487503Y-9150918D01*
X37508670Y-9172084D01*
G37*
%TD.AperFunction*%
%TA.AperFunction,EtchedComponent*%
G36*
X37551003Y-8452418D02*
G01*
X37529836Y-8473584D01*
X37508670Y-8452418D01*
X37529836Y-8431251D01*
X37551003Y-8452418D01*
G37*
%TD.AperFunction*%
%TA.AperFunction,EtchedComponent*%
G36*
X37847336Y-8875751D02*
G01*
X37826170Y-8896918D01*
X37805003Y-8875751D01*
X37826170Y-8854584D01*
X37847336Y-8875751D01*
G37*
%TD.AperFunction*%
%TA.AperFunction,EtchedComponent*%
G36*
X37932003Y-8410084D02*
G01*
X37910836Y-8431251D01*
X37889670Y-8410084D01*
X37910836Y-8388918D01*
X37932003Y-8410084D01*
G37*
%TD.AperFunction*%
%TA.AperFunction,EtchedComponent*%
G36*
X38228336Y-8198418D02*
G01*
X38207170Y-8219584D01*
X38186003Y-8198418D01*
X38207170Y-8177251D01*
X38228336Y-8198418D01*
G37*
%TD.AperFunction*%
%TA.AperFunction,EtchedComponent*%
G36*
X38397670Y-6843751D02*
G01*
X38376503Y-6864918D01*
X38355336Y-6843751D01*
X38376503Y-6822584D01*
X38397670Y-6843751D01*
G37*
%TD.AperFunction*%
%TA.AperFunction,EtchedComponent*%
G36*
X38397670Y-9002751D02*
G01*
X38376503Y-9023918D01*
X38355336Y-9002751D01*
X38376503Y-8981584D01*
X38397670Y-9002751D01*
G37*
%TD.AperFunction*%
%TA.AperFunction,EtchedComponent*%
G36*
X38524670Y-8071418D02*
G01*
X38503503Y-8092584D01*
X38482336Y-8071418D01*
X38503503Y-8050251D01*
X38524670Y-8071418D01*
G37*
%TD.AperFunction*%
%TA.AperFunction,EtchedComponent*%
G36*
X38863336Y-6166418D02*
G01*
X38842170Y-6187584D01*
X38821003Y-6166418D01*
X38842170Y-6145251D01*
X38863336Y-6166418D01*
G37*
%TD.AperFunction*%
%TA.AperFunction,EtchedComponent*%
G36*
X39075003Y-7859751D02*
G01*
X39053836Y-7880918D01*
X39032670Y-7859751D01*
X39053836Y-7838584D01*
X39075003Y-7859751D01*
G37*
%TD.AperFunction*%
%TA.AperFunction,EtchedComponent*%
G36*
X39202003Y-4769418D02*
G01*
X39180836Y-4790584D01*
X39159670Y-4769418D01*
X39180836Y-4748251D01*
X39202003Y-4769418D01*
G37*
%TD.AperFunction*%
%TA.AperFunction,EtchedComponent*%
G36*
X39329003Y-7521084D02*
G01*
X39307836Y-7542251D01*
X39286670Y-7521084D01*
X39307836Y-7499918D01*
X39329003Y-7521084D01*
G37*
%TD.AperFunction*%
%TA.AperFunction,EtchedComponent*%
G36*
X39837003Y-5616084D02*
G01*
X39815836Y-5637251D01*
X39794670Y-5616084D01*
X39815836Y-5594918D01*
X39837003Y-5616084D01*
G37*
%TD.AperFunction*%
%TA.AperFunction,EtchedComponent*%
G36*
X39921670Y-8029084D02*
G01*
X39900503Y-8050251D01*
X39879336Y-8029084D01*
X39900503Y-8007918D01*
X39921670Y-8029084D01*
G37*
%TD.AperFunction*%
%TA.AperFunction,EtchedComponent*%
G36*
X41615003Y-7055417D02*
G01*
X41593836Y-7076584D01*
X41572670Y-7055417D01*
X41593836Y-7034251D01*
X41615003Y-7055417D01*
G37*
%TD.AperFunction*%
%TA.AperFunction,EtchedComponent*%
G36*
X42123003Y-6208751D02*
G01*
X42101836Y-6229918D01*
X42080670Y-6208751D01*
X42101836Y-6187584D01*
X42123003Y-6208751D01*
G37*
%TD.AperFunction*%
%TA.AperFunction,EtchedComponent*%
G36*
X30721225Y-2095362D02*
G01*
X30726291Y-2145601D01*
X30721225Y-2151806D01*
X30696058Y-2145995D01*
X30693003Y-2123584D01*
X30708492Y-2088739D01*
X30721225Y-2095362D01*
G37*
%TD.AperFunction*%
%TA.AperFunction,EtchedComponent*%
G36*
X30935537Y-2479007D02*
G01*
X30922912Y-2498248D01*
X30879975Y-2501242D01*
X30834804Y-2490903D01*
X30854398Y-2475665D01*
X30920560Y-2470619D01*
X30935537Y-2479007D01*
G37*
%TD.AperFunction*%
%TA.AperFunction,EtchedComponent*%
G36*
X31737225Y-5058695D02*
G01*
X31742291Y-5108935D01*
X31737225Y-5115140D01*
X31712058Y-5109329D01*
X31709003Y-5086918D01*
X31724492Y-5052073D01*
X31737225Y-5058695D01*
G37*
%TD.AperFunction*%
%TA.AperFunction,EtchedComponent*%
G36*
X31737225Y-7683362D02*
G01*
X31742291Y-7733602D01*
X31737225Y-7739807D01*
X31712058Y-7733995D01*
X31709003Y-7711584D01*
X31724492Y-7676739D01*
X31737225Y-7683362D01*
G37*
%TD.AperFunction*%
%TA.AperFunction,EtchedComponent*%
G36*
X31737921Y-4528647D02*
G01*
X31742968Y-4594809D01*
X31734579Y-4609786D01*
X31715338Y-4597160D01*
X31712345Y-4554223D01*
X31722683Y-4509052D01*
X31737921Y-4528647D01*
G37*
%TD.AperFunction*%
%TA.AperFunction,EtchedComponent*%
G36*
X33091891Y-4296695D02*
G01*
X33086080Y-4321863D01*
X33063669Y-4324918D01*
X33028824Y-4309429D01*
X33035447Y-4296695D01*
X33085687Y-4291629D01*
X33091891Y-4296695D01*
G37*
%TD.AperFunction*%
%TA.AperFunction,EtchedComponent*%
G36*
X34023225Y-10773695D02*
G01*
X34028291Y-10823935D01*
X34023225Y-10830140D01*
X33998058Y-10824329D01*
X33995003Y-10801918D01*
X34010492Y-10767073D01*
X34023225Y-10773695D01*
G37*
%TD.AperFunction*%
%TA.AperFunction,EtchedComponent*%
G36*
X34150225Y-4254362D02*
G01*
X34155291Y-4304602D01*
X34150225Y-4310807D01*
X34125058Y-4304995D01*
X34122003Y-4282584D01*
X34137492Y-4247739D01*
X34150225Y-4254362D01*
G37*
%TD.AperFunction*%
%TA.AperFunction,EtchedComponent*%
G36*
X34404225Y-4169695D02*
G01*
X34409291Y-4219935D01*
X34404225Y-4226140D01*
X34379058Y-4220329D01*
X34376003Y-4197918D01*
X34391492Y-4163073D01*
X34404225Y-4169695D01*
G37*
%TD.AperFunction*%
%TA.AperFunction,EtchedComponent*%
G36*
X36012891Y-12297695D02*
G01*
X36007080Y-12322863D01*
X35984669Y-12325918D01*
X35949824Y-12310429D01*
X35956447Y-12297695D01*
X36006687Y-12292629D01*
X36012891Y-12297695D01*
G37*
%TD.AperFunction*%
%TA.AperFunction,EtchedComponent*%
G36*
X37327871Y-8744341D02*
G01*
X37315246Y-8763582D01*
X37272309Y-8766576D01*
X37227137Y-8756237D01*
X37246732Y-8740999D01*
X37312894Y-8735952D01*
X37327871Y-8744341D01*
G37*
%TD.AperFunction*%
%TA.AperFunction,EtchedComponent*%
G36*
X37663706Y-9606001D02*
G01*
X37669298Y-9692672D01*
X37663706Y-9711834D01*
X37648255Y-9717152D01*
X37642354Y-9658918D01*
X37649007Y-9598820D01*
X37663706Y-9606001D01*
G37*
%TD.AperFunction*%
%TA.AperFunction,EtchedComponent*%
G36*
X38595225Y-7810362D02*
G01*
X38589414Y-7835529D01*
X38567003Y-7838584D01*
X38532158Y-7823095D01*
X38538781Y-7810362D01*
X38589021Y-7805296D01*
X38595225Y-7810362D01*
G37*
%TD.AperFunction*%
%TA.AperFunction,EtchedComponent*%
G36*
X38806892Y-5693695D02*
G01*
X38811958Y-5743935D01*
X38806892Y-5750140D01*
X38781725Y-5744329D01*
X38778670Y-5721918D01*
X38794159Y-5687073D01*
X38806892Y-5693695D01*
G37*
%TD.AperFunction*%
%TA.AperFunction,EtchedComponent*%
G36*
X39103225Y-8064362D02*
G01*
X39108292Y-8114602D01*
X39103225Y-8120807D01*
X39078058Y-8114995D01*
X39075003Y-8092584D01*
X39090492Y-8057739D01*
X39103225Y-8064362D01*
G37*
%TD.AperFunction*%
%TA.AperFunction,EtchedComponent*%
G36*
X39187892Y-7641029D02*
G01*
X39192958Y-7691269D01*
X39187892Y-7697473D01*
X39162725Y-7691662D01*
X39159670Y-7669251D01*
X39175159Y-7634406D01*
X39187892Y-7641029D01*
G37*
%TD.AperFunction*%
%TA.AperFunction,EtchedComponent*%
G36*
X39187892Y-8022029D02*
G01*
X39192958Y-8072269D01*
X39187892Y-8078473D01*
X39162725Y-8072662D01*
X39159670Y-8050251D01*
X39175159Y-8015406D01*
X39187892Y-8022029D01*
G37*
%TD.AperFunction*%
%TA.AperFunction,EtchedComponent*%
G36*
X39272559Y-6540362D02*
G01*
X39277625Y-6590602D01*
X39272559Y-6596807D01*
X39247391Y-6590995D01*
X39244336Y-6568584D01*
X39259825Y-6533739D01*
X39272559Y-6540362D01*
G37*
%TD.AperFunction*%
%TA.AperFunction,EtchedComponent*%
G36*
X39949892Y-4677695D02*
G01*
X39944081Y-4702863D01*
X39921670Y-4705918D01*
X39886825Y-4690429D01*
X39893447Y-4677695D01*
X39943687Y-4672629D01*
X39949892Y-4677695D01*
G37*
%TD.AperFunction*%
%TA.AperFunction,EtchedComponent*%
G36*
X39949892Y-4762362D02*
G01*
X39944081Y-4787529D01*
X39921670Y-4790584D01*
X39886825Y-4775095D01*
X39893447Y-4762362D01*
X39943687Y-4757296D01*
X39949892Y-4762362D01*
G37*
%TD.AperFunction*%
%TA.AperFunction,EtchedComponent*%
G36*
X40121871Y-4807341D02*
G01*
X40109246Y-4826582D01*
X40066309Y-4829576D01*
X40021137Y-4819237D01*
X40040732Y-4803999D01*
X40106894Y-4798952D01*
X40121871Y-4807341D01*
G37*
%TD.AperFunction*%
%TA.AperFunction,EtchedComponent*%
G36*
X31363795Y-3834042D02*
G01*
X31409242Y-3876667D01*
X31399919Y-3901172D01*
X31394001Y-3901584D01*
X31358195Y-3871516D01*
X31345127Y-3852710D01*
X31340137Y-3823742D01*
X31363795Y-3834042D01*
G37*
%TD.AperFunction*%
%TA.AperFunction,EtchedComponent*%
G36*
X31370013Y-4350492D02*
G01*
X31375589Y-4355962D01*
X31409027Y-4411466D01*
X31404493Y-4431871D01*
X31373003Y-4419167D01*
X31351891Y-4379660D01*
X31339002Y-4330203D01*
X31370013Y-4350492D01*
G37*
%TD.AperFunction*%
%TA.AperFunction,EtchedComponent*%
G36*
X33057128Y-5527375D02*
G01*
X33102575Y-5570000D01*
X33093252Y-5594506D01*
X33087334Y-5594918D01*
X33051528Y-5564849D01*
X33038460Y-5546043D01*
X33033470Y-5517075D01*
X33057128Y-5527375D01*
G37*
%TD.AperFunction*%
%TA.AperFunction,EtchedComponent*%
G36*
X34411795Y-11411709D02*
G01*
X34457242Y-11454334D01*
X34447919Y-11478839D01*
X34442001Y-11479251D01*
X34406195Y-11449183D01*
X34393127Y-11430377D01*
X34388137Y-11401408D01*
X34411795Y-11411709D01*
G37*
%TD.AperFunction*%
%TA.AperFunction,EtchedComponent*%
G36*
X35768710Y-11999702D02*
G01*
X35791428Y-12025148D01*
X35780157Y-12069983D01*
X35751593Y-12087320D01*
X35697153Y-12080600D01*
X35688336Y-12049422D01*
X35714914Y-11993544D01*
X35768710Y-11999702D01*
G37*
%TD.AperFunction*%
%TA.AperFunction,EtchedComponent*%
G36*
X37144287Y-9571705D02*
G01*
X37151860Y-9617189D01*
X37146696Y-9690297D01*
X37125235Y-9686205D01*
X37104223Y-9655229D01*
X37102127Y-9587790D01*
X37113820Y-9571167D01*
X37144287Y-9571705D01*
G37*
%TD.AperFunction*%
%TA.AperFunction,EtchedComponent*%
G36*
X37486222Y-9048909D02*
G01*
X37448106Y-9118576D01*
X37395794Y-9166602D01*
X37368916Y-9166387D01*
X37373812Y-9120769D01*
X37406868Y-9077338D01*
X37470181Y-9030190D01*
X37486222Y-9048909D01*
G37*
%TD.AperFunction*%
%TA.AperFunction,EtchedComponent*%
G36*
X38462854Y-6621501D02*
G01*
X38396729Y-6714087D01*
X38362678Y-6733976D01*
X38355336Y-6702145D01*
X38383992Y-6650838D01*
X38446556Y-6585729D01*
X38537776Y-6505084D01*
X38462854Y-6621501D01*
G37*
%TD.AperFunction*%
%TA.AperFunction,EtchedComponent*%
G36*
X38487504Y-6370676D02*
G01*
X38515550Y-6440824D01*
X38512613Y-6467752D01*
X38483737Y-6452659D01*
X38466399Y-6418781D01*
X38442415Y-6338398D01*
X38452263Y-6322360D01*
X38487504Y-6370676D01*
G37*
%TD.AperFunction*%
%TA.AperFunction,EtchedComponent*%
G36*
X39202003Y-5443223D02*
G01*
X39167918Y-5501539D01*
X39134975Y-5510251D01*
X39085602Y-5485637D01*
X39084704Y-5459980D01*
X39126841Y-5404076D01*
X39177567Y-5396968D01*
X39202003Y-5443223D01*
G37*
%TD.AperFunction*%
%TA.AperFunction,EtchedComponent*%
G36*
X39605525Y-5834129D02*
G01*
X39663250Y-5865631D01*
X39639171Y-5880705D01*
X39585936Y-5879832D01*
X39527889Y-5861700D01*
X39523791Y-5841979D01*
X39574016Y-5826665D01*
X39605525Y-5834129D01*
G37*
%TD.AperFunction*%
%TA.AperFunction,EtchedComponent*%
G36*
X39718300Y-7904238D02*
G01*
X39728391Y-7927747D01*
X39668802Y-7962169D01*
X39594665Y-7955370D01*
X39568397Y-7933834D01*
X39588503Y-7907843D01*
X39650285Y-7895997D01*
X39718300Y-7904238D01*
G37*
%TD.AperFunction*%
%TA.AperFunction,EtchedComponent*%
G36*
X30860613Y-2619981D02*
G01*
X30862336Y-2631584D01*
X30847892Y-2672817D01*
X30843668Y-2673917D01*
X30807525Y-2644253D01*
X30798836Y-2631584D01*
X30802192Y-2592574D01*
X30817504Y-2589251D01*
X30860613Y-2619981D01*
G37*
%TD.AperFunction*%
%TA.AperFunction,EtchedComponent*%
G36*
X31062850Y-3250147D02*
G01*
X31031669Y-3308918D01*
X30998792Y-3348589D01*
X30990127Y-3310459D01*
X30989984Y-3300833D01*
X31011556Y-3224289D01*
X31031669Y-3203084D01*
X31069065Y-3199668D01*
X31062850Y-3250147D01*
G37*
%TD.AperFunction*%
%TA.AperFunction,EtchedComponent*%
G36*
X31666669Y-3076084D02*
G01*
X31707054Y-3114125D01*
X31709003Y-3120916D01*
X31676250Y-3139099D01*
X31666669Y-3139584D01*
X31625963Y-3107040D01*
X31624336Y-3094753D01*
X31650271Y-3069470D01*
X31666669Y-3076084D01*
G37*
%TD.AperFunction*%
%TA.AperFunction,EtchedComponent*%
G36*
X31697850Y-4731814D02*
G01*
X31666669Y-4790584D01*
X31633792Y-4830255D01*
X31625127Y-4792126D01*
X31624984Y-4782499D01*
X31646556Y-4705956D01*
X31666669Y-4684751D01*
X31704065Y-4681335D01*
X31697850Y-4731814D01*
G37*
%TD.AperFunction*%
%TA.AperFunction,EtchedComponent*%
G36*
X31736784Y-4901186D02*
G01*
X31730169Y-4917584D01*
X31692128Y-4957970D01*
X31685337Y-4959918D01*
X31667155Y-4927165D01*
X31666669Y-4917584D01*
X31699213Y-4876878D01*
X31711501Y-4875251D01*
X31736784Y-4901186D01*
G37*
%TD.AperFunction*%
%TA.AperFunction,EtchedComponent*%
G36*
X33442946Y-3974647D02*
G01*
X33444669Y-3986251D01*
X33430226Y-4027484D01*
X33426001Y-4028584D01*
X33389858Y-3998920D01*
X33381169Y-3986251D01*
X33384526Y-3947242D01*
X33399837Y-3943918D01*
X33442946Y-3974647D01*
G37*
%TD.AperFunction*%
%TA.AperFunction,EtchedComponent*%
G36*
X33643054Y-10278929D02*
G01*
X33635169Y-10293918D01*
X33595282Y-10334346D01*
X33587839Y-10336251D01*
X33584951Y-10308906D01*
X33592836Y-10293918D01*
X33632723Y-10253489D01*
X33640166Y-10251584D01*
X33643054Y-10278929D01*
G37*
%TD.AperFunction*%
%TA.AperFunction,EtchedComponent*%
G36*
X33732690Y-10235723D02*
G01*
X33792564Y-10294334D01*
X33797469Y-10298117D01*
X33798387Y-10332535D01*
X33774377Y-10346875D01*
X33723624Y-10333635D01*
X33709598Y-10284481D01*
X33715895Y-10231640D01*
X33732690Y-10235723D01*
G37*
%TD.AperFunction*%
%TA.AperFunction,EtchedComponent*%
G36*
X34141570Y-3263997D02*
G01*
X34129482Y-3307435D01*
X34101948Y-3323800D01*
X34035413Y-3325584D01*
X34017768Y-3311505D01*
X34029856Y-3268067D01*
X34057390Y-3251702D01*
X34123926Y-3249918D01*
X34141570Y-3263997D01*
G37*
%TD.AperFunction*%
%TA.AperFunction,EtchedComponent*%
G36*
X34532054Y-3886596D02*
G01*
X34524169Y-3901584D01*
X34484282Y-3942013D01*
X34476839Y-3943918D01*
X34473951Y-3916573D01*
X34481836Y-3901584D01*
X34521723Y-3861156D01*
X34529166Y-3859251D01*
X34532054Y-3886596D01*
G37*
%TD.AperFunction*%
%TA.AperFunction,EtchedComponent*%
G36*
X34714669Y-11638872D02*
G01*
X34680855Y-11689816D01*
X34651169Y-11706227D01*
X34596062Y-11719977D01*
X34587670Y-11715939D01*
X34615666Y-11680571D01*
X34651169Y-11648584D01*
X34702739Y-11622825D01*
X34714669Y-11638872D01*
G37*
%TD.AperFunction*%
%TA.AperFunction,EtchedComponent*%
G36*
X36111669Y-12304751D02*
G01*
X36152054Y-12342792D01*
X36154003Y-12349583D01*
X36121250Y-12367766D01*
X36111669Y-12368251D01*
X36070963Y-12335707D01*
X36069336Y-12323419D01*
X36095271Y-12298136D01*
X36111669Y-12304751D01*
G37*
%TD.AperFunction*%
%TA.AperFunction,EtchedComponent*%
G36*
X37309519Y-9181811D02*
G01*
X37318170Y-9193251D01*
X37316235Y-9232323D01*
X37302000Y-9235584D01*
X37242154Y-9204691D01*
X37233503Y-9193251D01*
X37235438Y-9154179D01*
X37249673Y-9150918D01*
X37309519Y-9181811D01*
G37*
%TD.AperFunction*%
%TA.AperFunction,EtchedComponent*%
G36*
X38694003Y-8452418D02*
G01*
X38734388Y-8490459D01*
X38736336Y-8497249D01*
X38703583Y-8515432D01*
X38694003Y-8515918D01*
X38653296Y-8483374D01*
X38651670Y-8471086D01*
X38677604Y-8445803D01*
X38694003Y-8452418D01*
G37*
%TD.AperFunction*%
%TA.AperFunction,EtchedComponent*%
G36*
X38880724Y-7379033D02*
G01*
X38834170Y-7404080D01*
X38760546Y-7415955D01*
X38703121Y-7410026D01*
X38694003Y-7399019D01*
X38729924Y-7379933D01*
X38798555Y-7362801D01*
X38868127Y-7359828D01*
X38880724Y-7379033D01*
G37*
%TD.AperFunction*%
%TA.AperFunction,EtchedComponent*%
G36*
X38904529Y-7235874D02*
G01*
X38905670Y-7245918D01*
X38871212Y-7283070D01*
X38839671Y-7288251D01*
X38795854Y-7267728D01*
X38799836Y-7245918D01*
X38853958Y-7205199D01*
X38865835Y-7203584D01*
X38904529Y-7235874D01*
G37*
%TD.AperFunction*%
%TA.AperFunction,EtchedComponent*%
G36*
X39088357Y-5117246D02*
G01*
X39091809Y-5122195D01*
X39078859Y-5153118D01*
X39051974Y-5157473D01*
X38996791Y-5137865D01*
X38990336Y-5122195D01*
X39022409Y-5087595D01*
X39030171Y-5086918D01*
X39088357Y-5117246D01*
G37*
%TD.AperFunction*%
%TA.AperFunction,EtchedComponent*%
G36*
X39104055Y-7654263D02*
G01*
X39096170Y-7669251D01*
X39056283Y-7709679D01*
X39048840Y-7711584D01*
X39045951Y-7684239D01*
X39053836Y-7669251D01*
X39093723Y-7628823D01*
X39101166Y-7626918D01*
X39104055Y-7654263D01*
G37*
%TD.AperFunction*%
%TA.AperFunction,EtchedComponent*%
G36*
X39275524Y-7141874D02*
G01*
X39242932Y-7207734D01*
X39201242Y-7245451D01*
X39197115Y-7245918D01*
X39186343Y-7216592D01*
X39210625Y-7163176D01*
X39255372Y-7104099D01*
X39275480Y-7093617D01*
X39275524Y-7141874D01*
G37*
%TD.AperFunction*%
%TA.AperFunction,EtchedComponent*%
G36*
X39321839Y-6422110D02*
G01*
X39329003Y-6441584D01*
X39294715Y-6479142D01*
X39265503Y-6483918D01*
X39209167Y-6461059D01*
X39202003Y-6441584D01*
X39236291Y-6404027D01*
X39265503Y-6399251D01*
X39321839Y-6422110D01*
G37*
%TD.AperFunction*%
%TA.AperFunction,EtchedComponent*%
G36*
X40663062Y-7740663D02*
G01*
X40683136Y-7752692D01*
X40714684Y-7781339D01*
X40670644Y-7786608D01*
X40651386Y-7785368D01*
X40577186Y-7767107D01*
X40556670Y-7744909D01*
X40585224Y-7713800D01*
X40663062Y-7740663D01*
G37*
%TD.AperFunction*%
%TA.AperFunction,EtchedComponent*%
G36*
X41000306Y-7235391D02*
G01*
X41070781Y-7262593D01*
X41082845Y-7293092D01*
X41025278Y-7328552D01*
X40952572Y-7284425D01*
X40942483Y-7272884D01*
X40921954Y-7233548D01*
X40966764Y-7229675D01*
X41000306Y-7235391D01*
G37*
%TD.AperFunction*%
%TA.AperFunction,EtchedComponent*%
G36*
X41063440Y-7151132D02*
G01*
X41064670Y-7161251D01*
X41032455Y-7202354D01*
X41022336Y-7203584D01*
X40981233Y-7171370D01*
X40980003Y-7161251D01*
X41012218Y-7120147D01*
X41022336Y-7118918D01*
X41063440Y-7151132D01*
G37*
%TD.AperFunction*%
%TA.AperFunction,EtchedComponent*%
G36*
X41298300Y-7319282D02*
G01*
X41291645Y-7351751D01*
X41261598Y-7407452D01*
X41250640Y-7415251D01*
X41235842Y-7380682D01*
X41234003Y-7351751D01*
X41256157Y-7295405D01*
X41275008Y-7288251D01*
X41298300Y-7319282D01*
G37*
%TD.AperFunction*%
%TA.AperFunction,EtchedComponent*%
G36*
X41808070Y-6466755D02*
G01*
X41784336Y-6505084D01*
X41734243Y-6557658D01*
X41716981Y-6568584D01*
X41716561Y-6536538D01*
X41726694Y-6505084D01*
X41771107Y-6448999D01*
X41794049Y-6441584D01*
X41808070Y-6466755D01*
G37*
%TD.AperFunction*%
%TA.AperFunction,EtchedComponent*%
G36*
X42122518Y-6389671D02*
G01*
X42123003Y-6399251D01*
X42090459Y-6439958D01*
X42078171Y-6441584D01*
X42052888Y-6415649D01*
X42059503Y-6399251D01*
X42097544Y-6358866D01*
X42104335Y-6356918D01*
X42122518Y-6389671D01*
G37*
%TD.AperFunction*%
%TA.AperFunction,EtchedComponent*%
G36*
X32597731Y-4882998D02*
G01*
X32598003Y-4891234D01*
X32575033Y-4955160D01*
X32524854Y-5008701D01*
X32475564Y-5026621D01*
X32460320Y-5014890D01*
X32473423Y-4963924D01*
X32520051Y-4907001D01*
X32578425Y-4862476D01*
X32597731Y-4882998D01*
G37*
%TD.AperFunction*%
%TA.AperFunction,EtchedComponent*%
G36*
X39138389Y-7775965D02*
G01*
X39159469Y-7808429D01*
X39190288Y-7892261D01*
X39187175Y-7935429D01*
X39167965Y-7962430D01*
X39163012Y-7937297D01*
X39148048Y-7856179D01*
X39135307Y-7810297D01*
X39120520Y-7756743D01*
X39138389Y-7775965D01*
G37*
%TD.AperFunction*%
%TA.AperFunction,EtchedComponent*%
G36*
X39772719Y-5526228D02*
G01*
X39759655Y-5564540D01*
X39750353Y-5576141D01*
X39702371Y-5628605D01*
X39673328Y-5627471D01*
X39653559Y-5609029D01*
X39627877Y-5554752D01*
X39682563Y-5525319D01*
X39713203Y-5521650D01*
X39772719Y-5526228D01*
G37*
%TD.AperFunction*%
%TA.AperFunction,EtchedComponent*%
G36*
X38576263Y-7316331D02*
G01*
X38591193Y-7372918D01*
X38577235Y-7441762D01*
X38557932Y-7457584D01*
X38527926Y-7423416D01*
X38524670Y-7397612D01*
X38492662Y-7329633D01*
X38471753Y-7316288D01*
X38462570Y-7298525D01*
X38505015Y-7291593D01*
X38576263Y-7316331D01*
G37*
%TD.AperFunction*%
%TA.AperFunction,EtchedComponent*%
G36*
X38757503Y-8312539D02*
G01*
X38842170Y-8398998D01*
X38743811Y-8368951D01*
X38644668Y-8367316D01*
X38586407Y-8416828D01*
X38541575Y-8458891D01*
X38526016Y-8446524D01*
X38550438Y-8380665D01*
X38598753Y-8312189D01*
X38672836Y-8226081D01*
X38757503Y-8312539D01*
G37*
%TD.AperFunction*%
%TA.AperFunction,EtchedComponent*%
G36*
X31070845Y-2885584D02*
G01*
X31057282Y-2943646D01*
X31025167Y-3023102D01*
X30987645Y-3097275D01*
X30957865Y-3139484D01*
X30948503Y-3133861D01*
X30962903Y-3080716D01*
X31000290Y-2984526D01*
X31008845Y-2964527D01*
X31047728Y-2889235D01*
X31069305Y-2875138D01*
X31070845Y-2885584D01*
G37*
%TD.AperFunction*%
%TA.AperFunction,EtchedComponent*%
G36*
X31459943Y-2928823D02*
G01*
X31502094Y-2962980D01*
X31562948Y-3021740D01*
X31582003Y-3050215D01*
X31560415Y-3046958D01*
X31554148Y-3041174D01*
X31502409Y-3038004D01*
X31480064Y-3051658D01*
X31441700Y-3053307D01*
X31428010Y-2992279D01*
X31429475Y-2925138D01*
X31459943Y-2928823D01*
G37*
%TD.AperFunction*%
%TA.AperFunction,EtchedComponent*%
G36*
X34534821Y-3408252D02*
G01*
X34562052Y-3466431D01*
X34557591Y-3520626D01*
X34530938Y-3594202D01*
X34502086Y-3591726D01*
X34483644Y-3565843D01*
X34489104Y-3511557D01*
X34503003Y-3499418D01*
X34525844Y-3446125D01*
X34518319Y-3426452D01*
X34516537Y-3400294D01*
X34534821Y-3408252D01*
G37*
%TD.AperFunction*%
%TA.AperFunction,EtchedComponent*%
G36*
X38689483Y-8644759D02*
G01*
X38717441Y-8700967D01*
X38685613Y-8753936D01*
X38658612Y-8757085D01*
X38668794Y-8734125D01*
X38675098Y-8691717D01*
X38634587Y-8691998D01*
X38584541Y-8726980D01*
X38550057Y-8735330D01*
X38542813Y-8693718D01*
X38576937Y-8629671D01*
X38617360Y-8618727D01*
X38689483Y-8644759D01*
G37*
%TD.AperFunction*%
%TA.AperFunction,EtchedComponent*%
G36*
X42200078Y-5928485D02*
G01*
X42229465Y-5968476D01*
X42226095Y-5980354D01*
X42168884Y-6017548D01*
X42160340Y-6018251D01*
X42137388Y-5992168D01*
X42144170Y-5975918D01*
X42137541Y-5937394D01*
X42118446Y-5933584D01*
X42084214Y-5920294D01*
X42088722Y-5911421D01*
X42139676Y-5902699D01*
X42200078Y-5928485D01*
G37*
%TD.AperFunction*%
%TA.AperFunction,EtchedComponent*%
G36*
X38776295Y-5827092D02*
G01*
X38779318Y-5852445D01*
X38787483Y-5889867D01*
X38815755Y-5855960D01*
X38840361Y-5844667D01*
X38847262Y-5915309D01*
X38846857Y-5929947D01*
X38832880Y-6032320D01*
X38805766Y-6053801D01*
X38772402Y-5992818D01*
X38760032Y-5949756D01*
X38747093Y-5860036D01*
X38755443Y-5815700D01*
X38776295Y-5827092D01*
G37*
%TD.AperFunction*%
%TA.AperFunction,EtchedComponent*%
G36*
X34312934Y-4224154D02*
G01*
X34285936Y-4269344D01*
X34250825Y-4320093D01*
X34279623Y-4320777D01*
X34307907Y-4310708D01*
X34361981Y-4296555D01*
X34347465Y-4329063D01*
X34334473Y-4345115D01*
X34280328Y-4401411D01*
X34247811Y-4395977D01*
X34230197Y-4371071D01*
X34222728Y-4301223D01*
X34253801Y-4228458D01*
X34301049Y-4197918D01*
X34312934Y-4224154D01*
G37*
%TD.AperFunction*%
%TA.AperFunction,EtchedComponent*%
G36*
X32511240Y-6437638D02*
G01*
X32530267Y-6455391D01*
X32551075Y-6493889D01*
X32523655Y-6511923D01*
X32487911Y-6551523D01*
X32491988Y-6568290D01*
X32494447Y-6630319D01*
X32474341Y-6702258D01*
X32453030Y-6739699D01*
X32441799Y-6710625D01*
X32438927Y-6607458D01*
X32439632Y-6549370D01*
X32444808Y-6427937D01*
X32453916Y-6360179D01*
X32463890Y-6358870D01*
X32511240Y-6437638D01*
G37*
%TD.AperFunction*%
%TA.AperFunction,EtchedComponent*%
G36*
X37733757Y-8743830D02*
G01*
X37725782Y-8820332D01*
X37698358Y-8855258D01*
X37656534Y-8878315D01*
X37653040Y-8834024D01*
X37657214Y-8810292D01*
X37662599Y-8791084D01*
X37678003Y-8791084D01*
X37699170Y-8812251D01*
X37720336Y-8791084D01*
X37699170Y-8769918D01*
X37678003Y-8791084D01*
X37662599Y-8791084D01*
X37683767Y-8715589D01*
X37712038Y-8703878D01*
X37733757Y-8743830D01*
G37*
%TD.AperFunction*%
%TA.AperFunction,EtchedComponent*%
G36*
X36276160Y-12011922D02*
G01*
X36302206Y-12076175D01*
X36290361Y-12152366D01*
X36249258Y-12197428D01*
X36238669Y-12198918D01*
X36197175Y-12165096D01*
X36178702Y-12129359D01*
X36166612Y-12058881D01*
X36174173Y-12037636D01*
X36194697Y-12047912D01*
X36196336Y-12064862D01*
X36223819Y-12111475D01*
X36237341Y-12114251D01*
X36259781Y-12082141D01*
X36252277Y-12040168D01*
X36243156Y-11992259D01*
X36276160Y-12011922D01*
G37*
%TD.AperFunction*%
%TA.AperFunction,EtchedComponent*%
G36*
X38501686Y-6697716D02*
G01*
X38504351Y-6788330D01*
X38499420Y-6923089D01*
X38492233Y-7070989D01*
X38497378Y-7154757D01*
X38521797Y-7194757D01*
X38572435Y-7211355D01*
X38599169Y-7215636D01*
X38669712Y-7227813D01*
X38663177Y-7234424D01*
X38577446Y-7239575D01*
X38439721Y-7245918D01*
X38453977Y-6970747D01*
X38464688Y-6826037D01*
X38478687Y-6717898D01*
X38491952Y-6671858D01*
X38501686Y-6697716D01*
G37*
%TD.AperFunction*%
%TA.AperFunction,EtchedComponent*%
G36*
X31282327Y-3869834D02*
G01*
X31303059Y-3932769D01*
X31323413Y-3943918D01*
X31368934Y-3979308D01*
X31391267Y-4062417D01*
X31387056Y-4158653D01*
X31352944Y-4233422D01*
X31351634Y-4234762D01*
X31298473Y-4271685D01*
X31285669Y-4249322D01*
X31310710Y-4201206D01*
X31324257Y-4197918D01*
X31353518Y-4166276D01*
X31331985Y-4077846D01*
X31291471Y-3994487D01*
X31258035Y-3902949D01*
X31258415Y-3846321D01*
X31276516Y-3836234D01*
X31282327Y-3869834D01*
G37*
%TD.AperFunction*%
%TA.AperFunction,EtchedComponent*%
G36*
X39166386Y-7285413D02*
G01*
X39170206Y-7286914D01*
X39224254Y-7315949D01*
X39216049Y-7327901D01*
X39131093Y-7344467D01*
X39110215Y-7351306D01*
X39026763Y-7349358D01*
X38997370Y-7336031D01*
X38973574Y-7302362D01*
X39046781Y-7302362D01*
X39052592Y-7327529D01*
X39075003Y-7330584D01*
X39109848Y-7315095D01*
X39103225Y-7302362D01*
X39052985Y-7297296D01*
X39046781Y-7302362D01*
X38973574Y-7302362D01*
X38970887Y-7298560D01*
X39005692Y-7273239D01*
X39078590Y-7266660D01*
X39166386Y-7285413D01*
G37*
%TD.AperFunction*%
%TA.AperFunction,EtchedComponent*%
G36*
X36816693Y-9517719D02*
G01*
X36810624Y-9570965D01*
X36821854Y-9581219D01*
X36839183Y-9627889D01*
X36832702Y-9703116D01*
X36809112Y-9776545D01*
X36764475Y-9784326D01*
X36704336Y-9757436D01*
X36628514Y-9704636D01*
X36602736Y-9660321D01*
X36616298Y-9569366D01*
X36639361Y-9544447D01*
X36666523Y-9555878D01*
X36686301Y-9593652D01*
X36657165Y-9619574D01*
X36622758Y-9664286D01*
X36629463Y-9682822D01*
X36674804Y-9679922D01*
X36733268Y-9636457D01*
X36769540Y-9581305D01*
X36770860Y-9567195D01*
X36794484Y-9516137D01*
X36806373Y-9503695D01*
X36826117Y-9497058D01*
X36816693Y-9517719D01*
G37*
%TD.AperFunction*%
%TA.AperFunction,EtchedComponent*%
G36*
X38690740Y-5911790D02*
G01*
X38692657Y-5962836D01*
X38711078Y-6048286D01*
X38736336Y-6081751D01*
X38776586Y-6143575D01*
X38778021Y-6158333D01*
X38764026Y-6179846D01*
X38740980Y-6151315D01*
X38699082Y-6119019D01*
X38675630Y-6140731D01*
X38619414Y-6185997D01*
X38575398Y-6157106D01*
X38567003Y-6111009D01*
X38575656Y-6078223D01*
X38612678Y-6078223D01*
X38620462Y-6133130D01*
X38634913Y-6133786D01*
X38645018Y-6077127D01*
X38638255Y-6052647D01*
X38619457Y-6036612D01*
X38612678Y-6078223D01*
X38575656Y-6078223D01*
X38591752Y-6017234D01*
X38629157Y-5952259D01*
X38675641Y-5896369D01*
X38690740Y-5911790D01*
G37*
%TD.AperFunction*%
%TA.AperFunction,EtchedComponent*%
G36*
X31054732Y-2550654D02*
G01*
X31057069Y-2622210D01*
X31053267Y-2706420D01*
X31043832Y-2729018D01*
X31040841Y-2722601D01*
X31004440Y-2672111D01*
X30969631Y-2687446D01*
X30959225Y-2752468D01*
X30963735Y-2777156D01*
X30970469Y-2871360D01*
X30936348Y-2902500D01*
X30872141Y-2860933D01*
X30871250Y-2859974D01*
X30849140Y-2822084D01*
X30904669Y-2822084D01*
X30925836Y-2843251D01*
X30947003Y-2822084D01*
X30925836Y-2800917D01*
X30904669Y-2822084D01*
X30849140Y-2822084D01*
X30843406Y-2812257D01*
X30856078Y-2800917D01*
X30894117Y-2764905D01*
X30923337Y-2689970D01*
X30963773Y-2585784D01*
X31004126Y-2526080D01*
X31039459Y-2506405D01*
X31054732Y-2550654D01*
G37*
%TD.AperFunction*%
%TA.AperFunction,EtchedComponent*%
G36*
X34608476Y-10818235D02*
G01*
X34696996Y-10890269D01*
X34755690Y-10948730D01*
X34837339Y-11039056D01*
X34862665Y-11089851D01*
X34838587Y-11117875D01*
X34827494Y-11122593D01*
X34767000Y-11174597D01*
X34757003Y-11208613D01*
X34730089Y-11261939D01*
X34710140Y-11267584D01*
X34681544Y-11236901D01*
X34687124Y-11205440D01*
X34686673Y-11137321D01*
X34670487Y-11118275D01*
X34631226Y-11057480D01*
X34630003Y-11044953D01*
X34645798Y-11020263D01*
X34680803Y-11047451D01*
X34741973Y-11090514D01*
X34782533Y-11092988D01*
X34776555Y-11053306D01*
X34718301Y-11004714D01*
X34647057Y-10969688D01*
X34570149Y-10918030D01*
X34545336Y-10866465D01*
X34560055Y-10811134D01*
X34608476Y-10818235D01*
G37*
%TD.AperFunction*%
%TA.AperFunction,EtchedComponent*%
G36*
X32068457Y-7409775D02*
G01*
X32104591Y-7499354D01*
X32106407Y-7507855D01*
X32131935Y-7594750D01*
X32164178Y-7607907D01*
X32183665Y-7592522D01*
X32245661Y-7548676D01*
X32282812Y-7548667D01*
X32271846Y-7589809D01*
X32262741Y-7601648D01*
X32216099Y-7680644D01*
X32179786Y-7779510D01*
X32161539Y-7869005D01*
X32169099Y-7919887D01*
X32177624Y-7923251D01*
X32215878Y-7955554D01*
X32217003Y-7965584D01*
X32192279Y-8005265D01*
X32147831Y-7995180D01*
X32128047Y-7955001D01*
X32127185Y-7877229D01*
X32131101Y-7766701D01*
X32105258Y-7624568D01*
X32050723Y-7556210D01*
X31981659Y-7474826D01*
X31966532Y-7407060D01*
X32008685Y-7373680D01*
X32021211Y-7372918D01*
X32068457Y-7409775D01*
G37*
%TD.AperFunction*%
%TA.AperFunction,EtchedComponent*%
G36*
X31204293Y-2015264D02*
G01*
X31205758Y-2023150D01*
X31216774Y-2133540D01*
X31225026Y-2259821D01*
X31229300Y-2374085D01*
X31228378Y-2448422D01*
X31224887Y-2462251D01*
X31199036Y-2429413D01*
X31187260Y-2402834D01*
X31177607Y-2315942D01*
X31185873Y-2244084D01*
X31197813Y-2175512D01*
X31178865Y-2181376D01*
X31140424Y-2227226D01*
X31093081Y-2280045D01*
X31079226Y-2263631D01*
X31083236Y-2192814D01*
X31103530Y-2111774D01*
X31112164Y-2095362D01*
X31130447Y-2095362D01*
X31136258Y-2120529D01*
X31158669Y-2123584D01*
X31193514Y-2108095D01*
X31186891Y-2095362D01*
X31136652Y-2090295D01*
X31130447Y-2095362D01*
X31112164Y-2095362D01*
X31140923Y-2040697D01*
X31179736Y-2001291D01*
X31204293Y-2015264D01*
G37*
%TD.AperFunction*%
%TA.AperFunction,EtchedComponent*%
G36*
X33843081Y-4545890D02*
G01*
X33850010Y-4555259D01*
X33898293Y-4646852D01*
X33910984Y-4703425D01*
X33918050Y-4746434D01*
X33947802Y-4712226D01*
X33950364Y-4708199D01*
X33965768Y-4618927D01*
X33952861Y-4579276D01*
X33942391Y-4528314D01*
X33998672Y-4513436D01*
X34015802Y-4513495D01*
X34113937Y-4528807D01*
X34149817Y-4563107D01*
X34118278Y-4602386D01*
X34086732Y-4610439D01*
X34100188Y-4579967D01*
X34107669Y-4542010D01*
X34074978Y-4546967D01*
X34029054Y-4594980D01*
X34028238Y-4620415D01*
X34014206Y-4690379D01*
X33965777Y-4761458D01*
X33915511Y-4790584D01*
X33887235Y-4754380D01*
X33849876Y-4664243D01*
X33839202Y-4631834D01*
X33811264Y-4536044D01*
X33812099Y-4510638D01*
X33843081Y-4545890D01*
G37*
%TD.AperFunction*%
%TA.AperFunction,EtchedComponent*%
G36*
X40959952Y-7404106D02*
G01*
X40952772Y-7436957D01*
X40955208Y-7522952D01*
X40973115Y-7555118D01*
X40988299Y-7610144D01*
X40931088Y-7663537D01*
X40876328Y-7688726D01*
X40872238Y-7672376D01*
X40862835Y-7632781D01*
X40823751Y-7621905D01*
X40739392Y-7618904D01*
X40681883Y-7630347D01*
X40637809Y-7646770D01*
X40580502Y-7644444D01*
X40570781Y-7615794D01*
X40580077Y-7605751D01*
X40895336Y-7605751D01*
X40916503Y-7626918D01*
X40937670Y-7605751D01*
X40916503Y-7584584D01*
X40895336Y-7605751D01*
X40580077Y-7605751D01*
X40610103Y-7573314D01*
X40722475Y-7561055D01*
X40827444Y-7553295D01*
X40875088Y-7515842D01*
X40887697Y-7468168D01*
X40912649Y-7393734D01*
X40939285Y-7372918D01*
X40959952Y-7404106D01*
G37*
%TD.AperFunction*%
%TA.AperFunction,EtchedComponent*%
G36*
X37569425Y-9618858D02*
G01*
X37574499Y-9699736D01*
X37574025Y-9722562D01*
X37580851Y-9829102D01*
X37605670Y-9870523D01*
X37641438Y-9838143D01*
X37651193Y-9817668D01*
X37660645Y-9818195D01*
X37656087Y-9885237D01*
X37652372Y-9912918D01*
X37626536Y-10024658D01*
X37592094Y-10099378D01*
X37588480Y-10103418D01*
X37563035Y-10114559D01*
X37574191Y-10071668D01*
X37579481Y-10010953D01*
X37560820Y-9997584D01*
X37539780Y-9960722D01*
X37535399Y-9927029D01*
X37565114Y-9927029D01*
X37570925Y-9952196D01*
X37593336Y-9955251D01*
X37628181Y-9939762D01*
X37621559Y-9927029D01*
X37571319Y-9921962D01*
X37565114Y-9927029D01*
X37535399Y-9927029D01*
X37528123Y-9871077D01*
X37526302Y-9760062D01*
X37534772Y-9659087D01*
X37553988Y-9599564D01*
X37555045Y-9598432D01*
X37569425Y-9618858D01*
G37*
%TD.AperFunction*%
%TA.AperFunction,EtchedComponent*%
G36*
X41595097Y-6677326D02*
G01*
X41614098Y-6706503D01*
X41640304Y-6789973D01*
X41631635Y-6833503D01*
X41638049Y-6843486D01*
X41691322Y-6803590D01*
X41713843Y-6783612D01*
X41794470Y-6723495D01*
X41849267Y-6706449D01*
X41854725Y-6709529D01*
X41851519Y-6735972D01*
X41836578Y-6737918D01*
X41787217Y-6772849D01*
X41764433Y-6818605D01*
X41712601Y-6884235D01*
X41624961Y-6874104D01*
X41592041Y-6856077D01*
X41554483Y-6867512D01*
X41541395Y-6914969D01*
X41534249Y-6978498D01*
X41511084Y-7017990D01*
X41450748Y-7053160D01*
X41344404Y-7098571D01*
X41252829Y-7130031D01*
X41210131Y-7130731D01*
X41211493Y-7121091D01*
X41274127Y-7080101D01*
X41300001Y-7076584D01*
X41354691Y-7051356D01*
X41361003Y-7031398D01*
X41327096Y-7005375D01*
X41265753Y-7013509D01*
X41225055Y-7018169D01*
X41257895Y-6986879D01*
X41262484Y-6983833D01*
X41404683Y-6983833D01*
X41412136Y-7028363D01*
X41442532Y-7005998D01*
X41467745Y-6973841D01*
X41508504Y-6905144D01*
X41511549Y-6874352D01*
X41465668Y-6872638D01*
X41420808Y-6921995D01*
X41404683Y-6983833D01*
X41262484Y-6983833D01*
X41309508Y-6952619D01*
X41405881Y-6880305D01*
X41466506Y-6814258D01*
X41471761Y-6803848D01*
X41523840Y-6762781D01*
X41555487Y-6766471D01*
X41597343Y-6764254D01*
X41591120Y-6710881D01*
X41576395Y-6657026D01*
X41595097Y-6677326D01*
G37*
%TD.AperFunction*%
%TA.AperFunction,EtchedComponent*%
G36*
X32690798Y-9309397D02*
G01*
X32687829Y-9311525D01*
X32653197Y-9372521D01*
X32661371Y-9404704D01*
X32697967Y-9432772D01*
X32727992Y-9400080D01*
X32775136Y-9369615D01*
X32796784Y-9380189D01*
X32797658Y-9423414D01*
X32777919Y-9435408D01*
X32730532Y-9488576D01*
X32725003Y-9519462D01*
X32742864Y-9560766D01*
X32777919Y-9545087D01*
X32871650Y-9509676D01*
X32956689Y-9554470D01*
X33022679Y-9650397D01*
X33073477Y-9729625D01*
X33107723Y-9754901D01*
X33112370Y-9749565D01*
X33143901Y-9749034D01*
X33197907Y-9803947D01*
X33235293Y-9875616D01*
X33218739Y-9903225D01*
X33165777Y-9888100D01*
X33093943Y-9831568D01*
X33064535Y-9798052D01*
X33112826Y-9798052D01*
X33123127Y-9821710D01*
X33165752Y-9867157D01*
X33190257Y-9857834D01*
X33190669Y-9851916D01*
X33160601Y-9816110D01*
X33141795Y-9803042D01*
X33112826Y-9798052D01*
X33064535Y-9798052D01*
X33060599Y-9793566D01*
X32996511Y-9728657D01*
X32952954Y-9713525D01*
X32951210Y-9714932D01*
X32952639Y-9764400D01*
X32983108Y-9816645D01*
X32988274Y-9830834D01*
X32943590Y-9793164D01*
X32869642Y-9722418D01*
X32769396Y-9615599D01*
X32748578Y-9589275D01*
X32766454Y-9589275D01*
X32815376Y-9618946D01*
X32883666Y-9645706D01*
X32936669Y-9654927D01*
X32971857Y-9645447D01*
X32946989Y-9630793D01*
X32911313Y-9591185D01*
X32915440Y-9574352D01*
X32901065Y-9551715D01*
X32862787Y-9553562D01*
X32788297Y-9567732D01*
X32767336Y-9571660D01*
X32766454Y-9589275D01*
X32748578Y-9589275D01*
X32694856Y-9521346D01*
X32669942Y-9477984D01*
X32610735Y-9403710D01*
X32546025Y-9364251D01*
X32489988Y-9335018D01*
X32514410Y-9323234D01*
X32520457Y-9322934D01*
X32623014Y-9307422D01*
X32668623Y-9295091D01*
X32716783Y-9284092D01*
X32690798Y-9309397D01*
G37*
%TD.AperFunction*%
%TA.AperFunction,EtchedComponent*%
G36*
X36890615Y6696789D02*
G01*
X36894836Y6696745D01*
X37468372Y6684061D01*
X38009909Y6659084D01*
X38509261Y6622730D01*
X38956242Y6575917D01*
X39340665Y6519563D01*
X39652344Y6454585D01*
X39688836Y6445056D01*
X39819597Y6411001D01*
X40004726Y6364205D01*
X40216260Y6311687D01*
X40366170Y6275013D01*
X40747850Y6169459D01*
X41133958Y6039296D01*
X41507511Y5891839D01*
X41851528Y5734402D01*
X42149026Y5574301D01*
X42383026Y5418849D01*
X42417896Y5391268D01*
X42619769Y5212261D01*
X42844490Y4989670D01*
X43079032Y4738663D01*
X43310366Y4474405D01*
X43525467Y4212065D01*
X43711305Y3966808D01*
X43854854Y3753802D01*
X43914979Y3648344D01*
X43980931Y3537354D01*
X44045988Y3452519D01*
X44048320Y3450147D01*
X44135416Y3333984D01*
X44238344Y3149267D01*
X44351793Y2909430D01*
X44470453Y2627901D01*
X44589012Y2318114D01*
X44702160Y1993499D01*
X44804586Y1667486D01*
X44890978Y1353509D01*
X44913114Y1263083D01*
X44958357Y1018242D01*
X44995620Y710873D01*
X45024216Y361050D01*
X45043456Y-11152D01*
X45052654Y-385659D01*
X45051121Y-742397D01*
X45038170Y-1061291D01*
X45013113Y-1322268D01*
X45003744Y-1382751D01*
X44975518Y-1566191D01*
X44953254Y-1747281D01*
X44942916Y-1869584D01*
X44928807Y-2002486D01*
X44899897Y-2182613D01*
X44860826Y-2388193D01*
X44816237Y-2597449D01*
X44770772Y-2788609D01*
X44729075Y-2939899D01*
X44695785Y-3029544D01*
X44695497Y-3030081D01*
X44657391Y-3123026D01*
X44614921Y-3258568D01*
X44596128Y-3330084D01*
X44519668Y-3595966D01*
X44410570Y-3911070D01*
X44278615Y-4251345D01*
X44133582Y-4592736D01*
X43985251Y-4911193D01*
X43843403Y-5182662D01*
X43841460Y-5186101D01*
X43754656Y-5348821D01*
X43703988Y-5478649D01*
X43678824Y-5613268D01*
X43668530Y-5790363D01*
X43668246Y-5799934D01*
X43654828Y-6056656D01*
X43628887Y-6246487D01*
X43586138Y-6386804D01*
X43522294Y-6494982D01*
X43486454Y-6536834D01*
X43358059Y-6630810D01*
X43236531Y-6653251D01*
X43095001Y-6616608D01*
X42957779Y-6522076D01*
X42853873Y-6392747D01*
X42824360Y-6325123D01*
X42764008Y-6228017D01*
X42672510Y-6170419D01*
X42580340Y-6170314D01*
X42570339Y-6175211D01*
X42495215Y-6232037D01*
X42379738Y-6336066D01*
X42240012Y-6471405D01*
X42092143Y-6622164D01*
X41952234Y-6772449D01*
X41869003Y-6867275D01*
X41687103Y-7079870D01*
X41544948Y-7241373D01*
X41428722Y-7366267D01*
X41324612Y-7469033D01*
X41218803Y-7564154D01*
X41142912Y-7628459D01*
X40978236Y-7745969D01*
X40778910Y-7858870D01*
X40569220Y-7956143D01*
X40373450Y-8026769D01*
X40215887Y-8059729D01*
X40189953Y-8060834D01*
X40102009Y-8075788D01*
X39962660Y-8115429D01*
X39798673Y-8171929D01*
X39760199Y-8186519D01*
X39593647Y-8248481D01*
X39445479Y-8299423D01*
X39342809Y-8330117D01*
X39329003Y-8333240D01*
X39232845Y-8378228D01*
X39128612Y-8462975D01*
X39107631Y-8485364D01*
X39029577Y-8559534D01*
X38972043Y-8588732D01*
X38960690Y-8585049D01*
X38961864Y-8540186D01*
X38985499Y-8518908D01*
X39018355Y-8480245D01*
X38991167Y-8452931D01*
X38923459Y-8452289D01*
X38891398Y-8475017D01*
X38869209Y-8508732D01*
X38884503Y-8505024D01*
X38924196Y-8508167D01*
X38933584Y-8561202D01*
X38916765Y-8636658D01*
X38877838Y-8707064D01*
X38850590Y-8732313D01*
X38767698Y-8797285D01*
X38659759Y-8893452D01*
X38611871Y-8939251D01*
X38493336Y-9044261D01*
X38340826Y-9164615D01*
X38219812Y-9251686D01*
X38084747Y-9350264D01*
X38000942Y-9436005D01*
X37945942Y-9537722D01*
X37906408Y-9653853D01*
X37838910Y-9820557D01*
X37740014Y-10003023D01*
X37660787Y-10120960D01*
X37563802Y-10260356D01*
X37484673Y-10393943D01*
X37445170Y-10480794D01*
X37381653Y-10589619D01*
X37312522Y-10624299D01*
X37169198Y-10684076D01*
X37016621Y-10819444D01*
X36861489Y-11022841D01*
X36710502Y-11286707D01*
X36691420Y-11325278D01*
X36606526Y-11493832D01*
X36530957Y-11633155D01*
X36474467Y-11725850D01*
X36450950Y-11754038D01*
X36425349Y-11812625D01*
X36429539Y-11916469D01*
X36428596Y-12042118D01*
X36377282Y-12182778D01*
X36269131Y-12352681D01*
X36178140Y-12469831D01*
X36109658Y-12549273D01*
X36048850Y-12594470D01*
X35969467Y-12614593D01*
X35845263Y-12618817D01*
X35754806Y-12617783D01*
X35526773Y-12599270D01*
X35288982Y-12556257D01*
X35180336Y-12526953D01*
X35039984Y-12478553D01*
X34936091Y-12434540D01*
X34931924Y-12431751D01*
X35321447Y-12431751D01*
X35340552Y-12488139D01*
X35356725Y-12495251D01*
X35374376Y-12475875D01*
X35494681Y-12475875D01*
X35526045Y-12511087D01*
X35540846Y-12522148D01*
X35644711Y-12574515D01*
X35739601Y-12557543D01*
X35771885Y-12539171D01*
X35840629Y-12525152D01*
X35861844Y-12544339D01*
X35881515Y-12542425D01*
X35887460Y-12493093D01*
X35953813Y-12493093D01*
X35971223Y-12548209D01*
X36014216Y-12530630D01*
X36049508Y-12472859D01*
X36045205Y-12448121D01*
X35995307Y-12410501D01*
X35958592Y-12443703D01*
X35953813Y-12493093D01*
X35887460Y-12493093D01*
X35889419Y-12476832D01*
X35883986Y-12400766D01*
X35856024Y-12397854D01*
X35817294Y-12429979D01*
X35717913Y-12480806D01*
X35642670Y-12491433D01*
X35587841Y-12485504D01*
X35606042Y-12470593D01*
X35682395Y-12446686D01*
X35769953Y-12414204D01*
X35803480Y-12386593D01*
X35801648Y-12382785D01*
X35750734Y-12380176D01*
X35652462Y-12402087D01*
X35620258Y-12412095D01*
X35522372Y-12448024D01*
X35494681Y-12475875D01*
X35374376Y-12475875D01*
X35388052Y-12460862D01*
X35392003Y-12431751D01*
X35372898Y-12375363D01*
X35356725Y-12368251D01*
X35325398Y-12402640D01*
X35321447Y-12431751D01*
X34931924Y-12431751D01*
X34891060Y-12404409D01*
X34891024Y-12404319D01*
X34850709Y-12363606D01*
X34759629Y-12293433D01*
X34752599Y-12288558D01*
X35397728Y-12288558D01*
X35432248Y-12304203D01*
X35476669Y-12295850D01*
X35545468Y-12253327D01*
X35561336Y-12215147D01*
X35587266Y-12162077D01*
X35606168Y-12156584D01*
X35630082Y-12183116D01*
X35621911Y-12203651D01*
X35625422Y-12264333D01*
X35651162Y-12292311D01*
X35683044Y-12320660D01*
X35640009Y-12311736D01*
X35638514Y-12311261D01*
X35553658Y-12320480D01*
X35519047Y-12347031D01*
X35499668Y-12381671D01*
X35535220Y-12384903D01*
X35622354Y-12363534D01*
X35735966Y-12342464D01*
X35818446Y-12345007D01*
X35826488Y-12348077D01*
X35840823Y-12347501D01*
X35805411Y-12314288D01*
X35758246Y-12257298D01*
X35758779Y-12227252D01*
X35802448Y-12234529D01*
X35855880Y-12281521D01*
X35964848Y-12365961D01*
X36081574Y-12394146D01*
X36179675Y-12361456D01*
X36199477Y-12341680D01*
X36237655Y-12290110D01*
X36219018Y-12292009D01*
X36196336Y-12304964D01*
X36184886Y-12301456D01*
X36225345Y-12251166D01*
X36270419Y-12204001D01*
X36359641Y-12099470D01*
X36403699Y-12017359D01*
X36398716Y-11970915D01*
X36340816Y-11973386D01*
X36337558Y-11974607D01*
X36290046Y-11981707D01*
X36301765Y-11945571D01*
X36313660Y-11909673D01*
X36283513Y-11922199D01*
X36217652Y-11938687D01*
X36092413Y-11952138D01*
X35933082Y-11959970D01*
X35908391Y-11960490D01*
X35743993Y-11964989D01*
X35641027Y-11976961D01*
X35576265Y-12004686D01*
X35526475Y-12056442D01*
X35489088Y-12109928D01*
X35416465Y-12226933D01*
X35397728Y-12288558D01*
X34752599Y-12288558D01*
X34651425Y-12218401D01*
X34511700Y-12114613D01*
X34487554Y-12093084D01*
X34587670Y-12093084D01*
X34608836Y-12114251D01*
X34630003Y-12093084D01*
X34608836Y-12071918D01*
X34587670Y-12093084D01*
X34487554Y-12093084D01*
X34386565Y-12003041D01*
X34323177Y-11932752D01*
X34100724Y-11624421D01*
X34179946Y-11624421D01*
X34199253Y-11652160D01*
X34243109Y-11690834D01*
X34302187Y-11748694D01*
X34311386Y-11775379D01*
X34309272Y-11775584D01*
X34314057Y-11802061D01*
X34365923Y-11868688D01*
X34397169Y-11902584D01*
X34483290Y-11990784D01*
X34522906Y-12021319D01*
X34525618Y-12008418D01*
X34757003Y-12008418D01*
X34778169Y-12029584D01*
X34799336Y-12008418D01*
X34778169Y-11987251D01*
X34757003Y-12008418D01*
X34525618Y-12008418D01*
X34527827Y-11997904D01*
X34513794Y-11939278D01*
X34463476Y-11858037D01*
X34419512Y-11832029D01*
X34644114Y-11832029D01*
X34649925Y-11857196D01*
X34672336Y-11860251D01*
X34707181Y-11844762D01*
X34700558Y-11832029D01*
X34650319Y-11826962D01*
X34644114Y-11832029D01*
X34419512Y-11832029D01*
X34414853Y-11829273D01*
X34361429Y-11786693D01*
X34362294Y-11750246D01*
X34356901Y-11698536D01*
X34335700Y-11690918D01*
X34305142Y-11666705D01*
X34310695Y-11651509D01*
X34304020Y-11597980D01*
X34285486Y-11581469D01*
X34256206Y-11575376D01*
X34270573Y-11606904D01*
X34279729Y-11644384D01*
X34224197Y-11634529D01*
X34179946Y-11624421D01*
X34100724Y-11624421D01*
X34085993Y-11604003D01*
X34015902Y-11496426D01*
X34092227Y-11496426D01*
X34122003Y-11521584D01*
X34189551Y-11559659D01*
X34198550Y-11545319D01*
X34185503Y-11521584D01*
X34123678Y-11481335D01*
X34108921Y-11479899D01*
X34092227Y-11496426D01*
X34015902Y-11496426D01*
X33943989Y-11386053D01*
X34011788Y-11386053D01*
X34014105Y-11391245D01*
X34068324Y-11419590D01*
X34098974Y-11422807D01*
X34144270Y-11411688D01*
X34141944Y-11400415D01*
X34091506Y-11375257D01*
X34034747Y-11369511D01*
X34011788Y-11386053D01*
X33943989Y-11386053D01*
X33883557Y-11293300D01*
X33880911Y-11288751D01*
X34249003Y-11288751D01*
X34270169Y-11309918D01*
X34291336Y-11288751D01*
X34270169Y-11267584D01*
X34249003Y-11288751D01*
X33880911Y-11288751D01*
X33775496Y-11107530D01*
X33723735Y-11012554D01*
X33783336Y-11012554D01*
X33809441Y-11040236D01*
X33828500Y-11033001D01*
X33862003Y-11038255D01*
X33861972Y-11062253D01*
X33872449Y-11137803D01*
X33915818Y-11218178D01*
X33971243Y-11273372D01*
X34011974Y-11278262D01*
X34024521Y-11246378D01*
X34003237Y-11235051D01*
X33971176Y-11195660D01*
X33976719Y-11178253D01*
X33968932Y-11149171D01*
X33947210Y-11150119D01*
X33902258Y-11125318D01*
X33891146Y-11080729D01*
X33870023Y-11017056D01*
X33827885Y-10978631D01*
X33791409Y-10982324D01*
X33783336Y-11012554D01*
X33723735Y-11012554D01*
X33671894Y-10917431D01*
X33602395Y-10787122D01*
X33594738Y-10771719D01*
X33663160Y-10771719D01*
X33673460Y-10795377D01*
X33716085Y-10840824D01*
X33740590Y-10831501D01*
X33741003Y-10825583D01*
X33710934Y-10789776D01*
X33692128Y-10776709D01*
X33663160Y-10771719D01*
X33594738Y-10771719D01*
X33560209Y-10702256D01*
X33557722Y-10696084D01*
X33614003Y-10696084D01*
X33635169Y-10717251D01*
X33656336Y-10696084D01*
X33635169Y-10674918D01*
X33614003Y-10696084D01*
X33557722Y-10696084D01*
X33548188Y-10672419D01*
X33868003Y-10672419D01*
X33898733Y-10715528D01*
X33910336Y-10717251D01*
X33951569Y-10702808D01*
X33952669Y-10698583D01*
X33923005Y-10662440D01*
X33910336Y-10653751D01*
X33871326Y-10657107D01*
X33868003Y-10672419D01*
X33548188Y-10672419D01*
X33538545Y-10648486D01*
X33530613Y-10611465D01*
X33529597Y-10587956D01*
X33504981Y-10503942D01*
X33761649Y-10503942D01*
X33765814Y-10577370D01*
X33794499Y-10632407D01*
X33838757Y-10638361D01*
X33846390Y-10632955D01*
X33911219Y-10616169D01*
X33961272Y-10656216D01*
X33976647Y-10725419D01*
X33952669Y-10780751D01*
X33927129Y-10832027D01*
X33942548Y-10844251D01*
X33986316Y-10879548D01*
X34007269Y-10928918D01*
X34042886Y-10990443D01*
X34090634Y-11016170D01*
X34120715Y-10992905D01*
X34122003Y-10979718D01*
X34095642Y-10922562D01*
X34076948Y-10900796D01*
X34061014Y-10843215D01*
X34103154Y-10784480D01*
X34147478Y-10719744D01*
X34145907Y-10684711D01*
X34103630Y-10689543D01*
X34078016Y-10718477D01*
X34045142Y-10750361D01*
X34037984Y-10730333D01*
X34062937Y-10680936D01*
X34232387Y-10680936D01*
X34232437Y-10724696D01*
X34271334Y-10738668D01*
X34294326Y-10712413D01*
X34316465Y-10654187D01*
X34313017Y-10640155D01*
X34269530Y-10638882D01*
X34232387Y-10680936D01*
X34062937Y-10680936D01*
X34071073Y-10664830D01*
X34143071Y-10617378D01*
X34171391Y-10612066D01*
X34221125Y-10583501D01*
X34224308Y-10579668D01*
X34228286Y-10564018D01*
X34221050Y-10568815D01*
X34179102Y-10555129D01*
X34134212Y-10505643D01*
X34047732Y-10416848D01*
X33982248Y-10371981D01*
X33919173Y-10341700D01*
X33920763Y-10359279D01*
X33948074Y-10393789D01*
X33983918Y-10444527D01*
X33955840Y-10445423D01*
X33926907Y-10435127D01*
X33872747Y-10420174D01*
X33884426Y-10450444D01*
X33905729Y-10477447D01*
X33990156Y-10528369D01*
X34043046Y-10524939D01*
X34099285Y-10520444D01*
X34096040Y-10566316D01*
X34050701Y-10626876D01*
X33988737Y-10606352D01*
X33951070Y-10567158D01*
X33882645Y-10522373D01*
X33842209Y-10522669D01*
X33805654Y-10515144D01*
X33812889Y-10471678D01*
X33820408Y-10425727D01*
X33790953Y-10442814D01*
X33761649Y-10503942D01*
X33504981Y-10503942D01*
X33498799Y-10482845D01*
X33419856Y-10351234D01*
X33311946Y-10217962D01*
X33194249Y-10107868D01*
X33122824Y-10061135D01*
X32853679Y-9906026D01*
X32660657Y-9756496D01*
X32592062Y-9682147D01*
X32519451Y-9607195D01*
X32460565Y-9574316D01*
X32458835Y-9574251D01*
X32395794Y-9546811D01*
X32324325Y-9488697D01*
X32252032Y-9417064D01*
X32142095Y-9308304D01*
X32017120Y-9184779D01*
X32005336Y-9173137D01*
X31896457Y-9063138D01*
X32014269Y-9063138D01*
X32056489Y-9131917D01*
X32109841Y-9150918D01*
X32167024Y-9173368D01*
X32174669Y-9193251D01*
X32209756Y-9230785D01*
X32248753Y-9238926D01*
X32287891Y-9250207D01*
X32272565Y-9262739D01*
X32255567Y-9300883D01*
X32304315Y-9365230D01*
X32374606Y-9425812D01*
X32415969Y-9447251D01*
X32417486Y-9423844D01*
X32394803Y-9396451D01*
X32350256Y-9314877D01*
X32345503Y-9280034D01*
X32361128Y-9259038D01*
X32402121Y-9314061D01*
X32405288Y-9319720D01*
X32442238Y-9404696D01*
X32446588Y-9452506D01*
X32461121Y-9497158D01*
X32500562Y-9537704D01*
X32551172Y-9572785D01*
X32552323Y-9545481D01*
X32543758Y-9521334D01*
X32538609Y-9460558D01*
X32556998Y-9447251D01*
X32592038Y-9468592D01*
X32607430Y-9547311D01*
X32609063Y-9574251D01*
X32633486Y-9611700D01*
X32686397Y-9666910D01*
X32740166Y-9713664D01*
X32767160Y-9725742D01*
X32767336Y-9724439D01*
X32794224Y-9736869D01*
X32860607Y-9791966D01*
X32877716Y-9807590D01*
X32957942Y-9874648D01*
X33011147Y-9906051D01*
X33015299Y-9906389D01*
X33099960Y-9908869D01*
X33134885Y-9936021D01*
X33130949Y-9949136D01*
X33149581Y-9970256D01*
X33223700Y-9969716D01*
X33296823Y-9962446D01*
X33292557Y-9974731D01*
X33254169Y-9994022D01*
X33205329Y-10022061D01*
X33227113Y-10035069D01*
X33296503Y-10040284D01*
X33368951Y-10050188D01*
X33375513Y-10065867D01*
X33371826Y-10067541D01*
X33341430Y-10098484D01*
X33371826Y-10147255D01*
X33437900Y-10202191D01*
X33480024Y-10178483D01*
X33487754Y-10156828D01*
X33546189Y-10156828D01*
X33547435Y-10231867D01*
X33574263Y-10317164D01*
X33620142Y-10380183D01*
X33629630Y-10386488D01*
X33675151Y-10440761D01*
X33671116Y-10476436D01*
X33675360Y-10490159D01*
X33726578Y-10452575D01*
X33798207Y-10407170D01*
X33839688Y-10406714D01*
X33864121Y-10399392D01*
X33868003Y-10371034D01*
X33833834Y-10282088D01*
X33753686Y-10212758D01*
X33661093Y-10188416D01*
X33634347Y-10194258D01*
X33581716Y-10203362D01*
X33588390Y-10174112D01*
X33592785Y-10130061D01*
X33577056Y-10124584D01*
X33546189Y-10156828D01*
X33487754Y-10156828D01*
X33499284Y-10124526D01*
X33503023Y-10066537D01*
X33485656Y-10061916D01*
X33437753Y-10050950D01*
X33415521Y-10023437D01*
X33357975Y-9941279D01*
X33268178Y-9833380D01*
X33161918Y-9716256D01*
X33054981Y-9606426D01*
X32963157Y-9520408D01*
X32902233Y-9474720D01*
X32888488Y-9472032D01*
X32856026Y-9460484D01*
X32852003Y-9436565D01*
X32825079Y-9356728D01*
X32761418Y-9280148D01*
X32686684Y-9230026D01*
X32626542Y-9229567D01*
X32624659Y-9231029D01*
X32568973Y-9256819D01*
X32479634Y-9254544D01*
X32391736Y-9238823D01*
X32401118Y-9209342D01*
X32428282Y-9172550D01*
X32490776Y-9132423D01*
X32524673Y-9136758D01*
X32548571Y-9136701D01*
X32545442Y-9129751D01*
X32598003Y-9129751D01*
X32619169Y-9150918D01*
X32640336Y-9129751D01*
X32619169Y-9108584D01*
X32598003Y-9129751D01*
X32545442Y-9129751D01*
X32539688Y-9116974D01*
X32485072Y-9090521D01*
X32417965Y-9107886D01*
X32386336Y-9155447D01*
X32363627Y-9192368D01*
X32317464Y-9175092D01*
X32285737Y-9128126D01*
X32297004Y-9060797D01*
X32340163Y-9032876D01*
X32393524Y-9000864D01*
X32370486Y-8957556D01*
X32360625Y-8948165D01*
X32312979Y-8920346D01*
X32301669Y-8933053D01*
X32267312Y-8983151D01*
X32191721Y-9003899D01*
X32116122Y-8985167D01*
X32109572Y-8980259D01*
X32051162Y-8958368D01*
X32026520Y-8981556D01*
X32014269Y-9063138D01*
X31896457Y-9063138D01*
X31796601Y-8962256D01*
X31789520Y-8954544D01*
X31897322Y-8954544D01*
X31909475Y-8998612D01*
X31955248Y-9023904D01*
X31955947Y-9023918D01*
X31955123Y-9002501D01*
X31949259Y-8996063D01*
X31948072Y-8945160D01*
X31968553Y-8911396D01*
X31988318Y-8868695D01*
X32061780Y-8868695D01*
X32067591Y-8893863D01*
X32090003Y-8896918D01*
X32124848Y-8881429D01*
X32118225Y-8868695D01*
X32067985Y-8863629D01*
X32061780Y-8868695D01*
X31988318Y-8868695D01*
X31990999Y-8862905D01*
X31972715Y-8854584D01*
X31922601Y-8887829D01*
X31897322Y-8954544D01*
X31789520Y-8954544D01*
X31682688Y-8838186D01*
X31808221Y-8838186D01*
X31814836Y-8854584D01*
X31852877Y-8894970D01*
X31859668Y-8896918D01*
X31877850Y-8864165D01*
X31878336Y-8854584D01*
X31845792Y-8813878D01*
X31833504Y-8812251D01*
X31808221Y-8838186D01*
X31682688Y-8838186D01*
X31641402Y-8793219D01*
X31528936Y-8652833D01*
X31448401Y-8527907D01*
X31402916Y-8437448D01*
X31352954Y-8306283D01*
X31342836Y-8197915D01*
X31362723Y-8091449D01*
X31709003Y-8091449D01*
X31744899Y-8123939D01*
X31832709Y-8162195D01*
X31846586Y-8166805D01*
X31979286Y-8205702D01*
X32039288Y-8213208D01*
X32035028Y-8198418D01*
X32090003Y-8198418D01*
X32111169Y-8219584D01*
X32132336Y-8198418D01*
X32174669Y-8198418D01*
X32195836Y-8219584D01*
X32217003Y-8198418D01*
X32195836Y-8177251D01*
X32174669Y-8198418D01*
X32132336Y-8198418D01*
X32111169Y-8177251D01*
X32090003Y-8198418D01*
X32035028Y-8198418D01*
X32032768Y-8190572D01*
X31974373Y-8155618D01*
X31921170Y-8134918D01*
X32259336Y-8134918D01*
X32274825Y-8169763D01*
X32287558Y-8163140D01*
X32292625Y-8112900D01*
X32287558Y-8106695D01*
X32262391Y-8112507D01*
X32259336Y-8134918D01*
X31921170Y-8134918D01*
X31882602Y-8119912D01*
X31788281Y-8092890D01*
X31722236Y-8083990D01*
X31709003Y-8091449D01*
X31362723Y-8091449D01*
X31366480Y-8071337D01*
X32397500Y-8071337D01*
X32424343Y-8142719D01*
X32482383Y-8225573D01*
X32579848Y-8384799D01*
X32644920Y-8551404D01*
X32670856Y-8701397D01*
X32650914Y-8810785D01*
X32648166Y-8815445D01*
X32607531Y-8900202D01*
X32598003Y-8943169D01*
X32627238Y-9001688D01*
X32707278Y-9105675D01*
X32826626Y-9243265D01*
X32973782Y-9402596D01*
X33137248Y-9571804D01*
X33305526Y-9739026D01*
X33467118Y-9892399D01*
X33610525Y-10020060D01*
X33724249Y-10110145D01*
X33738879Y-10120250D01*
X33916641Y-10246919D01*
X34113028Y-10397941D01*
X34280462Y-10536325D01*
X34411090Y-10653807D01*
X34485325Y-10733635D01*
X34513461Y-10790323D01*
X34505792Y-10838384D01*
X34501223Y-10847576D01*
X34479385Y-10914719D01*
X34501513Y-10928918D01*
X34534738Y-10965058D01*
X34545336Y-11032252D01*
X34560945Y-11121889D01*
X34587670Y-11161751D01*
X34628458Y-11219947D01*
X34630003Y-11232932D01*
X34606069Y-11250458D01*
X34566503Y-11225251D01*
X34515619Y-11142942D01*
X34503003Y-11073229D01*
X34487151Y-11001415D01*
X34439503Y-10998275D01*
X34385961Y-11056006D01*
X34376003Y-11102780D01*
X34348925Y-11168494D01*
X34291028Y-11177747D01*
X34237317Y-11127328D01*
X34232365Y-11115955D01*
X34208759Y-10993875D01*
X34251826Y-10922608D01*
X34271149Y-10913233D01*
X34312875Y-10906735D01*
X34301843Y-10950628D01*
X34288394Y-10976749D01*
X34263013Y-11064486D01*
X34287414Y-11111262D01*
X34323200Y-11125508D01*
X34333669Y-11064384D01*
X34353961Y-10991157D01*
X34386586Y-10971167D01*
X34428254Y-10936254D01*
X34446877Y-10856204D01*
X34440800Y-10767801D01*
X34408370Y-10707828D01*
X34398673Y-10702519D01*
X34336508Y-10715519D01*
X34315526Y-10745804D01*
X34313032Y-10791250D01*
X34364939Y-10782956D01*
X34412752Y-10771391D01*
X34391131Y-10803331D01*
X34323919Y-10830198D01*
X34257993Y-10806729D01*
X34177592Y-10785520D01*
X34115864Y-10831900D01*
X34081022Y-10882270D01*
X34108247Y-10883359D01*
X34130768Y-10875370D01*
X34178368Y-10866782D01*
X34178970Y-10907489D01*
X34161608Y-10957260D01*
X34146900Y-11069300D01*
X34201153Y-11172167D01*
X34283115Y-11247577D01*
X34338754Y-11322127D01*
X34348682Y-11353411D01*
X34384205Y-11450479D01*
X34446170Y-11543367D01*
X34511548Y-11600488D01*
X34533024Y-11606251D01*
X34565836Y-11636783D01*
X34560870Y-11669163D01*
X34576413Y-11732307D01*
X34651169Y-11775584D01*
X34732928Y-11825113D01*
X34740841Y-11890204D01*
X34740035Y-11892589D01*
X34725061Y-11942883D01*
X34745616Y-11925598D01*
X34771668Y-11892659D01*
X34793962Y-11874362D01*
X35829447Y-11874362D01*
X35835258Y-11899529D01*
X35857669Y-11902584D01*
X35892514Y-11887095D01*
X35885891Y-11874362D01*
X35835652Y-11869296D01*
X35829447Y-11874362D01*
X34793962Y-11874362D01*
X34827878Y-11846527D01*
X34858828Y-11849188D01*
X34863303Y-11838862D01*
X34860233Y-11832029D01*
X35533114Y-11832029D01*
X35538925Y-11857196D01*
X35561336Y-11860251D01*
X35596181Y-11844762D01*
X35593228Y-11839084D01*
X35646003Y-11839084D01*
X35667169Y-11860251D01*
X35688336Y-11839084D01*
X35667169Y-11817918D01*
X35646003Y-11839084D01*
X35593228Y-11839084D01*
X35589558Y-11832029D01*
X35539318Y-11826962D01*
X35533114Y-11832029D01*
X34860233Y-11832029D01*
X34833910Y-11773445D01*
X34833592Y-11772828D01*
X34894382Y-11772828D01*
X34900172Y-11775584D01*
X34938805Y-11745783D01*
X34947503Y-11733251D01*
X34958290Y-11693674D01*
X34952499Y-11690918D01*
X34913867Y-11720719D01*
X34905169Y-11733251D01*
X34894382Y-11772828D01*
X34833592Y-11772828D01*
X34829770Y-11765396D01*
X34794781Y-11654656D01*
X34793036Y-11512615D01*
X34865923Y-11512615D01*
X34874143Y-11565432D01*
X34903433Y-11669751D01*
X34919152Y-11563918D01*
X34949033Y-11470957D01*
X34983520Y-11426983D01*
X35004023Y-11399591D01*
X34989836Y-11395881D01*
X34897720Y-11427460D01*
X34865923Y-11512615D01*
X34793036Y-11512615D01*
X34792949Y-11505543D01*
X34803318Y-11411712D01*
X34809959Y-11373418D01*
X35053336Y-11373418D01*
X35074503Y-11394584D01*
X35095669Y-11373418D01*
X35074503Y-11352251D01*
X35053336Y-11373418D01*
X34809959Y-11373418D01*
X34824641Y-11288751D01*
X34884003Y-11288751D01*
X34906861Y-11345087D01*
X34926336Y-11352251D01*
X34963893Y-11317963D01*
X34968669Y-11288751D01*
X34945810Y-11232415D01*
X34926336Y-11225251D01*
X34888779Y-11259539D01*
X34884003Y-11288751D01*
X34824641Y-11288751D01*
X34833187Y-11239469D01*
X34871555Y-11146068D01*
X34928523Y-11125705D01*
X35014192Y-11172569D01*
X35097189Y-11242754D01*
X35271763Y-11400472D01*
X35511800Y-11179486D01*
X35661496Y-11037520D01*
X35815866Y-10884570D01*
X35931753Y-10764074D01*
X36034027Y-10645522D01*
X36088288Y-10551984D01*
X36109130Y-10451477D01*
X36111669Y-10369719D01*
X36122304Y-10276018D01*
X36913145Y-10276018D01*
X36947574Y-10292720D01*
X37034193Y-10308708D01*
X37162466Y-10319713D01*
X37200203Y-10321198D01*
X37313111Y-10320645D01*
X37345446Y-10309107D01*
X37318170Y-10292423D01*
X37223712Y-10270695D01*
X37089711Y-10258497D01*
X37043003Y-10257535D01*
X36941443Y-10262867D01*
X36913145Y-10276018D01*
X36122304Y-10276018D01*
X36131409Y-10195793D01*
X36909772Y-10195793D01*
X36920094Y-10209251D01*
X36953288Y-10174570D01*
X36958336Y-10140568D01*
X36971227Y-10095960D01*
X37016666Y-10120293D01*
X37066920Y-10141705D01*
X37096141Y-10087791D01*
X37096991Y-10084590D01*
X37103638Y-10021289D01*
X37091578Y-10009615D01*
X37054353Y-9989098D01*
X37053586Y-9987001D01*
X37047753Y-9909339D01*
X37102681Y-9890063D01*
X37117086Y-9892258D01*
X37211682Y-9906623D01*
X37244086Y-9909679D01*
X37293987Y-9932827D01*
X37279902Y-9974923D01*
X37212336Y-10009850D01*
X37136984Y-10052930D01*
X37133104Y-10110648D01*
X37194227Y-10164570D01*
X37275836Y-10190877D01*
X37373541Y-10219501D01*
X37422638Y-10254044D01*
X37424003Y-10259884D01*
X37445868Y-10270455D01*
X37500209Y-10230545D01*
X37570149Y-10158465D01*
X37638807Y-10072528D01*
X37689304Y-9991045D01*
X37702434Y-9957822D01*
X37726606Y-9830622D01*
X37732789Y-9764751D01*
X37763966Y-9764751D01*
X37781435Y-9772324D01*
X37805003Y-9743584D01*
X37840825Y-9666410D01*
X37846040Y-9637751D01*
X37828571Y-9630178D01*
X37805003Y-9658918D01*
X37769181Y-9736092D01*
X37763966Y-9764751D01*
X37732789Y-9764751D01*
X37736762Y-9722418D01*
X37767097Y-9609197D01*
X37818527Y-9563944D01*
X37873937Y-9510513D01*
X37868253Y-9446464D01*
X37860128Y-9383632D01*
X37875896Y-9372104D01*
X37909524Y-9352455D01*
X37910836Y-9341418D01*
X37881551Y-9310916D01*
X37868503Y-9313195D01*
X37849543Y-9306093D01*
X37858782Y-9294694D01*
X37917624Y-9263963D01*
X37985881Y-9256898D01*
X38029053Y-9273288D01*
X38027747Y-9295720D01*
X38033009Y-9307829D01*
X38077426Y-9281217D01*
X38136950Y-9233498D01*
X38187531Y-9182285D01*
X38193793Y-9174106D01*
X38206892Y-9111891D01*
X38202178Y-9100507D01*
X38216979Y-9083571D01*
X38257888Y-9091358D01*
X38308752Y-9104464D01*
X38293989Y-9083287D01*
X38255847Y-9051357D01*
X38201438Y-8979872D01*
X38214437Y-8945546D01*
X38235565Y-8945546D01*
X38245767Y-8969928D01*
X38287490Y-9002741D01*
X38363146Y-9039057D01*
X38417100Y-9033382D01*
X38423350Y-8990551D01*
X38417028Y-8978659D01*
X38359706Y-8947529D01*
X38299921Y-8940597D01*
X38235565Y-8945546D01*
X38214437Y-8945546D01*
X38220954Y-8928338D01*
X38304083Y-8908217D01*
X38378042Y-8915580D01*
X38486543Y-8922673D01*
X38556360Y-8882518D01*
X38584860Y-8846462D01*
X38632355Y-8789740D01*
X38651670Y-8788226D01*
X38677565Y-8791599D01*
X38735338Y-8749654D01*
X38789796Y-8681894D01*
X38796639Y-8637745D01*
X38807781Y-8618988D01*
X38840451Y-8626949D01*
X38886995Y-8629188D01*
X38880454Y-8584131D01*
X38836403Y-8525178D01*
X38811290Y-8515918D01*
X38797269Y-8490747D01*
X38821003Y-8452418D01*
X38898848Y-8397969D01*
X38942603Y-8388196D01*
X38948045Y-8369358D01*
X38891784Y-8321248D01*
X38809905Y-8268766D01*
X38705411Y-8198393D01*
X38645708Y-8140397D01*
X38640572Y-8114534D01*
X38642136Y-8099111D01*
X38619229Y-8109889D01*
X38583795Y-8157506D01*
X38588170Y-8177251D01*
X38581911Y-8229322D01*
X38571398Y-8238035D01*
X38546464Y-8221477D01*
X38543910Y-8154560D01*
X38536926Y-8077016D01*
X38531799Y-8071418D01*
X38821003Y-8071418D01*
X38842170Y-8092584D01*
X38863336Y-8071418D01*
X38842170Y-8050251D01*
X38821003Y-8071418D01*
X38531799Y-8071418D01*
X38482661Y-8017764D01*
X38392038Y-7967693D01*
X38391099Y-7967317D01*
X38673906Y-7967317D01*
X38722173Y-7991200D01*
X38787556Y-7988639D01*
X38789423Y-7987135D01*
X38994769Y-7987135D01*
X39004256Y-8054215D01*
X39025970Y-8156996D01*
X39032092Y-8214184D01*
X39042652Y-8250740D01*
X39087200Y-8227621D01*
X39104096Y-8214184D01*
X39154845Y-8179074D01*
X39155529Y-8207871D01*
X39145460Y-8236155D01*
X39132758Y-8289290D01*
X39146948Y-8283084D01*
X39244336Y-8283084D01*
X39265503Y-8304251D01*
X39286670Y-8283084D01*
X39265503Y-8261918D01*
X39244336Y-8283084D01*
X39146948Y-8283084D01*
X39164973Y-8275202D01*
X39169284Y-8271688D01*
X39244718Y-8243660D01*
X39361608Y-8231662D01*
X39386059Y-8231874D01*
X39518245Y-8218649D01*
X39588557Y-8165723D01*
X39590285Y-8162736D01*
X39659244Y-8109110D01*
X39723728Y-8113917D01*
X39785241Y-8128009D01*
X39770158Y-8110899D01*
X39739182Y-8091063D01*
X39645327Y-8063315D01*
X39592305Y-8070113D01*
X39547847Y-8079246D01*
X39552413Y-8066730D01*
X39607015Y-8035876D01*
X39708363Y-7993894D01*
X39829105Y-7950323D01*
X39941888Y-7914701D01*
X40019360Y-7896563D01*
X40037215Y-7897685D01*
X40012916Y-7920316D01*
X39932765Y-7955751D01*
X39913247Y-7962864D01*
X39826222Y-7999079D01*
X39811136Y-8027160D01*
X39844620Y-8052869D01*
X39918632Y-8066412D01*
X40008251Y-8050224D01*
X40083033Y-8015094D01*
X40112534Y-7971814D01*
X40108344Y-7959394D01*
X40116525Y-7924971D01*
X40128340Y-7923251D01*
X40188185Y-7954144D01*
X40196836Y-7965584D01*
X40257016Y-8001146D01*
X40294585Y-8004942D01*
X40335900Y-7997182D01*
X40300837Y-7974110D01*
X40281503Y-7965584D01*
X40234487Y-7936780D01*
X40246291Y-7926226D01*
X40326845Y-7909232D01*
X40369652Y-7894890D01*
X40420216Y-7887112D01*
X40412949Y-7916057D01*
X40403627Y-7959222D01*
X40440053Y-7959661D01*
X40497023Y-7920845D01*
X40514336Y-7902084D01*
X40592173Y-7847674D01*
X40635936Y-7837936D01*
X40732889Y-7815172D01*
X40767317Y-7797777D01*
X40799088Y-7763627D01*
X40760339Y-7731588D01*
X40724984Y-7716442D01*
X40655016Y-7686080D01*
X40661232Y-7674668D01*
X40712921Y-7671934D01*
X40798047Y-7686829D01*
X40831546Y-7711114D01*
X40883096Y-7722345D01*
X40960687Y-7685312D01*
X41035390Y-7612009D01*
X41040099Y-7522649D01*
X41039430Y-7519928D01*
X41043218Y-7427762D01*
X41103287Y-7374907D01*
X41173709Y-7354316D01*
X41188287Y-7383958D01*
X41141526Y-7445996D01*
X41128636Y-7457197D01*
X41086559Y-7516527D01*
X41088386Y-7546376D01*
X41128292Y-7548181D01*
X41192594Y-7499883D01*
X41261712Y-7423728D01*
X41316066Y-7341964D01*
X41336077Y-7276838D01*
X41334044Y-7267255D01*
X41294352Y-7224217D01*
X41272236Y-7227285D01*
X41208752Y-7227971D01*
X41160255Y-7208205D01*
X41117365Y-7178021D01*
X41148022Y-7169672D01*
X41191670Y-7170970D01*
X41309602Y-7202067D01*
X41378863Y-7242723D01*
X41428054Y-7274489D01*
X41429281Y-7256501D01*
X41429183Y-7209868D01*
X41453755Y-7202936D01*
X41482100Y-7190701D01*
X41445670Y-7156930D01*
X41412293Y-7126208D01*
X41451649Y-7127038D01*
X41475863Y-7132042D01*
X41573130Y-7126095D01*
X41632496Y-7075130D01*
X41634405Y-7001350D01*
X41616418Y-6972456D01*
X41590056Y-6927523D01*
X41632907Y-6923955D01*
X41650659Y-6927132D01*
X41732047Y-6905442D01*
X41811797Y-6831214D01*
X41866090Y-6733622D01*
X41874263Y-6653251D01*
X41878680Y-6614688D01*
X41893945Y-6622245D01*
X41937784Y-6613334D01*
X42014452Y-6561584D01*
X42100521Y-6487430D01*
X42172562Y-6411307D01*
X42207147Y-6353649D01*
X42207670Y-6348613D01*
X42175111Y-6318483D01*
X42102145Y-6319452D01*
X42025832Y-6348459D01*
X42004470Y-6365384D01*
X41961836Y-6425987D01*
X41958152Y-6467372D01*
X41995735Y-6462916D01*
X41996003Y-6462751D01*
X42034898Y-6468641D01*
X42038336Y-6485948D01*
X42007825Y-6516868D01*
X41976992Y-6511769D01*
X41930041Y-6515486D01*
X41927721Y-6538990D01*
X41927882Y-6564765D01*
X41920890Y-6554560D01*
X41882346Y-6558302D01*
X41808742Y-6610179D01*
X41779661Y-6636563D01*
X41703933Y-6702239D01*
X41660995Y-6726147D01*
X41657336Y-6721938D01*
X41686821Y-6676808D01*
X41760074Y-6604261D01*
X41784450Y-6583159D01*
X41860040Y-6507500D01*
X41891728Y-6450815D01*
X41890019Y-6441341D01*
X41900874Y-6398975D01*
X41918568Y-6389785D01*
X41945751Y-6347362D01*
X41934706Y-6318150D01*
X41897428Y-6285339D01*
X41860488Y-6320648D01*
X41830961Y-6355191D01*
X41835088Y-6321993D01*
X41869929Y-6274780D01*
X41885972Y-6272571D01*
X41929369Y-6246409D01*
X41987049Y-6177639D01*
X42037870Y-6097058D01*
X42060688Y-6035465D01*
X42057259Y-6023062D01*
X42020243Y-6036514D01*
X41974295Y-6084841D01*
X41928616Y-6140892D01*
X41923300Y-6128783D01*
X41936903Y-6081751D01*
X41937781Y-6053902D01*
X41908647Y-6085748D01*
X41859138Y-6162175D01*
X41798893Y-6268071D01*
X41737551Y-6388322D01*
X41726571Y-6411539D01*
X41645134Y-6538923D01*
X41518126Y-6687874D01*
X41370308Y-6832817D01*
X41226437Y-6948179D01*
X41176384Y-6979834D01*
X41127077Y-7017926D01*
X41138753Y-7032751D01*
X41187981Y-7061093D01*
X41191670Y-7076745D01*
X41155402Y-7105032D01*
X41075253Y-7111337D01*
X40941223Y-7109116D01*
X40831836Y-7114151D01*
X40751254Y-7124430D01*
X40747608Y-7140357D01*
X40789503Y-7160554D01*
X40782827Y-7173859D01*
X40699153Y-7184482D01*
X40546121Y-7191948D01*
X40331371Y-7195781D01*
X40218003Y-7196193D01*
X39988826Y-7193926D01*
X39788686Y-7187704D01*
X39633294Y-7178346D01*
X39538363Y-7166673D01*
X39517766Y-7159689D01*
X39479567Y-7159702D01*
X39467411Y-7206657D01*
X39480865Y-7265623D01*
X39511482Y-7264860D01*
X39522347Y-7267334D01*
X39479662Y-7306278D01*
X39431610Y-7360581D01*
X39461382Y-7381857D01*
X39501864Y-7380283D01*
X39524212Y-7411768D01*
X39526559Y-7436483D01*
X39511061Y-7473266D01*
X39451314Y-7455101D01*
X39438364Y-7448367D01*
X39378484Y-7420133D01*
X39383649Y-7440906D01*
X39408270Y-7471820D01*
X39438147Y-7527687D01*
X39421352Y-7542251D01*
X39359166Y-7511131D01*
X39348899Y-7497862D01*
X39299809Y-7480736D01*
X39255996Y-7507807D01*
X39179155Y-7555724D01*
X39143349Y-7566915D01*
X39055554Y-7577258D01*
X39049026Y-7578136D01*
X39014894Y-7619079D01*
X39000799Y-7707442D01*
X39005474Y-7809812D01*
X39027654Y-7892779D01*
X39062107Y-7923251D01*
X39101072Y-7945667D01*
X39095743Y-7966275D01*
X39042827Y-7988441D01*
X39023076Y-7980822D01*
X38994769Y-7987135D01*
X38789423Y-7987135D01*
X38820995Y-7961689D01*
X38821003Y-7961160D01*
X38785892Y-7937030D01*
X38739269Y-7934670D01*
X38679752Y-7950740D01*
X38673906Y-7967317D01*
X38391099Y-7967317D01*
X38293340Y-7928113D01*
X38235046Y-7920400D01*
X38228336Y-7928421D01*
X38262540Y-7974771D01*
X38302420Y-7996040D01*
X38391963Y-8054298D01*
X38461593Y-8138338D01*
X38480990Y-8194312D01*
X38458819Y-8193822D01*
X38403082Y-8141076D01*
X38397401Y-8134608D01*
X38326417Y-8073803D01*
X38282325Y-8067844D01*
X38283440Y-8110479D01*
X38317554Y-8161862D01*
X38353233Y-8209254D01*
X38331169Y-8204135D01*
X38285477Y-8176507D01*
X38224337Y-8114349D01*
X38216107Y-8063392D01*
X38210900Y-8025455D01*
X38169550Y-8033133D01*
X38111919Y-8032922D01*
X38101336Y-8009948D01*
X38127004Y-7980460D01*
X38143670Y-7986751D01*
X38179911Y-7977154D01*
X38186003Y-7946916D01*
X38166230Y-7888961D01*
X38148199Y-7880918D01*
X38099802Y-7916350D01*
X38077438Y-7997625D01*
X38088692Y-8078362D01*
X38094657Y-8126145D01*
X38066197Y-8118197D01*
X38021573Y-8102082D01*
X38016670Y-8107790D01*
X38003489Y-8160397D01*
X37993681Y-8187900D01*
X38003891Y-8239690D01*
X38036015Y-8247807D01*
X38093510Y-8225504D01*
X38101336Y-8205473D01*
X38108939Y-8165068D01*
X38126938Y-8188424D01*
X38148116Y-8256484D01*
X38165260Y-8350194D01*
X38168818Y-8383686D01*
X38182997Y-8550930D01*
X38016894Y-8537588D01*
X37875860Y-8545030D01*
X37793688Y-8588874D01*
X37779681Y-8661065D01*
X37809673Y-8717001D01*
X37845755Y-8765909D01*
X37830339Y-8759217D01*
X37780412Y-8717579D01*
X37690264Y-8677198D01*
X37622270Y-8711944D01*
X37593448Y-8812433D01*
X37593336Y-8820718D01*
X37564369Y-8884581D01*
X37529836Y-8896918D01*
X37473500Y-8919776D01*
X37466336Y-8939251D01*
X37431879Y-8976403D01*
X37400338Y-8981584D01*
X37356545Y-9002142D01*
X37360552Y-9023997D01*
X37346872Y-9068259D01*
X37287739Y-9104059D01*
X37224280Y-9142411D01*
X37186236Y-9211784D01*
X37164354Y-9334043D01*
X37157297Y-9412393D01*
X37139175Y-9464162D01*
X37123114Y-9465602D01*
X37091135Y-9480474D01*
X37069437Y-9547325D01*
X37062811Y-9633649D01*
X37076047Y-9706936D01*
X37085280Y-9722350D01*
X37108276Y-9775005D01*
X37082243Y-9794004D01*
X37042672Y-9836041D01*
X36995489Y-9923234D01*
X36950844Y-10029587D01*
X36918888Y-10129105D01*
X36909772Y-10195793D01*
X36131409Y-10195793D01*
X36133944Y-10173462D01*
X36194265Y-10003821D01*
X36282879Y-9883339D01*
X36337762Y-9847218D01*
X36418232Y-9769377D01*
X36450336Y-9675363D01*
X36457200Y-9655556D01*
X36527920Y-9655556D01*
X36539232Y-9700317D01*
X36608659Y-9750496D01*
X36653179Y-9776340D01*
X36768604Y-9834827D01*
X36833804Y-9837938D01*
X36867828Y-9778977D01*
X36883562Y-9695376D01*
X36874504Y-9557646D01*
X36828216Y-9486464D01*
X36780085Y-9427643D01*
X36795386Y-9396569D01*
X36815642Y-9387509D01*
X36857655Y-9384816D01*
X36854945Y-9400967D01*
X36865673Y-9445974D01*
X36890288Y-9460814D01*
X36930613Y-9456347D01*
X36925710Y-9395131D01*
X36921699Y-9333692D01*
X36951183Y-9336997D01*
X36982534Y-9338071D01*
X36975111Y-9302904D01*
X36948298Y-9267235D01*
X36898204Y-9281245D01*
X36830844Y-9327309D01*
X36747299Y-9412675D01*
X36736267Y-9481204D01*
X36737940Y-9527140D01*
X36693714Y-9520655D01*
X36616917Y-9532947D01*
X36562621Y-9591513D01*
X36527920Y-9655556D01*
X36457200Y-9655556D01*
X36477098Y-9598137D01*
X36540249Y-9510758D01*
X36650888Y-9400614D01*
X36820118Y-9255093D01*
X36820753Y-9254567D01*
X36963916Y-9131390D01*
X37055922Y-9045084D01*
X37254670Y-9045084D01*
X37275836Y-9066251D01*
X37297003Y-9045084D01*
X37275836Y-9023918D01*
X37254670Y-9045084D01*
X37055922Y-9045084D01*
X37078668Y-9023748D01*
X37151334Y-8945033D01*
X37170003Y-8912537D01*
X37201655Y-8843433D01*
X37218877Y-8829375D01*
X37247700Y-8824480D01*
X37233218Y-8858627D01*
X37238273Y-8872777D01*
X37292173Y-8837325D01*
X37296930Y-8833418D01*
X37508670Y-8833418D01*
X37529836Y-8854584D01*
X37551003Y-8833418D01*
X37529836Y-8812251D01*
X37508670Y-8833418D01*
X37296930Y-8833418D01*
X37321927Y-8812885D01*
X37436451Y-8714333D01*
X37494260Y-8661882D01*
X37503641Y-8647378D01*
X37476920Y-8660372D01*
X37430460Y-8661860D01*
X37424003Y-8642918D01*
X37398121Y-8615525D01*
X37380979Y-8622178D01*
X37356364Y-8672608D01*
X37362011Y-8687691D01*
X37351732Y-8708019D01*
X37315735Y-8699625D01*
X37267547Y-8673601D01*
X37296433Y-8644313D01*
X37314426Y-8634009D01*
X37360776Y-8584426D01*
X37358895Y-8555649D01*
X37360812Y-8545759D01*
X37446633Y-8545759D01*
X37476918Y-8582945D01*
X37529800Y-8573574D01*
X37570503Y-8520405D01*
X37571233Y-8481241D01*
X37557229Y-8418342D01*
X37871684Y-8418342D01*
X37876808Y-8458795D01*
X37903761Y-8500580D01*
X37946945Y-8476316D01*
X37963968Y-8459763D01*
X37998340Y-8396398D01*
X38030781Y-8396398D01*
X38033167Y-8483809D01*
X38045353Y-8494121D01*
X38073144Y-8438761D01*
X38092411Y-8337449D01*
X38073144Y-8301459D01*
X38042295Y-8302022D01*
X38030859Y-8384911D01*
X38030781Y-8396398D01*
X37998340Y-8396398D01*
X38002286Y-8389125D01*
X37996743Y-8348591D01*
X37949712Y-8325140D01*
X37899190Y-8356508D01*
X37871684Y-8418342D01*
X37557229Y-8418342D01*
X37554948Y-8408096D01*
X37549229Y-8388918D01*
X37548784Y-8364593D01*
X37641781Y-8364593D01*
X37651763Y-8386682D01*
X37675505Y-8388918D01*
X37732909Y-8358172D01*
X37741203Y-8347069D01*
X37734389Y-8323013D01*
X37701368Y-8330432D01*
X37641781Y-8364593D01*
X37548784Y-8364593D01*
X37548204Y-8332807D01*
X37549518Y-8325418D01*
X37538834Y-8304290D01*
X37529836Y-8311307D01*
X37510851Y-8350696D01*
X37512295Y-8353640D01*
X37503152Y-8396891D01*
X37474979Y-8457435D01*
X37446633Y-8545759D01*
X37360812Y-8545759D01*
X37366060Y-8518689D01*
X37381670Y-8515918D01*
X37409276Y-8490130D01*
X37402836Y-8473584D01*
X37409465Y-8435060D01*
X37428560Y-8431251D01*
X37460088Y-8415490D01*
X37453715Y-8404518D01*
X37449967Y-8351013D01*
X37471748Y-8294140D01*
X37518848Y-8239282D01*
X37563391Y-8257373D01*
X37631275Y-8299013D01*
X37654720Y-8302964D01*
X37661653Y-8285517D01*
X37626666Y-8259411D01*
X37577562Y-8202133D01*
X37567141Y-8096692D01*
X37570464Y-8053282D01*
X37590102Y-7934897D01*
X37630221Y-7816677D01*
X37641614Y-7794152D01*
X38465991Y-7794152D01*
X38492078Y-7844525D01*
X38514725Y-7862722D01*
X38628358Y-7908054D01*
X38731326Y-7885689D01*
X38783631Y-7829314D01*
X38799442Y-7780617D01*
X38765253Y-7758947D01*
X38664067Y-7753920D01*
X38660215Y-7753918D01*
X38522013Y-7763968D01*
X38465991Y-7794152D01*
X37641614Y-7794152D01*
X37678367Y-7721488D01*
X38298070Y-7721488D01*
X38298459Y-7722168D01*
X38356564Y-7750710D01*
X38441286Y-7747356D01*
X38501766Y-7714349D01*
X38502523Y-7713169D01*
X38485521Y-7686864D01*
X38405829Y-7681244D01*
X38403313Y-7681419D01*
X38321944Y-7696814D01*
X38298070Y-7721488D01*
X37678367Y-7721488D01*
X37699951Y-7678813D01*
X37705800Y-7669251D01*
X38609336Y-7669251D01*
X38646291Y-7697246D01*
X38736323Y-7708713D01*
X38746919Y-7708609D01*
X38831652Y-7703379D01*
X38839611Y-7689241D01*
X38799836Y-7669251D01*
X38682718Y-7633126D01*
X38618260Y-7644771D01*
X38609336Y-7669251D01*
X37705800Y-7669251D01*
X37808428Y-7501495D01*
X37864668Y-7415151D01*
X37901460Y-7355699D01*
X38282969Y-7355699D01*
X38293181Y-7409323D01*
X38346393Y-7458740D01*
X38355336Y-7462854D01*
X38425207Y-7476372D01*
X38436594Y-7450036D01*
X38396444Y-7413597D01*
X38357859Y-7381845D01*
X38397383Y-7373650D01*
X38403724Y-7373566D01*
X38477064Y-7404542D01*
X38496240Y-7432756D01*
X38548120Y-7463899D01*
X38650457Y-7473236D01*
X38772423Y-7462653D01*
X38883190Y-7434036D01*
X38935565Y-7405889D01*
X39003835Y-7383801D01*
X39027263Y-7390743D01*
X39100451Y-7397021D01*
X39192401Y-7365285D01*
X39262851Y-7313100D01*
X39277912Y-7281398D01*
X39291346Y-7199513D01*
X39304378Y-7139224D01*
X39622948Y-7139224D01*
X39663837Y-7145526D01*
X39771635Y-7148130D01*
X39773503Y-7148133D01*
X39885960Y-7145925D01*
X39935424Y-7139721D01*
X39911844Y-7131003D01*
X39783126Y-7123635D01*
X39657844Y-7130571D01*
X39622948Y-7139224D01*
X39304378Y-7139224D01*
X39311186Y-7107724D01*
X39322177Y-7026486D01*
X39295634Y-7008690D01*
X39279626Y-7013523D01*
X39230316Y-7002598D01*
X39226096Y-6982012D01*
X39392887Y-6982012D01*
X39400436Y-7047037D01*
X39400905Y-7047846D01*
X39448414Y-7058714D01*
X39566311Y-7066559D01*
X39740358Y-7070976D01*
X39956318Y-7071562D01*
X40148536Y-7069025D01*
X40413175Y-7063319D01*
X40608744Y-7056758D01*
X40750825Y-7047044D01*
X40855000Y-7031872D01*
X40936855Y-7008944D01*
X41011970Y-6975957D01*
X41095930Y-6930613D01*
X41099497Y-6928619D01*
X41337339Y-6757170D01*
X41551745Y-6518902D01*
X41729134Y-6244263D01*
X41807252Y-6110709D01*
X41878867Y-5995722D01*
X41881886Y-5991284D01*
X41953670Y-5991284D01*
X41979153Y-6000899D01*
X42012226Y-5980021D01*
X42069049Y-5959232D01*
X42096559Y-5997157D01*
X42088868Y-6071150D01*
X42053909Y-6140391D01*
X42018924Y-6206227D01*
X42025353Y-6230566D01*
X42028894Y-6247977D01*
X42009072Y-6263278D01*
X42013085Y-6283113D01*
X42083880Y-6294362D01*
X42122687Y-6295342D01*
X42225632Y-6289101D01*
X42256081Y-6267087D01*
X42243557Y-6243318D01*
X42219815Y-6173924D01*
X42227391Y-6147590D01*
X42221649Y-6121890D01*
X42178118Y-6131062D01*
X42131315Y-6143231D01*
X42143393Y-6117798D01*
X42186503Y-6072490D01*
X42269790Y-6011014D01*
X42321229Y-6022400D01*
X42334670Y-6082921D01*
X42363479Y-6123258D01*
X42398170Y-6118227D01*
X42454221Y-6075296D01*
X42461670Y-6053557D01*
X42435466Y-6032506D01*
X42419336Y-6039418D01*
X42383472Y-6029365D01*
X42377003Y-5997084D01*
X42359180Y-5949879D01*
X42339466Y-5951787D01*
X42284932Y-5944082D01*
X42253719Y-5916895D01*
X42230333Y-5862702D01*
X42270089Y-5834023D01*
X42325197Y-5833768D01*
X42334670Y-5852745D01*
X42360683Y-5876789D01*
X42377003Y-5870084D01*
X42417687Y-5817857D01*
X42419336Y-5806517D01*
X42402943Y-5786620D01*
X42342565Y-5788559D01*
X42221409Y-5813430D01*
X42186503Y-5821709D01*
X42106337Y-5856909D01*
X42020737Y-5914639D01*
X41962399Y-5971089D01*
X41953670Y-5991284D01*
X41881886Y-5991284D01*
X41911336Y-5947986D01*
X41998598Y-5865278D01*
X42121737Y-5786789D01*
X42244364Y-5733351D01*
X42306217Y-5721918D01*
X42383059Y-5691984D01*
X42417091Y-5661124D01*
X42445155Y-5574489D01*
X42392828Y-5485271D01*
X42264089Y-5397957D01*
X42133759Y-5341529D01*
X41837659Y-5209542D01*
X41530470Y-5034662D01*
X41249627Y-4839367D01*
X41124885Y-4735824D01*
X40954298Y-4605683D01*
X40799158Y-4530078D01*
X40760451Y-4520300D01*
X40604399Y-4491427D01*
X40439956Y-4842089D01*
X40275134Y-5152497D01*
X40060288Y-5493510D01*
X39810628Y-5841763D01*
X39683729Y-6003600D01*
X39591407Y-6129676D01*
X39517255Y-6251435D01*
X39494220Y-6299934D01*
X39465830Y-6400429D01*
X39438375Y-6543938D01*
X39414982Y-6705408D01*
X39398778Y-6859784D01*
X39392887Y-6982012D01*
X39226096Y-6982012D01*
X39220146Y-6952978D01*
X39235549Y-6897968D01*
X39263991Y-6905996D01*
X39296439Y-6897836D01*
X39313248Y-6808696D01*
X39314412Y-6787234D01*
X39321554Y-6661579D01*
X39333455Y-6492171D01*
X39345018Y-6346334D01*
X39346544Y-6314584D01*
X39371336Y-6314584D01*
X39386825Y-6349429D01*
X39399559Y-6342807D01*
X39404625Y-6292567D01*
X39399559Y-6286362D01*
X39374391Y-6292173D01*
X39371336Y-6314584D01*
X39346544Y-6314584D01*
X39352627Y-6188064D01*
X39352137Y-6181535D01*
X39413670Y-6181535D01*
X39434233Y-6196474D01*
X39488497Y-6145889D01*
X39498336Y-6133699D01*
X39556843Y-6052444D01*
X39582916Y-6002637D01*
X39583003Y-6001405D01*
X39556077Y-6006465D01*
X39498336Y-6049240D01*
X39434036Y-6125299D01*
X39413670Y-6181535D01*
X39352137Y-6181535D01*
X39345167Y-6088709D01*
X39327859Y-6060584D01*
X39298716Y-6097318D01*
X39286670Y-6185086D01*
X39274663Y-6282094D01*
X39247601Y-6333734D01*
X39221814Y-6321035D01*
X39218229Y-6253503D01*
X39233949Y-6157167D01*
X39266080Y-6058056D01*
X39281920Y-6025209D01*
X39310860Y-5944300D01*
X39304667Y-5895674D01*
X39271898Y-5899052D01*
X39242683Y-5934810D01*
X39209809Y-5966695D01*
X39202651Y-5946666D01*
X39232442Y-5879829D01*
X39316896Y-5870081D01*
X39378010Y-5888486D01*
X39433285Y-5918080D01*
X39424253Y-5930901D01*
X39377463Y-5967726D01*
X39371336Y-5998060D01*
X39380468Y-6037385D01*
X39421997Y-6027257D01*
X39477170Y-5993191D01*
X39550787Y-5953799D01*
X39582949Y-5954102D01*
X39583003Y-5955066D01*
X39608879Y-5959155D01*
X39643492Y-5936084D01*
X39676556Y-5892671D01*
X39667056Y-5832637D01*
X39617077Y-5738593D01*
X39568470Y-5640383D01*
X39552895Y-5574456D01*
X39556588Y-5564888D01*
X39581636Y-5569155D01*
X39583003Y-5581385D01*
X39606883Y-5646550D01*
X39662163Y-5715785D01*
X39724303Y-5765099D01*
X39768765Y-5770502D01*
X39772205Y-5766351D01*
X39769428Y-5725914D01*
X39752336Y-5721918D01*
X39724944Y-5696035D01*
X39731596Y-5678894D01*
X39779308Y-5652547D01*
X39792798Y-5657261D01*
X39844266Y-5647341D01*
X39879723Y-5615618D01*
X39910816Y-5565155D01*
X39879336Y-5552584D01*
X39848490Y-5537612D01*
X39874883Y-5494450D01*
X39904067Y-5408171D01*
X39898309Y-5356867D01*
X39897140Y-5328614D01*
X39930284Y-5371019D01*
X39937865Y-5383251D01*
X39979012Y-5447529D01*
X39992480Y-5447406D01*
X39984406Y-5374707D01*
X39977583Y-5330334D01*
X39970521Y-5215091D01*
X39997558Y-5172148D01*
X40003650Y-5171584D01*
X40035141Y-5203903D01*
X40025548Y-5262411D01*
X40011082Y-5323825D01*
X40037097Y-5315049D01*
X40060585Y-5294161D01*
X40102693Y-5230266D01*
X40101185Y-5196793D01*
X40105944Y-5178548D01*
X40125105Y-5187664D01*
X40172010Y-5171687D01*
X40233003Y-5087628D01*
X40256616Y-5042287D01*
X40303836Y-4937452D01*
X40311907Y-4891808D01*
X40282528Y-4890387D01*
X40273485Y-4893636D01*
X40229708Y-4902465D01*
X40253390Y-4862455D01*
X40253981Y-4861742D01*
X40282859Y-4800991D01*
X40276948Y-4778974D01*
X40290199Y-4768193D01*
X40340816Y-4777223D01*
X40410409Y-4778772D01*
X40429670Y-4756651D01*
X40443857Y-4679226D01*
X40452658Y-4652936D01*
X40442450Y-4601241D01*
X40409711Y-4593029D01*
X40363337Y-4618367D01*
X40368329Y-4681223D01*
X40376794Y-4734241D01*
X40355548Y-4715994D01*
X40308341Y-4684739D01*
X40223248Y-4696675D01*
X40181280Y-4710305D01*
X40083424Y-4736646D01*
X40025161Y-4737952D01*
X40022315Y-4736007D01*
X40042478Y-4713240D01*
X40121196Y-4687484D01*
X40130309Y-4685416D01*
X40233877Y-4651456D01*
X40259993Y-4618851D01*
X40215555Y-4596238D01*
X40107464Y-4592254D01*
X40059253Y-4596470D01*
X39960592Y-4604416D01*
X39933838Y-4598767D01*
X39960916Y-4587301D01*
X40020526Y-4565120D01*
X40017130Y-4545945D01*
X39942753Y-4518411D01*
X39904186Y-4506446D01*
X39783122Y-4479979D01*
X39687354Y-4476979D01*
X39674439Y-4479870D01*
X39628438Y-4490765D01*
X39656188Y-4464894D01*
X39667670Y-4456559D01*
X39707559Y-4418895D01*
X39702882Y-4410233D01*
X39643293Y-4396073D01*
X39600687Y-4381224D01*
X39550008Y-4373914D01*
X39555582Y-4399465D01*
X39553052Y-4459360D01*
X39534819Y-4476700D01*
X39505129Y-4482401D01*
X39515461Y-4458459D01*
X39517845Y-4414920D01*
X39500835Y-4409584D01*
X39458759Y-4443019D01*
X39455355Y-4462501D01*
X39440009Y-4489139D01*
X39423605Y-4473084D01*
X39358299Y-4433303D01*
X39315597Y-4424401D01*
X39261923Y-4428655D01*
X39260665Y-4440024D01*
X39253121Y-4482914D01*
X39220765Y-4523870D01*
X39179874Y-4588986D01*
X39181138Y-4621739D01*
X39173784Y-4672983D01*
X39160360Y-4684324D01*
X39124573Y-4744256D01*
X39117336Y-4795581D01*
X39130649Y-4854989D01*
X39150598Y-4859691D01*
X39177664Y-4876566D01*
X39183860Y-4919044D01*
X39177676Y-4973003D01*
X39144737Y-4962155D01*
X39108265Y-4930541D01*
X39051873Y-4893723D01*
X39032670Y-4904462D01*
X39061196Y-4961899D01*
X39117336Y-5023418D01*
X39180524Y-5094204D01*
X39202003Y-5140502D01*
X39179386Y-5141108D01*
X39124322Y-5088221D01*
X39118196Y-5081024D01*
X39055313Y-5017036D01*
X39015326Y-5016727D01*
X38992163Y-5044584D01*
X38967179Y-5137805D01*
X38973055Y-5182376D01*
X38962984Y-5257979D01*
X38929755Y-5282155D01*
X38877643Y-5339876D01*
X38863336Y-5406448D01*
X38848627Y-5493173D01*
X38824951Y-5528978D01*
X38801654Y-5513604D01*
X38803184Y-5457393D01*
X38800509Y-5439483D01*
X38776547Y-5490734D01*
X38745845Y-5573751D01*
X38687679Y-5720169D01*
X38624278Y-5850758D01*
X38597005Y-5896348D01*
X38538335Y-6021261D01*
X38512813Y-6135640D01*
X38498723Y-6219782D01*
X38477350Y-6247798D01*
X38476189Y-6247203D01*
X38441015Y-6263676D01*
X38411830Y-6339255D01*
X38397882Y-6448443D01*
X38397670Y-6463715D01*
X38381542Y-6551977D01*
X38355336Y-6589751D01*
X38331900Y-6643438D01*
X38316526Y-6753833D01*
X38313003Y-6848748D01*
X38319839Y-6985112D01*
X38339073Y-7052109D01*
X38355516Y-7055307D01*
X38382382Y-7072298D01*
X38388411Y-7160222D01*
X38387266Y-7179723D01*
X38366598Y-7282373D01*
X38329247Y-7329747D01*
X38323586Y-7330499D01*
X38282969Y-7355699D01*
X37901460Y-7355699D01*
X37943172Y-7288296D01*
X37998073Y-7184960D01*
X38006312Y-7161251D01*
X38270670Y-7161251D01*
X38302884Y-7202354D01*
X38313003Y-7203584D01*
X38354106Y-7171370D01*
X38355336Y-7161251D01*
X38323122Y-7120147D01*
X38313003Y-7118918D01*
X38271900Y-7151132D01*
X38270670Y-7161251D01*
X38006312Y-7161251D01*
X38016670Y-7131442D01*
X38048915Y-7072071D01*
X38120436Y-7010546D01*
X38198122Y-6929907D01*
X38242360Y-6800099D01*
X38251386Y-6744987D01*
X38281287Y-6616737D01*
X38341399Y-6427317D01*
X38425540Y-6192004D01*
X38527530Y-5926072D01*
X38641187Y-5644800D01*
X38760332Y-5363464D01*
X38878784Y-5097340D01*
X38990361Y-4861705D01*
X39088884Y-4671835D01*
X39093487Y-4663584D01*
X39201449Y-4462374D01*
X39257135Y-4339029D01*
X39427781Y-4339029D01*
X39433592Y-4364196D01*
X39456003Y-4367251D01*
X39490848Y-4351762D01*
X39484225Y-4339029D01*
X39433985Y-4333962D01*
X39427781Y-4339029D01*
X39257135Y-4339029D01*
X39265150Y-4321275D01*
X39288411Y-4230710D01*
X39282016Y-4190937D01*
X39230949Y-4140145D01*
X39123900Y-4061440D01*
X38979101Y-3967666D01*
X38886313Y-3912192D01*
X38527412Y-3703926D01*
X38197958Y-3753190D01*
X37985225Y-3797567D01*
X37749753Y-3865646D01*
X37551655Y-3939025D01*
X37410193Y-3996420D01*
X37280945Y-4037945D01*
X37141798Y-4067968D01*
X36970636Y-4090856D01*
X36745347Y-4110976D01*
X36641488Y-4118765D01*
X36385306Y-4135513D01*
X36185081Y-4142296D01*
X36012567Y-4138004D01*
X35839519Y-4121527D01*
X35637690Y-4091754D01*
X35540169Y-4075464D01*
X35334702Y-4039645D01*
X35153474Y-4006497D01*
X35016425Y-3979769D01*
X34944424Y-3963481D01*
X34910807Y-3965471D01*
X34861023Y-3991171D01*
X34789104Y-4046174D01*
X34689084Y-4136074D01*
X34554996Y-4266461D01*
X34380876Y-4442929D01*
X34160755Y-4671070D01*
X33918391Y-4925193D01*
X33660008Y-5197269D01*
X33454025Y-5415448D01*
X33294493Y-5587184D01*
X33175467Y-5719934D01*
X33091000Y-5821154D01*
X33035144Y-5898297D01*
X33001952Y-5958821D01*
X32985479Y-6010180D01*
X32979776Y-6059830D01*
X32978974Y-6102918D01*
X32968538Y-6295486D01*
X32937108Y-6416908D01*
X32880379Y-6479042D01*
X32837674Y-6492122D01*
X32764215Y-6532101D01*
X32720507Y-6636648D01*
X32716886Y-6653251D01*
X32659851Y-6922087D01*
X32605619Y-7161147D01*
X32558389Y-7352612D01*
X32522362Y-7478661D01*
X32522332Y-7478751D01*
X32489086Y-7593120D01*
X32449918Y-7747634D01*
X32427577Y-7844573D01*
X32400139Y-7982803D01*
X32397500Y-8071337D01*
X31366480Y-8071337D01*
X31368031Y-8063037D01*
X31368381Y-8061641D01*
X31417945Y-7927704D01*
X31484849Y-7819870D01*
X31509886Y-7794697D01*
X31546439Y-7759243D01*
X31573092Y-7711822D01*
X31573154Y-7711584D01*
X31666669Y-7711584D01*
X31683847Y-7780383D01*
X31707674Y-7796251D01*
X31729709Y-7827770D01*
X31721646Y-7866696D01*
X31715681Y-7914479D01*
X31744142Y-7906531D01*
X31785881Y-7842662D01*
X31793669Y-7793753D01*
X31809895Y-7724395D01*
X31864224Y-7722799D01*
X31944328Y-7772061D01*
X31999804Y-7819554D01*
X31987015Y-7846278D01*
X31952419Y-7861257D01*
X31891493Y-7917771D01*
X31881678Y-7959530D01*
X31892335Y-7997422D01*
X31906372Y-7976168D01*
X31961773Y-7929551D01*
X32041302Y-7931967D01*
X32102241Y-7980488D01*
X32106512Y-7989880D01*
X32157372Y-8042338D01*
X32230535Y-8027414D01*
X32308960Y-7952697D01*
X32352416Y-7880364D01*
X32400377Y-7761182D01*
X32424485Y-7660020D01*
X32425136Y-7648084D01*
X32420516Y-7597521D01*
X32397640Y-7615297D01*
X32365169Y-7669251D01*
X32319414Y-7773442D01*
X32303169Y-7849168D01*
X32281512Y-7912031D01*
X32258529Y-7923251D01*
X32237613Y-7890223D01*
X32242623Y-7814891D01*
X32266390Y-7732880D01*
X32301746Y-7679817D01*
X32308218Y-7676307D01*
X32340939Y-7627643D01*
X32344003Y-7602223D01*
X32378372Y-7550416D01*
X32413041Y-7542251D01*
X32456552Y-7526548D01*
X32466557Y-7465421D01*
X32456575Y-7383501D01*
X32447599Y-7295899D01*
X32455850Y-7267792D01*
X32462608Y-7275226D01*
X32494442Y-7277720D01*
X32532285Y-7202585D01*
X32539758Y-7179976D01*
X32566690Y-7071575D01*
X32557096Y-7037422D01*
X32511648Y-7078792D01*
X32496836Y-7098246D01*
X32463985Y-7128037D01*
X32448910Y-7089671D01*
X32445149Y-7031205D01*
X32449862Y-6951860D01*
X32470909Y-6949910D01*
X32474598Y-6955401D01*
X32519624Y-6988462D01*
X32538233Y-6981131D01*
X32539528Y-6929488D01*
X32514185Y-6887107D01*
X32487196Y-6834207D01*
X32505048Y-6822584D01*
X32557882Y-6789061D01*
X32567656Y-6769668D01*
X32577761Y-6757389D01*
X32574723Y-6790834D01*
X32583043Y-6853143D01*
X32601966Y-6864918D01*
X32631858Y-6830372D01*
X32639747Y-6750959D01*
X32627605Y-6663014D01*
X32597401Y-6602870D01*
X32587419Y-6596502D01*
X32558342Y-6568256D01*
X32592756Y-6534260D01*
X32626966Y-6477255D01*
X32651585Y-6379537D01*
X32663372Y-6271426D01*
X32659089Y-6183239D01*
X32635493Y-6145297D01*
X32634331Y-6145251D01*
X32599363Y-6112550D01*
X32598003Y-6100419D01*
X32624738Y-6077005D01*
X32646877Y-6085793D01*
X32675984Y-6090756D01*
X32666688Y-6068974D01*
X32612952Y-6040005D01*
X32553489Y-6060375D01*
X32531940Y-6114677D01*
X32532284Y-6116428D01*
X32557678Y-6197228D01*
X32574436Y-6239104D01*
X32590840Y-6328693D01*
X32584171Y-6366104D01*
X32566697Y-6374478D01*
X32559011Y-6325168D01*
X32538716Y-6250769D01*
X32508807Y-6229918D01*
X32480501Y-6199124D01*
X32486311Y-6166418D01*
X32496272Y-6112838D01*
X32456908Y-6111790D01*
X32383553Y-6146740D01*
X32316158Y-6168940D01*
X32301669Y-6146740D01*
X32334853Y-6105651D01*
X32352469Y-6102918D01*
X32380732Y-6089417D01*
X32350706Y-6050355D01*
X32298676Y-6020396D01*
X32262306Y-6055778D01*
X32206953Y-6091092D01*
X32178353Y-6084028D01*
X32140331Y-6076731D01*
X32139235Y-6089188D01*
X32139865Y-6172153D01*
X32118812Y-6287095D01*
X32084964Y-6401047D01*
X32047209Y-6481041D01*
X32028933Y-6498294D01*
X31995871Y-6490669D01*
X31987662Y-6423203D01*
X31994645Y-6337793D01*
X31997719Y-6208563D01*
X31975328Y-6133660D01*
X31967886Y-6127103D01*
X31923286Y-6131752D01*
X31916449Y-6153336D01*
X31903279Y-6161072D01*
X31878336Y-6102918D01*
X31844442Y-5997084D01*
X31840222Y-6105034D01*
X31820226Y-6205308D01*
X31790600Y-6258387D01*
X31770107Y-6317412D01*
X31750365Y-6441288D01*
X31733977Y-6610220D01*
X31725490Y-6753687D01*
X31717529Y-6952894D01*
X31716137Y-7082485D01*
X31723643Y-7157404D01*
X31742375Y-7192596D01*
X31774662Y-7203004D01*
X31795587Y-7203584D01*
X31860360Y-7223055D01*
X31862564Y-7265723D01*
X31810173Y-7307971D01*
X31755120Y-7323402D01*
X31689484Y-7339765D01*
X31696063Y-7375409D01*
X31728513Y-7413421D01*
X31773749Y-7472722D01*
X31756662Y-7503388D01*
X31722600Y-7518131D01*
X31673005Y-7547052D01*
X31701501Y-7580598D01*
X31710189Y-7586213D01*
X31744097Y-7619118D01*
X31719586Y-7626269D01*
X31676617Y-7662196D01*
X31666669Y-7711584D01*
X31573154Y-7711584D01*
X31592299Y-7638166D01*
X31606513Y-7524010D01*
X31618191Y-7355086D01*
X31629785Y-7117128D01*
X31630945Y-7091004D01*
X31642779Y-6861578D01*
X31656511Y-6656190D01*
X31670716Y-6492650D01*
X31683972Y-6388765D01*
X31688709Y-6367847D01*
X31692874Y-6288511D01*
X31642722Y-6206287D01*
X31586976Y-6149897D01*
X31455255Y-6026851D01*
X31460270Y-5933584D01*
X31836003Y-5933584D01*
X31851492Y-5968429D01*
X31864225Y-5961807D01*
X31865541Y-5948757D01*
X32135678Y-5948757D01*
X32151197Y-6004805D01*
X32218406Y-6005723D01*
X32227938Y-6003435D01*
X32330473Y-6000392D01*
X32386688Y-6019364D01*
X32447182Y-6054360D01*
X32475733Y-6042356D01*
X32496458Y-6007668D01*
X32506115Y-5977019D01*
X32493395Y-5985006D01*
X32437911Y-5986529D01*
X32371355Y-5953256D01*
X32283851Y-5903013D01*
X32233622Y-5894979D01*
X32236939Y-5931556D01*
X32238169Y-5933584D01*
X32236824Y-5972682D01*
X32223029Y-5975918D01*
X32171371Y-5942790D01*
X32160372Y-5923001D01*
X32142046Y-5911105D01*
X32135678Y-5948757D01*
X31865541Y-5948757D01*
X31869291Y-5911567D01*
X31864225Y-5905362D01*
X31839058Y-5911173D01*
X31836003Y-5933584D01*
X31460270Y-5933584D01*
X31463684Y-5870084D01*
X31963003Y-5870084D01*
X31984169Y-5891251D01*
X32005336Y-5870084D01*
X31984169Y-5848918D01*
X31963003Y-5870084D01*
X31463684Y-5870084D01*
X31477476Y-5613586D01*
X31963003Y-5613586D01*
X31981282Y-5699453D01*
X32024761Y-5720558D01*
X32068836Y-5679584D01*
X32124915Y-5638831D01*
X32137333Y-5637251D01*
X32159806Y-5663554D01*
X32152454Y-5681281D01*
X32163586Y-5707426D01*
X32245205Y-5699024D01*
X32320040Y-5687042D01*
X32321184Y-5702666D01*
X32301669Y-5717845D01*
X32264355Y-5754347D01*
X32294110Y-5763603D01*
X32339029Y-5747089D01*
X32447269Y-5747089D01*
X32471003Y-5785418D01*
X32521096Y-5837991D01*
X32538357Y-5848918D01*
X32538778Y-5816871D01*
X32528645Y-5785418D01*
X32484231Y-5729332D01*
X32461290Y-5721918D01*
X32447269Y-5747089D01*
X32339029Y-5747089D01*
X32367864Y-5736488D01*
X32413550Y-5700751D01*
X32453511Y-5651506D01*
X32424463Y-5635505D01*
X32399943Y-5633909D01*
X32357279Y-5623438D01*
X32377493Y-5608634D01*
X32399139Y-5575749D01*
X32349623Y-5515269D01*
X32340279Y-5507022D01*
X32260601Y-5457845D01*
X32204997Y-5454171D01*
X32182178Y-5453808D01*
X32193577Y-5429239D01*
X32254349Y-5397663D01*
X32294078Y-5403769D01*
X32335644Y-5410761D01*
X32328616Y-5396072D01*
X32263360Y-5368902D01*
X32190504Y-5360092D01*
X32114541Y-5383647D01*
X32095452Y-5441575D01*
X32129912Y-5508710D01*
X32214596Y-5559888D01*
X32217003Y-5560646D01*
X32286404Y-5583196D01*
X32276904Y-5586964D01*
X32205352Y-5578631D01*
X32091126Y-5592045D01*
X32043405Y-5632334D01*
X32011297Y-5677155D01*
X32015366Y-5648099D01*
X32021457Y-5628023D01*
X32021382Y-5554354D01*
X32004336Y-5531418D01*
X32047669Y-5531418D01*
X32068836Y-5552584D01*
X32090003Y-5531418D01*
X32068836Y-5510251D01*
X32047669Y-5531418D01*
X32004336Y-5531418D01*
X32003487Y-5530275D01*
X31973862Y-5546655D01*
X31963003Y-5613586D01*
X31477476Y-5613586D01*
X31482291Y-5524042D01*
X31492514Y-5299951D01*
X31493967Y-5141434D01*
X31485274Y-5029723D01*
X31465058Y-4946048D01*
X31434837Y-4877186D01*
X31351576Y-4695678D01*
X31300773Y-4567615D01*
X31390705Y-4567615D01*
X31397360Y-4600084D01*
X31427408Y-4655785D01*
X31438365Y-4663584D01*
X31453164Y-4629016D01*
X31455003Y-4600084D01*
X31453616Y-4596557D01*
X31500678Y-4596557D01*
X31508461Y-4651464D01*
X31522912Y-4652119D01*
X31533018Y-4595461D01*
X31526254Y-4570980D01*
X31507457Y-4554945D01*
X31500678Y-4596557D01*
X31453616Y-4596557D01*
X31432848Y-4543738D01*
X31413998Y-4536584D01*
X31390705Y-4567615D01*
X31300773Y-4567615D01*
X31251889Y-4444391D01*
X31139851Y-4135694D01*
X31019538Y-3781955D01*
X30895026Y-3395543D01*
X30770392Y-2988827D01*
X30649712Y-2574172D01*
X30537062Y-2163950D01*
X30522585Y-2109178D01*
X30513438Y-2074398D01*
X30571771Y-2074398D01*
X30578442Y-2107802D01*
X30605529Y-2104584D01*
X30608336Y-2085282D01*
X30635868Y-2014618D01*
X30671836Y-1969370D01*
X30723342Y-1937366D01*
X30734261Y-1962976D01*
X30697761Y-2019867D01*
X30658426Y-2082189D01*
X30630219Y-2158857D01*
X30620893Y-2220289D01*
X30638201Y-2236903D01*
X30641321Y-2235195D01*
X30683438Y-2247796D01*
X30705408Y-2293452D01*
X30708239Y-2350580D01*
X30689539Y-2354277D01*
X30669274Y-2364357D01*
X30676850Y-2396552D01*
X30716337Y-2453870D01*
X30736172Y-2462251D01*
X30754245Y-2498350D01*
X30750832Y-2585577D01*
X30750268Y-2589251D01*
X30747566Y-2677652D01*
X30768635Y-2716192D01*
X30769836Y-2716251D01*
X30799115Y-2752635D01*
X30809419Y-2826898D01*
X30824450Y-2919717D01*
X30852894Y-2964482D01*
X30884315Y-3019238D01*
X30914729Y-3127647D01*
X30926570Y-3193022D01*
X30951007Y-3315505D01*
X30978912Y-3398555D01*
X30991775Y-3416258D01*
X31018661Y-3467870D01*
X31045720Y-3572894D01*
X31055197Y-3627404D01*
X31079344Y-3740457D01*
X31107710Y-3808246D01*
X31119814Y-3816918D01*
X31137840Y-3848611D01*
X31128980Y-3887362D01*
X31121792Y-3934866D01*
X31158669Y-3922751D01*
X31198097Y-3912688D01*
X31191739Y-3949330D01*
X31195728Y-4029672D01*
X31225522Y-4089511D01*
X31262366Y-4164462D01*
X31261416Y-4202911D01*
X31264441Y-4260539D01*
X31300517Y-4354743D01*
X31306193Y-4366008D01*
X31384576Y-4466208D01*
X31477256Y-4494251D01*
X31556490Y-4512521D01*
X31582651Y-4547168D01*
X31597286Y-4569205D01*
X31624336Y-4536584D01*
X31657333Y-4504294D01*
X31666771Y-4531733D01*
X31652759Y-4597341D01*
X31623690Y-4664791D01*
X31558999Y-4722556D01*
X31507273Y-4717582D01*
X31458336Y-4706031D01*
X31476068Y-4741845D01*
X31486385Y-4754803D01*
X31516011Y-4822924D01*
X31507552Y-4854183D01*
X31505290Y-4870278D01*
X31523799Y-4861640D01*
X31565160Y-4880431D01*
X31609132Y-4973785D01*
X31623681Y-5021080D01*
X31671252Y-5146647D01*
X31720386Y-5188377D01*
X31732230Y-5186102D01*
X31811227Y-5188931D01*
X31865181Y-5212397D01*
X31909839Y-5244312D01*
X31882903Y-5245449D01*
X31836003Y-5234914D01*
X31763097Y-5220032D01*
X31766510Y-5237124D01*
X31814554Y-5276842D01*
X31879644Y-5320404D01*
X31914436Y-5304486D01*
X31932789Y-5268451D01*
X31995702Y-5193206D01*
X32070706Y-5143793D01*
X32142135Y-5116314D01*
X32152596Y-5133252D01*
X32147344Y-5143793D01*
X32138572Y-5171047D01*
X32173237Y-5143523D01*
X32200020Y-5086892D01*
X32197589Y-5073787D01*
X32368489Y-5073787D01*
X32394957Y-5137682D01*
X32410536Y-5165320D01*
X32479086Y-5261830D01*
X32530864Y-5298550D01*
X32555072Y-5268715D01*
X32555669Y-5256251D01*
X32523125Y-5215544D01*
X32510837Y-5213918D01*
X32485554Y-5187983D01*
X32492169Y-5171584D01*
X32484649Y-5132665D01*
X32462918Y-5127556D01*
X32456349Y-5109989D01*
X32512603Y-5069103D01*
X32526232Y-5061492D01*
X32623379Y-4986446D01*
X32682298Y-4904437D01*
X32719636Y-4811751D01*
X32722319Y-4904601D01*
X32691837Y-4999143D01*
X32636289Y-5059588D01*
X32571983Y-5135740D01*
X32575837Y-5210769D01*
X32614126Y-5269892D01*
X32647903Y-5272741D01*
X32666387Y-5235442D01*
X32645753Y-5217266D01*
X32639531Y-5192751D01*
X32682669Y-5192751D01*
X32703836Y-5213918D01*
X32725003Y-5192751D01*
X32703836Y-5171584D01*
X32682669Y-5192751D01*
X32639531Y-5192751D01*
X32634333Y-5172271D01*
X32678380Y-5121579D01*
X32727144Y-5085523D01*
X32748170Y-5099225D01*
X32750358Y-5176986D01*
X32747759Y-5233017D01*
X32735814Y-5355137D01*
X32717205Y-5442227D01*
X32710856Y-5456559D01*
X32715521Y-5503972D01*
X32775979Y-5532629D01*
X32863674Y-5531124D01*
X32883753Y-5525624D01*
X32902349Y-5529788D01*
X32858658Y-5569760D01*
X32832557Y-5588646D01*
X32745123Y-5640540D01*
X32690150Y-5656543D01*
X32685616Y-5654309D01*
X32695396Y-5617527D01*
X32719195Y-5598507D01*
X32748500Y-5564695D01*
X32705560Y-5537937D01*
X32660099Y-5500240D01*
X32680194Y-5430214D01*
X32680844Y-5428995D01*
X32720654Y-5338160D01*
X32710464Y-5310767D01*
X32661503Y-5340918D01*
X32610284Y-5371728D01*
X32594769Y-5337279D01*
X32594661Y-5335518D01*
X32585364Y-5302394D01*
X32569879Y-5330598D01*
X32522018Y-5364579D01*
X32499137Y-5359209D01*
X32487149Y-5361282D01*
X32523261Y-5394881D01*
X32570512Y-5451789D01*
X32570119Y-5481690D01*
X32579330Y-5515970D01*
X32612867Y-5534857D01*
X32661302Y-5573282D01*
X32660722Y-5596181D01*
X32659461Y-5663573D01*
X32696884Y-5750811D01*
X32752261Y-5819047D01*
X32788047Y-5834807D01*
X32825893Y-5805071D01*
X32822364Y-5778605D01*
X32776328Y-5741974D01*
X32752317Y-5747001D01*
X32746834Y-5741472D01*
X32751767Y-5736921D01*
X32882385Y-5736921D01*
X32884028Y-5799047D01*
X32914637Y-5831667D01*
X32941796Y-5824583D01*
X32961229Y-5774025D01*
X32955380Y-5760277D01*
X32954352Y-5726443D01*
X32965273Y-5725882D01*
X33035870Y-5727630D01*
X33063669Y-5725644D01*
X33098886Y-5712715D01*
X33059536Y-5680066D01*
X33050869Y-5674953D01*
X32962745Y-5654335D01*
X32915802Y-5679335D01*
X32882385Y-5736921D01*
X32751767Y-5736921D01*
X32796075Y-5696049D01*
X32809669Y-5684760D01*
X32950334Y-5616573D01*
X33052598Y-5614334D01*
X33165910Y-5610846D01*
X33221784Y-5573939D01*
X33208439Y-5513549D01*
X33192939Y-5495979D01*
X33160953Y-5474649D01*
X33170402Y-5521961D01*
X33173739Y-5531418D01*
X33184656Y-5585317D01*
X33169800Y-5584943D01*
X33142861Y-5525423D01*
X33127861Y-5428534D01*
X33126526Y-5328862D01*
X33140582Y-5260992D01*
X33153087Y-5249901D01*
X33251585Y-5243884D01*
X33293527Y-5279142D01*
X33301133Y-5326721D01*
X33286400Y-5394067D01*
X33247135Y-5395861D01*
X33211178Y-5362091D01*
X33237106Y-5314807D01*
X33260443Y-5265420D01*
X33242715Y-5256251D01*
X33188177Y-5287087D01*
X33179531Y-5357386D01*
X33219406Y-5433834D01*
X33228046Y-5442265D01*
X33278819Y-5477926D01*
X33326923Y-5470251D01*
X33396797Y-5410837D01*
X33436369Y-5370647D01*
X33513675Y-5286350D01*
X33534446Y-5245191D01*
X33504015Y-5232507D01*
X33486742Y-5232061D01*
X33421573Y-5256671D01*
X33413147Y-5292681D01*
X33398426Y-5355832D01*
X33381169Y-5368276D01*
X33349324Y-5344460D01*
X33338836Y-5280945D01*
X33344649Y-5211161D01*
X33455048Y-5211161D01*
X33460839Y-5213918D01*
X33499472Y-5184116D01*
X33508169Y-5171584D01*
X33518957Y-5132007D01*
X33513166Y-5129251D01*
X33474533Y-5159053D01*
X33465836Y-5171584D01*
X33455048Y-5211161D01*
X33344649Y-5211161D01*
X33344750Y-5209944D01*
X33356107Y-5195911D01*
X33397112Y-5189997D01*
X33447932Y-5147002D01*
X33471717Y-5100494D01*
X33469412Y-5092704D01*
X33491926Y-5072434D01*
X33555013Y-5065751D01*
X33629638Y-5081878D01*
X33635447Y-5129251D01*
X33645011Y-5142727D01*
X33695196Y-5100191D01*
X33720250Y-5073271D01*
X33785088Y-4979374D01*
X33797672Y-4910247D01*
X33794576Y-4903937D01*
X33765288Y-4893457D01*
X33748694Y-4949334D01*
X33722247Y-5023779D01*
X33693226Y-5044584D01*
X33670692Y-5018475D01*
X33677503Y-5002251D01*
X33688899Y-4962652D01*
X33683463Y-4959918D01*
X33631699Y-4946820D01*
X33585715Y-4930825D01*
X33533525Y-4916852D01*
X33546555Y-4948210D01*
X33566269Y-4973158D01*
X33595629Y-5028386D01*
X33582036Y-5044584D01*
X33510426Y-5013557D01*
X33483366Y-4945886D01*
X33510177Y-4886256D01*
X33570957Y-4859031D01*
X33593096Y-4875672D01*
X33649263Y-4916099D01*
X33661333Y-4917584D01*
X33682498Y-4890717D01*
X33673460Y-4868710D01*
X33668493Y-4839515D01*
X33689203Y-4848234D01*
X33748049Y-4847899D01*
X33761742Y-4833608D01*
X33817688Y-4792326D01*
X33830666Y-4790584D01*
X33853618Y-4816667D01*
X33846836Y-4832918D01*
X33832569Y-4873590D01*
X33873274Y-4857143D01*
X33964112Y-4786387D01*
X34036441Y-4722857D01*
X34133719Y-4628052D01*
X34174461Y-4563041D01*
X34169742Y-4506653D01*
X34160133Y-4486398D01*
X34131169Y-4406710D01*
X34148295Y-4382157D01*
X34201952Y-4425109D01*
X34204841Y-4428548D01*
X34259110Y-4468416D01*
X34306672Y-4440154D01*
X34395152Y-4328097D01*
X34458532Y-4212718D01*
X34482705Y-4121703D01*
X34479432Y-4101085D01*
X34490150Y-4030443D01*
X34529173Y-3982450D01*
X34577751Y-3946543D01*
X34575502Y-3969753D01*
X34550777Y-4018001D01*
X34524868Y-4093124D01*
X34554523Y-4108417D01*
X34633791Y-4062225D01*
X34653662Y-4046612D01*
X34696575Y-4006832D01*
X34682919Y-4006777D01*
X34635958Y-4007683D01*
X34630003Y-3991248D01*
X34663136Y-3933286D01*
X34732816Y-3887743D01*
X34764058Y-3881066D01*
X34817303Y-3854866D01*
X34824030Y-3848668D01*
X34829764Y-3821301D01*
X34781099Y-3820600D01*
X34703316Y-3844589D01*
X34669553Y-3860740D01*
X34602158Y-3882940D01*
X34587670Y-3860740D01*
X34551450Y-3827801D01*
X34481836Y-3816918D01*
X34402278Y-3802426D01*
X34376003Y-3774584D01*
X34411393Y-3739987D01*
X34459180Y-3732251D01*
X34546476Y-3695507D01*
X34567551Y-3664102D01*
X34644114Y-3664102D01*
X34672822Y-3704833D01*
X34707503Y-3699854D01*
X34749084Y-3696873D01*
X34736888Y-3730549D01*
X34728886Y-3770110D01*
X34757994Y-3767198D01*
X34812138Y-3714084D01*
X34823230Y-3679839D01*
X34802064Y-3600798D01*
X34752846Y-3537989D01*
X34694233Y-3499741D01*
X34672336Y-3511920D01*
X34704311Y-3570413D01*
X34746419Y-3605169D01*
X34792986Y-3637761D01*
X34764396Y-3636179D01*
X34732308Y-3627826D01*
X34659091Y-3628643D01*
X34644114Y-3664102D01*
X34567551Y-3664102D01*
X34605571Y-3607446D01*
X34615610Y-3517678D01*
X34575775Y-3413409D01*
X34491522Y-3378884D01*
X34431113Y-3384827D01*
X34355522Y-3403115D01*
X34356793Y-3421286D01*
X34398352Y-3439674D01*
X34444650Y-3465709D01*
X34418336Y-3474627D01*
X34329753Y-3453356D01*
X34291336Y-3432047D01*
X34251842Y-3390893D01*
X34283722Y-3364677D01*
X34307246Y-3334359D01*
X34256430Y-3283993D01*
X34251264Y-3280337D01*
X34194810Y-3218548D01*
X34191335Y-3172480D01*
X34193135Y-3146328D01*
X34174492Y-3154474D01*
X34124004Y-3158074D01*
X34115035Y-3146350D01*
X34082973Y-3152258D01*
X34019942Y-3210687D01*
X33995003Y-3239739D01*
X33940436Y-3312691D01*
X33928692Y-3342622D01*
X33937650Y-3339313D01*
X33990839Y-3345306D01*
X34011612Y-3375806D01*
X34037997Y-3419845D01*
X34078608Y-3399787D01*
X34103738Y-3375563D01*
X34178008Y-3322324D01*
X34220276Y-3310205D01*
X34229842Y-3327689D01*
X34189771Y-3358176D01*
X34137660Y-3395217D01*
X34147378Y-3430001D01*
X34206442Y-3478080D01*
X34268114Y-3553024D01*
X34262542Y-3617121D01*
X34192913Y-3647317D01*
X34183004Y-3647584D01*
X34134551Y-3610872D01*
X34122003Y-3544182D01*
X34106879Y-3468348D01*
X34049289Y-3455105D01*
X34036205Y-3457302D01*
X33978432Y-3454996D01*
X33975203Y-3433705D01*
X33969686Y-3396311D01*
X33955168Y-3393584D01*
X33870964Y-3409476D01*
X33857419Y-3446501D01*
X33835816Y-3469201D01*
X33815086Y-3467668D01*
X33774269Y-3489040D01*
X33773801Y-3513148D01*
X33760930Y-3548280D01*
X33741752Y-3542214D01*
X33696896Y-3550186D01*
X33664909Y-3603980D01*
X33664635Y-3664959D01*
X33674574Y-3679934D01*
X33717253Y-3675347D01*
X33743423Y-3646358D01*
X33771188Y-3616078D01*
X33772667Y-3661078D01*
X33770434Y-3678243D01*
X33745005Y-3767692D01*
X33721195Y-3805243D01*
X33702928Y-3809799D01*
X33710310Y-3793641D01*
X33698936Y-3740468D01*
X33649898Y-3695721D01*
X33588496Y-3664587D01*
X33578835Y-3695350D01*
X33588745Y-3740165D01*
X33598871Y-3794931D01*
X33588917Y-3785168D01*
X33540907Y-3736272D01*
X33523310Y-3732251D01*
X33502991Y-3760085D01*
X33512458Y-3785168D01*
X33523776Y-3817591D01*
X33512919Y-3811352D01*
X33464385Y-3817580D01*
X33387938Y-3869276D01*
X33383784Y-3872930D01*
X33318394Y-3958355D01*
X33312085Y-4030995D01*
X33364648Y-4069252D01*
X33385698Y-4070918D01*
X33442244Y-4084469D01*
X33433638Y-4112593D01*
X33372545Y-4136493D01*
X33338806Y-4140523D01*
X33259441Y-4131362D01*
X33233003Y-4106274D01*
X33259975Y-4086897D01*
X33281877Y-4096127D01*
X33310798Y-4101174D01*
X33300117Y-4076767D01*
X33254012Y-4067992D01*
X33167178Y-4129137D01*
X33128514Y-4165476D01*
X33042194Y-4262349D01*
X33018584Y-4327310D01*
X33032280Y-4358462D01*
X33051829Y-4425993D01*
X33025500Y-4464295D01*
X32990292Y-4490347D01*
X33000300Y-4446279D01*
X33000937Y-4444599D01*
X32994665Y-4393684D01*
X32942882Y-4383367D01*
X32876143Y-4417068D01*
X32863811Y-4429257D01*
X32862961Y-4443986D01*
X32890293Y-4430997D01*
X32929311Y-4418901D01*
X32919118Y-4446067D01*
X32869647Y-4477656D01*
X32851201Y-4472589D01*
X32805198Y-4485925D01*
X32769737Y-4532098D01*
X32702335Y-4630989D01*
X32653171Y-4687035D01*
X32606216Y-4738574D01*
X32626590Y-4743918D01*
X32674060Y-4729817D01*
X32750566Y-4723020D01*
X32767336Y-4750333D01*
X32732015Y-4783022D01*
X32662411Y-4780397D01*
X32567914Y-4787013D01*
X32490904Y-4860310D01*
X32483793Y-4870712D01*
X32435114Y-4965982D01*
X32422216Y-5038249D01*
X32410248Y-5073640D01*
X32383073Y-5063735D01*
X32368489Y-5073787D01*
X32197589Y-5073787D01*
X32189695Y-5031231D01*
X32152045Y-5013279D01*
X32139994Y-5018685D01*
X32124656Y-4991946D01*
X32115716Y-4904361D01*
X32112799Y-4779480D01*
X32115532Y-4640852D01*
X32123541Y-4512026D01*
X32136452Y-4416553D01*
X32150136Y-4379941D01*
X32170730Y-4380683D01*
X32165019Y-4409584D01*
X32164858Y-4499761D01*
X32180396Y-4544396D01*
X32194109Y-4642764D01*
X32175723Y-4724313D01*
X32151815Y-4812324D01*
X32165246Y-4827728D01*
X32203534Y-4766375D01*
X32215887Y-4737668D01*
X32243236Y-4675672D01*
X32250692Y-4690260D01*
X32247875Y-4755782D01*
X32232805Y-4831339D01*
X32208022Y-4848534D01*
X32182521Y-4867270D01*
X32174669Y-4924475D01*
X32179676Y-4977184D01*
X32202760Y-4971984D01*
X32256014Y-4902862D01*
X32276033Y-4874056D01*
X32330442Y-4781636D01*
X32347683Y-4722596D01*
X32341911Y-4713766D01*
X32324111Y-4669831D01*
X32332408Y-4632738D01*
X32336896Y-4587244D01*
X32308863Y-4595638D01*
X32264240Y-4611753D01*
X32259336Y-4606045D01*
X32246238Y-4554281D01*
X32230243Y-4508297D01*
X32215553Y-4456311D01*
X32243743Y-4466216D01*
X32279507Y-4494251D01*
X32331619Y-4533187D01*
X32333416Y-4515997D01*
X32299718Y-4451918D01*
X32260338Y-4356584D01*
X32252310Y-4293168D01*
X32228453Y-4247147D01*
X32197692Y-4240251D01*
X32140236Y-4266174D01*
X32132336Y-4289640D01*
X32115285Y-4318040D01*
X32104373Y-4311066D01*
X32108700Y-4263581D01*
X32154916Y-4196355D01*
X32207234Y-4135475D01*
X32201267Y-4122778D01*
X32151129Y-4138826D01*
X32096415Y-4152376D01*
X32110884Y-4123029D01*
X32121753Y-4111015D01*
X32166748Y-4044635D01*
X32168674Y-4003600D01*
X32126594Y-4010970D01*
X32125795Y-4011460D01*
X32096763Y-4016432D01*
X32106586Y-3993667D01*
X32114719Y-3913437D01*
X32068965Y-3835623D01*
X31993833Y-3794626D01*
X31965273Y-3795314D01*
X31905676Y-3790514D01*
X31906474Y-3750517D01*
X31903020Y-3697944D01*
X31882865Y-3689918D01*
X31838685Y-3722876D01*
X31836003Y-3739307D01*
X31818541Y-3767258D01*
X31807283Y-3759976D01*
X31790173Y-3704801D01*
X31786961Y-3678615D01*
X31941039Y-3678615D01*
X31947694Y-3711084D01*
X31977741Y-3766785D01*
X31988698Y-3774584D01*
X32003497Y-3740016D01*
X32005336Y-3711084D01*
X31983181Y-3654738D01*
X31964331Y-3647584D01*
X31941039Y-3678615D01*
X31786961Y-3678615D01*
X31781631Y-3635174D01*
X31810597Y-3635174D01*
X31825636Y-3647584D01*
X31885431Y-3618399D01*
X31920669Y-3584084D01*
X31946075Y-3532995D01*
X31931036Y-3520584D01*
X31871240Y-3549769D01*
X31836003Y-3584084D01*
X31810597Y-3635174D01*
X31781631Y-3635174D01*
X31776461Y-3593035D01*
X31770929Y-3495514D01*
X31771956Y-3371237D01*
X31783779Y-3311622D01*
X31798683Y-3316095D01*
X31816905Y-3401308D01*
X31809061Y-3452661D01*
X31798440Y-3506457D01*
X31830565Y-3489179D01*
X31844007Y-3476899D01*
X31873398Y-3434057D01*
X31870946Y-3373018D01*
X31833101Y-3271356D01*
X31799901Y-3198510D01*
X31707848Y-3038819D01*
X31619281Y-2958758D01*
X31601258Y-2952387D01*
X31515502Y-2906937D01*
X31482736Y-2864417D01*
X31582003Y-2864417D01*
X31604157Y-2920764D01*
X31623007Y-2927917D01*
X31646300Y-2896887D01*
X31639645Y-2864417D01*
X31609597Y-2808716D01*
X31598640Y-2800917D01*
X31583841Y-2835486D01*
X31582003Y-2864417D01*
X31482736Y-2864417D01*
X31481323Y-2862584D01*
X31478167Y-2818581D01*
X31497821Y-2822384D01*
X31526667Y-2806503D01*
X31534758Y-2729332D01*
X31526505Y-2664629D01*
X31512200Y-2678346D01*
X31510488Y-2684501D01*
X31480248Y-2752901D01*
X31452960Y-2747154D01*
X31438403Y-2677504D01*
X31439760Y-2610417D01*
X31438265Y-2568084D01*
X31455003Y-2568084D01*
X31476169Y-2589251D01*
X31497336Y-2568084D01*
X31476169Y-2546917D01*
X31455003Y-2568084D01*
X31438265Y-2568084D01*
X31435947Y-2502471D01*
X31393088Y-2457354D01*
X31326491Y-2454214D01*
X31307611Y-2420715D01*
X31305673Y-2398751D01*
X31370336Y-2398751D01*
X31391503Y-2419917D01*
X31412669Y-2398751D01*
X31391503Y-2377584D01*
X31370336Y-2398751D01*
X31305673Y-2398751D01*
X31303812Y-2377668D01*
X31322170Y-2325095D01*
X31347657Y-2326138D01*
X31357749Y-2315040D01*
X31325610Y-2252704D01*
X31316443Y-2238363D01*
X31271936Y-2160722D01*
X31263231Y-2124025D01*
X31265016Y-2123584D01*
X31266348Y-2092423D01*
X31241579Y-2035634D01*
X31186071Y-1975169D01*
X31141937Y-1967858D01*
X31100500Y-1951422D01*
X31092267Y-1897058D01*
X31065356Y-1818299D01*
X30999919Y-1792556D01*
X30939699Y-1772240D01*
X31141451Y-1772240D01*
X31146822Y-1862999D01*
X31171133Y-1910554D01*
X31177425Y-1911917D01*
X31184055Y-1874167D01*
X31185326Y-1850980D01*
X31293701Y-1850980D01*
X31297646Y-1886038D01*
X31329362Y-2020494D01*
X31383578Y-2184004D01*
X31448709Y-2346952D01*
X31513170Y-2479722D01*
X31554151Y-2541730D01*
X31613453Y-2637368D01*
X31644300Y-2716251D01*
X31673718Y-2794225D01*
X31732054Y-2929596D01*
X31811019Y-3103706D01*
X31902323Y-3297897D01*
X31907600Y-3308918D01*
X32027029Y-3558630D01*
X32115880Y-3747009D01*
X32180292Y-3889011D01*
X32226405Y-3999594D01*
X32260359Y-4093713D01*
X32288292Y-4186325D01*
X32316344Y-4292389D01*
X32324645Y-4324918D01*
X32370258Y-4503017D01*
X32400783Y-4614626D01*
X32422112Y-4675280D01*
X32440135Y-4700515D01*
X32460743Y-4705867D01*
X32469102Y-4705918D01*
X32510132Y-4676923D01*
X32600809Y-4595783D01*
X32731973Y-4471258D01*
X32894464Y-4312114D01*
X33079121Y-4127112D01*
X33158348Y-4046599D01*
X33353890Y-3844641D01*
X33533323Y-3654754D01*
X33686539Y-3487999D01*
X33803429Y-3355439D01*
X33873883Y-3268135D01*
X33885089Y-3251362D01*
X33965676Y-3115443D01*
X33836151Y-2841763D01*
X33754022Y-2650659D01*
X33671433Y-2430498D01*
X33616303Y-2261553D01*
X33565619Y-2101450D01*
X33522755Y-2005246D01*
X33476255Y-1954399D01*
X33414665Y-1930362D01*
X33411241Y-1929589D01*
X33319352Y-1907599D01*
X33171535Y-1870499D01*
X32993715Y-1824833D01*
X32915503Y-1804459D01*
X32679196Y-1745166D01*
X32429049Y-1686707D01*
X32182472Y-1632699D01*
X31956874Y-1586757D01*
X31769665Y-1552496D01*
X31638256Y-1533533D01*
X31598350Y-1530917D01*
X31504296Y-1559873D01*
X31401880Y-1630769D01*
X31389481Y-1642621D01*
X31311011Y-1745068D01*
X31293701Y-1850980D01*
X31185326Y-1850980D01*
X31189256Y-1779242D01*
X31190478Y-1732001D01*
X31190911Y-1626895D01*
X31184249Y-1599498D01*
X31166732Y-1642919D01*
X31157788Y-1672082D01*
X31141451Y-1772240D01*
X30939699Y-1772240D01*
X30918990Y-1765254D01*
X30915831Y-1727644D01*
X30987404Y-1694693D01*
X31021086Y-1688239D01*
X31080814Y-1676573D01*
X31064014Y-1669225D01*
X30978753Y-1664260D01*
X30866984Y-1670420D01*
X30822421Y-1704354D01*
X30820003Y-1721417D01*
X30789546Y-1777617D01*
X30763169Y-1784917D01*
X30710308Y-1817918D01*
X30649416Y-1897043D01*
X30597551Y-1992475D01*
X30571771Y-2074398D01*
X30513438Y-2074398D01*
X30461427Y-1876639D01*
X30523669Y-1876639D01*
X30532621Y-1941622D01*
X30543346Y-1954251D01*
X30576516Y-1922044D01*
X30604560Y-1876639D01*
X30623575Y-1814941D01*
X30584883Y-1799028D01*
X30533853Y-1833906D01*
X30523669Y-1876639D01*
X30461427Y-1876639D01*
X30424159Y-1734939D01*
X30196330Y-1566478D01*
X30592630Y-1566478D01*
X30596898Y-1618751D01*
X30622138Y-1690206D01*
X30646355Y-1681438D01*
X30656794Y-1657917D01*
X30735336Y-1657917D01*
X30750825Y-1692762D01*
X30763558Y-1686139D01*
X30768625Y-1635900D01*
X30763558Y-1629695D01*
X30738391Y-1635506D01*
X30735336Y-1657917D01*
X30656794Y-1657917D01*
X30664634Y-1640254D01*
X30657952Y-1594417D01*
X30904669Y-1594417D01*
X30925836Y-1615584D01*
X30947003Y-1594417D01*
X30925836Y-1573251D01*
X30904669Y-1594417D01*
X30657952Y-1594417D01*
X30655264Y-1575978D01*
X30631621Y-1558755D01*
X30592630Y-1566478D01*
X30196330Y-1566478D01*
X30103497Y-1497836D01*
X29932159Y-1364743D01*
X29760714Y-1220962D01*
X29619651Y-1092331D01*
X29589381Y-1062168D01*
X29456497Y-939333D01*
X29340349Y-869282D01*
X29211077Y-834112D01*
X29208381Y-833677D01*
X28909244Y-771581D01*
X28632460Y-687273D01*
X28406830Y-589771D01*
X28377032Y-573337D01*
X28238332Y-462533D01*
X28169454Y-323344D01*
X28167346Y-144936D01*
X28208660Y23993D01*
X28269031Y237220D01*
X28325844Y480518D01*
X28369577Y710944D01*
X28384832Y818583D01*
X28418630Y999674D01*
X28480968Y1230469D01*
X28565605Y1495061D01*
X28666296Y1777540D01*
X28776800Y2061999D01*
X28890875Y2332530D01*
X29002279Y2573224D01*
X29104768Y2768173D01*
X29192100Y2901470D01*
X29210655Y2923105D01*
X29272025Y2999628D01*
X29296003Y3049432D01*
X29319010Y3101060D01*
X29377793Y3194771D01*
X29423002Y3259468D01*
X29496151Y3370115D01*
X29542052Y3458150D01*
X29550002Y3487405D01*
X29583979Y3547257D01*
X29612372Y3563958D01*
X29662624Y3606551D01*
X29748362Y3702312D01*
X29855991Y3835416D01*
X29934538Y3938904D01*
X30179852Y4255599D01*
X30395941Y4502166D01*
X30578236Y4675074D01*
X35106883Y4675074D01*
X35124607Y4639047D01*
X35186064Y4563717D01*
X35231567Y4514214D01*
X35327493Y4412508D01*
X35456210Y4274787D01*
X35593174Y4127334D01*
X35622071Y4096094D01*
X35764945Y3942548D01*
X35938441Y3757630D01*
X36114598Y3571093D01*
X36195823Y3485583D01*
X36336324Y3337184D01*
X36516229Y3145883D01*
X36722227Y2925958D01*
X36941008Y2691688D01*
X37159261Y2457352D01*
X37363675Y2237228D01*
X37540940Y2045593D01*
X37677746Y1896727D01*
X37710932Y1860314D01*
X37807031Y1729242D01*
X37831052Y1628913D01*
X37829878Y1622916D01*
X37818374Y1548780D01*
X37801883Y1410376D01*
X37782646Y1227792D01*
X37763737Y1030249D01*
X37745183Y832159D01*
X37720028Y571314D01*
X37690381Y269178D01*
X37658354Y-52787D01*
X37626056Y-373117D01*
X37618085Y-451417D01*
X37590123Y-727922D01*
X37565681Y-974236D01*
X37545892Y-1178577D01*
X37531885Y-1329159D01*
X37524791Y-1414197D01*
X37524298Y-1428850D01*
X37565182Y-1420448D01*
X37677330Y-1394838D01*
X37849685Y-1354613D01*
X38071192Y-1302367D01*
X38330794Y-1240694D01*
X38567003Y-1184268D01*
X38885947Y-1107920D01*
X39209223Y-1030578D01*
X39517629Y-956832D01*
X39791963Y-891273D01*
X40013026Y-838492D01*
X40099615Y-817842D01*
X40595060Y-699764D01*
X41141871Y-1083591D01*
X41374071Y-1246827D01*
X41620675Y-1420618D01*
X41869261Y-1596166D01*
X42107405Y-1764673D01*
X42322683Y-1917342D01*
X42502671Y-2045375D01*
X42634946Y-2139975D01*
X42694503Y-2183058D01*
X42977015Y-2388922D01*
X43234211Y-2574392D01*
X43458380Y-2734044D01*
X43641813Y-2862456D01*
X43776800Y-2954205D01*
X43855629Y-3003870D01*
X43872106Y-3011280D01*
X43890706Y-2979660D01*
X43883917Y-2938501D01*
X43866285Y-2874931D01*
X43831369Y-2744067D01*
X43783040Y-2560595D01*
X43725167Y-2339201D01*
X43669138Y-2123584D01*
X43593388Y-1832002D01*
X43504060Y-1489300D01*
X43409185Y-1126222D01*
X43316795Y-773508D01*
X43251690Y-525624D01*
X43176532Y-237518D01*
X43121886Y-20121D01*
X43085861Y137509D01*
X43066568Y246312D01*
X43062117Y317230D01*
X43070618Y361203D01*
X43090182Y389172D01*
X43093199Y391986D01*
X43151358Y437618D01*
X43264281Y520699D01*
X43417116Y630485D01*
X43595016Y756235D01*
X43647003Y792637D01*
X43827398Y919251D01*
X43985211Y1031074D01*
X44106202Y1117938D01*
X44176132Y1169675D01*
X44184966Y1176776D01*
X44244023Y1215931D01*
X44260866Y1220749D01*
X44313469Y1245837D01*
X44405569Y1309711D01*
X44516068Y1395290D01*
X44623868Y1485490D01*
X44707871Y1563229D01*
X44746978Y1611426D01*
X44747670Y1614898D01*
X44735244Y1673619D01*
X44702110Y1791056D01*
X44654476Y1945652D01*
X44634366Y2008124D01*
X44521062Y2356041D01*
X43840616Y2619000D01*
X43546681Y2732639D01*
X43214073Y2861305D01*
X42878715Y2991097D01*
X42576533Y3108115D01*
X42504003Y3136215D01*
X42279376Y3225699D01*
X42079159Y3310035D01*
X41918318Y3382563D01*
X41811816Y3436625D01*
X41778315Y3459194D01*
X41737240Y3516594D01*
X41663743Y3636059D01*
X41565198Y3804920D01*
X41448980Y4010512D01*
X41322465Y4240169D01*
X41306938Y4268749D01*
X41172595Y4516155D01*
X41041890Y4756388D01*
X40924036Y4972551D01*
X40828244Y5147750D01*
X40764559Y5263582D01*
X40677733Y5421307D01*
X40569977Y5618169D01*
X40460620Y5818829D01*
X40428800Y5877416D01*
X40233565Y6237249D01*
X39961201Y6306713D01*
X39818993Y6338216D01*
X39710918Y6353308D01*
X39661398Y6349046D01*
X39634059Y6304376D01*
X39574746Y6196870D01*
X39490011Y6039088D01*
X39386405Y5843586D01*
X39270478Y5622926D01*
X39148782Y5389664D01*
X39027867Y5156360D01*
X38914284Y4935572D01*
X38814585Y4739859D01*
X38735320Y4581780D01*
X38683040Y4473894D01*
X38681181Y4469889D01*
X38616588Y4355110D01*
X38553467Y4282550D01*
X38523471Y4268805D01*
X38468402Y4273946D01*
X38338729Y4288632D01*
X38143839Y4311726D01*
X37893117Y4342087D01*
X37595951Y4378577D01*
X37261725Y4420056D01*
X36899827Y4465385D01*
X36790120Y4479204D01*
X36424342Y4524937D01*
X36085550Y4566527D01*
X35782763Y4602924D01*
X35525004Y4633077D01*
X35321294Y4655938D01*
X35180656Y4670455D01*
X35112110Y4675581D01*
X35106883Y4675074D01*
X30578236Y4675074D01*
X30589066Y4685347D01*
X30716808Y4781375D01*
X30840012Y4871059D01*
X30987663Y4989731D01*
X31096971Y5084319D01*
X31283027Y5230006D01*
X31532325Y5393037D01*
X31827600Y5564559D01*
X32151583Y5735717D01*
X32487006Y5897657D01*
X32816602Y6041525D01*
X33123103Y6158467D01*
X33306335Y6217171D01*
X33529166Y6281606D01*
X33757883Y6347821D01*
X33958981Y6406114D01*
X34052916Y6433387D01*
X34225478Y6476397D01*
X34446435Y6521463D01*
X34680000Y6561593D01*
X34793749Y6578082D01*
X35010008Y6607434D01*
X35222984Y6637071D01*
X35401404Y6662611D01*
X35476669Y6673810D01*
X35580603Y6682759D01*
X35755492Y6689955D01*
X35987636Y6695178D01*
X36263337Y6698206D01*
X36568896Y6698817D01*
X36890615Y6696789D01*
G37*
%TD.AperFunction*%
%TD*%
D11*
%TO.P,T1,*%
%TO.N,*%
X102000000Y11700000D03*
X102000000Y8700000D03*
%TD*%
D12*
%TO.P,B1,1*%
%TO.N,RST*%
X89000000Y6950000D03*
%TO.P,B1,2*%
%TO.N,GND*%
X89000000Y13450000D03*
%TD*%
D13*
%TO.P,S11,1*%
%TO.N,middle_top*%
X32725000Y55250000D03*
%TO.P,S11,2*%
%TO.N,col_middle*%
X44275000Y53050000D03*
%TD*%
D14*
%TO.P,D9,1*%
%TO.N,row_bottom*%
X32190000Y10300000D03*
D15*
X34350000Y10300000D03*
%TO.P,D9,2*%
%TO.N,middle_bottom*%
X37650000Y10300000D03*
D16*
X39810000Y10300000D03*
%TD*%
D13*
%TO.P,S17,1*%
%TO.N,inner_bottom*%
X68725000Y16150000D03*
%TO.P,S17,2*%
%TO.N,col_inner*%
X80275000Y13950000D03*
%TD*%
D14*
%TO.P,D10,1*%
%TO.N,row_home*%
X32190000Y27300000D03*
D15*
X34350000Y27300000D03*
%TO.P,D10,2*%
%TO.N,middle_home*%
X37650000Y27300000D03*
D16*
X39810000Y27300000D03*
%TD*%
D14*
%TO.P,D12,1*%
%TO.N,row_extra*%
X32190000Y61300000D03*
D15*
X34350000Y61300000D03*
%TO.P,D12,2*%
%TO.N,middle_extra*%
X37650000Y61300000D03*
D16*
X39810000Y61300000D03*
%TD*%
D13*
%TO.P,S3,1*%
%TO.N,pinky_top*%
X-3275000Y39950000D03*
%TO.P,S3,2*%
%TO.N,col_pinky*%
X8275000Y37750000D03*
%TD*%
D17*
%TO.P,D21,1*%
%TO.N,row_thumb*%
X59919023Y-13262498D03*
D18*
X62005422Y-13821550D03*
%TO.P,D21,2*%
%TO.N,near_thumb*%
X65192978Y-14675650D03*
D16*
X67279377Y-15234702D03*
%TD*%
D14*
%TO.P,D7,1*%
%TO.N,row_top*%
X14190000Y40900000D03*
D15*
X16350000Y40900000D03*
%TO.P,D7,2*%
%TO.N,ring_top*%
X19650000Y40900000D03*
D16*
X21810000Y40900000D03*
%TD*%
D13*
%TO.P,S9,1*%
%TO.N,middle_bottom*%
X32725000Y21250000D03*
%TO.P,S9,2*%
%TO.N,col_middle*%
X44275000Y19050000D03*
%TD*%
%TO.P,S1,1*%
%TO.N,pinky_bottom*%
X-3275000Y5950000D03*
%TO.P,S1,2*%
%TO.N,col_pinky*%
X8275000Y3750000D03*
%TD*%
%TO.P,S13,1*%
%TO.N,index_bottom*%
X50725000Y17850000D03*
%TO.P,S13,2*%
%TO.N,col_index*%
X62275000Y15650000D03*
%TD*%
%TO.P,S10,1*%
%TO.N,middle_home*%
X32725000Y38250000D03*
%TO.P,S10,2*%
%TO.N,col_middle*%
X44275000Y36050000D03*
%TD*%
D19*
%TO.P,S23,1*%
%TO.N,far_thumb*%
X101241011Y-22789240D03*
%TO.P,S23,2*%
%TO.N,col_inner*%
X107852459Y-32511958D03*
%TD*%
D13*
%TO.P,S18,1*%
%TO.N,inner_home*%
X68725000Y33150000D03*
%TO.P,S18,2*%
%TO.N,col_inner*%
X80275000Y30950000D03*
%TD*%
%TO.P,S4,1*%
%TO.N,pinky_extra*%
X-3275000Y56950000D03*
%TO.P,S4,2*%
%TO.N,col_pinky*%
X8275000Y54750000D03*
%TD*%
D20*
%TO.P,PAD2,1*%
%TO.N,GND*%
X95000000Y41200000D03*
%TD*%
D14*
%TO.P,D8,1*%
%TO.N,row_extra*%
X14190000Y57900000D03*
D15*
X16350000Y57900000D03*
%TO.P,D8,2*%
%TO.N,ring_extra*%
X19650000Y57900000D03*
D16*
X21810000Y57900000D03*
%TD*%
D13*
%TO.P,S12,1*%
%TO.N,middle_extra*%
X32725000Y72250000D03*
%TO.P,S12,2*%
%TO.N,col_middle*%
X44275000Y70050000D03*
%TD*%
%TO.P,S6,1*%
%TO.N,ring_home*%
X14725000Y34850000D03*
%TO.P,S6,2*%
%TO.N,col_ring*%
X26275000Y32650000D03*
%TD*%
D14*
%TO.P,D1,1*%
%TO.N,row_bottom*%
X-3810000Y-5000000D03*
D15*
X-1650000Y-5000000D03*
%TO.P,D1,2*%
%TO.N,pinky_bottom*%
X1650000Y-5000000D03*
D16*
X3810000Y-5000000D03*
%TD*%
D14*
%TO.P,D3,1*%
%TO.N,row_top*%
X-3810000Y29000000D03*
D15*
X-1650000Y29000000D03*
%TO.P,D3,2*%
%TO.N,pinky_top*%
X1650000Y29000000D03*
D16*
X3810000Y29000000D03*
%TD*%
D20*
%TO.P,PAD1,1*%
%TO.N,Bplus*%
X95000000Y38200000D03*
%TD*%
D14*
%TO.P,D4,1*%
%TO.N,row_extra*%
X-3810000Y46000000D03*
D15*
X-1650000Y46000000D03*
%TO.P,D4,2*%
%TO.N,pinky_extra*%
X1650000Y46000000D03*
D16*
X3810000Y46000000D03*
%TD*%
D14*
%TO.P,D16,1*%
%TO.N,row_extra*%
X50190000Y57900000D03*
D15*
X52350000Y57900000D03*
%TO.P,D16,2*%
%TO.N,index_extra*%
X55650000Y57900000D03*
D16*
X57810000Y57900000D03*
%TD*%
D13*
%TO.P,S5,1*%
%TO.N,ring_bottom*%
X14725000Y17850000D03*
%TO.P,S5,2*%
%TO.N,col_ring*%
X26275000Y15650000D03*
%TD*%
D21*
%TO.P,TRRS1,1*%
%TO.N,N/C*%
X92700000Y-2500000D03*
X92700000Y-4800000D03*
%TO.P,TRRS1,2*%
%TO.N,VCC*%
X93800000Y-200000D03*
X93800000Y-7100000D03*
%TO.P,TRRS1,3*%
%TO.N,GND*%
X97800000Y-200000D03*
X97800000Y-7100000D03*
%TO.P,TRRS1,4*%
%TO.N,P0*%
X100800000Y-200000D03*
X100800000Y-7100000D03*
%TD*%
D22*
%TO.P,S21,1*%
%TO.N,near_thumb*%
X63269866Y-2824109D03*
%TO.P,S21,2*%
%TO.N,col_middle*%
X73856908Y-7938506D03*
%TD*%
D13*
%TO.P,S7,1*%
%TO.N,ring_top*%
X14725000Y51850000D03*
%TO.P,S7,2*%
%TO.N,col_ring*%
X26275000Y49650000D03*
%TD*%
%TO.P,S14,1*%
%TO.N,index_home*%
X50725000Y34850000D03*
%TO.P,S14,2*%
%TO.N,col_index*%
X62275000Y32650000D03*
%TD*%
D23*
%TO.P,D23,1*%
%TO.N,row_thumb*%
X93119923Y-30153723D03*
D24*
X94647274Y-31681074D03*
%TO.P,D23,2*%
%TO.N,far_thumb*%
X96980726Y-34014526D03*
D16*
X98508077Y-35541877D03*
%TD*%
D25*
%TO.P,D22,1*%
%TO.N,row_thumb*%
X77631343Y-19522700D03*
D26*
X79501958Y-20602700D03*
%TO.P,D22,2*%
%TO.N,home_thumb*%
X82359842Y-22252700D03*
D16*
X84230457Y-23332700D03*
%TD*%
D14*
%TO.P,D20,1*%
%TO.N,row_extra*%
X68190000Y56200000D03*
D15*
X70350000Y56200000D03*
%TO.P,D20,2*%
%TO.N,inner_extra*%
X73650000Y56200000D03*
D16*
X75810000Y56200000D03*
%TD*%
D13*
%TO.P,S16,1*%
%TO.N,index_extra*%
X50725000Y68850000D03*
%TO.P,S16,2*%
%TO.N,col_index*%
X62275000Y66650000D03*
%TD*%
D14*
%TO.P,D6,1*%
%TO.N,row_home*%
X14190000Y23900000D03*
D15*
X16350000Y23900000D03*
%TO.P,D6,2*%
%TO.N,ring_home*%
X19650000Y23900000D03*
D16*
X21810000Y23900000D03*
%TD*%
D27*
%TO.P,T2,*%
%TO.N,*%
X103100000Y13900000D03*
X100900000Y13900000D03*
D11*
X102000000Y11700000D03*
X102000000Y8700000D03*
D27*
X103100000Y6500000D03*
X100900000Y6500000D03*
D28*
%TO.P,T2,1*%
%TO.N,Bplus*%
X99925000Y12450000D03*
%TO.P,T2,2*%
%TO.N,RAW*%
X99925000Y9450000D03*
%TO.P,T2,3*%
%TO.N,N/C*%
X99925000Y7950000D03*
%TD*%
D13*
%TO.P,S2,1*%
%TO.N,pinky_home*%
X-3275000Y22950000D03*
%TO.P,S2,2*%
%TO.N,col_pinky*%
X8275000Y20750000D03*
%TD*%
D14*
%TO.P,D14,1*%
%TO.N,row_home*%
X50190000Y23900000D03*
D15*
X52350000Y23900000D03*
%TO.P,D14,2*%
%TO.N,index_home*%
X55650000Y23900000D03*
D16*
X57810000Y23900000D03*
%TD*%
D14*
%TO.P,D13,1*%
%TO.N,row_bottom*%
X50190000Y6900000D03*
D15*
X52350000Y6900000D03*
%TO.P,D13,2*%
%TO.N,index_bottom*%
X55650000Y6900000D03*
D16*
X57810000Y6900000D03*
%TD*%
D14*
%TO.P,D17,1*%
%TO.N,row_bottom*%
X68190000Y5200000D03*
D15*
X70350000Y5200000D03*
%TO.P,D17,2*%
%TO.N,inner_bottom*%
X73650000Y5200000D03*
D16*
X75810000Y5200000D03*
%TD*%
D14*
%TO.P,D2,1*%
%TO.N,row_home*%
X-3810000Y12000000D03*
D15*
X-1650000Y12000000D03*
%TO.P,D2,2*%
%TO.N,pinky_home*%
X1650000Y12000000D03*
D16*
X3810000Y12000000D03*
%TD*%
D29*
%TO.P,J1,1*%
%TO.N,Bplus*%
X95500000Y10700380D03*
%TO.P,J1,2*%
%TO.N,RAW*%
X95500000Y9699620D03*
%TD*%
D14*
%TO.P,D19,1*%
%TO.N,row_top*%
X68190000Y39200000D03*
D15*
X70350000Y39200000D03*
%TO.P,D19,2*%
%TO.N,inner_top*%
X73650000Y39200000D03*
D16*
X75810000Y39200000D03*
%TD*%
D13*
%TO.P,S20,1*%
%TO.N,inner_extra*%
X68725000Y67150000D03*
%TO.P,S20,2*%
%TO.N,col_inner*%
X80275000Y64950000D03*
%TD*%
%TO.P,S8,1*%
%TO.N,ring_extra*%
X14725000Y68850000D03*
%TO.P,S8,2*%
%TO.N,col_ring*%
X26275000Y66650000D03*
%TD*%
D14*
%TO.P,D11,1*%
%TO.N,row_top*%
X32190000Y44300000D03*
D15*
X34350000Y44300000D03*
%TO.P,D11,2*%
%TO.N,middle_top*%
X37650000Y44300000D03*
D16*
X39810000Y44300000D03*
%TD*%
D30*
%TO.P,MCU2,1*%
%TO.N,RAW*%
X86880000Y45920000D03*
D31*
%TO.P,MCU2,2*%
%TO.N,GND*%
X86880000Y43380000D03*
%TO.P,MCU2,3*%
%TO.N,RST*%
X86880000Y40840000D03*
%TO.P,MCU2,4*%
%TO.N,VCC*%
X86880000Y38300000D03*
%TO.P,MCU2,5*%
%TO.N,P21*%
X86880000Y35760000D03*
%TO.P,MCU2,6*%
%TO.N,P20*%
X86880000Y33220000D03*
%TO.P,MCU2,7*%
%TO.N,P19*%
X86880000Y30680000D03*
%TO.P,MCU2,8*%
%TO.N,P18*%
X86880000Y28140000D03*
%TO.P,MCU2,9*%
%TO.N,P15*%
X86880000Y25600000D03*
%TO.P,MCU2,10*%
%TO.N,P14*%
X86880000Y23060000D03*
%TO.P,MCU2,11*%
%TO.N,P16*%
X86880000Y20520000D03*
%TO.P,MCU2,12*%
%TO.N,P10*%
X86880000Y17980000D03*
%TO.P,MCU2,13*%
%TO.N,P1*%
X102120000Y45920000D03*
%TO.P,MCU2,14*%
%TO.N,P0*%
X102120000Y43380000D03*
%TO.P,MCU2,15*%
%TO.N,GND*%
X102120000Y40840000D03*
%TO.P,MCU2,16*%
X102120000Y38300000D03*
%TO.P,MCU2,17*%
%TO.N,P2*%
X102120000Y35760000D03*
%TO.P,MCU2,18*%
%TO.N,P3*%
X102120000Y33220000D03*
%TO.P,MCU2,19*%
%TO.N,P4*%
X102120000Y30680000D03*
%TO.P,MCU2,20*%
%TO.N,P5*%
X102120000Y28140000D03*
%TO.P,MCU2,21*%
%TO.N,P6*%
X102120000Y25600000D03*
%TO.P,MCU2,22*%
%TO.N,P7*%
X102120000Y23060000D03*
%TO.P,MCU2,23*%
%TO.N,P8*%
X102120000Y20520000D03*
%TO.P,MCU2,24*%
%TO.N,P9*%
X102120000Y17980000D03*
%TD*%
D32*
%TO.P,S22,1*%
%TO.N,home_thumb*%
X83569667Y-10307149D03*
%TO.P,S22,2*%
%TO.N,col_index*%
X92472260Y-17987405D03*
%TD*%
D14*
%TO.P,D18,1*%
%TO.N,row_home*%
X68190000Y22200000D03*
D15*
X70350000Y22200000D03*
%TO.P,D18,2*%
%TO.N,inner_home*%
X73650000Y22200000D03*
D16*
X75810000Y22200000D03*
%TD*%
D13*
%TO.P,S15,1*%
%TO.N,index_top*%
X50725000Y51850000D03*
%TO.P,S15,2*%
%TO.N,col_index*%
X62275000Y49650000D03*
%TD*%
%TO.P,S19,1*%
%TO.N,inner_top*%
X68725000Y50150000D03*
%TO.P,S19,2*%
%TO.N,col_inner*%
X80275000Y47950000D03*
%TD*%
D30*
%TO.P,MCU1,1*%
%TO.N,RAW*%
X99620000Y47170000D03*
D31*
%TO.P,MCU1,2*%
%TO.N,GND*%
X99620000Y44630000D03*
%TO.P,MCU1,3*%
%TO.N,RST*%
X99620000Y42090000D03*
%TO.P,MCU1,4*%
%TO.N,VCC*%
X99620000Y39550000D03*
%TO.P,MCU1,5*%
%TO.N,P21*%
X99620000Y37010000D03*
%TO.P,MCU1,6*%
%TO.N,col_pinky*%
X99620000Y34470000D03*
%TO.P,MCU1,7*%
%TO.N,col_ring*%
X99620000Y31930000D03*
%TO.P,MCU1,8*%
%TO.N,col_middle*%
X99620000Y29390000D03*
%TO.P,MCU1,9*%
%TO.N,col_index*%
X99620000Y26850000D03*
%TO.P,MCU1,10*%
%TO.N,col_inner*%
X99620000Y24310000D03*
%TO.P,MCU1,11*%
%TO.N,P16*%
X99620000Y21770000D03*
%TO.P,MCU1,12*%
%TO.N,P10*%
X99620000Y19230000D03*
%TO.P,MCU1,13*%
%TO.N,P1*%
X84380000Y47170000D03*
%TO.P,MCU1,14*%
%TO.N,P0*%
X84380000Y44630000D03*
%TO.P,MCU1,15*%
%TO.N,GND*%
X84380000Y42090000D03*
%TO.P,MCU1,16*%
X84380000Y39550000D03*
%TO.P,MCU1,17*%
%TO.N,P2*%
X84380000Y37010000D03*
%TO.P,MCU1,18*%
%TO.N,P3*%
X84380000Y34470000D03*
%TO.P,MCU1,19*%
%TO.N,row_top*%
X84380000Y31930000D03*
%TO.P,MCU1,20*%
%TO.N,row_home*%
X84380000Y29390000D03*
%TO.P,MCU1,21*%
%TO.N,row_bottom*%
X84380000Y26850000D03*
%TO.P,MCU1,22*%
%TO.N,row_thumb*%
X84380000Y24310000D03*
%TO.P,MCU1,23*%
%TO.N,row_extra*%
X84380000Y21770000D03*
%TO.P,MCU1,24*%
%TO.N,P9*%
X84380000Y19230000D03*
%TD*%
D14*
%TO.P,D15,1*%
%TO.N,row_top*%
X50190000Y40900000D03*
D15*
X52350000Y40900000D03*
%TO.P,D15,2*%
%TO.N,index_top*%
X55650000Y40900000D03*
D16*
X57810000Y40900000D03*
%TD*%
D14*
%TO.P,D5,1*%
%TO.N,row_bottom*%
X14190000Y6900000D03*
D15*
X16350000Y6900000D03*
%TO.P,D5,2*%
%TO.N,ring_bottom*%
X19650000Y6900000D03*
D16*
X21810000Y6900000D03*
%TD*%
D33*
%TO.N,col_pinky*%
X14914800Y19793700D03*
X6600100Y24050200D03*
%TO.N,col_ring*%
X26275000Y22753000D03*
X26275000Y42703900D03*
%TO.N,col_middle*%
X44275000Y38910000D03*
X79593300Y6140200D03*
X44275000Y62103800D03*
X73856900Y-3766300D03*
X43252000Y8126700D03*
%TO.N,col_index*%
X93502700Y-9519400D03*
X62275000Y1511100D03*
X60587700Y58228800D03*
%TO.N,col_inner*%
X80275000Y58161300D03*
X82796200Y20561400D03*
X80275000Y28120000D03*
X106674800Y-24270400D03*
%TO.N,row_bottom*%
X81714400Y26850000D03*
%TO.N,row_extra*%
X9000000Y44711700D03*
%TO.N,row_thumb*%
X65008900Y-13010300D03*
%TO.N,RAW*%
X94320400Y9699600D03*
%TO.N,Bplus*%
X93619700Y38448800D03*
X95921700Y11896600D03*
%TD*%
D34*
%TO.N,pinky_bottom*%
X-2078300Y-2047000D02*
X-2078300Y4753300D01*
X1650000Y-5000000D02*
X874700Y-5000000D01*
X3810000Y-5000000D02*
X1650000Y-5000000D01*
X-2078300Y4753300D02*
X-3275000Y5950000D01*
X874700Y-5000000D02*
X-2078300Y-2047000D01*
%TO.N,col_pinky*%
X8275000Y37750000D02*
X8275000Y39375300D01*
X8275000Y54750000D02*
X8275000Y53124700D01*
X6600100Y29982800D02*
X6600100Y24050200D01*
X8275000Y21256000D02*
X8275000Y22375300D01*
X8275000Y53124700D02*
X8274700Y53124400D01*
X8274700Y39375600D02*
X8275000Y39375300D01*
X8275000Y19793700D02*
X14914800Y19793700D01*
X8275000Y37750000D02*
X8275000Y31657700D01*
X6600100Y24050200D02*
X8275000Y22375300D01*
X8275000Y21256000D02*
X8275000Y20750000D01*
X8275000Y20750000D02*
X8275000Y19793700D01*
X8274700Y53124400D02*
X8274700Y39375600D01*
X8275000Y31657700D02*
X6600100Y29982800D01*
X8275000Y19793700D02*
X8275000Y3750000D01*
%TO.N,pinky_home*%
X874700Y12000000D02*
X-2078300Y14953000D01*
X-2078300Y21753300D02*
X-3275000Y22950000D01*
X1650000Y12000000D02*
X874700Y12000000D01*
X3810000Y12000000D02*
X1650000Y12000000D01*
X-2078300Y14953000D02*
X-2078300Y21753300D01*
%TO.N,pinky_top*%
X1650000Y29000000D02*
X874700Y29000000D01*
X3810000Y29000000D02*
X1650000Y29000000D01*
X874700Y29000000D02*
X-2078300Y31953000D01*
X-2078300Y38753300D02*
X-3275000Y39950000D01*
X-2078300Y31953000D02*
X-2078300Y38753300D01*
%TO.N,pinky_extra*%
X1650000Y46000000D02*
X874700Y46000000D01*
X3810000Y46000000D02*
X1650000Y46000000D01*
X-2078300Y55753300D02*
X-3275000Y56950000D01*
X874700Y46000000D02*
X-2078300Y48953000D01*
X-2078300Y48953000D02*
X-2078300Y55753300D01*
%TO.N,ring_bottom*%
X19650000Y6900000D02*
X18874700Y6900000D01*
X21810000Y6900000D02*
X19650000Y6900000D01*
X18874700Y6900000D02*
X15921700Y9853000D01*
X15921700Y16653300D02*
X14725000Y17850000D01*
X15921700Y9853000D02*
X15921700Y16653300D01*
%TO.N,col_ring*%
X26275000Y42703900D02*
X26275000Y32650000D01*
X26275000Y66650000D02*
X26275000Y49650000D01*
X26275000Y22753000D02*
X26275000Y15650000D01*
X26275000Y49650000D02*
X26275000Y42703900D01*
X26275000Y32650000D02*
X26275000Y22753000D01*
%TO.N,ring_home*%
X15921700Y26853000D02*
X15921700Y33653300D01*
X21810000Y23900000D02*
X19650000Y23900000D01*
X15921700Y33653300D02*
X14725000Y34850000D01*
X18874700Y23900000D02*
X15921700Y26853000D01*
X19650000Y23900000D02*
X18874700Y23900000D01*
%TO.N,ring_top*%
X15921700Y43853000D02*
X15921700Y50653300D01*
X19650000Y40900000D02*
X18874700Y40900000D01*
X15921700Y50653300D02*
X14725000Y51850000D01*
X21810000Y40900000D02*
X19650000Y40900000D01*
X18874700Y40900000D02*
X15921700Y43853000D01*
%TO.N,ring_extra*%
X15921700Y67653300D02*
X14725000Y68850000D01*
X18874700Y57900000D02*
X15921700Y60853000D01*
X21810000Y57900000D02*
X19650000Y57900000D01*
X15921700Y60853000D02*
X15921700Y67653300D01*
X19650000Y57900000D02*
X18874700Y57900000D01*
%TO.N,middle_bottom*%
X36874700Y10300000D02*
X33921700Y13253000D01*
X33921700Y13253000D02*
X33921700Y20053300D01*
X33921700Y20053300D02*
X32725000Y21250000D01*
X39810000Y10300000D02*
X37650000Y10300000D01*
X37650000Y10300000D02*
X36874700Y10300000D01*
%TO.N,col_middle*%
X73856900Y-7938500D02*
X74390300Y-5947800D01*
X79593300Y6140200D02*
X79593300Y1970100D01*
X44275000Y36050000D02*
X44275000Y38910000D01*
X74390200Y-5947800D02*
X73856900Y-5414500D01*
X73856900Y-5414500D02*
X73856900Y-3766300D01*
X74390300Y-5947800D02*
X74390200Y-5947800D01*
X44275000Y70050000D02*
X44275000Y62103800D01*
X44275000Y62103800D02*
X44275000Y53050000D01*
X79593300Y1970100D02*
X73856900Y-3766300D01*
X44275000Y36050000D02*
X44275000Y19050000D01*
X44275000Y19050000D02*
X44275000Y9149700D01*
X44275000Y9149700D02*
X43252000Y8126700D01*
%TO.N,middle_home*%
X36874700Y27300000D02*
X33921700Y30253000D01*
X37650000Y27300000D02*
X36874700Y27300000D01*
X39810000Y27300000D02*
X37650000Y27300000D01*
X33921700Y30253000D02*
X33921700Y37053300D01*
X33921700Y37053300D02*
X32725000Y38250000D01*
%TO.N,middle_top*%
X33921700Y47253000D02*
X33921700Y54053300D01*
X33921700Y54053300D02*
X32725000Y55250000D01*
X37650000Y44300000D02*
X36874700Y44300000D01*
X39810000Y44300000D02*
X37650000Y44300000D01*
X36874700Y44300000D02*
X33921700Y47253000D01*
%TO.N,middle_extra*%
X33921700Y71053300D02*
X32725000Y72250000D01*
X39810000Y61300000D02*
X37650000Y61300000D01*
X36874700Y61300000D02*
X33921700Y64253000D01*
X37650000Y61300000D02*
X36874700Y61300000D01*
X33921700Y64253000D02*
X33921700Y71053300D01*
%TO.N,index_bottom*%
X51921700Y9853000D02*
X51921700Y16653300D01*
X57810000Y6900000D02*
X55650000Y6900000D01*
X54874700Y6900000D02*
X51921700Y9853000D01*
X55650000Y6900000D02*
X54874700Y6900000D01*
X51921700Y16653300D02*
X50725000Y17850000D01*
%TO.N,col_index*%
X62275000Y50462700D02*
X62275000Y51275300D01*
X62275000Y15650000D02*
X62275000Y1511100D01*
X62275000Y64011400D02*
X60587700Y62324100D01*
X60587700Y62324100D02*
X60587700Y58228800D01*
X98373400Y17920900D02*
X101675400Y14618900D01*
X101174600Y12623800D02*
X101174600Y7645700D01*
X60587700Y58228800D02*
X60587700Y52962600D01*
X101700200Y2800400D02*
X99300000Y400200D01*
X62275000Y32650000D02*
X62275000Y15650000D01*
X93502700Y-16202700D02*
X93502700Y-9519400D01*
X62275000Y50462700D02*
X62275000Y49650000D01*
X62275000Y49650000D02*
X62275000Y32650000D01*
X99620000Y26850000D02*
X98373400Y25603400D01*
X60587700Y52962600D02*
X62275000Y51275300D01*
X101174600Y7645700D02*
X101700200Y7120100D01*
X101700200Y7120100D02*
X101700200Y2800400D01*
X92472300Y-17987400D02*
X93502700Y-16202700D01*
X62275000Y66650000D02*
X62275000Y64011400D01*
X97307200Y-9519400D02*
X93502700Y-9519400D01*
X101675400Y14618900D02*
X101675400Y13124600D01*
X101675400Y13124600D02*
X101174600Y12623800D01*
X99300000Y400200D02*
X99300000Y-7526600D01*
X99300000Y-7526600D02*
X97307200Y-9519400D01*
X98373400Y25603400D02*
X98373400Y17920900D01*
%TO.N,index_home*%
X54874700Y23900000D02*
X51921700Y26853000D01*
X51921700Y33653300D02*
X50725000Y34850000D01*
X55650000Y23900000D02*
X54874700Y23900000D01*
X57810000Y23900000D02*
X55650000Y23900000D01*
X51921700Y26853000D02*
X51921700Y33653300D01*
%TO.N,index_top*%
X51921700Y43853000D02*
X51921700Y50653300D01*
X57810000Y40900000D02*
X55650000Y40900000D01*
X54874700Y40900000D02*
X51921700Y43853000D01*
X51921700Y50653300D02*
X50725000Y51850000D01*
X55650000Y40900000D02*
X54874700Y40900000D01*
%TO.N,index_extra*%
X55650000Y57900000D02*
X54874700Y57900000D01*
X57810000Y57900000D02*
X55650000Y57900000D01*
X54874700Y57900000D02*
X51921700Y60853000D01*
X51921700Y67653300D02*
X50725000Y68850000D01*
X51921700Y60853000D02*
X51921700Y67653300D01*
%TO.N,inner_bottom*%
X69921700Y14953300D02*
X68725000Y16150000D01*
X75810000Y5200000D02*
X73650000Y5200000D01*
X69921700Y8153000D02*
X69921700Y14953300D01*
X72874700Y5200000D02*
X69921700Y8153000D01*
X73650000Y5200000D02*
X72874700Y5200000D01*
%TO.N,col_inner*%
X82068200Y27604200D02*
X82460900Y27211500D01*
X80275000Y30950000D02*
X80275000Y28120000D01*
X80275000Y28120000D02*
X80275000Y27604200D01*
X82460900Y27211500D02*
X82460900Y20896700D01*
X80275000Y58161300D02*
X80275000Y47950000D01*
X80275000Y27604200D02*
X82068200Y27604200D01*
X107852500Y-25448100D02*
X107852500Y-32512000D01*
X106674800Y-24270400D02*
X107852500Y-25448100D01*
X80275000Y64950000D02*
X80275000Y58161300D01*
X80275000Y27604200D02*
X80275000Y13950000D01*
X82460900Y20896700D02*
X82796200Y20561400D01*
%TO.N,inner_home*%
X75810000Y22200000D02*
X73650000Y22200000D01*
X69921700Y31953300D02*
X68725000Y33150000D01*
X73650000Y22200000D02*
X72874700Y22200000D01*
X72874700Y22200000D02*
X69921700Y25153000D01*
X69921700Y25153000D02*
X69921700Y31953300D01*
%TO.N,inner_top*%
X69921700Y42153000D02*
X69921700Y48953300D01*
X72874700Y39200000D02*
X69921700Y42153000D01*
X69921700Y48953300D02*
X68725000Y50150000D01*
X73650000Y39200000D02*
X72874700Y39200000D01*
X75810000Y39200000D02*
X73650000Y39200000D01*
%TO.N,inner_extra*%
X74730000Y56200000D02*
X73650000Y56200000D01*
X73938400Y56200000D02*
X73189800Y56948600D01*
X69921700Y65953300D02*
X68725000Y67150000D01*
X69921700Y60393400D02*
X69921700Y65953300D01*
X73189800Y57125300D02*
X69921700Y60393400D01*
X75810000Y56200000D02*
X74730000Y56200000D01*
X73189800Y56948600D02*
X73189800Y57125300D01*
X74730000Y56200000D02*
X73938400Y56200000D01*
%TO.N,near_thumb*%
X63269900Y-2824100D02*
X63269900Y-7663200D01*
X63620900Y-13103600D02*
X63620900Y-13310700D01*
X67279400Y-15234700D02*
X66475500Y-15234700D01*
X63269900Y-7663200D02*
X62850800Y-8082300D01*
X62850800Y-12333500D02*
X63620900Y-13103600D01*
X64204500Y-13894300D02*
X64204500Y-14410800D01*
X62850800Y-8082300D02*
X62850800Y-12333500D01*
X66475500Y-15234700D02*
X66181400Y-14940600D01*
X66181400Y-14940600D02*
X66181400Y-14940500D01*
X65193000Y-14675700D02*
X66181400Y-14940500D01*
X63620900Y-13310700D02*
X64204500Y-13894300D01*
X65193000Y-14675700D02*
X64204500Y-14410800D01*
%TO.N,home_thumb*%
X82359800Y-22252700D02*
X81473700Y-21741100D01*
X83569700Y-12469200D02*
X81371600Y-14667300D01*
X83814400Y-23332700D02*
X83246000Y-22764300D01*
X81473800Y-21741000D02*
X81473700Y-21741100D01*
X81371600Y-21264500D02*
X81473800Y-21366700D01*
X81473800Y-21366700D02*
X81473800Y-21741000D01*
X81371600Y-14667300D02*
X81371600Y-21264500D01*
X84230500Y-23332700D02*
X83814400Y-23332700D01*
X83569700Y-10307100D02*
X83569700Y-12469200D01*
X82359800Y-22252700D02*
X83246000Y-22764300D01*
%TO.N,far_thumb*%
X101406200Y-22954400D02*
X101241000Y-22789200D01*
X101406200Y-32643800D02*
X101406200Y-22954400D01*
X98508100Y-35541900D02*
X101406200Y-32643800D01*
X98508100Y-35541900D02*
X96980700Y-34014500D01*
%TO.N,row_bottom*%
X76302900Y3875500D02*
X72449800Y3875500D01*
X81900400Y26664000D02*
X81900400Y9473000D01*
X59291500Y733800D02*
X53125300Y6900000D01*
X52350000Y6900000D02*
X53125300Y6900000D01*
X66975700Y5124100D02*
X62585400Y733800D01*
X-1650000Y-5000000D02*
X-3810000Y-5000000D01*
X70350000Y5200000D02*
X68190000Y5200000D01*
X16350000Y6900000D02*
X14190000Y6900000D01*
X66975700Y5200000D02*
X66975700Y5124100D01*
X34350000Y10300000D02*
X32190000Y10300000D01*
X81900400Y9473000D02*
X76302900Y3875500D01*
X68190000Y5200000D02*
X66975700Y5200000D01*
X72449800Y3875500D02*
X71125300Y5200000D01*
X52350000Y6900000D02*
X50190000Y6900000D01*
X62585400Y733800D02*
X59291500Y733800D01*
X81714400Y26850000D02*
X81900400Y26664000D01*
X70350000Y5200000D02*
X71125300Y5200000D01*
%TO.N,row_home*%
X52350000Y23900000D02*
X50190000Y23900000D01*
X70350000Y22200000D02*
X68190000Y22200000D01*
X34350000Y27300000D02*
X32190000Y27300000D01*
X16350000Y23900000D02*
X14190000Y23900000D01*
X-1650000Y12000000D02*
X-3810000Y12000000D01*
%TO.N,row_top*%
X34350000Y44300000D02*
X32190000Y44300000D01*
X34350000Y44300000D02*
X35125300Y44300000D01*
X52350000Y40900000D02*
X50190000Y40900000D01*
X50190000Y40900000D02*
X38525300Y40900000D01*
X38525300Y40900000D02*
X35125300Y44300000D01*
X-1650000Y29000000D02*
X-3810000Y29000000D01*
X70350000Y39200000D02*
X68190000Y39200000D01*
X16350000Y40900000D02*
X14190000Y40900000D01*
%TO.N,row_extra*%
X16350000Y57900000D02*
X14190000Y57900000D01*
X82911200Y36173800D02*
X74759400Y44325600D01*
X50190000Y57900000D02*
X50190000Y55877900D01*
X38759400Y57665900D02*
X35125300Y61300000D01*
X52350000Y57900000D02*
X50190000Y57900000D01*
X14190000Y57900000D02*
X14190000Y56685700D01*
X50190000Y55877900D02*
X45504100Y51192000D01*
X14190000Y56685700D02*
X9000000Y51495700D01*
X74759400Y44325600D02*
X74759400Y52565900D01*
X45504100Y51192000D02*
X40246300Y51192000D01*
X38759400Y52678900D02*
X38759400Y57665900D01*
X70350000Y56200000D02*
X68190000Y56200000D01*
X34350000Y61300000D02*
X32190000Y61300000D01*
X40246300Y51192000D02*
X38759400Y52678900D01*
X84380000Y21770000D02*
X82911200Y23238800D01*
X82911200Y23238800D02*
X82911200Y36173800D01*
X34350000Y61300000D02*
X35125300Y61300000D01*
X70350000Y56200000D02*
X71125300Y56200000D01*
X74759400Y52565900D02*
X71125300Y56200000D01*
X9000000Y51495700D02*
X9000000Y44711700D01*
X-1650000Y46000000D02*
X-3810000Y46000000D01*
%TO.N,row_thumb*%
X65008900Y-13010300D02*
X70555400Y-13010300D01*
X77631300Y-19522700D02*
X78964700Y-20292600D01*
X79868200Y-13199300D02*
X79868200Y-19421100D01*
X62005400Y-13821500D02*
X61017000Y-13556700D01*
X79868200Y-19421100D02*
X80068500Y-19621400D01*
X60213200Y-13556700D02*
X59919000Y-13262500D01*
X70555400Y-13010300D02*
X76297900Y-18752800D01*
X85606500Y23083500D02*
X85606500Y-3762300D01*
X61017000Y-13556700D02*
X60213200Y-13556700D01*
X93119900Y-30153700D02*
X94647300Y-31681100D01*
X78964800Y-20292500D02*
X79191800Y-20292500D01*
X79102500Y-10266300D02*
X79102500Y-12433600D01*
X79102500Y-12433600D02*
X79868200Y-13199300D01*
X79191800Y-20292500D02*
X79502000Y-20602700D01*
X77631300Y-19522700D02*
X76297900Y-18752800D01*
X78964700Y-20292600D02*
X78964800Y-20292500D01*
X79502000Y-20602700D02*
X80068500Y-19621400D01*
X85606500Y-3762300D02*
X79102500Y-10266300D01*
X84380000Y24310000D02*
X85606500Y23083500D01*
%TO.N,RAW*%
X86880000Y45920000D02*
X86880000Y44718400D01*
X90559000Y41414900D02*
X87255500Y44718400D01*
X95500000Y9699600D02*
X96396800Y9699600D01*
X94603200Y9699600D02*
X94320400Y9699600D01*
X87255500Y44718400D02*
X86880000Y44718400D01*
X99925000Y9450000D02*
X96646400Y9450000D01*
X90559000Y13461000D02*
X90559000Y41414900D01*
X95500000Y9699600D02*
X94603200Y9699600D01*
X96646400Y9450000D02*
X96396800Y9699600D01*
X94320400Y9699600D02*
X90559000Y13461000D01*
%TO.N,GND*%
X102120000Y38300000D02*
X102120000Y40840000D01*
X99505300Y44630000D02*
X99620000Y44630000D01*
X95000000Y41200000D02*
X96075300Y41200000D01*
X86880000Y43380000D02*
X89000000Y41260000D01*
X89000000Y13450000D02*
X97800000Y4650000D01*
X96075300Y41200000D02*
X99505300Y44630000D01*
X89000000Y41260000D02*
X89000000Y13450000D01*
X97800000Y-200000D02*
X97800000Y-7100000D01*
X97800000Y4650000D02*
X97800000Y-200000D01*
X84380000Y39550000D02*
X84380000Y42090000D01*
%TO.N,RST*%
X88538600Y39181400D02*
X88538600Y15007300D01*
X87663100Y14131800D02*
X87663100Y8286900D01*
X87663100Y8286900D02*
X89000000Y6950000D01*
X86880000Y40840000D02*
X88538600Y39181400D01*
X88538600Y15007300D02*
X87663100Y14131800D01*
%TO.N,VCC*%
X87212800Y14543400D02*
X87212800Y6809200D01*
X93800000Y-762600D02*
X93800000Y-1325300D01*
X86880000Y38300000D02*
X88088200Y37091800D01*
X94128100Y-1653400D02*
X94128100Y-5646600D01*
X93800000Y-200000D02*
X93800000Y925300D01*
X88088200Y15418800D02*
X87212800Y14543400D01*
X87212800Y6809200D02*
X93096700Y925300D01*
X88088200Y37091800D02*
X88088200Y15418800D01*
X94128100Y-5646600D02*
X93800000Y-5974700D01*
X93096700Y925300D02*
X93800000Y925300D01*
X93800000Y-7100000D02*
X93800000Y-5974700D01*
X93800000Y-762600D02*
X93800000Y-200000D01*
X93800000Y-1325300D02*
X94128100Y-1653400D01*
%TO.N,P0*%
X102860700Y7648400D02*
X102860700Y12251200D01*
X100800000Y-200000D02*
X100800000Y925300D01*
X103387400Y42112600D02*
X102120000Y43380000D01*
X100800000Y925300D02*
X102150600Y2275900D01*
X100800000Y-7100000D02*
X100800000Y-200000D01*
X102324600Y14729800D02*
X103387400Y15792600D01*
X102150600Y2275900D02*
X102150600Y6938300D01*
X102324600Y12787300D02*
X102324600Y14729800D01*
X102150600Y6938300D02*
X102860700Y7648400D01*
X102860700Y12251200D02*
X102324600Y12787300D01*
X103387400Y15792600D02*
X103387400Y42112600D01*
%TO.N,Bplus*%
X95921700Y11764900D02*
X95921700Y11896600D01*
X95000000Y37662400D02*
X94406100Y37662400D01*
X94406100Y37662400D02*
X93619700Y38448800D01*
X96475100Y12450000D02*
X96475100Y35649600D01*
X95500000Y11343200D02*
X95921700Y11764900D01*
X95000000Y38200000D02*
X95000000Y37662400D01*
X96475100Y35649600D02*
X95000000Y37124700D01*
X99925000Y12450000D02*
X96475100Y12450000D01*
X95500000Y10700400D02*
X95500000Y11343200D01*
X95000000Y37662400D02*
X95000000Y37124700D01*
X96475100Y12450000D02*
X95921700Y11896600D01*
%TD*%
M02*
