%TF.GenerationSoftware,KiCad,Pcbnew,8.0.2*%
%TF.CreationDate,2024-05-30T16:07:25+01:00*%
%TF.ProjectId,board,626f6172-642e-46b6-9963-61645f706362,0.3*%
%TF.SameCoordinates,Original*%
%TF.FileFunction,Legend,Bot*%
%TF.FilePolarity,Positive*%
%FSLAX46Y46*%
G04 Gerber Fmt 4.6, Leading zero omitted, Abs format (unit mm)*
G04 Created by KiCad (PCBNEW 8.0.2) date 2024-05-30 16:07:25*
%MOMM*%
%LPD*%
G01*
G04 APERTURE LIST*
G04 Aperture macros list*
%AMRoundRect*
0 Rectangle with rounded corners*
0 $1 Rounding radius*
0 $2 $3 $4 $5 $6 $7 $8 $9 X,Y pos of 4 corners*
0 Add a 4 corners polygon primitive as box body*
4,1,4,$2,$3,$4,$5,$6,$7,$8,$9,$2,$3,0*
0 Add four circle primitives for the rounded corners*
1,1,$1+$1,$2,$3*
1,1,$1+$1,$4,$5*
1,1,$1+$1,$6,$7*
1,1,$1+$1,$8,$9*
0 Add four rect primitives between the rounded corners*
20,1,$1+$1,$2,$3,$4,$5,0*
20,1,$1+$1,$4,$5,$6,$7,0*
20,1,$1+$1,$6,$7,$8,$9,0*
20,1,$1+$1,$8,$9,$2,$3,0*%
G04 Aperture macros list end*
%ADD10C,0.150000*%
%ADD11C,0.050000*%
%ADD12C,0.100000*%
%ADD13R,1.752600X1.752600*%
%ADD14C,1.752600*%
%ADD15C,1.100000*%
%ADD16C,2.100000*%
%ADD17C,1.801800*%
%ADD18C,3.100000*%
%ADD19C,3.529000*%
%ADD20RoundRect,0.050000X-1.300000X-1.300000X1.300000X-1.300000X1.300000X1.300000X-1.300000X1.300000X0*%
%ADD21RoundRect,0.050000X-0.889000X-0.889000X0.889000X-0.889000X0.889000X0.889000X-0.889000X0.889000X0*%
%ADD22RoundRect,0.050000X-0.450000X-0.600000X0.450000X-0.600000X0.450000X0.600000X-0.450000X0.600000X0*%
%ADD23C,2.005000*%
%ADD24RoundRect,0.050000X-1.088798X-0.628618X0.628618X-1.088798X1.088798X0.628618X-0.628618X1.088798X0*%
%ADD25RoundRect,0.050000X-0.589958X-0.463087X0.279375X-0.696024X0.589958X0.463087X-0.279375X0.696024X0*%
%ADD26RoundRect,0.050000X-1.838478X0.000000X0.000000X-1.838478X1.838478X0.000000X0.000000X1.838478X0*%
%ADD27RoundRect,0.050000X-0.750000X-0.750000X0.750000X-0.750000X0.750000X0.750000X-0.750000X0.750000X0*%
%ADD28C,1.300000*%
%ADD29O,2.300000X1.700000*%
%ADD30RoundRect,0.050000X-1.592168X-0.919239X0.919239X-1.592168X1.592168X0.919239X-0.919239X1.592168X0*%
%ADD31RoundRect,0.050000X-1.257236X0.000000X0.000000X-1.257236X1.257236X0.000000X0.000000X1.257236X0*%
%ADD32RoundRect,0.050000X-0.742462X-0.106066X-0.106066X-0.742462X0.742462X0.106066X0.106066X0.742462X0*%
%ADD33RoundRect,0.050000X-1.214397X-0.325397X0.325397X-1.214397X1.214397X0.325397X-0.325397X1.214397X0*%
%ADD34RoundRect,0.050000X-0.689711X-0.294615X0.089711X-0.744615X0.689711X0.294615X-0.089711X0.744615X0*%
%ADD35RoundRect,0.050000X-0.450000X0.450000X-0.450000X-0.450000X0.450000X-0.450000X0.450000X0.450000X0*%
%ADD36RoundRect,0.050000X-0.625000X0.450000X-0.625000X-0.450000X0.625000X-0.450000X0.625000X0.450000X0*%
%ADD37RoundRect,0.050000X-0.571500X0.317500X-0.571500X-0.317500X0.571500X-0.317500X0.571500X0.317500X0*%
%ADD38RoundRect,0.050000X-0.876300X0.876300X-0.876300X-0.876300X0.876300X-0.876300X0.876300X0.876300X0*%
%ADD39C,1.852600*%
%ADD40RoundRect,0.050000X-1.775833X-0.475833X0.475833X-1.775833X1.775833X0.475833X-0.475833X1.775833X0*%
G04 APERTURE END LIST*
D10*
X28503446Y1960096D02*
X28503446Y2960096D01*
X28503446Y2960096D02*
X28122494Y2960096D01*
X28122494Y2960096D02*
X28027256Y2912477D01*
X28027256Y2912477D02*
X27979637Y2864858D01*
X27979637Y2864858D02*
X27932018Y2769620D01*
X27932018Y2769620D02*
X27932018Y2626763D01*
X27932018Y2626763D02*
X27979637Y2531525D01*
X27979637Y2531525D02*
X28027256Y2483906D01*
X28027256Y2483906D02*
X28122494Y2436287D01*
X28122494Y2436287D02*
X28503446Y2436287D01*
X27503446Y1960096D02*
X27503446Y2626763D01*
X27503446Y2436287D02*
X27455827Y2531525D01*
X27455827Y2531525D02*
X27408208Y2579144D01*
X27408208Y2579144D02*
X27312970Y2626763D01*
X27312970Y2626763D02*
X27217732Y2626763D01*
X26741541Y1960096D02*
X26836779Y2007716D01*
X26836779Y2007716D02*
X26884398Y2055335D01*
X26884398Y2055335D02*
X26932017Y2150573D01*
X26932017Y2150573D02*
X26932017Y2436287D01*
X26932017Y2436287D02*
X26884398Y2531525D01*
X26884398Y2531525D02*
X26836779Y2579144D01*
X26836779Y2579144D02*
X26741541Y2626763D01*
X26741541Y2626763D02*
X26598684Y2626763D01*
X26598684Y2626763D02*
X26503446Y2579144D01*
X26503446Y2579144D02*
X26455827Y2531525D01*
X26455827Y2531525D02*
X26408208Y2436287D01*
X26408208Y2436287D02*
X26408208Y2150573D01*
X26408208Y2150573D02*
X26455827Y2055335D01*
X26455827Y2055335D02*
X26503446Y2007716D01*
X26503446Y2007716D02*
X26598684Y1960096D01*
X26598684Y1960096D02*
X26741541Y1960096D01*
X25979636Y2626763D02*
X25979636Y1769620D01*
X25979636Y1769620D02*
X26027255Y1674382D01*
X26027255Y1674382D02*
X26122493Y1626763D01*
X26122493Y1626763D02*
X26170112Y1626763D01*
X25979636Y2960096D02*
X26027255Y2912477D01*
X26027255Y2912477D02*
X25979636Y2864858D01*
X25979636Y2864858D02*
X25932017Y2912477D01*
X25932017Y2912477D02*
X25979636Y2960096D01*
X25979636Y2960096D02*
X25979636Y2864858D01*
X25122494Y2007716D02*
X25217732Y1960096D01*
X25217732Y1960096D02*
X25408208Y1960096D01*
X25408208Y1960096D02*
X25503446Y2007716D01*
X25503446Y2007716D02*
X25551065Y2102954D01*
X25551065Y2102954D02*
X25551065Y2483906D01*
X25551065Y2483906D02*
X25503446Y2579144D01*
X25503446Y2579144D02*
X25408208Y2626763D01*
X25408208Y2626763D02*
X25217732Y2626763D01*
X25217732Y2626763D02*
X25122494Y2579144D01*
X25122494Y2579144D02*
X25074875Y2483906D01*
X25074875Y2483906D02*
X25074875Y2388668D01*
X25074875Y2388668D02*
X25551065Y2293430D01*
X24217732Y2007716D02*
X24312970Y1960096D01*
X24312970Y1960096D02*
X24503446Y1960096D01*
X24503446Y1960096D02*
X24598684Y2007716D01*
X24598684Y2007716D02*
X24646303Y2055335D01*
X24646303Y2055335D02*
X24693922Y2150573D01*
X24693922Y2150573D02*
X24693922Y2436287D01*
X24693922Y2436287D02*
X24646303Y2531525D01*
X24646303Y2531525D02*
X24598684Y2579144D01*
X24598684Y2579144D02*
X24503446Y2626763D01*
X24503446Y2626763D02*
X24312970Y2626763D01*
X24312970Y2626763D02*
X24217732Y2579144D01*
X23932017Y2626763D02*
X23551065Y2626763D01*
X23789160Y2960096D02*
X23789160Y2102954D01*
X23789160Y2102954D02*
X23741541Y2007716D01*
X23741541Y2007716D02*
X23646303Y1960096D01*
X23646303Y1960096D02*
X23551065Y1960096D01*
X22503445Y2007716D02*
X22360588Y1960096D01*
X22360588Y1960096D02*
X22122493Y1960096D01*
X22122493Y1960096D02*
X22027255Y2007716D01*
X22027255Y2007716D02*
X21979636Y2055335D01*
X21979636Y2055335D02*
X21932017Y2150573D01*
X21932017Y2150573D02*
X21932017Y2245811D01*
X21932017Y2245811D02*
X21979636Y2341049D01*
X21979636Y2341049D02*
X22027255Y2388668D01*
X22027255Y2388668D02*
X22122493Y2436287D01*
X22122493Y2436287D02*
X22312969Y2483906D01*
X22312969Y2483906D02*
X22408207Y2531525D01*
X22408207Y2531525D02*
X22455826Y2579144D01*
X22455826Y2579144D02*
X22503445Y2674382D01*
X22503445Y2674382D02*
X22503445Y2769620D01*
X22503445Y2769620D02*
X22455826Y2864858D01*
X22455826Y2864858D02*
X22408207Y2912477D01*
X22408207Y2912477D02*
X22312969Y2960096D01*
X22312969Y2960096D02*
X22074874Y2960096D01*
X22074874Y2960096D02*
X21932017Y2912477D01*
X21170112Y2483906D02*
X21027255Y2436287D01*
X21027255Y2436287D02*
X20979636Y2388668D01*
X20979636Y2388668D02*
X20932017Y2293430D01*
X20932017Y2293430D02*
X20932017Y2150573D01*
X20932017Y2150573D02*
X20979636Y2055335D01*
X20979636Y2055335D02*
X21027255Y2007716D01*
X21027255Y2007716D02*
X21122493Y1960096D01*
X21122493Y1960096D02*
X21503445Y1960096D01*
X21503445Y1960096D02*
X21503445Y2960096D01*
X21503445Y2960096D02*
X21170112Y2960096D01*
X21170112Y2960096D02*
X21074874Y2912477D01*
X21074874Y2912477D02*
X21027255Y2864858D01*
X21027255Y2864858D02*
X20979636Y2769620D01*
X20979636Y2769620D02*
X20979636Y2674382D01*
X20979636Y2674382D02*
X21027255Y2579144D01*
X21027255Y2579144D02*
X21074874Y2531525D01*
X21074874Y2531525D02*
X21170112Y2483906D01*
X21170112Y2483906D02*
X21503445Y2483906D01*
X20312969Y2960096D02*
X20122493Y2960096D01*
X20122493Y2960096D02*
X20027255Y2912477D01*
X20027255Y2912477D02*
X19932017Y2817239D01*
X19932017Y2817239D02*
X19884398Y2626763D01*
X19884398Y2626763D02*
X19884398Y2293430D01*
X19884398Y2293430D02*
X19932017Y2102954D01*
X19932017Y2102954D02*
X20027255Y2007716D01*
X20027255Y2007716D02*
X20122493Y1960096D01*
X20122493Y1960096D02*
X20312969Y1960096D01*
X20312969Y1960096D02*
X20408207Y2007716D01*
X20408207Y2007716D02*
X20503445Y2102954D01*
X20503445Y2102954D02*
X20551064Y2293430D01*
X20551064Y2293430D02*
X20551064Y2626763D01*
X20551064Y2626763D02*
X20503445Y2817239D01*
X20503445Y2817239D02*
X20408207Y2912477D01*
X20408207Y2912477D02*
X20312969Y2960096D01*
X18741540Y2007716D02*
X18598683Y1960096D01*
X18598683Y1960096D02*
X18360588Y1960096D01*
X18360588Y1960096D02*
X18265350Y2007716D01*
X18265350Y2007716D02*
X18217731Y2055335D01*
X18217731Y2055335D02*
X18170112Y2150573D01*
X18170112Y2150573D02*
X18170112Y2245811D01*
X18170112Y2245811D02*
X18217731Y2341049D01*
X18217731Y2341049D02*
X18265350Y2388668D01*
X18265350Y2388668D02*
X18360588Y2436287D01*
X18360588Y2436287D02*
X18551064Y2483906D01*
X18551064Y2483906D02*
X18646302Y2531525D01*
X18646302Y2531525D02*
X18693921Y2579144D01*
X18693921Y2579144D02*
X18741540Y2674382D01*
X18741540Y2674382D02*
X18741540Y2769620D01*
X18741540Y2769620D02*
X18693921Y2864858D01*
X18693921Y2864858D02*
X18646302Y2912477D01*
X18646302Y2912477D02*
X18551064Y2960096D01*
X18551064Y2960096D02*
X18312969Y2960096D01*
X18312969Y2960096D02*
X18170112Y2912477D01*
X17312969Y2007716D02*
X17408207Y1960096D01*
X17408207Y1960096D02*
X17598683Y1960096D01*
X17598683Y1960096D02*
X17693921Y2007716D01*
X17693921Y2007716D02*
X17741540Y2055335D01*
X17741540Y2055335D02*
X17789159Y2150573D01*
X17789159Y2150573D02*
X17789159Y2436287D01*
X17789159Y2436287D02*
X17741540Y2531525D01*
X17741540Y2531525D02*
X17693921Y2579144D01*
X17693921Y2579144D02*
X17598683Y2626763D01*
X17598683Y2626763D02*
X17408207Y2626763D01*
X17408207Y2626763D02*
X17312969Y2579144D01*
X16884397Y1960096D02*
X16884397Y2960096D01*
X16455826Y1960096D02*
X16455826Y2483906D01*
X16455826Y2483906D02*
X16503445Y2579144D01*
X16503445Y2579144D02*
X16598683Y2626763D01*
X16598683Y2626763D02*
X16741540Y2626763D01*
X16741540Y2626763D02*
X16836778Y2579144D01*
X16836778Y2579144D02*
X16884397Y2531525D01*
X15979635Y1960096D02*
X15979635Y2626763D01*
X15979635Y2960096D02*
X16027254Y2912477D01*
X16027254Y2912477D02*
X15979635Y2864858D01*
X15979635Y2864858D02*
X15932016Y2912477D01*
X15932016Y2912477D02*
X15979635Y2960096D01*
X15979635Y2960096D02*
X15979635Y2864858D01*
X15551064Y2007716D02*
X15455826Y1960096D01*
X15455826Y1960096D02*
X15265350Y1960096D01*
X15265350Y1960096D02*
X15170112Y2007716D01*
X15170112Y2007716D02*
X15122493Y2102954D01*
X15122493Y2102954D02*
X15122493Y2150573D01*
X15122493Y2150573D02*
X15170112Y2245811D01*
X15170112Y2245811D02*
X15265350Y2293430D01*
X15265350Y2293430D02*
X15408207Y2293430D01*
X15408207Y2293430D02*
X15503445Y2341049D01*
X15503445Y2341049D02*
X15551064Y2436287D01*
X15551064Y2436287D02*
X15551064Y2483906D01*
X15551064Y2483906D02*
X15503445Y2579144D01*
X15503445Y2579144D02*
X15408207Y2626763D01*
X15408207Y2626763D02*
X15265350Y2626763D01*
X15265350Y2626763D02*
X15170112Y2579144D01*
X14693921Y1960096D02*
X14693921Y2626763D01*
X14693921Y2531525D02*
X14646302Y2579144D01*
X14646302Y2579144D02*
X14551064Y2626763D01*
X14551064Y2626763D02*
X14408207Y2626763D01*
X14408207Y2626763D02*
X14312969Y2579144D01*
X14312969Y2579144D02*
X14265350Y2483906D01*
X14265350Y2483906D02*
X14265350Y1960096D01*
X14265350Y2483906D02*
X14217731Y2579144D01*
X14217731Y2579144D02*
X14122493Y2626763D01*
X14122493Y2626763D02*
X13979636Y2626763D01*
X13979636Y2626763D02*
X13884397Y2579144D01*
X13884397Y2579144D02*
X13836778Y2483906D01*
X13836778Y2483906D02*
X13836778Y1960096D01*
X26122494Y397772D02*
X26027256Y350152D01*
X26027256Y350152D02*
X25836780Y350152D01*
X25836780Y350152D02*
X25741542Y397772D01*
X25741542Y397772D02*
X25693923Y493010D01*
X25693923Y493010D02*
X25693923Y540629D01*
X25693923Y540629D02*
X25741542Y635867D01*
X25741542Y635867D02*
X25836780Y683486D01*
X25836780Y683486D02*
X25979637Y683486D01*
X25979637Y683486D02*
X26074875Y731105D01*
X26074875Y731105D02*
X26122494Y826343D01*
X26122494Y826343D02*
X26122494Y873962D01*
X26122494Y873962D02*
X26074875Y969200D01*
X26074875Y969200D02*
X25979637Y1016819D01*
X25979637Y1016819D02*
X25836780Y1016819D01*
X25836780Y1016819D02*
X25741542Y969200D01*
X24836780Y350152D02*
X24836780Y873962D01*
X24836780Y873962D02*
X24884399Y969200D01*
X24884399Y969200D02*
X24979637Y1016819D01*
X24979637Y1016819D02*
X25170113Y1016819D01*
X25170113Y1016819D02*
X25265351Y969200D01*
X24836780Y397772D02*
X24932018Y350152D01*
X24932018Y350152D02*
X25170113Y350152D01*
X25170113Y350152D02*
X25265351Y397772D01*
X25265351Y397772D02*
X25312970Y493010D01*
X25312970Y493010D02*
X25312970Y588248D01*
X25312970Y588248D02*
X25265351Y683486D01*
X25265351Y683486D02*
X25170113Y731105D01*
X25170113Y731105D02*
X24932018Y731105D01*
X24932018Y731105D02*
X24836780Y778724D01*
X24360589Y350152D02*
X24360589Y1016819D01*
X24360589Y921581D02*
X24312970Y969200D01*
X24312970Y969200D02*
X24217732Y1016819D01*
X24217732Y1016819D02*
X24074875Y1016819D01*
X24074875Y1016819D02*
X23979637Y969200D01*
X23979637Y969200D02*
X23932018Y873962D01*
X23932018Y873962D02*
X23932018Y350152D01*
X23932018Y873962D02*
X23884399Y969200D01*
X23884399Y969200D02*
X23789161Y1016819D01*
X23789161Y1016819D02*
X23646304Y1016819D01*
X23646304Y1016819D02*
X23551065Y969200D01*
X23551065Y969200D02*
X23503446Y873962D01*
X23503446Y873962D02*
X23503446Y350152D01*
X22884399Y350152D02*
X22979637Y397772D01*
X22979637Y397772D02*
X23027256Y445391D01*
X23027256Y445391D02*
X23074875Y540629D01*
X23074875Y540629D02*
X23074875Y826343D01*
X23074875Y826343D02*
X23027256Y921581D01*
X23027256Y921581D02*
X22979637Y969200D01*
X22979637Y969200D02*
X22884399Y1016819D01*
X22884399Y1016819D02*
X22741542Y1016819D01*
X22741542Y1016819D02*
X22646304Y969200D01*
X22646304Y969200D02*
X22598685Y921581D01*
X22598685Y921581D02*
X22551066Y826343D01*
X22551066Y826343D02*
X22551066Y540629D01*
X22551066Y540629D02*
X22598685Y445391D01*
X22598685Y445391D02*
X22646304Y397772D01*
X22646304Y397772D02*
X22741542Y350152D01*
X22741542Y350152D02*
X22884399Y350152D01*
X22122494Y350152D02*
X22122494Y1350152D01*
X22027256Y731105D02*
X21741542Y350152D01*
X21741542Y1016819D02*
X22122494Y635867D01*
X21170113Y350152D02*
X21265351Y397772D01*
X21265351Y397772D02*
X21312970Y493010D01*
X21312970Y493010D02*
X21312970Y1350152D01*
X20360589Y350152D02*
X20360589Y873962D01*
X20360589Y873962D02*
X20408208Y969200D01*
X20408208Y969200D02*
X20503446Y1016819D01*
X20503446Y1016819D02*
X20693922Y1016819D01*
X20693922Y1016819D02*
X20789160Y969200D01*
X20360589Y397772D02*
X20455827Y350152D01*
X20455827Y350152D02*
X20693922Y350152D01*
X20693922Y350152D02*
X20789160Y397772D01*
X20789160Y397772D02*
X20836779Y493010D01*
X20836779Y493010D02*
X20836779Y588248D01*
X20836779Y588248D02*
X20789160Y683486D01*
X20789160Y683486D02*
X20693922Y731105D01*
X20693922Y731105D02*
X20455827Y731105D01*
X20455827Y731105D02*
X20360589Y778724D01*
X19979636Y1016819D02*
X19741541Y350152D01*
X19741541Y350152D02*
X19503446Y1016819D01*
X18693922Y350152D02*
X18693922Y873962D01*
X18693922Y873962D02*
X18741541Y969200D01*
X18741541Y969200D02*
X18836779Y1016819D01*
X18836779Y1016819D02*
X19027255Y1016819D01*
X19027255Y1016819D02*
X19122493Y969200D01*
X18693922Y397772D02*
X18789160Y350152D01*
X18789160Y350152D02*
X19027255Y350152D01*
X19027255Y350152D02*
X19122493Y397772D01*
X19122493Y397772D02*
X19170112Y493010D01*
X19170112Y493010D02*
X19170112Y588248D01*
X19170112Y588248D02*
X19122493Y683486D01*
X19122493Y683486D02*
X19027255Y731105D01*
X19027255Y731105D02*
X18789160Y731105D01*
X18789160Y731105D02*
X18693922Y778724D01*
X17455826Y350152D02*
X17455826Y1016819D01*
X17455826Y826343D02*
X17408207Y921581D01*
X17408207Y921581D02*
X17360588Y969200D01*
X17360588Y969200D02*
X17265350Y1016819D01*
X17265350Y1016819D02*
X17170112Y1016819D01*
X16455826Y397772D02*
X16551064Y350152D01*
X16551064Y350152D02*
X16741540Y350152D01*
X16741540Y350152D02*
X16836778Y397772D01*
X16836778Y397772D02*
X16884397Y493010D01*
X16884397Y493010D02*
X16884397Y873962D01*
X16884397Y873962D02*
X16836778Y969200D01*
X16836778Y969200D02*
X16741540Y1016819D01*
X16741540Y1016819D02*
X16551064Y1016819D01*
X16551064Y1016819D02*
X16455826Y969200D01*
X16455826Y969200D02*
X16408207Y873962D01*
X16408207Y873962D02*
X16408207Y778724D01*
X16408207Y778724D02*
X16884397Y683486D01*
X15979635Y350152D02*
X15979635Y1016819D01*
X15979635Y921581D02*
X15932016Y969200D01*
X15932016Y969200D02*
X15836778Y1016819D01*
X15836778Y1016819D02*
X15693921Y1016819D01*
X15693921Y1016819D02*
X15598683Y969200D01*
X15598683Y969200D02*
X15551064Y873962D01*
X15551064Y873962D02*
X15551064Y350152D01*
X15551064Y873962D02*
X15503445Y969200D01*
X15503445Y969200D02*
X15408207Y1016819D01*
X15408207Y1016819D02*
X15265350Y1016819D01*
X15265350Y1016819D02*
X15170111Y969200D01*
X15170111Y969200D02*
X15122492Y873962D01*
X15122492Y873962D02*
X15122492Y350152D01*
X14646302Y350152D02*
X14646302Y1016819D01*
X14646302Y1350152D02*
X14693921Y1302533D01*
X14693921Y1302533D02*
X14646302Y1254914D01*
X14646302Y1254914D02*
X14598683Y1302533D01*
X14598683Y1302533D02*
X14646302Y1350152D01*
X14646302Y1350152D02*
X14646302Y1254914D01*
X14265350Y350152D02*
X13741541Y1016819D01*
X14265350Y1016819D02*
X13741541Y350152D01*
X25979638Y-1259791D02*
X25979638Y-259791D01*
X25408210Y-1259791D02*
X25836781Y-688362D01*
X25408210Y-259791D02*
X25979638Y-831219D01*
X24598686Y-1212172D02*
X24693924Y-1259791D01*
X24693924Y-1259791D02*
X24884400Y-1259791D01*
X24884400Y-1259791D02*
X24979638Y-1212172D01*
X24979638Y-1212172D02*
X25027257Y-1116933D01*
X25027257Y-1116933D02*
X25027257Y-735981D01*
X25027257Y-735981D02*
X24979638Y-640743D01*
X24979638Y-640743D02*
X24884400Y-593124D01*
X24884400Y-593124D02*
X24693924Y-593124D01*
X24693924Y-593124D02*
X24598686Y-640743D01*
X24598686Y-640743D02*
X24551067Y-735981D01*
X24551067Y-735981D02*
X24551067Y-831219D01*
X24551067Y-831219D02*
X25027257Y-926457D01*
X23979638Y-1259791D02*
X24074876Y-1212172D01*
X24074876Y-1212172D02*
X24122495Y-1116933D01*
X24122495Y-1116933D02*
X24122495Y-259791D01*
X22979637Y-593124D02*
X22598685Y-593124D01*
X22836780Y-259791D02*
X22836780Y-1116933D01*
X22836780Y-1116933D02*
X22789161Y-1212172D01*
X22789161Y-1212172D02*
X22693923Y-1259791D01*
X22693923Y-1259791D02*
X22598685Y-1259791D01*
X22122494Y-1259791D02*
X22217732Y-1212172D01*
X22217732Y-1212172D02*
X22265351Y-1164552D01*
X22265351Y-1164552D02*
X22312970Y-1069314D01*
X22312970Y-1069314D02*
X22312970Y-783600D01*
X22312970Y-783600D02*
X22265351Y-688362D01*
X22265351Y-688362D02*
X22217732Y-640743D01*
X22217732Y-640743D02*
X22122494Y-593124D01*
X22122494Y-593124D02*
X21979637Y-593124D01*
X21979637Y-593124D02*
X21884399Y-640743D01*
X21884399Y-640743D02*
X21836780Y-688362D01*
X21836780Y-688362D02*
X21789161Y-783600D01*
X21789161Y-783600D02*
X21789161Y-1069314D01*
X21789161Y-1069314D02*
X21836780Y-1164552D01*
X21836780Y-1164552D02*
X21884399Y-1212172D01*
X21884399Y-1212172D02*
X21979637Y-1259791D01*
X21979637Y-1259791D02*
X22122494Y-1259791D01*
X20598684Y-1259791D02*
X20598684Y-259791D01*
X20598684Y-259791D02*
X20217732Y-259791D01*
X20217732Y-259791D02*
X20122494Y-307410D01*
X20122494Y-307410D02*
X20074875Y-355029D01*
X20074875Y-355029D02*
X20027256Y-450267D01*
X20027256Y-450267D02*
X20027256Y-593124D01*
X20027256Y-593124D02*
X20074875Y-688362D01*
X20074875Y-688362D02*
X20122494Y-735981D01*
X20122494Y-735981D02*
X20217732Y-783600D01*
X20217732Y-783600D02*
X20598684Y-783600D01*
X19170113Y-1259791D02*
X19170113Y-735981D01*
X19170113Y-735981D02*
X19217732Y-640743D01*
X19217732Y-640743D02*
X19312970Y-593124D01*
X19312970Y-593124D02*
X19503446Y-593124D01*
X19503446Y-593124D02*
X19598684Y-640743D01*
X19170113Y-1212172D02*
X19265351Y-1259791D01*
X19265351Y-1259791D02*
X19503446Y-1259791D01*
X19503446Y-1259791D02*
X19598684Y-1212172D01*
X19598684Y-1212172D02*
X19646303Y-1116933D01*
X19646303Y-1116933D02*
X19646303Y-1021695D01*
X19646303Y-1021695D02*
X19598684Y-926457D01*
X19598684Y-926457D02*
X19503446Y-878838D01*
X19503446Y-878838D02*
X19265351Y-878838D01*
X19265351Y-878838D02*
X19170113Y-831219D01*
X18789160Y-593124D02*
X18551065Y-1259791D01*
X18312970Y-593124D02*
X18551065Y-1259791D01*
X18551065Y-1259791D02*
X18646303Y-1497886D01*
X18646303Y-1497886D02*
X18693922Y-1545505D01*
X18693922Y-1545505D02*
X18789160Y-1593124D01*
X17217731Y-355029D02*
X17170112Y-307410D01*
X17170112Y-307410D02*
X17074874Y-259791D01*
X17074874Y-259791D02*
X16836779Y-259791D01*
X16836779Y-259791D02*
X16741541Y-307410D01*
X16741541Y-307410D02*
X16693922Y-355029D01*
X16693922Y-355029D02*
X16646303Y-450267D01*
X16646303Y-450267D02*
X16646303Y-545505D01*
X16646303Y-545505D02*
X16693922Y-688362D01*
X16693922Y-688362D02*
X17265350Y-1259791D01*
X17265350Y-1259791D02*
X16646303Y-1259791D01*
X16027255Y-259791D02*
X15932017Y-259791D01*
X15932017Y-259791D02*
X15836779Y-307410D01*
X15836779Y-307410D02*
X15789160Y-355029D01*
X15789160Y-355029D02*
X15741541Y-450267D01*
X15741541Y-450267D02*
X15693922Y-640743D01*
X15693922Y-640743D02*
X15693922Y-878838D01*
X15693922Y-878838D02*
X15741541Y-1069314D01*
X15741541Y-1069314D02*
X15789160Y-1164552D01*
X15789160Y-1164552D02*
X15836779Y-1212172D01*
X15836779Y-1212172D02*
X15932017Y-1259791D01*
X15932017Y-1259791D02*
X16027255Y-1259791D01*
X16027255Y-1259791D02*
X16122493Y-1212172D01*
X16122493Y-1212172D02*
X16170112Y-1164552D01*
X16170112Y-1164552D02*
X16217731Y-1069314D01*
X16217731Y-1069314D02*
X16265350Y-878838D01*
X16265350Y-878838D02*
X16265350Y-640743D01*
X16265350Y-640743D02*
X16217731Y-450267D01*
X16217731Y-450267D02*
X16170112Y-355029D01*
X16170112Y-355029D02*
X16122493Y-307410D01*
X16122493Y-307410D02*
X16027255Y-259791D01*
X15312969Y-355029D02*
X15265350Y-307410D01*
X15265350Y-307410D02*
X15170112Y-259791D01*
X15170112Y-259791D02*
X14932017Y-259791D01*
X14932017Y-259791D02*
X14836779Y-307410D01*
X14836779Y-307410D02*
X14789160Y-355029D01*
X14789160Y-355029D02*
X14741541Y-450267D01*
X14741541Y-450267D02*
X14741541Y-545505D01*
X14741541Y-545505D02*
X14789160Y-688362D01*
X14789160Y-688362D02*
X15360588Y-1259791D01*
X15360588Y-1259791D02*
X14741541Y-1259791D01*
X13884398Y-593124D02*
X13884398Y-1259791D01*
X14122493Y-212172D02*
X14360588Y-926457D01*
X14360588Y-926457D02*
X13741541Y-926457D01*
X29551064Y-2869735D02*
X29551064Y-1869735D01*
X29455826Y-2488782D02*
X29170112Y-2869735D01*
X29170112Y-2203068D02*
X29551064Y-2584020D01*
X28360588Y-2822116D02*
X28455826Y-2869735D01*
X28455826Y-2869735D02*
X28646302Y-2869735D01*
X28646302Y-2869735D02*
X28741540Y-2822116D01*
X28741540Y-2822116D02*
X28789159Y-2726877D01*
X28789159Y-2726877D02*
X28789159Y-2345925D01*
X28789159Y-2345925D02*
X28741540Y-2250687D01*
X28741540Y-2250687D02*
X28646302Y-2203068D01*
X28646302Y-2203068D02*
X28455826Y-2203068D01*
X28455826Y-2203068D02*
X28360588Y-2250687D01*
X28360588Y-2250687D02*
X28312969Y-2345925D01*
X28312969Y-2345925D02*
X28312969Y-2441163D01*
X28312969Y-2441163D02*
X28789159Y-2536401D01*
X27741540Y-2869735D02*
X27836778Y-2822116D01*
X27836778Y-2822116D02*
X27884397Y-2726877D01*
X27884397Y-2726877D02*
X27884397Y-1869735D01*
X27360587Y-2774496D02*
X27312968Y-2822116D01*
X27312968Y-2822116D02*
X27360587Y-2869735D01*
X27360587Y-2869735D02*
X27408206Y-2822116D01*
X27408206Y-2822116D02*
X27360587Y-2774496D01*
X27360587Y-2774496D02*
X27360587Y-2869735D01*
X27027254Y-2203068D02*
X26646302Y-2203068D01*
X26884397Y-1869735D02*
X26884397Y-2726877D01*
X26884397Y-2726877D02*
X26836778Y-2822116D01*
X26836778Y-2822116D02*
X26741540Y-2869735D01*
X26741540Y-2869735D02*
X26646302Y-2869735D01*
X26170111Y-2869735D02*
X26265349Y-2822116D01*
X26265349Y-2822116D02*
X26312968Y-2774496D01*
X26312968Y-2774496D02*
X26360587Y-2679258D01*
X26360587Y-2679258D02*
X26360587Y-2393544D01*
X26360587Y-2393544D02*
X26312968Y-2298306D01*
X26312968Y-2298306D02*
X26265349Y-2250687D01*
X26265349Y-2250687D02*
X26170111Y-2203068D01*
X26170111Y-2203068D02*
X26027254Y-2203068D01*
X26027254Y-2203068D02*
X25932016Y-2250687D01*
X25932016Y-2250687D02*
X25884397Y-2298306D01*
X25884397Y-2298306D02*
X25836778Y-2393544D01*
X25836778Y-2393544D02*
X25836778Y-2679258D01*
X25836778Y-2679258D02*
X25884397Y-2774496D01*
X25884397Y-2774496D02*
X25932016Y-2822116D01*
X25932016Y-2822116D02*
X26027254Y-2869735D01*
X26027254Y-2869735D02*
X26170111Y-2869735D01*
X25408206Y-2774496D02*
X25360587Y-2822116D01*
X25360587Y-2822116D02*
X25408206Y-2869735D01*
X25408206Y-2869735D02*
X25455825Y-2822116D01*
X25455825Y-2822116D02*
X25408206Y-2774496D01*
X25408206Y-2774496D02*
X25408206Y-2869735D01*
X24932016Y-2203068D02*
X24932016Y-3203068D01*
X24932016Y-2250687D02*
X24836778Y-2203068D01*
X24836778Y-2203068D02*
X24646302Y-2203068D01*
X24646302Y-2203068D02*
X24551064Y-2250687D01*
X24551064Y-2250687D02*
X24503445Y-2298306D01*
X24503445Y-2298306D02*
X24455826Y-2393544D01*
X24455826Y-2393544D02*
X24455826Y-2679258D01*
X24455826Y-2679258D02*
X24503445Y-2774496D01*
X24503445Y-2774496D02*
X24551064Y-2822116D01*
X24551064Y-2822116D02*
X24646302Y-2869735D01*
X24646302Y-2869735D02*
X24836778Y-2869735D01*
X24836778Y-2869735D02*
X24932016Y-2822116D01*
X23598683Y-2869735D02*
X23598683Y-2345925D01*
X23598683Y-2345925D02*
X23646302Y-2250687D01*
X23646302Y-2250687D02*
X23741540Y-2203068D01*
X23741540Y-2203068D02*
X23932016Y-2203068D01*
X23932016Y-2203068D02*
X24027254Y-2250687D01*
X23598683Y-2822116D02*
X23693921Y-2869735D01*
X23693921Y-2869735D02*
X23932016Y-2869735D01*
X23932016Y-2869735D02*
X24027254Y-2822116D01*
X24027254Y-2822116D02*
X24074873Y-2726877D01*
X24074873Y-2726877D02*
X24074873Y-2631639D01*
X24074873Y-2631639D02*
X24027254Y-2536401D01*
X24027254Y-2536401D02*
X23932016Y-2488782D01*
X23932016Y-2488782D02*
X23693921Y-2488782D01*
X23693921Y-2488782D02*
X23598683Y-2441163D01*
X23217730Y-2203068D02*
X22979635Y-2869735D01*
X22741540Y-2203068D02*
X22979635Y-2869735D01*
X22979635Y-2869735D02*
X23074873Y-3107830D01*
X23074873Y-3107830D02*
X23122492Y-3155449D01*
X23122492Y-3155449D02*
X23217730Y-3203068D01*
X21741540Y-2393544D02*
X21789159Y-2345925D01*
X21789159Y-2345925D02*
X21884397Y-2298306D01*
X21884397Y-2298306D02*
X21979635Y-2298306D01*
X21979635Y-2298306D02*
X22074873Y-2345925D01*
X22074873Y-2345925D02*
X22122492Y-2393544D01*
X22122492Y-2393544D02*
X22170111Y-2488782D01*
X22170111Y-2488782D02*
X22170111Y-2584020D01*
X22170111Y-2584020D02*
X22122492Y-2679258D01*
X22122492Y-2679258D02*
X22074873Y-2726877D01*
X22074873Y-2726877D02*
X21979635Y-2774496D01*
X21979635Y-2774496D02*
X21884397Y-2774496D01*
X21884397Y-2774496D02*
X21789159Y-2726877D01*
X21789159Y-2726877D02*
X21741540Y-2679258D01*
X21741540Y-2298306D02*
X21741540Y-2679258D01*
X21741540Y-2679258D02*
X21693921Y-2726877D01*
X21693921Y-2726877D02*
X21646302Y-2726877D01*
X21646302Y-2726877D02*
X21551063Y-2679258D01*
X21551063Y-2679258D02*
X21503444Y-2584020D01*
X21503444Y-2584020D02*
X21503444Y-2345925D01*
X21503444Y-2345925D02*
X21598683Y-2203068D01*
X21598683Y-2203068D02*
X21741540Y-2107830D01*
X21741540Y-2107830D02*
X21932016Y-2060211D01*
X21932016Y-2060211D02*
X22122492Y-2107830D01*
X22122492Y-2107830D02*
X22265349Y-2203068D01*
X22265349Y-2203068D02*
X22360587Y-2345925D01*
X22360587Y-2345925D02*
X22408206Y-2536401D01*
X22408206Y-2536401D02*
X22360587Y-2726877D01*
X22360587Y-2726877D02*
X22265349Y-2869735D01*
X22265349Y-2869735D02*
X22122492Y-2964973D01*
X22122492Y-2964973D02*
X21932016Y-3012592D01*
X21932016Y-3012592D02*
X21741540Y-2964973D01*
X21741540Y-2964973D02*
X21598683Y-2869735D01*
X20646302Y-2203068D02*
X20646302Y-3012592D01*
X20646302Y-3012592D02*
X20693921Y-3107830D01*
X20693921Y-3107830D02*
X20741540Y-3155449D01*
X20741540Y-3155449D02*
X20836778Y-3203068D01*
X20836778Y-3203068D02*
X20979635Y-3203068D01*
X20979635Y-3203068D02*
X21074873Y-3155449D01*
X20646302Y-2822116D02*
X20741540Y-2869735D01*
X20741540Y-2869735D02*
X20932016Y-2869735D01*
X20932016Y-2869735D02*
X21027254Y-2822116D01*
X21027254Y-2822116D02*
X21074873Y-2774496D01*
X21074873Y-2774496D02*
X21122492Y-2679258D01*
X21122492Y-2679258D02*
X21122492Y-2393544D01*
X21122492Y-2393544D02*
X21074873Y-2298306D01*
X21074873Y-2298306D02*
X21027254Y-2250687D01*
X21027254Y-2250687D02*
X20932016Y-2203068D01*
X20932016Y-2203068D02*
X20741540Y-2203068D01*
X20741540Y-2203068D02*
X20646302Y-2250687D01*
X20170111Y-2869735D02*
X20170111Y-2203068D01*
X20170111Y-2298306D02*
X20122492Y-2250687D01*
X20122492Y-2250687D02*
X20027254Y-2203068D01*
X20027254Y-2203068D02*
X19884397Y-2203068D01*
X19884397Y-2203068D02*
X19789159Y-2250687D01*
X19789159Y-2250687D02*
X19741540Y-2345925D01*
X19741540Y-2345925D02*
X19741540Y-2869735D01*
X19741540Y-2345925D02*
X19693921Y-2250687D01*
X19693921Y-2250687D02*
X19598683Y-2203068D01*
X19598683Y-2203068D02*
X19455826Y-2203068D01*
X19455826Y-2203068D02*
X19360587Y-2250687D01*
X19360587Y-2250687D02*
X19312968Y-2345925D01*
X19312968Y-2345925D02*
X19312968Y-2869735D01*
X18408207Y-2869735D02*
X18408207Y-2345925D01*
X18408207Y-2345925D02*
X18455826Y-2250687D01*
X18455826Y-2250687D02*
X18551064Y-2203068D01*
X18551064Y-2203068D02*
X18741540Y-2203068D01*
X18741540Y-2203068D02*
X18836778Y-2250687D01*
X18408207Y-2822116D02*
X18503445Y-2869735D01*
X18503445Y-2869735D02*
X18741540Y-2869735D01*
X18741540Y-2869735D02*
X18836778Y-2822116D01*
X18836778Y-2822116D02*
X18884397Y-2726877D01*
X18884397Y-2726877D02*
X18884397Y-2631639D01*
X18884397Y-2631639D02*
X18836778Y-2536401D01*
X18836778Y-2536401D02*
X18741540Y-2488782D01*
X18741540Y-2488782D02*
X18503445Y-2488782D01*
X18503445Y-2488782D02*
X18408207Y-2441163D01*
X17932016Y-2869735D02*
X17932016Y-2203068D01*
X17932016Y-1869735D02*
X17979635Y-1917354D01*
X17979635Y-1917354D02*
X17932016Y-1964973D01*
X17932016Y-1964973D02*
X17884397Y-1917354D01*
X17884397Y-1917354D02*
X17932016Y-1869735D01*
X17932016Y-1869735D02*
X17932016Y-1964973D01*
X17312969Y-2869735D02*
X17408207Y-2822116D01*
X17408207Y-2822116D02*
X17455826Y-2726877D01*
X17455826Y-2726877D02*
X17455826Y-1869735D01*
X16932016Y-2774496D02*
X16884397Y-2822116D01*
X16884397Y-2822116D02*
X16932016Y-2869735D01*
X16932016Y-2869735D02*
X16979635Y-2822116D01*
X16979635Y-2822116D02*
X16932016Y-2774496D01*
X16932016Y-2774496D02*
X16932016Y-2869735D01*
X16027255Y-2822116D02*
X16122493Y-2869735D01*
X16122493Y-2869735D02*
X16312969Y-2869735D01*
X16312969Y-2869735D02*
X16408207Y-2822116D01*
X16408207Y-2822116D02*
X16455826Y-2774496D01*
X16455826Y-2774496D02*
X16503445Y-2679258D01*
X16503445Y-2679258D02*
X16503445Y-2393544D01*
X16503445Y-2393544D02*
X16455826Y-2298306D01*
X16455826Y-2298306D02*
X16408207Y-2250687D01*
X16408207Y-2250687D02*
X16312969Y-2203068D01*
X16312969Y-2203068D02*
X16122493Y-2203068D01*
X16122493Y-2203068D02*
X16027255Y-2250687D01*
X15455826Y-2869735D02*
X15551064Y-2822116D01*
X15551064Y-2822116D02*
X15598683Y-2774496D01*
X15598683Y-2774496D02*
X15646302Y-2679258D01*
X15646302Y-2679258D02*
X15646302Y-2393544D01*
X15646302Y-2393544D02*
X15598683Y-2298306D01*
X15598683Y-2298306D02*
X15551064Y-2250687D01*
X15551064Y-2250687D02*
X15455826Y-2203068D01*
X15455826Y-2203068D02*
X15312969Y-2203068D01*
X15312969Y-2203068D02*
X15217731Y-2250687D01*
X15217731Y-2250687D02*
X15170112Y-2298306D01*
X15170112Y-2298306D02*
X15122493Y-2393544D01*
X15122493Y-2393544D02*
X15122493Y-2679258D01*
X15122493Y-2679258D02*
X15170112Y-2774496D01*
X15170112Y-2774496D02*
X15217731Y-2822116D01*
X15217731Y-2822116D02*
X15312969Y-2869735D01*
X15312969Y-2869735D02*
X15455826Y-2869735D01*
X14693921Y-2869735D02*
X14693921Y-2203068D01*
X14693921Y-2298306D02*
X14646302Y-2250687D01*
X14646302Y-2250687D02*
X14551064Y-2203068D01*
X14551064Y-2203068D02*
X14408207Y-2203068D01*
X14408207Y-2203068D02*
X14312969Y-2250687D01*
X14312969Y-2250687D02*
X14265350Y-2345925D01*
X14265350Y-2345925D02*
X14265350Y-2869735D01*
X14265350Y-2345925D02*
X14217731Y-2250687D01*
X14217731Y-2250687D02*
X14122493Y-2203068D01*
X14122493Y-2203068D02*
X13979636Y-2203068D01*
X13979636Y-2203068D02*
X13884397Y-2250687D01*
X13884397Y-2250687D02*
X13836778Y-2345925D01*
X13836778Y-2345925D02*
X13836778Y-2869735D01*
X89454819Y11525381D02*
X88978628Y11858714D01*
X89454819Y12096809D02*
X88454819Y12096809D01*
X88454819Y12096809D02*
X88454819Y11715857D01*
X88454819Y11715857D02*
X88502438Y11620619D01*
X88502438Y11620619D02*
X88550057Y11573000D01*
X88550057Y11573000D02*
X88645295Y11525381D01*
X88645295Y11525381D02*
X88788152Y11525381D01*
X88788152Y11525381D02*
X88883390Y11573000D01*
X88883390Y11573000D02*
X88931009Y11620619D01*
X88931009Y11620619D02*
X88978628Y11715857D01*
X88978628Y11715857D02*
X88978628Y12096809D01*
X88931009Y11096809D02*
X88931009Y10763476D01*
X89454819Y10620619D02*
X89454819Y11096809D01*
X89454819Y11096809D02*
X88454819Y11096809D01*
X88454819Y11096809D02*
X88454819Y10620619D01*
X89407200Y10239666D02*
X89454819Y10096809D01*
X89454819Y10096809D02*
X89454819Y9858714D01*
X89454819Y9858714D02*
X89407200Y9763476D01*
X89407200Y9763476D02*
X89359580Y9715857D01*
X89359580Y9715857D02*
X89264342Y9668238D01*
X89264342Y9668238D02*
X89169104Y9668238D01*
X89169104Y9668238D02*
X89073866Y9715857D01*
X89073866Y9715857D02*
X89026247Y9763476D01*
X89026247Y9763476D02*
X88978628Y9858714D01*
X88978628Y9858714D02*
X88931009Y10049190D01*
X88931009Y10049190D02*
X88883390Y10144428D01*
X88883390Y10144428D02*
X88835771Y10192047D01*
X88835771Y10192047D02*
X88740533Y10239666D01*
X88740533Y10239666D02*
X88645295Y10239666D01*
X88645295Y10239666D02*
X88550057Y10192047D01*
X88550057Y10192047D02*
X88502438Y10144428D01*
X88502438Y10144428D02*
X88454819Y10049190D01*
X88454819Y10049190D02*
X88454819Y9811095D01*
X88454819Y9811095D02*
X88502438Y9668238D01*
X88931009Y9239666D02*
X88931009Y8906333D01*
X89454819Y8763476D02*
X89454819Y9239666D01*
X89454819Y9239666D02*
X88454819Y9239666D01*
X88454819Y9239666D02*
X88454819Y8763476D01*
X88454819Y8477761D02*
X88454819Y7906333D01*
X89454819Y8192047D02*
X88454819Y8192047D01*
X93188095Y41256752D02*
X93073809Y41218657D01*
X93073809Y41218657D02*
X93035714Y41180561D01*
X93035714Y41180561D02*
X92997618Y41104371D01*
X92997618Y41104371D02*
X92997618Y40990085D01*
X92997618Y40990085D02*
X93035714Y40913895D01*
X93035714Y40913895D02*
X93073809Y40875800D01*
X93073809Y40875800D02*
X93149999Y40837704D01*
X93149999Y40837704D02*
X93454761Y40837704D01*
X93454761Y40837704D02*
X93454761Y41637704D01*
X93454761Y41637704D02*
X93188095Y41637704D01*
X93188095Y41637704D02*
X93111904Y41599609D01*
X93111904Y41599609D02*
X93073809Y41561514D01*
X93073809Y41561514D02*
X93035714Y41485323D01*
X93035714Y41485323D02*
X93035714Y41409133D01*
X93035714Y41409133D02*
X93073809Y41332942D01*
X93073809Y41332942D02*
X93111904Y41294847D01*
X93111904Y41294847D02*
X93188095Y41256752D01*
X93188095Y41256752D02*
X93454761Y41256752D01*
X92654761Y41142466D02*
X92045238Y41142466D01*
X93188095Y38256752D02*
X93073809Y38218657D01*
X93073809Y38218657D02*
X93035714Y38180561D01*
X93035714Y38180561D02*
X92997618Y38104371D01*
X92997618Y38104371D02*
X92997618Y37990085D01*
X92997618Y37990085D02*
X93035714Y37913895D01*
X93035714Y37913895D02*
X93073809Y37875800D01*
X93073809Y37875800D02*
X93149999Y37837704D01*
X93149999Y37837704D02*
X93454761Y37837704D01*
X93454761Y37837704D02*
X93454761Y38637704D01*
X93454761Y38637704D02*
X93188095Y38637704D01*
X93188095Y38637704D02*
X93111904Y38599609D01*
X93111904Y38599609D02*
X93073809Y38561514D01*
X93073809Y38561514D02*
X93035714Y38485323D01*
X93035714Y38485323D02*
X93035714Y38409133D01*
X93035714Y38409133D02*
X93073809Y38332942D01*
X93073809Y38332942D02*
X93111904Y38294847D01*
X93111904Y38294847D02*
X93188095Y38256752D01*
X93188095Y38256752D02*
X93454761Y38256752D01*
X92654761Y38142466D02*
X92045238Y38142466D01*
X92349999Y37837704D02*
X92349999Y38447228D01*
D11*
%TO.C,G\u002A\u002A\u002A*%
X39847003Y6334749D02*
X40237003Y6239749D01*
X41777003Y3464749D01*
X41812003Y3439749D01*
X44522003Y2354749D01*
X44747003Y1619749D01*
X44747003Y1609749D01*
X44707003Y1559749D01*
X44667003Y1524749D01*
X44592003Y1459749D01*
X44537003Y1414749D01*
X44512003Y1389749D01*
X44492003Y1379749D01*
X44447003Y1339749D01*
X44407003Y1309749D01*
X44307003Y1244749D01*
X44227003Y1214749D01*
X43107003Y404749D01*
X43077003Y369749D01*
X43072003Y339749D01*
X43062003Y299749D01*
X43067003Y259749D01*
X43072003Y204749D01*
X43097003Y74749D01*
X43752003Y-2440251D01*
X43882003Y-2935251D01*
X43892003Y-2980251D01*
X43872003Y-3010251D01*
X43857003Y-3005251D01*
X43787003Y-2960251D01*
X43127003Y-2495251D01*
X40607003Y-690251D01*
X37527003Y-1425251D01*
X37812003Y1494749D01*
X37812003Y1519749D01*
X37822003Y1549749D01*
X37832003Y1634749D01*
X37812003Y1724749D01*
X37647003Y1939749D01*
X37312003Y2299749D01*
X37022003Y2604749D01*
X36407003Y3264749D01*
X36127003Y3559749D01*
X35577003Y4139749D01*
X35257003Y4489749D01*
X35147003Y4609749D01*
X35122003Y4644749D01*
X35122003Y4649749D01*
X35107003Y4679749D01*
X35652003Y4619749D01*
X36067003Y4569749D01*
X36637003Y4499749D01*
X36897003Y4464749D01*
X38522003Y4269749D01*
X38557003Y4284749D01*
X38617003Y4354749D01*
X39662003Y6349749D01*
X39712003Y6354749D01*
X39847003Y6334749D01*
G36*
X39847003Y6334749D02*
G01*
X40237003Y6239749D01*
X41777003Y3464749D01*
X41812003Y3439749D01*
X44522003Y2354749D01*
X44747003Y1619749D01*
X44747003Y1609749D01*
X44707003Y1559749D01*
X44667003Y1524749D01*
X44592003Y1459749D01*
X44537003Y1414749D01*
X44512003Y1389749D01*
X44492003Y1379749D01*
X44447003Y1339749D01*
X44407003Y1309749D01*
X44307003Y1244749D01*
X44227003Y1214749D01*
X43107003Y404749D01*
X43077003Y369749D01*
X43072003Y339749D01*
X43062003Y299749D01*
X43067003Y259749D01*
X43072003Y204749D01*
X43097003Y74749D01*
X43752003Y-2440251D01*
X43882003Y-2935251D01*
X43892003Y-2980251D01*
X43872003Y-3010251D01*
X43857003Y-3005251D01*
X43787003Y-2960251D01*
X43127003Y-2495251D01*
X40607003Y-690251D01*
X37527003Y-1425251D01*
X37812003Y1494749D01*
X37812003Y1519749D01*
X37822003Y1549749D01*
X37832003Y1634749D01*
X37812003Y1724749D01*
X37647003Y1939749D01*
X37312003Y2299749D01*
X37022003Y2604749D01*
X36407003Y3264749D01*
X36127003Y3559749D01*
X35577003Y4139749D01*
X35257003Y4489749D01*
X35147003Y4609749D01*
X35122003Y4644749D01*
X35122003Y4649749D01*
X35107003Y4679749D01*
X35652003Y4619749D01*
X36067003Y4569749D01*
X36637003Y4499749D01*
X36897003Y4464749D01*
X38522003Y4269749D01*
X38557003Y4284749D01*
X38617003Y4354749D01*
X39662003Y6349749D01*
X39712003Y6354749D01*
X39847003Y6334749D01*
G37*
D10*
%TO.C,B1*%
X87250000Y13200000D02*
X87500000Y13200000D01*
X87250000Y7200000D02*
X87250000Y13200000D01*
X87500000Y7200000D02*
X87250000Y7200000D01*
X90500000Y13200000D02*
X90750000Y13200000D01*
X90750000Y13200000D02*
X90750000Y7200000D01*
X90750000Y7200000D02*
X90500000Y7200000D01*
D12*
%TO.C,D9*%
X35250000Y10300000D02*
X35650000Y10300000D01*
X35650000Y10300000D02*
X35650000Y10850000D01*
X35650000Y10300000D02*
X35650000Y9750000D01*
X35650000Y10300000D02*
X36250000Y10700000D01*
X36250000Y10700000D02*
X36250000Y9900000D01*
X36250000Y10300000D02*
X36750000Y10300000D01*
X36250000Y9900000D02*
X35650000Y10300000D01*
%TO.C,D10*%
X35250000Y27300000D02*
X35650000Y27300000D01*
X35650000Y27300000D02*
X35650000Y27850000D01*
X35650000Y27300000D02*
X35650000Y26750000D01*
X35650000Y27300000D02*
X36250000Y27700000D01*
X36250000Y27700000D02*
X36250000Y26900000D01*
X36250000Y27300000D02*
X36750000Y27300000D01*
X36250000Y26900000D02*
X35650000Y27300000D01*
%TO.C,D12*%
X35250000Y61300000D02*
X35650000Y61300000D01*
X35650000Y61300000D02*
X35650000Y61850000D01*
X35650000Y61300000D02*
X35650000Y60750000D01*
X35650000Y61300000D02*
X36250000Y61700000D01*
X36250000Y61700000D02*
X36250000Y60900000D01*
X36250000Y61300000D02*
X36750000Y61300000D01*
X36250000Y60900000D02*
X35650000Y61300000D01*
%TO.C,D21*%
X62874756Y-14054486D02*
X63261126Y-14158013D01*
X63261126Y-14158013D02*
X63118775Y-14689274D01*
X63261126Y-14158013D02*
X63403476Y-13626754D01*
X63261126Y-14158013D02*
X63944209Y-13926934D01*
X63737154Y-14699675D02*
X63261126Y-14158013D01*
X63840681Y-14313305D02*
X64323644Y-14442714D01*
X63944209Y-13926934D02*
X63737154Y-14699675D01*
%TO.C,D7*%
X17250000Y40900000D02*
X17650000Y40900000D01*
X17650000Y40900000D02*
X17650000Y41450000D01*
X17650000Y40900000D02*
X17650000Y40350000D01*
X17650000Y40900000D02*
X18250000Y41300000D01*
X18250000Y41300000D02*
X18250000Y40500000D01*
X18250000Y40900000D02*
X18750000Y40900000D01*
X18250000Y40500000D02*
X17650000Y40900000D01*
%TO.C,D8*%
X17250000Y57900000D02*
X17650000Y57900000D01*
X17650000Y57900000D02*
X17650000Y58450000D01*
X17650000Y57900000D02*
X17650000Y57350000D01*
X17650000Y57900000D02*
X18250000Y58300000D01*
X18250000Y58300000D02*
X18250000Y57500000D01*
X18250000Y57900000D02*
X18750000Y57900000D01*
X18250000Y57500000D02*
X17650000Y57900000D01*
%TO.C,D1*%
X-750000Y-5000000D02*
X-350000Y-5000000D01*
X-350000Y-5000000D02*
X-350000Y-4450000D01*
X-350000Y-5000000D02*
X-350000Y-5550000D01*
X-350000Y-5000000D02*
X250000Y-4600000D01*
X250000Y-4600000D02*
X250000Y-5400000D01*
X250000Y-5000000D02*
X750000Y-5000000D01*
X250000Y-5400000D02*
X-350000Y-5000000D01*
%TO.C,D3*%
X-750000Y29000000D02*
X-350000Y29000000D01*
X-350000Y29000000D02*
X-350000Y29550000D01*
X-350000Y29000000D02*
X-350000Y28450000D01*
X-350000Y29000000D02*
X250000Y29400000D01*
X250000Y29400000D02*
X250000Y28600000D01*
X250000Y29000000D02*
X750000Y29000000D01*
X250000Y28600000D02*
X-350000Y29000000D01*
%TO.C,D4*%
X-750000Y46000000D02*
X-350000Y46000000D01*
X-350000Y46000000D02*
X-350000Y46550000D01*
X-350000Y46000000D02*
X-350000Y45450000D01*
X-350000Y46000000D02*
X250000Y46400000D01*
X250000Y46400000D02*
X250000Y45600000D01*
X250000Y46000000D02*
X750000Y46000000D01*
X250000Y45600000D02*
X-350000Y46000000D01*
%TO.C,D16*%
X53250000Y57900000D02*
X53650000Y57900000D01*
X53650000Y57900000D02*
X53650000Y58450000D01*
X53650000Y57900000D02*
X53650000Y57350000D01*
X53650000Y57900000D02*
X54250000Y58300000D01*
X54250000Y58300000D02*
X54250000Y57500000D01*
X54250000Y57900000D02*
X54750000Y57900000D01*
X54250000Y57500000D02*
X53650000Y57900000D01*
%TO.C,D23*%
X95283670Y-32317470D02*
X95566513Y-32600313D01*
X95566513Y-32600313D02*
X95177604Y-32989221D01*
X95566513Y-32600313D02*
X95955421Y-32211404D01*
X95566513Y-32600313D02*
X96273619Y-32741734D01*
X95707934Y-33307419D02*
X95566513Y-32600313D01*
X95990777Y-33024577D02*
X96344330Y-33378130D01*
X96273619Y-32741734D02*
X95707934Y-33307419D01*
%TO.C,D22*%
X80281381Y-21052700D02*
X80627791Y-21252700D01*
X80627791Y-21252700D02*
X80352791Y-21729014D01*
X80627791Y-21252700D02*
X80902791Y-20776386D01*
X80627791Y-21252700D02*
X81347406Y-21206290D01*
X80947406Y-21899110D02*
X80627791Y-21252700D01*
X81147406Y-21552700D02*
X81580419Y-21802700D01*
X81347406Y-21206290D02*
X80947406Y-21899110D01*
%TO.C,D20*%
X71250000Y56200000D02*
X71650000Y56200000D01*
X71650000Y56200000D02*
X71650000Y56750000D01*
X71650000Y56200000D02*
X71650000Y55650000D01*
X71650000Y56200000D02*
X72250000Y56600000D01*
X72250000Y56600000D02*
X72250000Y55800000D01*
X72250000Y56200000D02*
X72750000Y56200000D01*
X72250000Y55800000D02*
X71650000Y56200000D01*
%TO.C,D6*%
X17250000Y23900000D02*
X17650000Y23900000D01*
X17650000Y23900000D02*
X17650000Y24450000D01*
X17650000Y23900000D02*
X17650000Y23350000D01*
X17650000Y23900000D02*
X18250000Y24300000D01*
X18250000Y24300000D02*
X18250000Y23500000D01*
X18250000Y23900000D02*
X18750000Y23900000D01*
X18250000Y23500000D02*
X17650000Y23900000D01*
D10*
%TO.C,T2*%
X100500000Y13500000D02*
X100500000Y6900000D01*
X100500000Y6900000D02*
X103350000Y6900000D01*
X103350000Y13500000D02*
X100500000Y13500000D01*
X103350000Y10200000D02*
X103350000Y13500000D01*
X103350000Y10200000D02*
X103350000Y6900000D01*
X103350000Y8250000D02*
X103350000Y12150000D01*
D12*
%TO.C,D14*%
X53250000Y23900000D02*
X53650000Y23900000D01*
X53650000Y23900000D02*
X53650000Y24450000D01*
X53650000Y23900000D02*
X53650000Y23350000D01*
X53650000Y23900000D02*
X54250000Y24300000D01*
X54250000Y24300000D02*
X54250000Y23500000D01*
X54250000Y23900000D02*
X54750000Y23900000D01*
X54250000Y23500000D02*
X53650000Y23900000D01*
%TO.C,D13*%
X53250000Y6900000D02*
X53650000Y6900000D01*
X53650000Y6900000D02*
X53650000Y7450000D01*
X53650000Y6900000D02*
X53650000Y6350000D01*
X53650000Y6900000D02*
X54250000Y7300000D01*
X54250000Y7300000D02*
X54250000Y6500000D01*
X54250000Y6900000D02*
X54750000Y6900000D01*
X54250000Y6500000D02*
X53650000Y6900000D01*
%TO.C,D17*%
X71250000Y5200000D02*
X71650000Y5200000D01*
X71650000Y5200000D02*
X71650000Y5750000D01*
X71650000Y5200000D02*
X71650000Y4650000D01*
X71650000Y5200000D02*
X72250000Y5600000D01*
X72250000Y5600000D02*
X72250000Y4800000D01*
X72250000Y5200000D02*
X72750000Y5200000D01*
X72250000Y4800000D02*
X71650000Y5200000D01*
%TO.C,D2*%
X-750000Y12000000D02*
X-350000Y12000000D01*
X-350000Y12000000D02*
X-350000Y12550000D01*
X-350000Y12000000D02*
X-350000Y11450000D01*
X-350000Y12000000D02*
X250000Y12400000D01*
X250000Y12400000D02*
X250000Y11600000D01*
X250000Y12000000D02*
X750000Y12000000D01*
X250000Y11600000D02*
X-350000Y12000000D01*
%TO.C,D19*%
X71250000Y39200000D02*
X71650000Y39200000D01*
X71650000Y39200000D02*
X71650000Y39750000D01*
X71650000Y39200000D02*
X71650000Y38650000D01*
X71650000Y39200000D02*
X72250000Y39600000D01*
X72250000Y39600000D02*
X72250000Y38800000D01*
X72250000Y39200000D02*
X72750000Y39200000D01*
X72250000Y38800000D02*
X71650000Y39200000D01*
%TO.C,D11*%
X35250000Y44300000D02*
X35650000Y44300000D01*
X35650000Y44300000D02*
X35650000Y44850000D01*
X35650000Y44300000D02*
X35650000Y43750000D01*
X35650000Y44300000D02*
X36250000Y44700000D01*
X36250000Y44700000D02*
X36250000Y43900000D01*
X36250000Y44300000D02*
X36750000Y44300000D01*
X36250000Y43900000D02*
X35650000Y44300000D01*
%TO.C,D18*%
X71250000Y22200000D02*
X71650000Y22200000D01*
X71650000Y22200000D02*
X71650000Y22750000D01*
X71650000Y22200000D02*
X71650000Y21650000D01*
X71650000Y22200000D02*
X72250000Y22600000D01*
X72250000Y22600000D02*
X72250000Y21800000D01*
X72250000Y22200000D02*
X72750000Y22200000D01*
X72250000Y21800000D02*
X71650000Y22200000D01*
%TO.C,D15*%
X53250000Y40900000D02*
X53650000Y40900000D01*
X53650000Y40900000D02*
X53650000Y41450000D01*
X53650000Y40900000D02*
X53650000Y40350000D01*
X53650000Y40900000D02*
X54250000Y41300000D01*
X54250000Y41300000D02*
X54250000Y40500000D01*
X54250000Y40900000D02*
X54750000Y40900000D01*
X54250000Y40500000D02*
X53650000Y40900000D01*
%TO.C,D5*%
X17250000Y6900000D02*
X17650000Y6900000D01*
X17650000Y6900000D02*
X17650000Y7450000D01*
X17650000Y6900000D02*
X17650000Y6350000D01*
X17650000Y6900000D02*
X18250000Y7300000D01*
X18250000Y7300000D02*
X18250000Y6500000D01*
X18250000Y6900000D02*
X18750000Y6900000D01*
X18250000Y6500000D02*
X17650000Y6900000D01*
%TD*%
D13*
%TO.C,MCU2*%
X86880000Y45920000D03*
D14*
X86880000Y43380000D03*
X86880000Y40840000D03*
X86880000Y38300000D03*
X86880000Y35760000D03*
X86880000Y33220000D03*
X86880000Y30680000D03*
X86880000Y28140000D03*
X86880000Y25600000D03*
X86880000Y23060000D03*
X86880000Y20520000D03*
X86880000Y17980000D03*
X102120000Y45920000D03*
X102120000Y43380000D03*
X102120000Y40840000D03*
X102120000Y38300000D03*
X102120000Y35760000D03*
X102120000Y33220000D03*
X102120000Y30680000D03*
X102120000Y28140000D03*
X102120000Y25600000D03*
X102120000Y23060000D03*
X102120000Y20520000D03*
X102120000Y17980000D03*
%TD*%
D13*
%TO.C,MCU1*%
X99620000Y47170000D03*
D14*
X99620000Y44630000D03*
X99620000Y42090000D03*
X99620000Y39550000D03*
X99620000Y37010000D03*
X99620000Y34470000D03*
X99620000Y31930000D03*
X99620000Y29390000D03*
X99620000Y26850000D03*
X99620000Y24310000D03*
X99620000Y21770000D03*
X99620000Y19230000D03*
X84380000Y47170000D03*
X84380000Y44630000D03*
X84380000Y42090000D03*
X84380000Y39550000D03*
X84380000Y37010000D03*
X84380000Y34470000D03*
X84380000Y31930000D03*
X84380000Y29390000D03*
X84380000Y26850000D03*
X84380000Y24310000D03*
X84380000Y21770000D03*
X84380000Y19230000D03*
%TD*%
%LPC*%
D15*
%TO.C,T1*%
X102000000Y11700000D03*
X102000000Y8700000D03*
%TD*%
D16*
%TO.C,B1*%
X89000000Y6950000D03*
X89000000Y13450000D03*
%TD*%
D17*
%TO.C,S11*%
X30500000Y49300000D03*
D18*
X31000000Y53050000D03*
X36000000Y55250000D03*
X36000000Y55250000D03*
D19*
X36000000Y49300000D03*
D18*
X41000000Y53050000D03*
D17*
X41500000Y49300000D03*
D20*
X32725000Y55250000D03*
X44275000Y53050000D03*
%TD*%
D21*
%TO.C,D9*%
X32190000Y10300000D03*
D22*
X34350000Y10300000D03*
X37650000Y10300000D03*
D23*
X39810000Y10300000D03*
%TD*%
D17*
%TO.C,S17*%
X66500000Y10200000D03*
D18*
X67000000Y13950000D03*
X72000000Y16150000D03*
X72000000Y16150000D03*
D19*
X72000000Y10200000D03*
D18*
X77000000Y13950000D03*
D17*
X77500000Y10200000D03*
D20*
X68725000Y16150000D03*
X80275000Y13950000D03*
%TD*%
D21*
%TO.C,D10*%
X32190000Y27300000D03*
D22*
X34350000Y27300000D03*
X37650000Y27300000D03*
D23*
X39810000Y27300000D03*
%TD*%
D21*
%TO.C,D12*%
X32190000Y61300000D03*
D22*
X34350000Y61300000D03*
X37650000Y61300000D03*
D23*
X39810000Y61300000D03*
%TD*%
D17*
%TO.C,S3*%
X-5500000Y34000000D03*
D18*
X-5000000Y37750000D03*
X0Y39950000D03*
X0Y39950000D03*
D19*
X0Y34000000D03*
D18*
X5000000Y37750000D03*
D17*
X5500000Y34000000D03*
D20*
X-3275000Y39950000D03*
X8275000Y37750000D03*
%TD*%
D24*
%TO.C,D21*%
X59919023Y-13262498D03*
D25*
X62005422Y-13821550D03*
X65192978Y-14675650D03*
D23*
X67279377Y-15234702D03*
%TD*%
D21*
%TO.C,D7*%
X14190000Y40900000D03*
D22*
X16350000Y40900000D03*
X19650000Y40900000D03*
D23*
X21810000Y40900000D03*
%TD*%
D17*
%TO.C,S9*%
X30500000Y15300000D03*
D18*
X31000000Y19050000D03*
X36000000Y21250000D03*
X36000000Y21250000D03*
D19*
X36000000Y15300000D03*
D18*
X41000000Y19050000D03*
D17*
X41500000Y15300000D03*
D20*
X32725000Y21250000D03*
X44275000Y19050000D03*
%TD*%
D17*
%TO.C,S1*%
X-5500000Y0D03*
D18*
X-5000000Y3750000D03*
X0Y5950000D03*
X0Y5950000D03*
D19*
X0Y0D03*
D18*
X5000000Y3750000D03*
D17*
X5500000Y0D03*
D20*
X-3275000Y5950000D03*
X8275000Y3750000D03*
%TD*%
D17*
%TO.C,S13*%
X48500000Y11900000D03*
D18*
X49000000Y15650000D03*
X54000000Y17850000D03*
X54000000Y17850000D03*
D19*
X54000000Y11900000D03*
D18*
X59000000Y15650000D03*
D17*
X59500000Y11900000D03*
D20*
X50725000Y17850000D03*
X62275000Y15650000D03*
%TD*%
D17*
%TO.C,S10*%
X30500000Y32300000D03*
D18*
X31000000Y36050000D03*
X36000000Y38250000D03*
X36000000Y38250000D03*
D19*
X36000000Y32300000D03*
D18*
X41000000Y36050000D03*
D17*
X41500000Y32300000D03*
D20*
X32725000Y38250000D03*
X44275000Y36050000D03*
%TD*%
D17*
%TO.C,S23*%
X95460413Y-25423213D03*
D18*
X98465617Y-23125116D03*
X103556785Y-25105015D03*
X103556785Y-25105015D03*
D19*
X99349500Y-29312300D03*
D18*
X105536684Y-30196183D03*
D17*
X103238587Y-33201387D03*
D26*
X101241011Y-22789240D03*
X107852459Y-32511958D03*
%TD*%
D17*
%TO.C,S18*%
X66500000Y27200000D03*
D18*
X67000000Y30950000D03*
X72000000Y33150000D03*
X72000000Y33150000D03*
D19*
X72000000Y27200000D03*
D18*
X77000000Y30950000D03*
D17*
X77500000Y27200000D03*
D20*
X68725000Y33150000D03*
X80275000Y30950000D03*
%TD*%
D17*
%TO.C,S4*%
X-5500000Y51000000D03*
D18*
X-5000000Y54750000D03*
X0Y56950000D03*
X0Y56950000D03*
D19*
X0Y51000000D03*
D18*
X5000000Y54750000D03*
D17*
X5500000Y51000000D03*
D20*
X-3275000Y56950000D03*
X8275000Y54750000D03*
%TD*%
D27*
%TO.C,PAD2*%
X95000000Y41200000D03*
%TD*%
D21*
%TO.C,D8*%
X14190000Y57900000D03*
D22*
X16350000Y57900000D03*
X19650000Y57900000D03*
D23*
X21810000Y57900000D03*
%TD*%
D17*
%TO.C,S12*%
X30500000Y66300000D03*
D18*
X31000000Y70050000D03*
X36000000Y72250000D03*
X36000000Y72250000D03*
D19*
X36000000Y66300000D03*
D18*
X41000000Y70050000D03*
D17*
X41500000Y66300000D03*
D20*
X32725000Y72250000D03*
X44275000Y70050000D03*
%TD*%
D17*
%TO.C,S6*%
X12500000Y28900000D03*
D18*
X13000000Y32650000D03*
X18000000Y34850000D03*
X18000000Y34850000D03*
D19*
X18000000Y28900000D03*
D18*
X23000000Y32650000D03*
D17*
X23500000Y28900000D03*
D20*
X14725000Y34850000D03*
X26275000Y32650000D03*
%TD*%
D21*
%TO.C,D1*%
X-3810000Y-5000000D03*
D22*
X-1650000Y-5000000D03*
X1650000Y-5000000D03*
D23*
X3810000Y-5000000D03*
%TD*%
D21*
%TO.C,D3*%
X-3810000Y29000000D03*
D22*
X-1650000Y29000000D03*
X1650000Y29000000D03*
D23*
X3810000Y29000000D03*
%TD*%
D27*
%TO.C,PAD1*%
X95000000Y38200000D03*
%TD*%
D21*
%TO.C,D4*%
X-3810000Y46000000D03*
D22*
X-1650000Y46000000D03*
X1650000Y46000000D03*
D23*
X3810000Y46000000D03*
%TD*%
D21*
%TO.C,D16*%
X50190000Y57900000D03*
D22*
X52350000Y57900000D03*
X55650000Y57900000D03*
D23*
X57810000Y57900000D03*
%TD*%
D17*
%TO.C,S5*%
X12500000Y11900000D03*
D18*
X13000000Y15650000D03*
X18000000Y17850000D03*
X18000000Y17850000D03*
D19*
X18000000Y11900000D03*
D18*
X23000000Y15650000D03*
D17*
X23500000Y11900000D03*
D20*
X14725000Y17850000D03*
X26275000Y15650000D03*
%TD*%
D28*
%TO.C,TRRS1*%
X102400000Y-2500000D03*
X95400000Y-2500000D03*
X102400000Y-4800000D03*
X95400000Y-4800000D03*
D29*
X92700000Y-2500000D03*
X92700000Y-4800000D03*
X93800000Y-200000D03*
X93800000Y-7100000D03*
X97800000Y-200000D03*
X97800000Y-7100000D03*
X100800000Y-200000D03*
X100800000Y-7100000D03*
%TD*%
D17*
%TO.C,S21*%
X59580708Y-7995495D03*
D18*
X61034242Y-4502683D03*
X66433273Y-3671741D03*
X66433273Y-3671741D03*
D19*
X64893300Y-9419000D03*
D18*
X70693501Y-7090873D03*
D17*
X70205892Y-10842505D03*
D30*
X63269866Y-2824109D03*
X73856908Y-7938506D03*
%TD*%
D17*
%TO.C,S7*%
X12500000Y45900000D03*
D18*
X13000000Y49650000D03*
X18000000Y51850000D03*
X18000000Y51850000D03*
D19*
X18000000Y45900000D03*
D18*
X23000000Y49650000D03*
D17*
X23500000Y45900000D03*
D20*
X14725000Y51850000D03*
X26275000Y49650000D03*
%TD*%
D17*
%TO.C,S14*%
X48500000Y28900000D03*
D18*
X49000000Y32650000D03*
X54000000Y34850000D03*
X54000000Y34850000D03*
D19*
X54000000Y28900000D03*
D18*
X59000000Y32650000D03*
D17*
X59500000Y28900000D03*
D20*
X50725000Y34850000D03*
X62275000Y32650000D03*
%TD*%
D31*
%TO.C,D23*%
X93119923Y-30153723D03*
D32*
X94647274Y-31681074D03*
X96980726Y-34014526D03*
D23*
X98508077Y-35541877D03*
%TD*%
D33*
%TO.C,D22*%
X77631343Y-19522700D03*
D34*
X79501958Y-20602700D03*
X82359842Y-22252700D03*
D23*
X84230457Y-23332700D03*
%TD*%
D21*
%TO.C,D20*%
X68190000Y56200000D03*
D22*
X70350000Y56200000D03*
X73650000Y56200000D03*
D23*
X75810000Y56200000D03*
%TD*%
D17*
%TO.C,S16*%
X48500000Y62900000D03*
D18*
X49000000Y66650000D03*
X54000000Y68850000D03*
X54000000Y68850000D03*
D19*
X54000000Y62900000D03*
D18*
X59000000Y66650000D03*
D17*
X59500000Y62900000D03*
D20*
X50725000Y68850000D03*
X62275000Y66650000D03*
%TD*%
D21*
%TO.C,D6*%
X14190000Y23900000D03*
D22*
X16350000Y23900000D03*
X19650000Y23900000D03*
D23*
X21810000Y23900000D03*
%TD*%
D35*
%TO.C,T2*%
X103100000Y13900000D03*
X100900000Y13900000D03*
D15*
X102000000Y11700000D03*
X102000000Y8700000D03*
D35*
X103100000Y6500000D03*
X100900000Y6500000D03*
D36*
X99925000Y12450000D03*
X99925000Y9450000D03*
X99925000Y7950000D03*
%TD*%
D17*
%TO.C,S2*%
X-5500000Y17000000D03*
D18*
X-5000000Y20750000D03*
X0Y22950000D03*
X0Y22950000D03*
D19*
X0Y17000000D03*
D18*
X5000000Y20750000D03*
D17*
X5500000Y17000000D03*
D20*
X-3275000Y22950000D03*
X8275000Y20750000D03*
%TD*%
D21*
%TO.C,D14*%
X50190000Y23900000D03*
D22*
X52350000Y23900000D03*
X55650000Y23900000D03*
D23*
X57810000Y23900000D03*
%TD*%
D21*
%TO.C,D13*%
X50190000Y6900000D03*
D22*
X52350000Y6900000D03*
X55650000Y6900000D03*
D23*
X57810000Y6900000D03*
%TD*%
D21*
%TO.C,D17*%
X68190000Y5200000D03*
D22*
X70350000Y5200000D03*
X73650000Y5200000D03*
D23*
X75810000Y5200000D03*
%TD*%
D21*
%TO.C,D2*%
X-3810000Y12000000D03*
D22*
X-1650000Y12000000D03*
X1650000Y12000000D03*
D23*
X3810000Y12000000D03*
%TD*%
D37*
%TO.C,J1*%
X95500000Y10700380D03*
X95500000Y9699620D03*
%TD*%
D21*
%TO.C,D19*%
X68190000Y39200000D03*
D22*
X70350000Y39200000D03*
X73650000Y39200000D03*
D23*
X75810000Y39200000D03*
%TD*%
D17*
%TO.C,S20*%
X66500000Y61200000D03*
D18*
X67000000Y64950000D03*
X72000000Y67150000D03*
X72000000Y67150000D03*
D19*
X72000000Y61200000D03*
D18*
X77000000Y64950000D03*
D17*
X77500000Y61200000D03*
D20*
X68725000Y67150000D03*
X80275000Y64950000D03*
%TD*%
D17*
%TO.C,S8*%
X12500000Y62900000D03*
D18*
X13000000Y66650000D03*
X18000000Y68850000D03*
X18000000Y68850000D03*
D19*
X18000000Y62900000D03*
D18*
X23000000Y66650000D03*
D17*
X23500000Y62900000D03*
D20*
X14725000Y68850000D03*
X26275000Y66650000D03*
%TD*%
D21*
%TO.C,D11*%
X32190000Y44300000D03*
D22*
X34350000Y44300000D03*
X37650000Y44300000D03*
D23*
X39810000Y44300000D03*
%TD*%
D38*
%TO.C,MCU2*%
X86880000Y45920000D03*
D39*
X86880000Y43380000D03*
X86880000Y40840000D03*
X86880000Y38300000D03*
X86880000Y35760000D03*
X86880000Y33220000D03*
X86880000Y30680000D03*
X86880000Y28140000D03*
X86880000Y25600000D03*
X86880000Y23060000D03*
X86880000Y20520000D03*
X86880000Y17980000D03*
X102120000Y45920000D03*
X102120000Y43380000D03*
X102120000Y40840000D03*
X102120000Y38300000D03*
X102120000Y35760000D03*
X102120000Y33220000D03*
X102120000Y30680000D03*
X102120000Y28140000D03*
X102120000Y25600000D03*
X102120000Y23060000D03*
X102120000Y20520000D03*
X102120000Y17980000D03*
%TD*%
D17*
%TO.C,S22*%
X78667760Y-14347500D03*
D18*
X80975773Y-11349905D03*
X86405900Y-11944649D03*
X86405900Y-11944649D03*
D19*
X83430900Y-17097500D03*
D18*
X89636027Y-16349905D03*
D17*
X88194040Y-19847500D03*
D40*
X83569667Y-10307149D03*
X92472260Y-17987405D03*
%TD*%
D21*
%TO.C,D18*%
X68190000Y22200000D03*
D22*
X70350000Y22200000D03*
X73650000Y22200000D03*
D23*
X75810000Y22200000D03*
%TD*%
D17*
%TO.C,S15*%
X48500000Y45900000D03*
D18*
X49000000Y49650000D03*
X54000000Y51850000D03*
X54000000Y51850000D03*
D19*
X54000000Y45900000D03*
D18*
X59000000Y49650000D03*
D17*
X59500000Y45900000D03*
D20*
X50725000Y51850000D03*
X62275000Y49650000D03*
%TD*%
D17*
%TO.C,S19*%
X66500000Y44200000D03*
D18*
X67000000Y47950000D03*
X72000000Y50150000D03*
X72000000Y50150000D03*
D19*
X72000000Y44200000D03*
D18*
X77000000Y47950000D03*
D17*
X77500000Y44200000D03*
D20*
X68725000Y50150000D03*
X80275000Y47950000D03*
%TD*%
D38*
%TO.C,MCU1*%
X99620000Y47170000D03*
D39*
X99620000Y44630000D03*
X99620000Y42090000D03*
X99620000Y39550000D03*
X99620000Y37010000D03*
X99620000Y34470000D03*
X99620000Y31930000D03*
X99620000Y29390000D03*
X99620000Y26850000D03*
X99620000Y24310000D03*
X99620000Y21770000D03*
X99620000Y19230000D03*
X84380000Y47170000D03*
X84380000Y44630000D03*
X84380000Y42090000D03*
X84380000Y39550000D03*
X84380000Y37010000D03*
X84380000Y34470000D03*
X84380000Y31930000D03*
X84380000Y29390000D03*
X84380000Y26850000D03*
X84380000Y24310000D03*
X84380000Y21770000D03*
X84380000Y19230000D03*
%TD*%
D21*
%TO.C,D15*%
X50190000Y40900000D03*
D22*
X52350000Y40900000D03*
X55650000Y40900000D03*
D23*
X57810000Y40900000D03*
%TD*%
D21*
%TO.C,D5*%
X14190000Y6900000D03*
D22*
X16350000Y6900000D03*
X19650000Y6900000D03*
D23*
X21810000Y6900000D03*
%TD*%
%LPD*%
M02*
