M48
; DRILL file {KiCad 8.0.2} date 2024-05-30T16:08:44+0100
; FORMAT={-:-/ absolute / metric / decimal}
; #@! TF.CreationDate,2024-05-30T16:08:44+01:00
; #@! TF.GenerationSoftware,Kicad,Pcbnew,8.0.2
; #@! TF.FileFunction,NonPlated,1,2,NPTH
FMAT,2
METRIC
; #@! TA.AperFunction,NonPlated,NPTH,ComponentDrill
T1C0.900
; #@! TA.AperFunction,NonPlated,NPTH,ComponentDrill
T2C1.200
; #@! TA.AperFunction,NonPlated,NPTH,ComponentDrill
T3C1.702
; #@! TA.AperFunction,NonPlated,NPTH,ComponentDrill
T4C3.000
; #@! TA.AperFunction,NonPlated,NPTH,ComponentDrill
T5C3.429
%
G90
G05
T1
X102.0Y11.7
X102.0Y11.7
X102.0Y8.7
X102.0Y8.7
T2
X95.4Y-2.5
X95.4Y-4.8
X102.4Y-2.5
X102.4Y-4.8
T3
X-5.5Y51.0
X-5.5Y34.0
X-5.5Y17.0
X-5.5Y0.0
X5.5Y51.0
X5.5Y34.0
X5.5Y17.0
X5.5Y0.0
X12.5Y62.9
X12.5Y45.9
X12.5Y28.9
X12.5Y11.9
X23.5Y62.9
X23.5Y45.9
X23.5Y28.9
X23.5Y11.9
X30.5Y66.3
X30.5Y49.3
X30.5Y32.3
X30.5Y15.3
X41.5Y66.3
X41.5Y49.3
X41.5Y32.3
X41.5Y15.3
X48.5Y62.9
X48.5Y45.9
X48.5Y28.9
X48.5Y11.9
X59.5Y62.9
X59.5Y45.9
X59.5Y28.9
X59.5Y11.9
X59.581Y-7.995
X66.5Y61.2
X66.5Y44.2
X66.5Y27.2
X66.5Y10.2
X70.206Y-10.843
X77.5Y61.2
X77.5Y44.2
X77.5Y27.2
X77.5Y10.2
X78.668Y-14.348
X88.194Y-19.848
X95.46Y-25.423
X103.239Y-33.201
T4
X-5.0Y54.75
X-5.0Y37.75
X-5.0Y20.75
X-5.0Y3.75
X0.0Y56.95
X0.0Y56.95
X0.0Y39.95
X0.0Y39.95
X0.0Y22.95
X0.0Y22.95
X0.0Y5.95
X0.0Y5.95
X5.0Y54.75
X5.0Y37.75
X5.0Y20.75
X5.0Y3.75
X13.0Y66.65
X13.0Y49.65
X13.0Y32.65
X13.0Y15.65
X18.0Y68.85
X18.0Y68.85
X18.0Y51.85
X18.0Y51.85
X18.0Y34.85
X18.0Y34.85
X18.0Y17.85
X18.0Y17.85
X23.0Y66.65
X23.0Y49.65
X23.0Y32.65
X23.0Y15.65
X31.0Y70.05
X31.0Y53.05
X31.0Y36.05
X31.0Y19.05
X36.0Y72.25
X36.0Y72.25
X36.0Y55.25
X36.0Y55.25
X36.0Y38.25
X36.0Y38.25
X36.0Y21.25
X36.0Y21.25
X41.0Y70.05
X41.0Y53.05
X41.0Y36.05
X41.0Y19.05
X49.0Y66.65
X49.0Y49.65
X49.0Y32.65
X49.0Y15.65
X54.0Y68.85
X54.0Y68.85
X54.0Y51.85
X54.0Y51.85
X54.0Y34.85
X54.0Y34.85
X54.0Y17.85
X54.0Y17.85
X59.0Y66.65
X59.0Y49.65
X59.0Y32.65
X59.0Y15.65
X61.034Y-4.503
X66.433Y-3.672
X66.433Y-3.672
X67.0Y64.95
X67.0Y47.95
X67.0Y30.95
X67.0Y13.95
X70.694Y-7.091
X72.0Y67.15
X72.0Y67.15
X72.0Y50.15
X72.0Y50.15
X72.0Y33.15
X72.0Y33.15
X72.0Y16.15
X72.0Y16.15
X77.0Y64.95
X77.0Y47.95
X77.0Y30.95
X77.0Y13.95
X80.976Y-11.35
X86.406Y-11.945
X86.406Y-11.945
X89.636Y-16.35
X98.466Y-23.125
X103.557Y-25.105
X103.557Y-25.105
X105.537Y-30.196
T5
X0.0Y51.0
X0.0Y34.0
X0.0Y17.0
X0.0Y0.0
X18.0Y62.9
X18.0Y45.9
X18.0Y28.9
X18.0Y11.9
X36.0Y66.3
X36.0Y49.3
X36.0Y32.3
X36.0Y15.3
X54.0Y62.9
X54.0Y45.9
X54.0Y28.9
X54.0Y11.9
X64.893Y-9.419
X72.0Y61.2
X72.0Y44.2
X72.0Y27.2
X72.0Y10.2
X83.431Y-17.098
X99.349Y-29.312
M30
