G04 #@! TF.GenerationSoftware,KiCad,Pcbnew,5.1.5+dfsg1-2build2*
G04 #@! TF.CreationDate,2024-05-28T11:23:48+00:00*
G04 #@! TF.ProjectId,board,626f6172-642e-46b6-9963-61645f706362,0.3*
G04 #@! TF.SameCoordinates,Original*
G04 #@! TF.FileFunction,Copper,L2,Bot*
G04 #@! TF.FilePolarity,Positive*
%FSLAX46Y46*%
G04 Gerber Fmt 4.6, Leading zero omitted, Abs format (unit mm)*
G04 Created by KiCad (PCBNEW 5.1.5+dfsg1-2build2) date 2024-05-28 11:23:48*
%MOMM*%
%LPD*%
G04 APERTURE LIST*
G04 #@! TA.AperFunction,Profile*
%ADD10C,0.150000*%
G04 #@! TD*
G04 #@! TA.AperFunction,SMDPad,CuDef*
%ADD11R,2.600000X2.600000*%
G04 #@! TD*
G04 #@! TA.AperFunction,SMDPad,CuDef*
%ADD12C,0.350000*%
G04 #@! TD*
G04 #@! TA.AperFunction,SMDPad,CuDef*
%ADD13R,0.900000X1.200000*%
G04 #@! TD*
G04 #@! TA.AperFunction,ComponentPad*
%ADD14R,1.778000X1.778000*%
G04 #@! TD*
G04 #@! TA.AperFunction,ComponentPad*
%ADD15C,1.905000*%
G04 #@! TD*
G04 #@! TA.AperFunction,ComponentPad*
%ADD16C,0.350000*%
G04 #@! TD*
G04 #@! TA.AperFunction,ComponentPad*
%ADD17R,1.752600X1.752600*%
G04 #@! TD*
G04 #@! TA.AperFunction,ComponentPad*
%ADD18C,1.752600*%
G04 #@! TD*
G04 #@! TA.AperFunction,SMDPad,CuDef*
%ADD19R,1.500000X1.500000*%
G04 #@! TD*
G04 #@! TA.AperFunction,ComponentPad*
%ADD20O,2.200000X1.600000*%
G04 #@! TD*
G04 #@! TA.AperFunction,SMDPad,CuDef*
%ADD21R,1.143000X0.635000*%
G04 #@! TD*
G04 #@! TA.AperFunction,WasherPad*
%ADD22C,1.000000*%
G04 #@! TD*
G04 #@! TA.AperFunction,SMDPad,CuDef*
%ADD23R,1.250000X0.900000*%
G04 #@! TD*
G04 #@! TA.AperFunction,SMDPad,CuDef*
%ADD24R,0.900000X0.900000*%
G04 #@! TD*
G04 #@! TA.AperFunction,ComponentPad*
%ADD25C,2.000000*%
G04 #@! TD*
G04 #@! TA.AperFunction,ViaPad*
%ADD26C,0.800000*%
G04 #@! TD*
G04 #@! TA.AperFunction,Conductor*
%ADD27C,0.250000*%
G04 #@! TD*
G04 APERTURE END LIST*
D10*
X-8000000Y-9500000D02*
X8000000Y-9500000D01*
X-10000000Y-7500000D02*
X-10000000Y58500000D01*
X-8000000Y-9500000D02*
G75*
G02X-10000000Y-7500000I0J2000000D01*
G01*
X8000000Y60500000D02*
X-8000000Y60500000D01*
X-10000000Y58500000D02*
G75*
G02X-8000000Y60500000I2000000J0D01*
G01*
X26000000Y72400000D02*
X10000000Y72400000D01*
X8000000Y70400000D02*
G75*
G02X10000000Y72400000I2000000J0D01*
G01*
X8000000Y70400000D02*
X8000000Y60500000D01*
X46000000Y72400000D02*
X46000000Y73800000D01*
X44000000Y75800000D02*
G75*
G02X46000000Y73800000I0J-2000000D01*
G01*
X44000000Y75800000D02*
X28000000Y75800000D01*
X26000000Y73800000D02*
G75*
G02X28000000Y75800000I2000000J0D01*
G01*
X26000000Y73800000D02*
X26000000Y72400000D01*
X62000000Y72400000D02*
G75*
G02X63977391Y70699872I0J-2000000D01*
G01*
X62000000Y72400000D02*
X46000000Y72400000D01*
X82000000Y51850000D02*
X82000000Y68700000D01*
X80000000Y70700000D02*
G75*
G02X82000000Y68700000I0J-2000000D01*
G01*
X80000000Y70700000D02*
X64000000Y70700000D01*
X63977391Y70699872D02*
G75*
G02X64000000Y70700000I22609J-1999872D01*
G01*
X101117258Y-41686664D02*
G75*
G02X98288831Y-41686665I-1414214J1414213D01*
G01*
X101117258Y-41686665D02*
X111723860Y-31080063D01*
X111723859Y-28251637D02*
G75*
G02X111723859Y-31080063I-1414213J-1414213D01*
G01*
X104000000Y-20208734D02*
X111723860Y-28251636D01*
X98288831Y-41686665D02*
X54707107Y-16524745D01*
X54707107Y-16524745D02*
X8000000Y-9500000D01*
X104000000Y-20208734D02*
X104000000Y49850000D01*
X102000000Y51850000D02*
G75*
G02X104000000Y49850000I0J-2000000D01*
G01*
X102000000Y51850000D02*
X82000000Y51850000D01*
X11050000Y28900000D02*
G75*
G03X11050000Y28900000I-2050000J0D01*
G01*
X11050000Y0D02*
G75*
G03X11050000Y0I-2050000J0D01*
G01*
X65050000Y61200000D02*
G75*
G03X65050000Y61200000I-2050000J0D01*
G01*
X56050000Y-6120000D02*
G75*
G03X56050000Y-6120000I-2050000J0D01*
G01*
X94399134Y-22311939D02*
G75*
G03X94399134Y-22311939I-2050000J0D01*
G01*
D11*
G04 #@! TO.P,S1,1*
G04 #@! TO.N,pinky_bottom*
X-3275000Y5950000D03*
G04 #@! TO.P,S1,2*
G04 #@! TO.N,col_pinky*
X8275000Y3750000D03*
G04 #@! TD*
G04 #@! TO.P,S2,1*
G04 #@! TO.N,pinky_home*
X-3275000Y22950000D03*
G04 #@! TO.P,S2,2*
G04 #@! TO.N,col_pinky*
X8275000Y20750000D03*
G04 #@! TD*
G04 #@! TO.P,S3,1*
G04 #@! TO.N,pinky_top*
X-3275000Y39950000D03*
G04 #@! TO.P,S3,2*
G04 #@! TO.N,col_pinky*
X8275000Y37750000D03*
G04 #@! TD*
G04 #@! TO.P,S4,1*
G04 #@! TO.N,pinky_extra*
X-3275000Y56950000D03*
G04 #@! TO.P,S4,2*
G04 #@! TO.N,col_pinky*
X8275000Y54750000D03*
G04 #@! TD*
G04 #@! TO.P,S5,1*
G04 #@! TO.N,ring_bottom*
X14725000Y17850000D03*
G04 #@! TO.P,S5,2*
G04 #@! TO.N,col_ring*
X26275000Y15650000D03*
G04 #@! TD*
G04 #@! TO.P,S6,1*
G04 #@! TO.N,ring_home*
X14725000Y34850000D03*
G04 #@! TO.P,S6,2*
G04 #@! TO.N,col_ring*
X26275000Y32650000D03*
G04 #@! TD*
G04 #@! TO.P,S7,1*
G04 #@! TO.N,ring_top*
X14725000Y51850000D03*
G04 #@! TO.P,S7,2*
G04 #@! TO.N,col_ring*
X26275000Y49650000D03*
G04 #@! TD*
G04 #@! TO.P,S8,1*
G04 #@! TO.N,ring_extra*
X14725000Y68850000D03*
G04 #@! TO.P,S8,2*
G04 #@! TO.N,col_ring*
X26275000Y66650000D03*
G04 #@! TD*
G04 #@! TO.P,S9,1*
G04 #@! TO.N,middle_bottom*
X32725000Y21250000D03*
G04 #@! TO.P,S9,2*
G04 #@! TO.N,col_middle*
X44275000Y19050000D03*
G04 #@! TD*
G04 #@! TO.P,S10,1*
G04 #@! TO.N,middle_home*
X32725000Y38250000D03*
G04 #@! TO.P,S10,2*
G04 #@! TO.N,col_middle*
X44275000Y36050000D03*
G04 #@! TD*
G04 #@! TO.P,S11,1*
G04 #@! TO.N,middle_top*
X32725000Y55250000D03*
G04 #@! TO.P,S11,2*
G04 #@! TO.N,col_middle*
X44275000Y53050000D03*
G04 #@! TD*
G04 #@! TO.P,S12,1*
G04 #@! TO.N,middle_extra*
X32725000Y72250000D03*
G04 #@! TO.P,S12,2*
G04 #@! TO.N,col_middle*
X44275000Y70050000D03*
G04 #@! TD*
G04 #@! TO.P,S13,1*
G04 #@! TO.N,index_bottom*
X50725000Y17850000D03*
G04 #@! TO.P,S13,2*
G04 #@! TO.N,col_index*
X62275000Y15650000D03*
G04 #@! TD*
G04 #@! TO.P,S14,1*
G04 #@! TO.N,index_home*
X50725000Y34850000D03*
G04 #@! TO.P,S14,2*
G04 #@! TO.N,col_index*
X62275000Y32650000D03*
G04 #@! TD*
G04 #@! TO.P,S15,1*
G04 #@! TO.N,index_top*
X50725000Y51850000D03*
G04 #@! TO.P,S15,2*
G04 #@! TO.N,col_index*
X62275000Y49650000D03*
G04 #@! TD*
G04 #@! TO.P,S16,1*
G04 #@! TO.N,index_extra*
X50725000Y68850000D03*
G04 #@! TO.P,S16,2*
G04 #@! TO.N,col_index*
X62275000Y66650000D03*
G04 #@! TD*
G04 #@! TO.P,S17,1*
G04 #@! TO.N,inner_bottom*
X68725000Y16150000D03*
G04 #@! TO.P,S17,2*
G04 #@! TO.N,col_inner*
X80275000Y13950000D03*
G04 #@! TD*
G04 #@! TO.P,S18,1*
G04 #@! TO.N,inner_home*
X68725000Y33150000D03*
G04 #@! TO.P,S18,2*
G04 #@! TO.N,col_inner*
X80275000Y30950000D03*
G04 #@! TD*
G04 #@! TO.P,S19,1*
G04 #@! TO.N,inner_top*
X68725000Y50150000D03*
G04 #@! TO.P,S19,2*
G04 #@! TO.N,col_inner*
X80275000Y47950000D03*
G04 #@! TD*
G04 #@! TO.P,S20,1*
G04 #@! TO.N,inner_extra*
X68725000Y67150000D03*
G04 #@! TO.P,S20,2*
G04 #@! TO.N,col_inner*
X80275000Y64950000D03*
G04 #@! TD*
G04 #@! TA.AperFunction,SMDPad,CuDef*
D12*
G04 #@! TO.P,S21,1*
G04 #@! TO.N,near_thumb*
G36*
X61677698Y-3743348D02*
G01*
X62350627Y-1231941D01*
X64862034Y-1904870D01*
X64189105Y-4416277D01*
X61677698Y-3743348D01*
G37*
G04 #@! TD.AperFunction*
G04 #@! TA.AperFunction,SMDPad,CuDef*
G04 #@! TO.P,S21,2*
G04 #@! TO.N,col_middle*
G36*
X72264740Y-8857745D02*
G01*
X72937669Y-6346338D01*
X75449076Y-7019267D01*
X74776147Y-9530674D01*
X72264740Y-8857745D01*
G37*
G04 #@! TD.AperFunction*
G04 #@! TD*
G04 #@! TA.AperFunction,SMDPad,CuDef*
G04 #@! TO.P,S22,1*
G04 #@! TO.N,home_thumb*
G36*
X81793834Y-10782982D02*
G01*
X83093834Y-8531316D01*
X85345500Y-9831316D01*
X84045500Y-12082982D01*
X81793834Y-10782982D01*
G37*
G04 #@! TD.AperFunction*
G04 #@! TA.AperFunction,SMDPad,CuDef*
G04 #@! TO.P,S22,2*
G04 #@! TO.N,col_index*
G36*
X90696427Y-18463238D02*
G01*
X91996427Y-16211572D01*
X94248093Y-17511572D01*
X92948093Y-19763238D01*
X90696427Y-18463238D01*
G37*
G04 #@! TD.AperFunction*
G04 #@! TD*
G04 #@! TA.AperFunction,SMDPad,CuDef*
G04 #@! TO.P,S23,1*
G04 #@! TO.N,far_thumb*
G36*
X99402533Y-22789240D02*
G01*
X101241011Y-20950762D01*
X103079489Y-22789240D01*
X101241011Y-24627718D01*
X99402533Y-22789240D01*
G37*
G04 #@! TD.AperFunction*
G04 #@! TA.AperFunction,SMDPad,CuDef*
G04 #@! TO.P,S23,2*
G04 #@! TO.N,col_inner*
G36*
X106013981Y-32511958D02*
G01*
X107852459Y-30673480D01*
X109690937Y-32511958D01*
X107852459Y-34350436D01*
X106013981Y-32511958D01*
G37*
G04 #@! TD.AperFunction*
G04 #@! TD*
D13*
G04 #@! TO.P,D1,2*
G04 #@! TO.N,pinky_bottom*
X1650000Y-5000000D03*
G04 #@! TO.P,D1,1*
G04 #@! TO.N,row_bottom*
X-1650000Y-5000000D03*
D14*
X-3810000Y-5000000D03*
D15*
G04 #@! TO.P,D1,2*
G04 #@! TO.N,pinky_bottom*
X3810000Y-5000000D03*
G04 #@! TD*
D13*
G04 #@! TO.P,D2,2*
G04 #@! TO.N,pinky_home*
X1650000Y12000000D03*
G04 #@! TO.P,D2,1*
G04 #@! TO.N,row_home*
X-1650000Y12000000D03*
D14*
X-3810000Y12000000D03*
D15*
G04 #@! TO.P,D2,2*
G04 #@! TO.N,pinky_home*
X3810000Y12000000D03*
G04 #@! TD*
D13*
G04 #@! TO.P,D3,2*
G04 #@! TO.N,pinky_top*
X1650000Y29000000D03*
G04 #@! TO.P,D3,1*
G04 #@! TO.N,row_top*
X-1650000Y29000000D03*
D14*
X-3810000Y29000000D03*
D15*
G04 #@! TO.P,D3,2*
G04 #@! TO.N,pinky_top*
X3810000Y29000000D03*
G04 #@! TD*
D13*
G04 #@! TO.P,D4,2*
G04 #@! TO.N,pinky_extra*
X1650000Y46000000D03*
G04 #@! TO.P,D4,1*
G04 #@! TO.N,row_extra*
X-1650000Y46000000D03*
D14*
X-3810000Y46000000D03*
D15*
G04 #@! TO.P,D4,2*
G04 #@! TO.N,pinky_extra*
X3810000Y46000000D03*
G04 #@! TD*
D13*
G04 #@! TO.P,D5,2*
G04 #@! TO.N,ring_bottom*
X19650000Y6900000D03*
G04 #@! TO.P,D5,1*
G04 #@! TO.N,row_bottom*
X16350000Y6900000D03*
D14*
X14190000Y6900000D03*
D15*
G04 #@! TO.P,D5,2*
G04 #@! TO.N,ring_bottom*
X21810000Y6900000D03*
G04 #@! TD*
D13*
G04 #@! TO.P,D6,2*
G04 #@! TO.N,ring_home*
X19650000Y23900000D03*
G04 #@! TO.P,D6,1*
G04 #@! TO.N,row_home*
X16350000Y23900000D03*
D14*
X14190000Y23900000D03*
D15*
G04 #@! TO.P,D6,2*
G04 #@! TO.N,ring_home*
X21810000Y23900000D03*
G04 #@! TD*
D13*
G04 #@! TO.P,D7,2*
G04 #@! TO.N,ring_top*
X19650000Y40900000D03*
G04 #@! TO.P,D7,1*
G04 #@! TO.N,row_top*
X16350000Y40900000D03*
D14*
X14190000Y40900000D03*
D15*
G04 #@! TO.P,D7,2*
G04 #@! TO.N,ring_top*
X21810000Y40900000D03*
G04 #@! TD*
D13*
G04 #@! TO.P,D8,2*
G04 #@! TO.N,ring_extra*
X19650000Y57900000D03*
G04 #@! TO.P,D8,1*
G04 #@! TO.N,row_extra*
X16350000Y57900000D03*
D14*
X14190000Y57900000D03*
D15*
G04 #@! TO.P,D8,2*
G04 #@! TO.N,ring_extra*
X21810000Y57900000D03*
G04 #@! TD*
D13*
G04 #@! TO.P,D9,2*
G04 #@! TO.N,middle_bottom*
X37650000Y10300000D03*
G04 #@! TO.P,D9,1*
G04 #@! TO.N,row_bottom*
X34350000Y10300000D03*
D14*
X32190000Y10300000D03*
D15*
G04 #@! TO.P,D9,2*
G04 #@! TO.N,middle_bottom*
X39810000Y10300000D03*
G04 #@! TD*
D13*
G04 #@! TO.P,D10,2*
G04 #@! TO.N,middle_home*
X37650000Y27300000D03*
G04 #@! TO.P,D10,1*
G04 #@! TO.N,row_home*
X34350000Y27300000D03*
D14*
X32190000Y27300000D03*
D15*
G04 #@! TO.P,D10,2*
G04 #@! TO.N,middle_home*
X39810000Y27300000D03*
G04 #@! TD*
D13*
G04 #@! TO.P,D11,2*
G04 #@! TO.N,middle_top*
X37650000Y44300000D03*
G04 #@! TO.P,D11,1*
G04 #@! TO.N,row_top*
X34350000Y44300000D03*
D14*
X32190000Y44300000D03*
D15*
G04 #@! TO.P,D11,2*
G04 #@! TO.N,middle_top*
X39810000Y44300000D03*
G04 #@! TD*
D13*
G04 #@! TO.P,D12,2*
G04 #@! TO.N,middle_extra*
X37650000Y61300000D03*
G04 #@! TO.P,D12,1*
G04 #@! TO.N,row_extra*
X34350000Y61300000D03*
D14*
X32190000Y61300000D03*
D15*
G04 #@! TO.P,D12,2*
G04 #@! TO.N,middle_extra*
X39810000Y61300000D03*
G04 #@! TD*
D13*
G04 #@! TO.P,D13,2*
G04 #@! TO.N,index_bottom*
X55650000Y6900000D03*
G04 #@! TO.P,D13,1*
G04 #@! TO.N,row_bottom*
X52350000Y6900000D03*
D14*
X50190000Y6900000D03*
D15*
G04 #@! TO.P,D13,2*
G04 #@! TO.N,index_bottom*
X57810000Y6900000D03*
G04 #@! TD*
D13*
G04 #@! TO.P,D14,2*
G04 #@! TO.N,index_home*
X55650000Y23900000D03*
G04 #@! TO.P,D14,1*
G04 #@! TO.N,row_home*
X52350000Y23900000D03*
D14*
X50190000Y23900000D03*
D15*
G04 #@! TO.P,D14,2*
G04 #@! TO.N,index_home*
X57810000Y23900000D03*
G04 #@! TD*
D13*
G04 #@! TO.P,D15,2*
G04 #@! TO.N,index_top*
X55650000Y40900000D03*
G04 #@! TO.P,D15,1*
G04 #@! TO.N,row_top*
X52350000Y40900000D03*
D14*
X50190000Y40900000D03*
D15*
G04 #@! TO.P,D15,2*
G04 #@! TO.N,index_top*
X57810000Y40900000D03*
G04 #@! TD*
D13*
G04 #@! TO.P,D16,2*
G04 #@! TO.N,index_extra*
X55650000Y57900000D03*
G04 #@! TO.P,D16,1*
G04 #@! TO.N,row_extra*
X52350000Y57900000D03*
D14*
X50190000Y57900000D03*
D15*
G04 #@! TO.P,D16,2*
G04 #@! TO.N,index_extra*
X57810000Y57900000D03*
G04 #@! TD*
D13*
G04 #@! TO.P,D17,2*
G04 #@! TO.N,inner_bottom*
X73650000Y5200000D03*
G04 #@! TO.P,D17,1*
G04 #@! TO.N,row_bottom*
X70350000Y5200000D03*
D14*
X68190000Y5200000D03*
D15*
G04 #@! TO.P,D17,2*
G04 #@! TO.N,inner_bottom*
X75810000Y5200000D03*
G04 #@! TD*
D13*
G04 #@! TO.P,D18,2*
G04 #@! TO.N,inner_home*
X73650000Y22200000D03*
G04 #@! TO.P,D18,1*
G04 #@! TO.N,row_home*
X70350000Y22200000D03*
D14*
X68190000Y22200000D03*
D15*
G04 #@! TO.P,D18,2*
G04 #@! TO.N,inner_home*
X75810000Y22200000D03*
G04 #@! TD*
D13*
G04 #@! TO.P,D19,2*
G04 #@! TO.N,inner_top*
X73650000Y39200000D03*
G04 #@! TO.P,D19,1*
G04 #@! TO.N,row_top*
X70350000Y39200000D03*
D14*
X68190000Y39200000D03*
D15*
G04 #@! TO.P,D19,2*
G04 #@! TO.N,inner_top*
X75810000Y39200000D03*
G04 #@! TD*
D13*
G04 #@! TO.P,D20,2*
G04 #@! TO.N,inner_extra*
X73650000Y56200000D03*
G04 #@! TO.P,D20,1*
G04 #@! TO.N,row_extra*
X70350000Y56200000D03*
D14*
X68190000Y56200000D03*
D15*
G04 #@! TO.P,D20,2*
G04 #@! TO.N,inner_extra*
X75810000Y56200000D03*
G04 #@! TD*
G04 #@! TA.AperFunction,SMDPad,CuDef*
D12*
G04 #@! TO.P,D21,2*
G04 #@! TO.N,near_thumb*
G36*
X64603020Y-15138737D02*
G01*
X64913603Y-13979626D01*
X65782936Y-14212563D01*
X65472353Y-15371674D01*
X64603020Y-15138737D01*
G37*
G04 #@! TD.AperFunction*
G04 #@! TA.AperFunction,SMDPad,CuDef*
G04 #@! TO.P,D21,1*
G04 #@! TO.N,row_thumb*
G36*
X61415464Y-14284637D02*
G01*
X61726047Y-13125526D01*
X62595380Y-13358463D01*
X62284797Y-14517574D01*
X61415464Y-14284637D01*
G37*
G04 #@! TD.AperFunction*
G04 #@! TA.AperFunction,ComponentPad*
D16*
G36*
X58830225Y-13891116D02*
G01*
X59290405Y-12173700D01*
X61007821Y-12633880D01*
X60547641Y-14351296D01*
X58830225Y-13891116D01*
G37*
G04 #@! TD.AperFunction*
D15*
G04 #@! TO.P,D21,2*
G04 #@! TO.N,near_thumb*
X67279377Y-15234702D03*
G04 #@! TD*
G04 #@! TA.AperFunction,SMDPad,CuDef*
D12*
G04 #@! TO.P,D22,2*
G04 #@! TO.N,home_thumb*
G36*
X81670131Y-22547315D02*
G01*
X82270131Y-21508085D01*
X83049553Y-21958085D01*
X82449553Y-22997315D01*
X81670131Y-22547315D01*
G37*
G04 #@! TD.AperFunction*
G04 #@! TA.AperFunction,SMDPad,CuDef*
G04 #@! TO.P,D22,1*
G04 #@! TO.N,row_thumb*
G36*
X78812247Y-20897315D02*
G01*
X79412247Y-19858085D01*
X80191669Y-20308085D01*
X79591669Y-21347315D01*
X78812247Y-20897315D01*
G37*
G04 #@! TD.AperFunction*
G04 #@! TA.AperFunction,ComponentPad*
D16*
G36*
X76416946Y-19848097D02*
G01*
X77305946Y-18308303D01*
X78845740Y-19197303D01*
X77956740Y-20737097D01*
X76416946Y-19848097D01*
G37*
G04 #@! TD.AperFunction*
D15*
G04 #@! TO.P,D22,2*
G04 #@! TO.N,home_thumb*
X84230457Y-23332700D03*
G04 #@! TD*
G04 #@! TA.AperFunction,SMDPad,CuDef*
D12*
G04 #@! TO.P,D23,2*
G04 #@! TO.N,far_thumb*
G36*
X96238264Y-34120592D02*
G01*
X97086792Y-33272064D01*
X97723188Y-33908460D01*
X96874660Y-34756988D01*
X96238264Y-34120592D01*
G37*
G04 #@! TD.AperFunction*
G04 #@! TA.AperFunction,SMDPad,CuDef*
G04 #@! TO.P,D23,1*
G04 #@! TO.N,row_thumb*
G36*
X93904812Y-31787140D02*
G01*
X94753340Y-30938612D01*
X95389736Y-31575008D01*
X94541208Y-32423536D01*
X93904812Y-31787140D01*
G37*
G04 #@! TD.AperFunction*
G04 #@! TA.AperFunction,ComponentPad*
D16*
G36*
X91862687Y-30153723D02*
G01*
X93119923Y-28896487D01*
X94377159Y-30153723D01*
X93119923Y-31410959D01*
X91862687Y-30153723D01*
G37*
G04 #@! TD.AperFunction*
D15*
G04 #@! TO.P,D23,2*
G04 #@! TO.N,far_thumb*
X98508077Y-35541877D03*
G04 #@! TD*
D17*
G04 #@! TO.P,MCU1,1*
G04 #@! TO.N,RAW*
X99620000Y47170000D03*
D18*
G04 #@! TO.P,MCU1,2*
G04 #@! TO.N,GND*
X99620000Y44630000D03*
G04 #@! TO.P,MCU1,3*
G04 #@! TO.N,RST*
X99620000Y42090000D03*
G04 #@! TO.P,MCU1,4*
G04 #@! TO.N,VCC*
X99620000Y39550000D03*
G04 #@! TO.P,MCU1,5*
G04 #@! TO.N,P21*
X99620000Y37010000D03*
G04 #@! TO.P,MCU1,6*
G04 #@! TO.N,col_pinky*
X99620000Y34470000D03*
G04 #@! TO.P,MCU1,7*
G04 #@! TO.N,col_ring*
X99620000Y31930000D03*
G04 #@! TO.P,MCU1,8*
G04 #@! TO.N,col_middle*
X99620000Y29390000D03*
G04 #@! TO.P,MCU1,9*
G04 #@! TO.N,col_index*
X99620000Y26850000D03*
G04 #@! TO.P,MCU1,10*
G04 #@! TO.N,col_inner*
X99620000Y24310000D03*
G04 #@! TO.P,MCU1,11*
G04 #@! TO.N,P16*
X99620000Y21770000D03*
G04 #@! TO.P,MCU1,12*
G04 #@! TO.N,P10*
X99620000Y19230000D03*
G04 #@! TO.P,MCU1,13*
G04 #@! TO.N,P1*
X84380000Y47170000D03*
G04 #@! TO.P,MCU1,14*
G04 #@! TO.N,P0*
X84380000Y44630000D03*
G04 #@! TO.P,MCU1,15*
G04 #@! TO.N,GND*
X84380000Y42090000D03*
G04 #@! TO.P,MCU1,16*
X84380000Y39550000D03*
G04 #@! TO.P,MCU1,17*
G04 #@! TO.N,P2*
X84380000Y37010000D03*
G04 #@! TO.P,MCU1,18*
G04 #@! TO.N,P3*
X84380000Y34470000D03*
G04 #@! TO.P,MCU1,19*
G04 #@! TO.N,row_top*
X84380000Y31930000D03*
G04 #@! TO.P,MCU1,20*
G04 #@! TO.N,row_home*
X84380000Y29390000D03*
G04 #@! TO.P,MCU1,21*
G04 #@! TO.N,row_bottom*
X84380000Y26850000D03*
G04 #@! TO.P,MCU1,22*
G04 #@! TO.N,row_thumb*
X84380000Y24310000D03*
G04 #@! TO.P,MCU1,23*
G04 #@! TO.N,row_extra*
X84380000Y21770000D03*
G04 #@! TO.P,MCU1,24*
G04 #@! TO.N,P9*
X84380000Y19230000D03*
G04 #@! TD*
D17*
G04 #@! TO.P,MCU2,1*
G04 #@! TO.N,RAW*
X86880000Y45920000D03*
D18*
G04 #@! TO.P,MCU2,2*
G04 #@! TO.N,GND*
X86880000Y43380000D03*
G04 #@! TO.P,MCU2,3*
G04 #@! TO.N,RST*
X86880000Y40840000D03*
G04 #@! TO.P,MCU2,4*
G04 #@! TO.N,VCC*
X86880000Y38300000D03*
G04 #@! TO.P,MCU2,5*
G04 #@! TO.N,P21*
X86880000Y35760000D03*
G04 #@! TO.P,MCU2,6*
G04 #@! TO.N,P20*
X86880000Y33220000D03*
G04 #@! TO.P,MCU2,7*
G04 #@! TO.N,P19*
X86880000Y30680000D03*
G04 #@! TO.P,MCU2,8*
G04 #@! TO.N,P18*
X86880000Y28140000D03*
G04 #@! TO.P,MCU2,9*
G04 #@! TO.N,P15*
X86880000Y25600000D03*
G04 #@! TO.P,MCU2,10*
G04 #@! TO.N,P14*
X86880000Y23060000D03*
G04 #@! TO.P,MCU2,11*
G04 #@! TO.N,P16*
X86880000Y20520000D03*
G04 #@! TO.P,MCU2,12*
G04 #@! TO.N,P10*
X86880000Y17980000D03*
G04 #@! TO.P,MCU2,13*
G04 #@! TO.N,P1*
X102120000Y45920000D03*
G04 #@! TO.P,MCU2,14*
G04 #@! TO.N,P0*
X102120000Y43380000D03*
G04 #@! TO.P,MCU2,15*
G04 #@! TO.N,GND*
X102120000Y40840000D03*
G04 #@! TO.P,MCU2,16*
X102120000Y38300000D03*
G04 #@! TO.P,MCU2,17*
G04 #@! TO.N,P2*
X102120000Y35760000D03*
G04 #@! TO.P,MCU2,18*
G04 #@! TO.N,P3*
X102120000Y33220000D03*
G04 #@! TO.P,MCU2,19*
G04 #@! TO.N,P4*
X102120000Y30680000D03*
G04 #@! TO.P,MCU2,20*
G04 #@! TO.N,P5*
X102120000Y28140000D03*
G04 #@! TO.P,MCU2,21*
G04 #@! TO.N,P6*
X102120000Y25600000D03*
G04 #@! TO.P,MCU2,22*
G04 #@! TO.N,P7*
X102120000Y23060000D03*
G04 #@! TO.P,MCU2,23*
G04 #@! TO.N,P8*
X102120000Y20520000D03*
G04 #@! TO.P,MCU2,24*
G04 #@! TO.N,P9*
X102120000Y17980000D03*
G04 #@! TD*
D19*
G04 #@! TO.P,PAD1,1*
G04 #@! TO.N,Bplus*
X95000000Y38200000D03*
G04 #@! TD*
G04 #@! TO.P,PAD2,1*
G04 #@! TO.N,GND*
X95000000Y41200000D03*
G04 #@! TD*
D20*
G04 #@! TO.P,TRRS1,1*
G04 #@! TO.N,N/C*
X92700000Y-2500000D03*
G04 #@! TO.P,TRRS1,2*
G04 #@! TO.N,VCC*
X93800000Y-7100000D03*
G04 #@! TO.P,TRRS1,3*
G04 #@! TO.N,GND*
X97800000Y-7100000D03*
G04 #@! TO.P,TRRS1,4*
G04 #@! TO.N,P0*
X100800000Y-7100000D03*
G04 #@! TO.P,TRRS1,1*
G04 #@! TO.N,N/C*
X92700000Y-4800000D03*
G04 #@! TO.P,TRRS1,2*
G04 #@! TO.N,VCC*
X93800000Y-200000D03*
G04 #@! TO.P,TRRS1,3*
G04 #@! TO.N,GND*
X97800000Y-200000D03*
G04 #@! TO.P,TRRS1,4*
G04 #@! TO.N,P0*
X100800000Y-200000D03*
G04 #@! TD*
D21*
G04 #@! TO.P,J1,1*
G04 #@! TO.N,Bplus*
X95500000Y10700380D03*
G04 #@! TO.P,J1,2*
G04 #@! TO.N,RAW*
X95500000Y9699620D03*
G04 #@! TD*
D22*
G04 #@! TO.P,T1,*
G04 #@! TO.N,*
X102000000Y8700000D03*
X102000000Y11700000D03*
G04 #@! TD*
G04 #@! TO.P,T2,*
G04 #@! TO.N,*
X102000000Y8700000D03*
X102000000Y11700000D03*
D23*
G04 #@! TO.P,T2,1*
G04 #@! TO.N,Bplus*
X99925000Y12450000D03*
G04 #@! TO.P,T2,2*
G04 #@! TO.N,RAW*
X99925000Y9450000D03*
G04 #@! TO.P,T2,3*
G04 #@! TO.N,N/C*
X99925000Y7950000D03*
D24*
G04 #@! TO.P,T2,*
G04 #@! TO.N,*
X103100000Y6500000D03*
X100900000Y6500000D03*
X100900000Y13900000D03*
X103100000Y13900000D03*
G04 #@! TD*
D25*
G04 #@! TO.P,B1,2*
G04 #@! TO.N,GND*
X89000000Y13450000D03*
G04 #@! TO.P,B1,1*
G04 #@! TO.N,RST*
X89000000Y6950000D03*
G04 #@! TD*
D26*
G04 #@! TO.N,col_pinky*
X14914800Y19793700D03*
X6600100Y24050200D03*
G04 #@! TO.N,col_ring*
X26275000Y42703900D03*
X26275000Y22753000D03*
G04 #@! TO.N,col_middle*
X43252000Y8126700D03*
X44275000Y38910000D03*
X79593300Y6140200D03*
X44275000Y62103800D03*
X73856900Y-3766300D03*
G04 #@! TO.N,col_index*
X60587700Y58228800D03*
X62275000Y1511100D03*
X93502700Y-9519400D03*
G04 #@! TO.N,col_inner*
X82796200Y20561400D03*
X80275000Y58161300D03*
X80275000Y28120000D03*
X106674800Y-24270400D03*
G04 #@! TO.N,row_bottom*
X81714400Y26850000D03*
G04 #@! TO.N,row_extra*
X9000000Y44711700D03*
G04 #@! TO.N,row_thumb*
X65008900Y-13010300D03*
G04 #@! TO.N,RAW*
X94320400Y9699600D03*
G04 #@! TO.N,Bplus*
X93619700Y38448800D03*
X95921700Y11896600D03*
G04 #@! TD*
D27*
G04 #@! TO.N,pinky_bottom*
X1650000Y-5000000D02*
X874700Y-5000000D01*
X874700Y-5000000D02*
X-2078300Y-2047000D01*
X-2078300Y-2047000D02*
X-2078300Y4753300D01*
X-2078300Y4753300D02*
X-3275000Y5950000D01*
X3810000Y-5000000D02*
X1650000Y-5000000D01*
G04 #@! TO.N,col_pinky*
X8275000Y19793700D02*
X14914800Y19793700D01*
X8275000Y19793700D02*
X8275000Y3750000D01*
X8275000Y20750000D02*
X8275000Y19793700D01*
X8275000Y37750000D02*
X8275000Y39375300D01*
X8275000Y54750000D02*
X8275000Y53124700D01*
X8275000Y53124700D02*
X8274700Y53124400D01*
X8274700Y53124400D02*
X8274700Y39375600D01*
X8274700Y39375600D02*
X8275000Y39375300D01*
X6600100Y24050200D02*
X8275000Y22375300D01*
X8275000Y37750000D02*
X8275000Y31657700D01*
X8275000Y31657700D02*
X6600100Y29982800D01*
X6600100Y29982800D02*
X6600100Y24050200D01*
X8275000Y21256000D02*
X8275000Y20750000D01*
X8275000Y21256000D02*
X8275000Y22375300D01*
G04 #@! TO.N,pinky_home*
X1650000Y12000000D02*
X874700Y12000000D01*
X874700Y12000000D02*
X-2078300Y14953000D01*
X-2078300Y14953000D02*
X-2078300Y21753300D01*
X-2078300Y21753300D02*
X-3275000Y22950000D01*
X3810000Y12000000D02*
X1650000Y12000000D01*
G04 #@! TO.N,pinky_top*
X1650000Y29000000D02*
X874700Y29000000D01*
X874700Y29000000D02*
X-2078300Y31953000D01*
X-2078300Y31953000D02*
X-2078300Y38753300D01*
X-2078300Y38753300D02*
X-3275000Y39950000D01*
X3810000Y29000000D02*
X1650000Y29000000D01*
G04 #@! TO.N,pinky_extra*
X1650000Y46000000D02*
X874700Y46000000D01*
X874700Y46000000D02*
X-2078300Y48953000D01*
X-2078300Y48953000D02*
X-2078300Y55753300D01*
X-2078300Y55753300D02*
X-3275000Y56950000D01*
X3810000Y46000000D02*
X1650000Y46000000D01*
G04 #@! TO.N,ring_bottom*
X19650000Y6900000D02*
X18874700Y6900000D01*
X18874700Y6900000D02*
X15921700Y9853000D01*
X15921700Y9853000D02*
X15921700Y16653300D01*
X15921700Y16653300D02*
X14725000Y17850000D01*
X21810000Y6900000D02*
X19650000Y6900000D01*
G04 #@! TO.N,col_ring*
X26275000Y42703900D02*
X26275000Y32650000D01*
X26275000Y49650000D02*
X26275000Y42703900D01*
X26275000Y22753000D02*
X26275000Y15650000D01*
X26275000Y32650000D02*
X26275000Y22753000D01*
X26275000Y66650000D02*
X26275000Y49650000D01*
G04 #@! TO.N,ring_home*
X19650000Y23900000D02*
X18874700Y23900000D01*
X18874700Y23900000D02*
X15921700Y26853000D01*
X15921700Y26853000D02*
X15921700Y33653300D01*
X15921700Y33653300D02*
X14725000Y34850000D01*
X21810000Y23900000D02*
X19650000Y23900000D01*
G04 #@! TO.N,ring_top*
X19650000Y40900000D02*
X18874700Y40900000D01*
X18874700Y40900000D02*
X15921700Y43853000D01*
X15921700Y43853000D02*
X15921700Y50653300D01*
X15921700Y50653300D02*
X14725000Y51850000D01*
X21810000Y40900000D02*
X19650000Y40900000D01*
G04 #@! TO.N,ring_extra*
X19650000Y57900000D02*
X18874700Y57900000D01*
X18874700Y57900000D02*
X15921700Y60853000D01*
X15921700Y60853000D02*
X15921700Y67653300D01*
X15921700Y67653300D02*
X14725000Y68850000D01*
X21810000Y57900000D02*
X19650000Y57900000D01*
G04 #@! TO.N,middle_bottom*
X37650000Y10300000D02*
X36874700Y10300000D01*
X36874700Y10300000D02*
X33921700Y13253000D01*
X33921700Y13253000D02*
X33921700Y20053300D01*
X33921700Y20053300D02*
X32725000Y21250000D01*
X39810000Y10300000D02*
X37650000Y10300000D01*
G04 #@! TO.N,col_middle*
X44275000Y19050000D02*
X44275000Y9149700D01*
X44275000Y9149700D02*
X43252000Y8126700D01*
X44275000Y36050000D02*
X44275000Y19050000D01*
X44275000Y36050000D02*
X44275000Y38910000D01*
X79593300Y6140200D02*
X79593300Y1970100D01*
X79593300Y1970100D02*
X73856900Y-3766300D01*
X44275000Y62103800D02*
X44275000Y53050000D01*
X44275000Y70050000D02*
X44275000Y62103800D01*
X73856900Y-7938500D02*
X74390300Y-5947800D01*
X74390300Y-5947800D02*
X74390200Y-5947800D01*
X74390200Y-5947800D02*
X73856900Y-5414500D01*
X73856900Y-5414500D02*
X73856900Y-3766300D01*
G04 #@! TO.N,middle_home*
X37650000Y27300000D02*
X36874700Y27300000D01*
X36874700Y27300000D02*
X33921700Y30253000D01*
X33921700Y30253000D02*
X33921700Y37053300D01*
X33921700Y37053300D02*
X32725000Y38250000D01*
X39810000Y27300000D02*
X37650000Y27300000D01*
G04 #@! TO.N,middle_top*
X37650000Y44300000D02*
X36874700Y44300000D01*
X36874700Y44300000D02*
X33921700Y47253000D01*
X33921700Y47253000D02*
X33921700Y54053300D01*
X33921700Y54053300D02*
X32725000Y55250000D01*
X39810000Y44300000D02*
X37650000Y44300000D01*
G04 #@! TO.N,middle_extra*
X37650000Y61300000D02*
X36874700Y61300000D01*
X36874700Y61300000D02*
X33921700Y64253000D01*
X33921700Y64253000D02*
X33921700Y71053300D01*
X33921700Y71053300D02*
X32725000Y72250000D01*
X39810000Y61300000D02*
X37650000Y61300000D01*
G04 #@! TO.N,index_bottom*
X55650000Y6900000D02*
X54874700Y6900000D01*
X54874700Y6900000D02*
X51921700Y9853000D01*
X51921700Y9853000D02*
X51921700Y16653300D01*
X51921700Y16653300D02*
X50725000Y17850000D01*
X57810000Y6900000D02*
X55650000Y6900000D01*
G04 #@! TO.N,col_index*
X60587700Y58228800D02*
X60587700Y52962600D01*
X60587700Y52962600D02*
X62275000Y51275300D01*
X62275000Y66650000D02*
X62275000Y64011400D01*
X62275000Y64011400D02*
X60587700Y62324100D01*
X60587700Y62324100D02*
X60587700Y58228800D01*
X62275000Y15650000D02*
X62275000Y1511100D01*
X62275000Y32650000D02*
X62275000Y15650000D01*
X62275000Y49650000D02*
X62275000Y32650000D01*
X62275000Y50462700D02*
X62275000Y49650000D01*
X62275000Y50462700D02*
X62275000Y51275300D01*
X99620000Y26850000D02*
X98373400Y25603400D01*
X98373400Y25603400D02*
X98373400Y17920900D01*
X98373400Y17920900D02*
X101675400Y14618900D01*
X101675400Y14618900D02*
X101675400Y13124600D01*
X101675400Y13124600D02*
X101174600Y12623800D01*
X101174600Y12623800D02*
X101174600Y7645700D01*
X101174600Y7645700D02*
X101700200Y7120100D01*
X101700200Y7120100D02*
X101700200Y2800400D01*
X101700200Y2800400D02*
X99300000Y400200D01*
X99300000Y400200D02*
X99300000Y-7526600D01*
X99300000Y-7526600D02*
X97307200Y-9519400D01*
X97307200Y-9519400D02*
X93502700Y-9519400D01*
X93502700Y-16202700D02*
X93502700Y-9519400D01*
X92472300Y-17987400D02*
X93502700Y-16202700D01*
G04 #@! TO.N,index_home*
X55650000Y23900000D02*
X54874700Y23900000D01*
X54874700Y23900000D02*
X51921700Y26853000D01*
X51921700Y26853000D02*
X51921700Y33653300D01*
X51921700Y33653300D02*
X50725000Y34850000D01*
X57810000Y23900000D02*
X55650000Y23900000D01*
G04 #@! TO.N,index_top*
X55650000Y40900000D02*
X54874700Y40900000D01*
X54874700Y40900000D02*
X51921700Y43853000D01*
X51921700Y43853000D02*
X51921700Y50653300D01*
X51921700Y50653300D02*
X50725000Y51850000D01*
X57810000Y40900000D02*
X55650000Y40900000D01*
G04 #@! TO.N,index_extra*
X55650000Y57900000D02*
X54874700Y57900000D01*
X54874700Y57900000D02*
X51921700Y60853000D01*
X51921700Y60853000D02*
X51921700Y67653300D01*
X51921700Y67653300D02*
X50725000Y68850000D01*
X57810000Y57900000D02*
X55650000Y57900000D01*
G04 #@! TO.N,inner_bottom*
X73650000Y5200000D02*
X72874700Y5200000D01*
X72874700Y5200000D02*
X69921700Y8153000D01*
X69921700Y8153000D02*
X69921700Y14953300D01*
X69921700Y14953300D02*
X68725000Y16150000D01*
X75810000Y5200000D02*
X73650000Y5200000D01*
G04 #@! TO.N,col_inner*
X80275000Y27604200D02*
X80275000Y13950000D01*
X80275000Y28120000D02*
X80275000Y27604200D01*
X80275000Y27604200D02*
X82068200Y27604200D01*
X82068200Y27604200D02*
X82460900Y27211500D01*
X82460900Y27211500D02*
X82460900Y20896700D01*
X82460900Y20896700D02*
X82796200Y20561400D01*
X80275000Y58161300D02*
X80275000Y47950000D01*
X80275000Y64950000D02*
X80275000Y58161300D01*
X106674800Y-24270400D02*
X107852500Y-25448100D01*
X107852500Y-25448100D02*
X107852500Y-32512000D01*
X80275000Y30950000D02*
X80275000Y28120000D01*
G04 #@! TO.N,inner_home*
X73650000Y22200000D02*
X72874700Y22200000D01*
X72874700Y22200000D02*
X69921700Y25153000D01*
X69921700Y25153000D02*
X69921700Y31953300D01*
X69921700Y31953300D02*
X68725000Y33150000D01*
X75810000Y22200000D02*
X73650000Y22200000D01*
G04 #@! TO.N,inner_top*
X73650000Y39200000D02*
X72874700Y39200000D01*
X72874700Y39200000D02*
X69921700Y42153000D01*
X69921700Y42153000D02*
X69921700Y48953300D01*
X69921700Y48953300D02*
X68725000Y50150000D01*
X75810000Y39200000D02*
X73650000Y39200000D01*
G04 #@! TO.N,inner_extra*
X74730000Y56200000D02*
X73938400Y56200000D01*
X73938400Y56200000D02*
X73189800Y56948600D01*
X73189800Y56948600D02*
X73189800Y57125300D01*
X73189800Y57125300D02*
X69921700Y60393400D01*
X69921700Y60393400D02*
X69921700Y65953300D01*
X69921700Y65953300D02*
X68725000Y67150000D01*
X74730000Y56200000D02*
X73650000Y56200000D01*
X75810000Y56200000D02*
X74730000Y56200000D01*
G04 #@! TO.N,near_thumb*
X63269900Y-2824100D02*
X63269900Y-7663200D01*
X63269900Y-7663200D02*
X62850800Y-8082300D01*
X62850800Y-8082300D02*
X62850800Y-12333500D01*
X62850800Y-12333500D02*
X63620900Y-13103600D01*
X63620900Y-13103600D02*
X63620900Y-13310700D01*
X63620900Y-13310700D02*
X64204500Y-13894300D01*
X64204500Y-13894300D02*
X64204500Y-14410800D01*
X65193000Y-14675700D02*
X64204500Y-14410800D01*
X65193000Y-14675700D02*
X66181400Y-14940500D01*
X67279400Y-15234700D02*
X66475500Y-15234700D01*
X66475500Y-15234700D02*
X66181400Y-14940600D01*
X66181400Y-14940600D02*
X66181400Y-14940500D01*
G04 #@! TO.N,home_thumb*
X82359800Y-22252700D02*
X81473700Y-21741100D01*
X83569700Y-10307100D02*
X83569700Y-12469200D01*
X83569700Y-12469200D02*
X81371600Y-14667300D01*
X81371600Y-14667300D02*
X81371600Y-21264500D01*
X81371600Y-21264500D02*
X81473800Y-21366700D01*
X81473800Y-21366700D02*
X81473800Y-21741000D01*
X81473800Y-21741000D02*
X81473700Y-21741100D01*
X82359800Y-22252700D02*
X83246000Y-22764300D01*
X84230500Y-23332700D02*
X83814400Y-23332700D01*
X83814400Y-23332700D02*
X83246000Y-22764300D01*
G04 #@! TO.N,far_thumb*
X98508100Y-35541900D02*
X101406200Y-32643800D01*
X101406200Y-32643800D02*
X101406200Y-22954400D01*
X101406200Y-22954400D02*
X101241000Y-22789200D01*
X98508100Y-35541900D02*
X96980700Y-34014500D01*
G04 #@! TO.N,row_bottom*
X81714400Y26850000D02*
X81900400Y26664000D01*
X81900400Y26664000D02*
X81900400Y9473000D01*
X81900400Y9473000D02*
X76302900Y3875500D01*
X76302900Y3875500D02*
X72449800Y3875500D01*
X72449800Y3875500D02*
X71125300Y5200000D01*
X70350000Y5200000D02*
X71125300Y5200000D01*
X68190000Y5200000D02*
X66975700Y5200000D01*
X66975700Y5200000D02*
X66975700Y5124100D01*
X66975700Y5124100D02*
X62585400Y733800D01*
X62585400Y733800D02*
X59291500Y733800D01*
X59291500Y733800D02*
X53125300Y6900000D01*
X70350000Y5200000D02*
X68190000Y5200000D01*
X52350000Y6900000D02*
X53125300Y6900000D01*
X-1650000Y-5000000D02*
X-3810000Y-5000000D01*
X16350000Y6900000D02*
X14190000Y6900000D01*
X34350000Y10300000D02*
X32190000Y10300000D01*
X52350000Y6900000D02*
X50190000Y6900000D01*
G04 #@! TO.N,row_home*
X-1650000Y12000000D02*
X-3810000Y12000000D01*
X16350000Y23900000D02*
X14190000Y23900000D01*
X34350000Y27300000D02*
X32190000Y27300000D01*
X52350000Y23900000D02*
X50190000Y23900000D01*
X70350000Y22200000D02*
X68190000Y22200000D01*
G04 #@! TO.N,row_top*
X34350000Y44300000D02*
X35125300Y44300000D01*
X50190000Y40900000D02*
X38525300Y40900000D01*
X38525300Y40900000D02*
X35125300Y44300000D01*
X52350000Y40900000D02*
X50190000Y40900000D01*
X-1650000Y29000000D02*
X-3810000Y29000000D01*
X16350000Y40900000D02*
X14190000Y40900000D01*
X34350000Y44300000D02*
X32190000Y44300000D01*
X70350000Y39200000D02*
X68190000Y39200000D01*
G04 #@! TO.N,row_extra*
X84380000Y21770000D02*
X82911200Y23238800D01*
X82911200Y23238800D02*
X82911200Y36173800D01*
X82911200Y36173800D02*
X74759400Y44325600D01*
X74759400Y44325600D02*
X74759400Y52565900D01*
X74759400Y52565900D02*
X71125300Y56200000D01*
X14190000Y56685700D02*
X9000000Y51495700D01*
X9000000Y51495700D02*
X9000000Y44711700D01*
X14190000Y57900000D02*
X14190000Y56685700D01*
X16350000Y57900000D02*
X14190000Y57900000D01*
X50190000Y57900000D02*
X50190000Y55877900D01*
X50190000Y55877900D02*
X45504100Y51192000D01*
X45504100Y51192000D02*
X40246300Y51192000D01*
X40246300Y51192000D02*
X38759400Y52678900D01*
X38759400Y52678900D02*
X38759400Y57665900D01*
X38759400Y57665900D02*
X35125300Y61300000D01*
X34350000Y61300000D02*
X35125300Y61300000D01*
X52350000Y57900000D02*
X50190000Y57900000D01*
X70350000Y56200000D02*
X71125300Y56200000D01*
X-1650000Y46000000D02*
X-3810000Y46000000D01*
X34350000Y61300000D02*
X32190000Y61300000D01*
X70350000Y56200000D02*
X68190000Y56200000D01*
G04 #@! TO.N,row_thumb*
X65008900Y-13010300D02*
X70555400Y-13010300D01*
X70555400Y-13010300D02*
X76297900Y-18752800D01*
X77631300Y-19522700D02*
X76297900Y-18752800D01*
X77631300Y-19522700D02*
X78964700Y-20292600D01*
X78964700Y-20292600D02*
X78964800Y-20292500D01*
X78964800Y-20292500D02*
X79191800Y-20292500D01*
X79191800Y-20292500D02*
X79502000Y-20602700D01*
X79502000Y-20602700D02*
X80068500Y-19621400D01*
X93119900Y-30153700D02*
X94647300Y-31681100D01*
X62005400Y-13821500D02*
X61017000Y-13556700D01*
X61017000Y-13556700D02*
X60213200Y-13556700D01*
X60213200Y-13556700D02*
X59919000Y-13262500D01*
X84380000Y24310000D02*
X85606500Y23083500D01*
X85606500Y23083500D02*
X85606500Y-3762300D01*
X85606500Y-3762300D02*
X79102500Y-10266300D01*
X79102500Y-10266300D02*
X79102500Y-12433600D01*
X79102500Y-12433600D02*
X79868200Y-13199300D01*
X79868200Y-13199300D02*
X79868200Y-19421100D01*
X79868200Y-19421100D02*
X80068500Y-19621400D01*
G04 #@! TO.N,RAW*
X94320400Y9699600D02*
X90559000Y13461000D01*
X90559000Y13461000D02*
X90559000Y41414900D01*
X90559000Y41414900D02*
X87255500Y44718400D01*
X87255500Y44718400D02*
X86880000Y44718400D01*
X94603200Y9699600D02*
X94320400Y9699600D01*
X86880000Y45920000D02*
X86880000Y44718400D01*
X95500000Y9699600D02*
X94603200Y9699600D01*
X95500000Y9699600D02*
X96396800Y9699600D01*
X99925000Y9450000D02*
X96646400Y9450000D01*
X96646400Y9450000D02*
X96396800Y9699600D01*
G04 #@! TO.N,GND*
X86880000Y43380000D02*
X89000000Y41260000D01*
X89000000Y41260000D02*
X89000000Y13450000D01*
X84380000Y39550000D02*
X84380000Y42090000D01*
X102120000Y38300000D02*
X102120000Y40840000D01*
X95000000Y41200000D02*
X96075300Y41200000D01*
X96075300Y41200000D02*
X99505300Y44630000D01*
X99505300Y44630000D02*
X99620000Y44630000D01*
X89000000Y13450000D02*
X97800000Y4650000D01*
X97800000Y4650000D02*
X97800000Y-200000D01*
X97800000Y-200000D02*
X97800000Y-7100000D01*
G04 #@! TO.N,RST*
X86880000Y40840000D02*
X88538600Y39181400D01*
X88538600Y39181400D02*
X88538600Y15007300D01*
X88538600Y15007300D02*
X87663100Y14131800D01*
X87663100Y14131800D02*
X87663100Y8286900D01*
X87663100Y8286900D02*
X89000000Y6950000D01*
G04 #@! TO.N,VCC*
X86880000Y38300000D02*
X88088200Y37091800D01*
X88088200Y37091800D02*
X88088200Y15418800D01*
X88088200Y15418800D02*
X87212800Y14543400D01*
X87212800Y14543400D02*
X87212800Y6809200D01*
X87212800Y6809200D02*
X93096700Y925300D01*
X93096700Y925300D02*
X93800000Y925300D01*
X93800000Y-200000D02*
X93800000Y925300D01*
X93800000Y-762600D02*
X93800000Y-200000D01*
X93800000Y-762600D02*
X93800000Y-1325300D01*
X93800000Y-7100000D02*
X93800000Y-5974700D01*
X93800000Y-1325300D02*
X94128100Y-1653400D01*
X94128100Y-1653400D02*
X94128100Y-5646600D01*
X94128100Y-5646600D02*
X93800000Y-5974700D01*
G04 #@! TO.N,P0*
X100800000Y-200000D02*
X100800000Y925300D01*
X100800000Y925300D02*
X102150600Y2275900D01*
X102150600Y2275900D02*
X102150600Y6938300D01*
X102150600Y6938300D02*
X102860700Y7648400D01*
X102860700Y7648400D02*
X102860700Y12251200D01*
X102860700Y12251200D02*
X102324600Y12787300D01*
X102324600Y12787300D02*
X102324600Y14729800D01*
X102324600Y14729800D02*
X103387400Y15792600D01*
X103387400Y15792600D02*
X103387400Y42112600D01*
X103387400Y42112600D02*
X102120000Y43380000D01*
X100800000Y-7100000D02*
X100800000Y-200000D01*
G04 #@! TO.N,Bplus*
X95000000Y37662400D02*
X94406100Y37662400D01*
X94406100Y37662400D02*
X93619700Y38448800D01*
X95000000Y37662400D02*
X95000000Y37124700D01*
X95000000Y38200000D02*
X95000000Y37662400D01*
X96475100Y12450000D02*
X95921700Y11896600D01*
X99925000Y12450000D02*
X96475100Y12450000D01*
X96475100Y12450000D02*
X96475100Y35649600D01*
X96475100Y35649600D02*
X95000000Y37124700D01*
X95500000Y11343200D02*
X95921700Y11764900D01*
X95921700Y11764900D02*
X95921700Y11896600D01*
X95500000Y10700400D02*
X95500000Y11343200D01*
G04 #@! TD*
M02*
