M48
; DRILL file {KiCad 5.1.5+dfsg1-2build2} date Tue May 28 11:23:48 2024
; FORMAT={-:-/ absolute / metric / decimal}
; #@! TF.CreationDate,2024-05-28T11:23:48+00:00
; #@! TF.GenerationSoftware,Kicad,Pcbnew,5.1.5+dfsg1-2build2
FMAT,2
METRIC
T1C0.400
T2C0.900
T3C0.991
T4C1.092
T5C1.300
T6C0.900
T7C1.200
T8C1.702
T9C3.000
T10C3.429
%
G90
G05
T1
X6.6Y24.05
X9.0Y44.712
X14.915Y19.794
X26.275Y42.704
X26.275Y22.753
X43.252Y8.127
X44.275Y62.104
X44.275Y38.91
X60.588Y58.229
X62.275Y1.511
X65.009Y-13.01
X73.857Y-3.766
X79.593Y6.14
X80.275Y58.161
X80.275Y28.12
X81.714Y26.85
X82.796Y20.561
X93.503Y-9.519
X93.62Y38.449
X94.32Y9.7
X95.922Y11.897
X106.675Y-24.27
T3
X68.19Y5.2
X75.81Y5.2
X32.19Y10.3
X39.81Y10.3
X68.19Y56.2
X75.81Y56.2
X50.19Y6.9
X57.81Y6.9
X93.12Y-30.154
X98.508Y-35.542
X32.19Y61.3
X39.81Y61.3
X14.19Y6.9
X21.81Y6.9
X-3.81Y12.0
X3.81Y12.0
X50.19Y57.9
X57.81Y57.9
X14.19Y57.9
X21.81Y57.9
X68.19Y39.2
X75.81Y39.2
X77.631Y-19.523
X84.23Y-23.333
X-3.81Y-5.0
X3.81Y-5.0
X50.19Y40.9
X57.81Y40.9
X32.19Y44.3
X39.81Y44.3
X-3.81Y46.0
X3.81Y46.0
X14.19Y40.9
X21.81Y40.9
X68.19Y22.2
X75.81Y22.2
X59.919Y-13.262
X67.279Y-15.235
X50.19Y23.9
X57.81Y23.9
X32.19Y27.3
X39.81Y27.3
X-3.81Y29.0
X3.81Y29.0
X14.19Y23.9
X21.81Y23.9
T4
X84.38Y47.17
X84.38Y44.63
X84.38Y42.09
X84.38Y39.55
X84.38Y37.01
X84.38Y34.47
X84.38Y31.93
X84.38Y29.39
X84.38Y26.85
X84.38Y24.31
X84.38Y21.77
X84.38Y19.23
X99.62Y47.17
X99.62Y44.63
X99.62Y42.09
X99.62Y39.55
X99.62Y37.01
X99.62Y34.47
X99.62Y31.93
X99.62Y29.39
X99.62Y26.85
X99.62Y24.31
X99.62Y21.77
X99.62Y19.23
X86.88Y45.92
X86.88Y43.38
X86.88Y40.84
X86.88Y38.3
X86.88Y35.76
X86.88Y33.22
X86.88Y30.68
X86.88Y28.14
X86.88Y25.6
X86.88Y23.06
X86.88Y20.52
X86.88Y17.98
X102.12Y45.92
X102.12Y43.38
X102.12Y40.84
X102.12Y38.3
X102.12Y35.76
X102.12Y33.22
X102.12Y30.68
X102.12Y28.14
X102.12Y25.6
X102.12Y23.06
X102.12Y20.52
X102.12Y17.98
T5
X89.0Y13.45
X89.0Y6.95
T6
X102.0Y11.7
X102.0Y8.7
X102.0Y11.7
X102.0Y8.7
T7
X95.4Y-2.5
X95.4Y-4.8
X102.4Y-2.5
X102.4Y-4.8
T8
X-5.5Y0.0
X5.5Y0.0
X12.5Y45.9
X23.5Y45.9
X12.5Y62.9
X23.5Y62.9
X95.46Y-25.423
X103.239Y-33.201
X30.5Y15.3
X41.5Y15.3
X30.5Y32.3
X41.5Y32.3
X48.5Y11.9
X59.5Y11.9
X-5.5Y17.0
X5.5Y17.0
X30.5Y49.3
X41.5Y49.3
X48.5Y28.9
X59.5Y28.9
X-5.5Y34.0
X5.5Y34.0
X48.5Y45.9
X59.5Y45.9
X48.5Y62.9
X59.5Y62.9
X66.5Y10.2
X77.5Y10.2
X30.5Y66.3
X41.5Y66.3
X-5.5Y51.0
X5.5Y51.0
X66.5Y27.2
X77.5Y27.2
X66.5Y44.2
X77.5Y44.2
X66.5Y61.2
X77.5Y61.2
X12.5Y11.9
X23.5Y11.9
X12.5Y28.9
X23.5Y28.9
X59.581Y-7.995
X70.206Y-10.843
X78.668Y-14.348
X88.194Y-19.848
T9
X13.0Y49.65
X18.0Y51.85
X18.0Y51.85
X23.0Y49.65
X13.0Y66.65
X18.0Y68.85
X18.0Y68.85
X23.0Y66.65
X98.466Y-23.125
X103.557Y-25.105
X103.557Y-25.105
X105.537Y-30.196
X31.0Y19.05
X36.0Y21.25
X36.0Y21.25
X41.0Y19.05
X31.0Y36.05
X36.0Y38.25
X36.0Y38.25
X41.0Y36.05
X49.0Y15.65
X54.0Y17.85
X54.0Y17.85
X59.0Y15.65
X-5.0Y20.75
X0.0Y22.95
X0.0Y22.95
X5.0Y20.75
X31.0Y53.05
X36.0Y55.25
X36.0Y55.25
X41.0Y53.05
X49.0Y32.65
X54.0Y34.85
X54.0Y34.85
X59.0Y32.65
X-5.0Y37.75
X0.0Y39.95
X0.0Y39.95
X5.0Y37.75
X49.0Y49.65
X54.0Y51.85
X54.0Y51.85
X59.0Y49.65
X49.0Y66.65
X54.0Y68.85
X54.0Y68.85
X59.0Y66.65
X67.0Y13.95
X72.0Y16.15
X72.0Y16.15
X77.0Y13.95
X31.0Y70.05
X36.0Y72.25
X36.0Y72.25
X41.0Y70.05
X-5.0Y54.75
X0.0Y56.95
X0.0Y56.95
X5.0Y54.75
X67.0Y30.95
X72.0Y33.15
X72.0Y33.15
X77.0Y30.95
X67.0Y47.95
X72.0Y50.15
X72.0Y50.15
X77.0Y47.95
X67.0Y64.95
X72.0Y67.15
X72.0Y67.15
X77.0Y64.95
X13.0Y15.65
X18.0Y17.85
X18.0Y17.85
X23.0Y15.65
X13.0Y32.65
X18.0Y34.85
X18.0Y34.85
X23.0Y32.65
X61.034Y-4.503
X66.433Y-3.672
X66.433Y-3.672
X70.694Y-7.091
X80.976Y-11.35
X86.406Y-11.945
X86.406Y-11.945
X89.636Y-16.35
X-5.0Y3.75
X0.0Y5.95
X0.0Y5.95
X5.0Y3.75
T10
X18.0Y45.9
X18.0Y62.9
X99.349Y-29.312
X36.0Y15.3
X36.0Y32.3
X54.0Y11.9
X0.0Y17.0
X36.0Y49.3
X54.0Y28.9
X0.0Y34.0
X54.0Y45.9
X54.0Y62.9
X72.0Y10.2
X36.0Y66.3
X0.0Y51.0
X72.0Y27.2
X72.0Y44.2
X72.0Y61.2
X18.0Y11.9
X18.0Y28.9
X64.893Y-9.419
X83.431Y-17.098
X0.0Y0.0
T2
X93.0Y-2.5G85X92.4Y-2.5
G05
X93.0Y-4.8G85X92.4Y-4.8
G05
X94.1Y-0.2G85X93.5Y-0.2
G05
X94.1Y-7.1G85X93.5Y-7.1
G05
X98.1Y-0.2G85X97.5Y-0.2
G05
X98.1Y-7.1G85X97.5Y-7.1
G05
X101.1Y-0.2G85X100.5Y-0.2
G05
X101.1Y-7.1G85X100.5Y-7.1
G05
T0
M30
