G04 #@! TF.GenerationSoftware,KiCad,Pcbnew,5.1.5+dfsg1-2build2*
G04 #@! TF.CreationDate,2024-05-28T11:23:48+00:00*
G04 #@! TF.ProjectId,board,626f6172-642e-46b6-9963-61645f706362,0.3*
G04 #@! TF.SameCoordinates,Original*
G04 #@! TF.FileFunction,Legend,Bot*
G04 #@! TF.FilePolarity,Positive*
%FSLAX46Y46*%
G04 Gerber Fmt 4.6, Leading zero omitted, Abs format (unit mm)*
G04 Created by KiCad (PCBNEW 5.1.5+dfsg1-2build2) date 2024-05-28 11:23:48*
%MOMM*%
%LPD*%
G04 APERTURE LIST*
%ADD10C,0.150000*%
G04 #@! TA.AperFunction,Profile*
%ADD11C,0.150000*%
G04 #@! TD*
%ADD12C,0.100000*%
G04 APERTURE END LIST*
D10*
X25168928Y420238D02*
X25073690Y372619D01*
X24883214Y372619D01*
X24787976Y420238D01*
X24740357Y515476D01*
X24740357Y563095D01*
X24787976Y658333D01*
X24883214Y705952D01*
X25026071Y705952D01*
X25121309Y753571D01*
X25168928Y848809D01*
X25168928Y896428D01*
X25121309Y991666D01*
X25026071Y1039285D01*
X24883214Y1039285D01*
X24787976Y991666D01*
X23883214Y372619D02*
X23883214Y896428D01*
X23930833Y991666D01*
X24026071Y1039285D01*
X24216547Y1039285D01*
X24311785Y991666D01*
X23883214Y420238D02*
X23978452Y372619D01*
X24216547Y372619D01*
X24311785Y420238D01*
X24359404Y515476D01*
X24359404Y610714D01*
X24311785Y705952D01*
X24216547Y753571D01*
X23978452Y753571D01*
X23883214Y801190D01*
X23407023Y372619D02*
X23407023Y1039285D01*
X23407023Y944047D02*
X23359404Y991666D01*
X23264166Y1039285D01*
X23121309Y1039285D01*
X23026071Y991666D01*
X22978452Y896428D01*
X22978452Y372619D01*
X22978452Y896428D02*
X22930833Y991666D01*
X22835595Y1039285D01*
X22692738Y1039285D01*
X22597500Y991666D01*
X22549880Y896428D01*
X22549880Y372619D01*
X21930833Y372619D02*
X22026071Y420238D01*
X22073690Y467857D01*
X22121309Y563095D01*
X22121309Y848809D01*
X22073690Y944047D01*
X22026071Y991666D01*
X21930833Y1039285D01*
X21787976Y1039285D01*
X21692738Y991666D01*
X21645119Y944047D01*
X21597500Y848809D01*
X21597500Y563095D01*
X21645119Y467857D01*
X21692738Y420238D01*
X21787976Y372619D01*
X21930833Y372619D01*
X21168928Y372619D02*
X21168928Y1372619D01*
X21073690Y753571D02*
X20787976Y372619D01*
X20787976Y1039285D02*
X21168928Y658333D01*
X20216547Y372619D02*
X20311785Y420238D01*
X20359404Y515476D01*
X20359404Y1372619D01*
X19407023Y372619D02*
X19407023Y896428D01*
X19454642Y991666D01*
X19549880Y1039285D01*
X19740357Y1039285D01*
X19835595Y991666D01*
X19407023Y420238D02*
X19502261Y372619D01*
X19740357Y372619D01*
X19835595Y420238D01*
X19883214Y515476D01*
X19883214Y610714D01*
X19835595Y705952D01*
X19740357Y753571D01*
X19502261Y753571D01*
X19407023Y801190D01*
X19026071Y1039285D02*
X18787976Y372619D01*
X18549880Y1039285D01*
X17740357Y372619D02*
X17740357Y896428D01*
X17787976Y991666D01*
X17883214Y1039285D01*
X18073690Y1039285D01*
X18168928Y991666D01*
X17740357Y420238D02*
X17835595Y372619D01*
X18073690Y372619D01*
X18168928Y420238D01*
X18216547Y515476D01*
X18216547Y610714D01*
X18168928Y705952D01*
X18073690Y753571D01*
X17835595Y753571D01*
X17740357Y801190D01*
X16597499Y1039285D02*
X16359404Y372619D01*
X16121309Y1039285D01*
X15549880Y1372619D02*
X15454642Y1372619D01*
X15359404Y1325000D01*
X15311785Y1277380D01*
X15264166Y1182142D01*
X15216547Y991666D01*
X15216547Y753571D01*
X15264166Y563095D01*
X15311785Y467857D01*
X15359404Y420238D01*
X15454642Y372619D01*
X15549880Y372619D01*
X15645119Y420238D01*
X15692738Y467857D01*
X15740357Y563095D01*
X15787976Y753571D01*
X15787976Y991666D01*
X15740357Y1182142D01*
X15692738Y1277380D01*
X15645119Y1325000D01*
X15549880Y1372619D01*
X14787976Y467857D02*
X14740357Y420238D01*
X14787976Y372619D01*
X14835595Y420238D01*
X14787976Y467857D01*
X14787976Y372619D01*
X14407023Y1372619D02*
X13787976Y1372619D01*
X14121309Y991666D01*
X13978452Y991666D01*
X13883214Y944047D01*
X13835595Y896428D01*
X13787976Y801190D01*
X13787976Y563095D01*
X13835595Y467857D01*
X13883214Y420238D01*
X13978452Y372619D01*
X14264166Y372619D01*
X14359404Y420238D01*
X14407023Y467857D01*
X26216547Y-1277380D02*
X26216547Y-277380D01*
X26216547Y-658333D02*
X26121309Y-610714D01*
X25930833Y-610714D01*
X25835595Y-658333D01*
X25787976Y-705952D01*
X25740357Y-801190D01*
X25740357Y-1086904D01*
X25787976Y-1182142D01*
X25835595Y-1229761D01*
X25930833Y-1277380D01*
X26121309Y-1277380D01*
X26216547Y-1229761D01*
X25407023Y-610714D02*
X25168928Y-1277380D01*
X24930833Y-610714D02*
X25168928Y-1277380D01*
X25264166Y-1515476D01*
X25311785Y-1563095D01*
X25407023Y-1610714D01*
X23835595Y-1229761D02*
X23740357Y-1277380D01*
X23549880Y-1277380D01*
X23454642Y-1229761D01*
X23407023Y-1134523D01*
X23407023Y-1086904D01*
X23454642Y-991666D01*
X23549880Y-944047D01*
X23692738Y-944047D01*
X23787976Y-896428D01*
X23835595Y-801190D01*
X23835595Y-753571D01*
X23787976Y-658333D01*
X23692738Y-610714D01*
X23549880Y-610714D01*
X23454642Y-658333D01*
X22835595Y-1277380D02*
X22930833Y-1229761D01*
X22978452Y-1182142D01*
X23026071Y-1086904D01*
X23026071Y-801190D01*
X22978452Y-705952D01*
X22930833Y-658333D01*
X22835595Y-610714D01*
X22692738Y-610714D01*
X22597500Y-658333D01*
X22549880Y-705952D01*
X22502261Y-801190D01*
X22502261Y-1086904D01*
X22549880Y-1182142D01*
X22597500Y-1229761D01*
X22692738Y-1277380D01*
X22835595Y-1277380D01*
X21645119Y-610714D02*
X21645119Y-1277380D01*
X22073690Y-610714D02*
X22073690Y-1134523D01*
X22026071Y-1229761D01*
X21930833Y-1277380D01*
X21787976Y-1277380D01*
X21692738Y-1229761D01*
X21645119Y-1182142D01*
X21168928Y-610714D02*
X21168928Y-1277380D01*
X21168928Y-705952D02*
X21121309Y-658333D01*
X21026071Y-610714D01*
X20883214Y-610714D01*
X20787976Y-658333D01*
X20740357Y-753571D01*
X20740357Y-1277380D01*
X19835595Y-1277380D02*
X19835595Y-277380D01*
X19835595Y-1229761D02*
X19930833Y-1277380D01*
X20121309Y-1277380D01*
X20216547Y-1229761D01*
X20264166Y-1182142D01*
X20311785Y-1086904D01*
X20311785Y-801190D01*
X20264166Y-705952D01*
X20216547Y-658333D01*
X20121309Y-610714D01*
X19930833Y-610714D01*
X19835595Y-658333D01*
X19359404Y-1277380D02*
X19359404Y-610714D01*
X19359404Y-705952D02*
X19311785Y-658333D01*
X19216547Y-610714D01*
X19073690Y-610714D01*
X18978452Y-658333D01*
X18930833Y-753571D01*
X18930833Y-1277380D01*
X18930833Y-753571D02*
X18883214Y-658333D01*
X18787976Y-610714D01*
X18645119Y-610714D01*
X18549880Y-658333D01*
X18502261Y-753571D01*
X18502261Y-1277380D01*
X17883214Y-1277380D02*
X17978452Y-1229761D01*
X18026071Y-1182142D01*
X18073690Y-1086904D01*
X18073690Y-801190D01*
X18026071Y-705952D01*
X17978452Y-658333D01*
X17883214Y-610714D01*
X17740357Y-610714D01*
X17645119Y-658333D01*
X17597500Y-705952D01*
X17549880Y-801190D01*
X17549880Y-1086904D01*
X17597500Y-1182142D01*
X17645119Y-1229761D01*
X17740357Y-1277380D01*
X17883214Y-1277380D01*
X17121309Y-610714D02*
X17121309Y-1277380D01*
X17121309Y-705952D02*
X17073690Y-658333D01*
X16978452Y-610714D01*
X16835595Y-610714D01*
X16740357Y-658333D01*
X16692738Y-753571D01*
X16692738Y-1277380D01*
X16264166Y-1229761D02*
X16168928Y-1277380D01*
X15978452Y-1277380D01*
X15883214Y-1229761D01*
X15835595Y-1134523D01*
X15835595Y-1086904D01*
X15883214Y-991666D01*
X15978452Y-944047D01*
X16121309Y-944047D01*
X16216547Y-896428D01*
X16264166Y-801190D01*
X16264166Y-753571D01*
X16216547Y-658333D01*
X16121309Y-610714D01*
X15978452Y-610714D01*
X15883214Y-658333D01*
X15549880Y-610714D02*
X15168928Y-610714D01*
X15407023Y-277380D02*
X15407023Y-1134523D01*
X15359404Y-1229761D01*
X15264166Y-1277380D01*
X15168928Y-1277380D01*
X14454642Y-1229761D02*
X14549880Y-1277380D01*
X14740357Y-1277380D01*
X14835595Y-1229761D01*
X14883214Y-1134523D01*
X14883214Y-753571D01*
X14835595Y-658333D01*
X14740357Y-610714D01*
X14549880Y-610714D01*
X14454642Y-658333D01*
X14407023Y-753571D01*
X14407023Y-848809D01*
X14883214Y-944047D01*
X13978452Y-1277380D02*
X13978452Y-610714D01*
X13978452Y-801190D02*
X13930833Y-705952D01*
X13883214Y-658333D01*
X13787976Y-610714D01*
X13692738Y-610714D01*
D11*
X-8000000Y-9500000D02*
X8000000Y-9500000D01*
X-10000000Y-7500000D02*
X-10000000Y58500000D01*
X-8000000Y-9500000D02*
G75*
G02X-10000000Y-7500000I0J2000000D01*
G01*
X8000000Y60500000D02*
X-8000000Y60500000D01*
X-10000000Y58500000D02*
G75*
G02X-8000000Y60500000I2000000J0D01*
G01*
X26000000Y72400000D02*
X10000000Y72400000D01*
X8000000Y70400000D02*
G75*
G02X10000000Y72400000I2000000J0D01*
G01*
X8000000Y70400000D02*
X8000000Y60500000D01*
X46000000Y72400000D02*
X46000000Y73800000D01*
X44000000Y75800000D02*
G75*
G02X46000000Y73800000I0J-2000000D01*
G01*
X44000000Y75800000D02*
X28000000Y75800000D01*
X26000000Y73800000D02*
G75*
G02X28000000Y75800000I2000000J0D01*
G01*
X26000000Y73800000D02*
X26000000Y72400000D01*
X62000000Y72400000D02*
G75*
G02X63977391Y70699872I0J-2000000D01*
G01*
X62000000Y72400000D02*
X46000000Y72400000D01*
X82000000Y51850000D02*
X82000000Y68700000D01*
X80000000Y70700000D02*
G75*
G02X82000000Y68700000I0J-2000000D01*
G01*
X80000000Y70700000D02*
X64000000Y70700000D01*
X63977391Y70699872D02*
G75*
G02X64000000Y70700000I22609J-1999872D01*
G01*
X101117258Y-41686664D02*
G75*
G02X98288831Y-41686665I-1414214J1414213D01*
G01*
X101117258Y-41686665D02*
X111723860Y-31080063D01*
X111723859Y-28251637D02*
G75*
G02X111723859Y-31080063I-1414213J-1414213D01*
G01*
X104000000Y-20208734D02*
X111723860Y-28251636D01*
X98288831Y-41686665D02*
X54707107Y-16524745D01*
X54707107Y-16524745D02*
X8000000Y-9500000D01*
X104000000Y-20208734D02*
X104000000Y49850000D01*
X102000000Y51850000D02*
G75*
G02X104000000Y49850000I0J-2000000D01*
G01*
X102000000Y51850000D02*
X82000000Y51850000D01*
X11050000Y28900000D02*
G75*
G03X11050000Y28900000I-2050000J0D01*
G01*
X11050000Y0D02*
G75*
G03X11050000Y0I-2050000J0D01*
G01*
X65050000Y61200000D02*
G75*
G03X65050000Y61200000I-2050000J0D01*
G01*
X56050000Y-6120000D02*
G75*
G03X56050000Y-6120000I-2050000J0D01*
G01*
X94399134Y-22311939D02*
G75*
G03X94399134Y-22311939I-2050000J0D01*
G01*
D12*
G04 #@! TO.C,D1*
X250000Y-5000000D02*
X750000Y-5000000D01*
X250000Y-5400000D02*
X-350000Y-5000000D01*
X250000Y-4600000D02*
X250000Y-5400000D01*
X-350000Y-5000000D02*
X250000Y-4600000D01*
X-350000Y-5000000D02*
X-350000Y-5550000D01*
X-350000Y-5000000D02*
X-350000Y-4450000D01*
X-750000Y-5000000D02*
X-350000Y-5000000D01*
G04 #@! TO.C,D2*
X250000Y12000000D02*
X750000Y12000000D01*
X250000Y11600000D02*
X-350000Y12000000D01*
X250000Y12400000D02*
X250000Y11600000D01*
X-350000Y12000000D02*
X250000Y12400000D01*
X-350000Y12000000D02*
X-350000Y11450000D01*
X-350000Y12000000D02*
X-350000Y12550000D01*
X-750000Y12000000D02*
X-350000Y12000000D01*
G04 #@! TO.C,D3*
X250000Y29000000D02*
X750000Y29000000D01*
X250000Y28600000D02*
X-350000Y29000000D01*
X250000Y29400000D02*
X250000Y28600000D01*
X-350000Y29000000D02*
X250000Y29400000D01*
X-350000Y29000000D02*
X-350000Y28450000D01*
X-350000Y29000000D02*
X-350000Y29550000D01*
X-750000Y29000000D02*
X-350000Y29000000D01*
G04 #@! TO.C,D4*
X250000Y46000000D02*
X750000Y46000000D01*
X250000Y45600000D02*
X-350000Y46000000D01*
X250000Y46400000D02*
X250000Y45600000D01*
X-350000Y46000000D02*
X250000Y46400000D01*
X-350000Y46000000D02*
X-350000Y45450000D01*
X-350000Y46000000D02*
X-350000Y46550000D01*
X-750000Y46000000D02*
X-350000Y46000000D01*
G04 #@! TO.C,D5*
X18250000Y6900000D02*
X18750000Y6900000D01*
X18250000Y6500000D02*
X17650000Y6900000D01*
X18250000Y7300000D02*
X18250000Y6500000D01*
X17650000Y6900000D02*
X18250000Y7300000D01*
X17650000Y6900000D02*
X17650000Y6350000D01*
X17650000Y6900000D02*
X17650000Y7450000D01*
X17250000Y6900000D02*
X17650000Y6900000D01*
G04 #@! TO.C,D6*
X18250000Y23900000D02*
X18750000Y23900000D01*
X18250000Y23500000D02*
X17650000Y23900000D01*
X18250000Y24300000D02*
X18250000Y23500000D01*
X17650000Y23900000D02*
X18250000Y24300000D01*
X17650000Y23900000D02*
X17650000Y23350000D01*
X17650000Y23900000D02*
X17650000Y24450000D01*
X17250000Y23900000D02*
X17650000Y23900000D01*
G04 #@! TO.C,D7*
X18250000Y40900000D02*
X18750000Y40900000D01*
X18250000Y40500000D02*
X17650000Y40900000D01*
X18250000Y41300000D02*
X18250000Y40500000D01*
X17650000Y40900000D02*
X18250000Y41300000D01*
X17650000Y40900000D02*
X17650000Y40350000D01*
X17650000Y40900000D02*
X17650000Y41450000D01*
X17250000Y40900000D02*
X17650000Y40900000D01*
G04 #@! TO.C,D8*
X18250000Y57900000D02*
X18750000Y57900000D01*
X18250000Y57500000D02*
X17650000Y57900000D01*
X18250000Y58300000D02*
X18250000Y57500000D01*
X17650000Y57900000D02*
X18250000Y58300000D01*
X17650000Y57900000D02*
X17650000Y57350000D01*
X17650000Y57900000D02*
X17650000Y58450000D01*
X17250000Y57900000D02*
X17650000Y57900000D01*
G04 #@! TO.C,D9*
X36250000Y10300000D02*
X36750000Y10300000D01*
X36250000Y9900000D02*
X35650000Y10300000D01*
X36250000Y10700000D02*
X36250000Y9900000D01*
X35650000Y10300000D02*
X36250000Y10700000D01*
X35650000Y10300000D02*
X35650000Y9750000D01*
X35650000Y10300000D02*
X35650000Y10850000D01*
X35250000Y10300000D02*
X35650000Y10300000D01*
G04 #@! TO.C,D10*
X36250000Y27300000D02*
X36750000Y27300000D01*
X36250000Y26900000D02*
X35650000Y27300000D01*
X36250000Y27700000D02*
X36250000Y26900000D01*
X35650000Y27300000D02*
X36250000Y27700000D01*
X35650000Y27300000D02*
X35650000Y26750000D01*
X35650000Y27300000D02*
X35650000Y27850000D01*
X35250000Y27300000D02*
X35650000Y27300000D01*
G04 #@! TO.C,D11*
X36250000Y44300000D02*
X36750000Y44300000D01*
X36250000Y43900000D02*
X35650000Y44300000D01*
X36250000Y44700000D02*
X36250000Y43900000D01*
X35650000Y44300000D02*
X36250000Y44700000D01*
X35650000Y44300000D02*
X35650000Y43750000D01*
X35650000Y44300000D02*
X35650000Y44850000D01*
X35250000Y44300000D02*
X35650000Y44300000D01*
G04 #@! TO.C,D12*
X36250000Y61300000D02*
X36750000Y61300000D01*
X36250000Y60900000D02*
X35650000Y61300000D01*
X36250000Y61700000D02*
X36250000Y60900000D01*
X35650000Y61300000D02*
X36250000Y61700000D01*
X35650000Y61300000D02*
X35650000Y60750000D01*
X35650000Y61300000D02*
X35650000Y61850000D01*
X35250000Y61300000D02*
X35650000Y61300000D01*
G04 #@! TO.C,D13*
X54250000Y6900000D02*
X54750000Y6900000D01*
X54250000Y6500000D02*
X53650000Y6900000D01*
X54250000Y7300000D02*
X54250000Y6500000D01*
X53650000Y6900000D02*
X54250000Y7300000D01*
X53650000Y6900000D02*
X53650000Y6350000D01*
X53650000Y6900000D02*
X53650000Y7450000D01*
X53250000Y6900000D02*
X53650000Y6900000D01*
G04 #@! TO.C,D14*
X54250000Y23900000D02*
X54750000Y23900000D01*
X54250000Y23500000D02*
X53650000Y23900000D01*
X54250000Y24300000D02*
X54250000Y23500000D01*
X53650000Y23900000D02*
X54250000Y24300000D01*
X53650000Y23900000D02*
X53650000Y23350000D01*
X53650000Y23900000D02*
X53650000Y24450000D01*
X53250000Y23900000D02*
X53650000Y23900000D01*
G04 #@! TO.C,D15*
X54250000Y40900000D02*
X54750000Y40900000D01*
X54250000Y40500000D02*
X53650000Y40900000D01*
X54250000Y41300000D02*
X54250000Y40500000D01*
X53650000Y40900000D02*
X54250000Y41300000D01*
X53650000Y40900000D02*
X53650000Y40350000D01*
X53650000Y40900000D02*
X53650000Y41450000D01*
X53250000Y40900000D02*
X53650000Y40900000D01*
G04 #@! TO.C,D16*
X54250000Y57900000D02*
X54750000Y57900000D01*
X54250000Y57500000D02*
X53650000Y57900000D01*
X54250000Y58300000D02*
X54250000Y57500000D01*
X53650000Y57900000D02*
X54250000Y58300000D01*
X53650000Y57900000D02*
X53650000Y57350000D01*
X53650000Y57900000D02*
X53650000Y58450000D01*
X53250000Y57900000D02*
X53650000Y57900000D01*
G04 #@! TO.C,D17*
X72250000Y5200000D02*
X72750000Y5200000D01*
X72250000Y4800000D02*
X71650000Y5200000D01*
X72250000Y5600000D02*
X72250000Y4800000D01*
X71650000Y5200000D02*
X72250000Y5600000D01*
X71650000Y5200000D02*
X71650000Y4650000D01*
X71650000Y5200000D02*
X71650000Y5750000D01*
X71250000Y5200000D02*
X71650000Y5200000D01*
G04 #@! TO.C,D18*
X72250000Y22200000D02*
X72750000Y22200000D01*
X72250000Y21800000D02*
X71650000Y22200000D01*
X72250000Y22600000D02*
X72250000Y21800000D01*
X71650000Y22200000D02*
X72250000Y22600000D01*
X71650000Y22200000D02*
X71650000Y21650000D01*
X71650000Y22200000D02*
X71650000Y22750000D01*
X71250000Y22200000D02*
X71650000Y22200000D01*
G04 #@! TO.C,D19*
X72250000Y39200000D02*
X72750000Y39200000D01*
X72250000Y38800000D02*
X71650000Y39200000D01*
X72250000Y39600000D02*
X72250000Y38800000D01*
X71650000Y39200000D02*
X72250000Y39600000D01*
X71650000Y39200000D02*
X71650000Y38650000D01*
X71650000Y39200000D02*
X71650000Y39750000D01*
X71250000Y39200000D02*
X71650000Y39200000D01*
G04 #@! TO.C,D20*
X72250000Y56200000D02*
X72750000Y56200000D01*
X72250000Y55800000D02*
X71650000Y56200000D01*
X72250000Y56600000D02*
X72250000Y55800000D01*
X71650000Y56200000D02*
X72250000Y56600000D01*
X71650000Y56200000D02*
X71650000Y55650000D01*
X71650000Y56200000D02*
X71650000Y56750000D01*
X71250000Y56200000D02*
X71650000Y56200000D01*
G04 #@! TO.C,D21*
X63840681Y-14313305D02*
X64323644Y-14442714D01*
X63737154Y-14699675D02*
X63261126Y-14158013D01*
X63944209Y-13926934D02*
X63737154Y-14699675D01*
X63261126Y-14158013D02*
X63944209Y-13926934D01*
X63261126Y-14158013D02*
X63118775Y-14689273D01*
X63261126Y-14158013D02*
X63403476Y-13626754D01*
X62874756Y-14054486D02*
X63261126Y-14158013D01*
G04 #@! TO.C,D22*
X81147406Y-21552700D02*
X81580419Y-21802700D01*
X80947406Y-21899110D02*
X80627791Y-21252700D01*
X81347406Y-21206290D02*
X80947406Y-21899110D01*
X80627791Y-21252700D02*
X81347406Y-21206290D01*
X80627791Y-21252700D02*
X80352791Y-21729014D01*
X80627791Y-21252700D02*
X80902791Y-20776386D01*
X80281381Y-21052700D02*
X80627791Y-21252700D01*
G04 #@! TO.C,D23*
X95990777Y-33024577D02*
X96344330Y-33378130D01*
X95707934Y-33307419D02*
X95566513Y-32600313D01*
X96273619Y-32741734D02*
X95707934Y-33307419D01*
X95566513Y-32600313D02*
X96273619Y-32741734D01*
X95566513Y-32600313D02*
X95177604Y-32989221D01*
X95566513Y-32600313D02*
X95955421Y-32211404D01*
X95283670Y-32317470D02*
X95566513Y-32600313D01*
D10*
G04 #@! TO.C,T2*
X103350000Y8250000D02*
X103350000Y12150000D01*
X103350000Y10200000D02*
X103350000Y13500000D01*
X103350000Y13500000D02*
X100500000Y13500000D01*
X100500000Y13500000D02*
X100500000Y6900000D01*
X100500000Y6900000D02*
X103350000Y6900000D01*
X103350000Y10200000D02*
X103350000Y6900000D01*
G04 #@! TO.C,B1*
X87500000Y7200000D02*
X87250000Y7200000D01*
X87250000Y7200000D02*
X87250000Y13200000D01*
X87250000Y13200000D02*
X87500000Y13200000D01*
X90500000Y13200000D02*
X90750000Y13200000D01*
X90750000Y13200000D02*
X90750000Y7200000D01*
X90750000Y7200000D02*
X90500000Y7200000D01*
G04 #@! TD*
G04 #@! TO.C,PAD1*
X93188095Y38257142D02*
X93073809Y38219047D01*
X93035714Y38180952D01*
X92997619Y38104761D01*
X92997619Y37990476D01*
X93035714Y37914285D01*
X93073809Y37876190D01*
X93150000Y37838095D01*
X93454761Y37838095D01*
X93454761Y38638095D01*
X93188095Y38638095D01*
X93111904Y38600000D01*
X93073809Y38561904D01*
X93035714Y38485714D01*
X93035714Y38409523D01*
X93073809Y38333333D01*
X93111904Y38295238D01*
X93188095Y38257142D01*
X93454761Y38257142D01*
X92654761Y38142857D02*
X92045238Y38142857D01*
X92350000Y37838095D02*
X92350000Y38447619D01*
G04 #@! TO.C,PAD2*
X93188095Y41257142D02*
X93073809Y41219047D01*
X93035714Y41180952D01*
X92997619Y41104761D01*
X92997619Y40990476D01*
X93035714Y40914285D01*
X93073809Y40876190D01*
X93150000Y40838095D01*
X93454761Y40838095D01*
X93454761Y41638095D01*
X93188095Y41638095D01*
X93111904Y41600000D01*
X93073809Y41561904D01*
X93035714Y41485714D01*
X93035714Y41409523D01*
X93073809Y41333333D01*
X93111904Y41295238D01*
X93188095Y41257142D01*
X93454761Y41257142D01*
X92654761Y41142857D02*
X92045238Y41142857D01*
G04 #@! TO.C,B1*
X89452380Y11525380D02*
X88976190Y11858714D01*
X89452380Y12096809D02*
X88452380Y12096809D01*
X88452380Y11715857D01*
X88500000Y11620619D01*
X88547619Y11573000D01*
X88642857Y11525380D01*
X88785714Y11525380D01*
X88880952Y11573000D01*
X88928571Y11620619D01*
X88976190Y11715857D01*
X88976190Y12096809D01*
X88928571Y11096809D02*
X88928571Y10763476D01*
X89452380Y10620619D02*
X89452380Y11096809D01*
X88452380Y11096809D01*
X88452380Y10620619D01*
X89404761Y10239666D02*
X89452380Y10096809D01*
X89452380Y9858714D01*
X89404761Y9763476D01*
X89357142Y9715857D01*
X89261904Y9668238D01*
X89166666Y9668238D01*
X89071428Y9715857D01*
X89023809Y9763476D01*
X88976190Y9858714D01*
X88928571Y10049190D01*
X88880952Y10144428D01*
X88833333Y10192047D01*
X88738095Y10239666D01*
X88642857Y10239666D01*
X88547619Y10192047D01*
X88500000Y10144428D01*
X88452380Y10049190D01*
X88452380Y9811095D01*
X88500000Y9668238D01*
X88928571Y9239666D02*
X88928571Y8906333D01*
X89452380Y8763476D02*
X89452380Y9239666D01*
X88452380Y9239666D01*
X88452380Y8763476D01*
X88452380Y8477761D02*
X88452380Y7906333D01*
X89452380Y8192047D02*
X88452380Y8192047D01*
G04 #@! TD*
M02*
