<svg width="122.31mm" height="118.072mm" viewBox="0 0 122.31 118.072" xmlns="http://www.w3.org/2000/svg"><g id="svgGroup" stroke-linecap="round" fill-rule="evenodd" font-size="9pt" stroke="#000" stroke-width="0.25mm" fill="none" style="stroke:#000;stroke-width:0.25mm;fill:none"><path d="M 2 85.3 L 18 85.3 L 64.707 92.325 L 108.289 117.487 A 2 2 0 0 0 111.117 117.487 L 121.724 106.88 A 2 2 0 0 0 121.724 104.052 L 114 96.009 L 114 25.95 A 2 2 0 0 0 112 23.95 L 92 23.95 L 92 7.1 A 2 2 0 0 0 90 5.1 L 74 5.1 A 2 2 0 0 0 73.977 5.1 A 2 2 0 0 0 72 3.4 L 56 3.4 L 56 2 A 2 2 0 0 0 54 0 L 38 0 A 2 2 0 0 0 36 2 L 36 3.4 L 20 3.4 A 2 2 0 0 0 18 5.4 L 18 15.3 L 2 15.3 A 2 2 0 0 0 0 17.3 L 0 83.3 A 2 2 0 0 0 2 85.3 Z" vector-effect="non-scaling-stroke"/></g></svg>