<svg width="120.31mm" height="116.072mm" viewBox="0 0 120.31 116.072" xmlns="http://www.w3.org/2000/svg"><g id="svgGroup" stroke-linecap="round" fill-rule="evenodd" font-size="9pt" stroke="#000" stroke-width="0.25mm" fill="none" style="stroke:#000;stroke-width:0.25mm;fill:none"><path d="M 1 83.3 L 17 83.3 A 1 1 0 0 0 18 82.3 L 18 70.4 A 1 1 0 0 0 19 71.4 L 35 71.4 A 1 1 0 0 0 36 70.4 L 36 67 A 1 1 0 0 0 37 68 L 53 68 A 1 1 0 0 0 54 67 L 54 70.4 A 1 1 0 0 0 55 71.4 L 71 71.4 A 1 1 0 0 0 72 70.4 L 72 72.1 A 1 1 0 0 0 73 73.1 L 89 73.1 A 1 1 0 0 0 90 72.1 L 90 57.1 A 1 1 0 0 0 89 56.1 A 1 1 0 0 0 90 55.1 L 90 40.1 A 1 1 0 0 0 89 39.1 A 1 1 0 0 0 90 38.1 L 90 23.1 A 1 1 0 0 0 89 22.1 A 1 1 0 0 0 90 21.1 L 90 6.1 A 1 1 0 0 0 89 5.1 L 73 5.1 A 1 1 0 0 0 72 6.1 L 72 4.4 A 1 1 0 0 0 71 3.4 L 55 3.4 A 1 1 0 0 0 54 4.4 L 54 1 A 1 1 0 0 0 53 0 L 37 0 A 1 1 0 0 0 36 1 L 36 4.4 A 1 1 0 0 0 35 3.4 L 19 3.4 A 1 1 0 0 0 18 4.4 L 18 16.3 A 1 1 0 0 0 17 15.3 L 1 15.3 A 1 1 0 0 0 0 16.3 L 0 31.3 A 1 1 0 0 0 1 32.3 A 1 1 0 0 0 0 33.3 L 0 48.3 A 1 1 0 0 0 1 49.3 A 1 1 0 0 0 0 50.3 L 0 65.3 A 1 1 0 0 0 1 66.3 A 1 1 0 0 0 0 67.3 L 0 82.3 A 1 1 0 0 0 1 83.3 Z M 63.966 90.359 L 79.421 94.5 A 1 1 0 0 0 80.645 93.793 L 84.528 79.304 A 1 1 0 0 0 83.821 78.079 L 68.366 73.938 A 1 1 0 0 0 67.141 74.645 L 63.259 89.134 A 1 1 0 0 0 63.966 90.359 Z M 96.682 104.466 L 107.996 115.78 A 1 1 0 0 0 109.41 115.78 L 120.017 105.173 A 1 1 0 0 0 120.017 103.759 L 108.703 92.445 A 1 1 0 0 0 107.289 92.445 L 96.682 103.052 A 1 1 0 0 0 96.682 104.466 Z M 81.253 95.259 L 95.109 103.259 A 1 1 0 0 0 96.475 102.893 L 103.975 89.902 A 1 1 0 0 0 103.609 88.536 L 89.753 80.536 A 1 1 0 0 0 88.387 80.902 L 80.887 93.893 A 1 1 0 0 0 81.253 95.259 Z M 72 57.1 L 72 55.4 A 1 1 0 0 0 71 54.4 A 1 1 0 0 0 72 53.4 L 72 55.1 A 1 1 0 0 0 73 56.1 A 1 1 0 0 0 72 57.1 Z M 72 40.1 L 72 38.4 A 1 1 0 0 0 71 37.4 A 1 1 0 0 0 72 36.4 L 72 38.1 A 1 1 0 0 0 73 39.1 A 1 1 0 0 0 72 40.1 Z M 72 23.1 L 72 21.4 A 1 1 0 0 0 71 20.4 A 1 1 0 0 0 72 19.4 L 72 21.1 A 1 1 0 0 0 73 22.1 A 1 1 0 0 0 72 23.1 Z M 18 67.3 A 1 1 0 0 0 17 66.3 A 1 1 0 0 0 18 65.3 L 18 67.3 Z M 18 55.4 L 18 53.4 A 1 1 0 0 0 19 54.4 A 1 1 0 0 0 18 55.4 Z M 18 50.3 A 1 1 0 0 0 17 49.3 A 1 1 0 0 0 18 48.3 L 18 50.3 Z M 18 38.4 L 18 36.4 A 1 1 0 0 0 19 37.4 A 1 1 0 0 0 18 38.4 Z M 18 33.3 A 1 1 0 0 0 17 32.3 A 1 1 0 0 0 18 31.3 L 18 33.3 Z M 18 21.4 L 18 19.4 A 1 1 0 0 0 19 20.4 A 1 1 0 0 0 18 21.4 Z M 36 55.4 A 1 1 0 0 0 35 54.4 A 1 1 0 0 0 36 53.4 L 36 55.4 Z M 36 38.4 A 1 1 0 0 0 35 37.4 A 1 1 0 0 0 36 36.4 L 36 38.4 Z M 36 35 L 36 33 A 1 1 0 0 0 37 34 A 1 1 0 0 0 36 35 Z M 36 21.4 A 1 1 0 0 0 35 20.4 A 1 1 0 0 0 36 19.4 L 36 21.4 Z M 36 18 L 36 16 A 1 1 0 0 0 37 17 A 1 1 0 0 0 36 18 Z M 54 55.4 L 54 53.4 A 1 1 0 0 0 55 54.4 A 1 1 0 0 0 54 55.4 Z M 54 38.4 L 54 36.4 A 1 1 0 0 0 55 37.4 A 1 1 0 0 0 54 38.4 Z M 54 35 A 1 1 0 0 0 53 34 A 1 1 0 0 0 54 33 L 54 35 Z M 54 21.4 L 54 19.4 A 1 1 0 0 0 55 20.4 A 1 1 0 0 0 54 21.4 Z M 54 18 A 1 1 0 0 0 53 17 A 1 1 0 0 0 54 16 L 54 18 Z M 36 52 L 36 50 A 1 1 0 0 0 37 51 A 1 1 0 0 0 36 52 Z M 54 52 A 1 1 0 0 0 53 51 A 1 1 0 0 0 54 50 L 54 52 Z" vector-effect="non-scaling-stroke"/></g></svg>