0
SECTION
2
HEADER
9
$INSUNITS
70
4
0
ENDSEC
0
SECTION
2
TABLES
0
TABLE
2
LTYPE
0
LTYPE
72
65
70
64
2
CONTINUOUS
3
______
73
0
40
0
0
ENDTAB
0
TABLE
2
LAYER
0
ENDTAB
0
ENDSEC
0
SECTION
2
ENTITIES
0
LINE
8
0
10
-8
20
-9.5
11
8
21
-9.5
0
ARC
8
0
10
8
20
-7.5
40
2
50
270
51
360
0
LINE
8
0
10
10
20
-7.5
11
10
21
2.4
0
ARC
8
0
10
-8
20
7.5
40
2
50
149.9999999
51
180
0
LINE
8
0
10
-10
20
7.5
11
-10
21
-7.5
0
ARC
8
0
10
-8
20
-7.5
40
2
50
180
51
270
0
ARC
8
0
10
-8
20
24.5
40
2
50
149.9999999
51
180
0
LINE
8
0
10
-10
20
24.5
11
-10
21
9.5
0
ARC
8
0
10
-8
20
9.5
40
2
50
180
51
210.0000001
0
ARC
8
0
10
-8
20
41.5
40
2
50
149.9999999
51
180
0
LINE
8
0
10
-10
20
41.5
11
-10
21
26.5
0
ARC
8
0
10
-8
20
26.5
40
2
50
180
51
210.0000001
0
LINE
8
0
10
8
20
60.5
11
-8
21
60.5
0
ARC
8
0
10
-8
20
58.5
40
2
50
90
51
180
0
LINE
8
0
10
-10
20
58.5
11
-10
21
43.5
0
ARC
8
0
10
-8
20
43.5
40
2
50
180
51
210.0000001
0
LINE
8
0
10
10
20
2.4
11
26
21
2.4
0
ARC
8
0
10
26
20
4.4
40
2
50
270
51
360
0
LINE
8
0
10
28
20
4.4
11
28
21
5.8
0
LINE
8
0
10
26
20
72.4
11
10
21
72.4
0
ARC
8
0
10
10
20
70.4
40
2
50
90
51
180
0
LINE
8
0
10
8
20
70.4
11
8
21
60.5
0
LINE
8
0
10
28
20
5.8
11
44
21
5.8
0
LINE
8
0
10
46
20
72.4
11
46
21
73.8
0
ARC
8
0
10
44
20
73.8
40
2
50
0
51
90
0
LINE
8
0
10
44
20
75.8
11
28
21
75.8
0
ARC
8
0
10
28
20
73.8
40
2
50
90
51
180
0
LINE
8
0
10
26
20
73.8
11
26
21
72.4
0
LINE
8
0
10
46
20
2.4
11
62
21
2.4
0
ARC
8
0
10
62
20
4.4
40
2
50
270
51
270.6477025
0
LINE
8
0
10
44
20
5.8
11
44
21
4.4
0
ARC
8
0
10
46
20
4.4
40
2
50
180
51
270
0
ARC
8
0
10
62
20
70.4
40
2
50
8.6232234
51
90
0
LINE
8
0
10
62
20
72.4
11
46
21
72.4
0
LINE
8
0
10
64
20
0.7
11
80
21
0.7
0
ARC
8
0
10
80
20
2.7
40
2
50
270
51
360
0
LINE
8
0
10
82
20
2.7
11
82
21
17.7
0
ARC
8
0
10
80
20
17.7
40
2
50
0
51
30.0000001
0
ARC
8
0
10
64
20
2.7
40
2
50
188.6232234
51
245.9050344
0
ARC
8
0
10
64
20
2.7
40
2
50
264.094965
51
270
0
ARC
8
0
10
80
20
19.7
40
2
50
329.9999999
51
360
0
LINE
8
0
10
82
20
19.7
11
82
21
34.7
0
ARC
8
0
10
80
20
34.7
40
2
50
0
51
30.0000001
0
ARC
8
0
10
80
20
36.7
40
2
50
329.9999999
51
360
0
LINE
8
0
10
82
20
36.7
11
82
21
51.7
0
ARC
8
0
10
80
20
51.7
40
2
50
0
51
30.0000001
0
ARC
8
0
10
80
20
53.7
40
2
50
329.9999999
51
360
0
LINE
8
0
10
82
20
53.7
11
82
21
68.7
0
ARC
8
0
10
80
20
68.7
40
2
50
0
51
90
0
LINE
8
0
10
80
20
70.7
11
64
21
70.7
0
ARC
8
0
10
64
20
68.7
40
2
50
90
51
90.6477025
0
LINE
8
0
10
54.7071068
20
-16.5247449
11
70.16192
21
-20.6658496
0
ARC
8
0
10
70.6795581
20
-18.733998
40
2
50
255
51
281.6239837
0
LINE
8
0
10
74.3185164
20
-12.880627
11
76.4936954
21
-4.7627487
0
ARC
8
0
10
74.5618437
20
-4.2451106
40
2
50
345
51
75
0
LINE
8
0
10
75.0794818
20
-2.3132589
11
63.7942401
21
0.7106124
0
LINE
8
0
10
63.1834995
20
0.8742599
11
59.6246686
21
1.8278458
0
ARC
8
0
10
59.1070305
20
-0.1040058
40
2
50
75
51
165
0
LINE
8
0
10
57.1751789
20
0.4136322
11
53.2928932
21
-14.0752551
0
ARC
8
0
10
55.2247449
20
-14.5928932
40
2
50
165
51
255
0
LINE
8
0
10
71.7526903
20
-21.3247682
11
85.6090967
21
-29.3247682
0
ARC
8
0
10
86.6090967
20
-27.5927174
40
2
50
240
51
266.6239814
0
LINE
8
0
10
91.6390246
20
-22.8806267
11
95.8411475
21
-15.6023364
0
ARC
8
0
10
94.1090967
20
-14.6023364
40
2
50
330
51
60
0
LINE
8
0
10
95.1090967
20
-12.8702856
11
81.2526903
21
-4.8702856
0
ARC
8
0
10
80.2526903
20
-6.6023364
40
2
50
60
51
150
0
LINE
8
0
10
78.5206395
20
-5.6023364
11
74.3185164
21
-12.880627
0
ARC
8
0
10
72.7526903
20
-19.5927174
40
2
50
213.3760218
51
240
0
LINE
8
0
10
86.9751221
20
-30.3729564
11
98.2888306
21
-41.6866649
0
ARC
8
0
10
99.7030442
20
-40.2724513
40
2
50
225
51
315
0
LINE
8
0
10
101.1172578
20
-41.6866649
11
111.7238595
21
-31.0800632
0
ARC
8
0
10
110.3096459
20
-29.6658496
40
2
50
315
51
45
0
LINE
8
0
10
111.7238595
20
-28.251636
11
100.410151
21
-16.9379275
0
ARC
8
0
10
98.9959374
20
-18.3521411
40
2
50
45
51
135
0
LINE
8
0
10
97.5817238
20
-16.9379275
11
91.6390246
21
-22.8806267
0
ARC
8
0
10
88.3893357
20
-28.9587428
40
2
50
198.3760183
51
225
0
ENDSEC
0
EOF