<svg width="122.31mm" height="118.072mm" viewBox="0 0 122.31 118.072" xmlns="http://www.w3.org/2000/svg"><g id="svgGroup" stroke-linecap="round" fill-rule="evenodd" font-size="9pt" stroke="#000" stroke-width="0.25mm" fill="none" style="stroke:#000;stroke-width:0.25mm;fill:none"><path d="M 2 85.3 L 18 85.3 A 2 2 0 0 0 20 83.3 L 20 73.4 L 36 73.4 A 2 2 0 0 0 38 71.4 L 38 70 L 54 70 L 54 71.4 A 2 2 0 0 0 56 73.4 L 72 73.4 A 2 2 0 0 0 72.023 73.4 A 2 2 0 0 0 73.183 74.926 L 69.625 73.972 A 2 2 0 0 0 67.175 75.386 L 63.293 89.875 A 2 2 0 0 0 64.707 92.325 L 80.162 96.466 A 2 2 0 0 0 81.083 96.493 A 2 2 0 0 0 81.753 97.125 L 95.609 105.125 A 2 2 0 0 0 96.491 105.389 A 2 2 0 0 0 96.975 106.173 L 108.289 117.487 A 2 2 0 0 0 111.117 117.487 L 121.724 106.88 A 2 2 0 0 0 121.724 104.052 L 110.41 92.738 A 2 2 0 0 0 107.582 92.738 L 101.639 98.681 L 105.841 91.402 A 2 2 0 0 0 105.109 88.67 L 91.253 80.67 A 2 2 0 0 0 88.521 81.402 L 84.319 88.681 L 86.494 80.563 A 2 2 0 0 0 85.079 78.113 L 73.794 75.089 A 2 2 0 0 0 74 75.1 L 90 75.1 A 2 2 0 0 0 92 73.1 L 92 58.1 A 2 2 0 0 0 91.732 57.1 A 2 2 0 0 0 92 56.1 L 92 41.1 A 2 2 0 0 0 91.732 40.1 A 2 2 0 0 0 92 39.1 L 92 24.1 A 2 2 0 0 0 91.732 23.1 A 2 2 0 0 0 92 22.1 L 92 7.1 A 2 2 0 0 0 90 5.1 L 74 5.1 A 2 2 0 0 0 73.977 5.1 A 2 2 0 0 0 72 3.4 L 56 3.4 L 56 2 A 2 2 0 0 0 54 0 L 38 0 A 2 2 0 0 0 36 2 L 36 3.4 L 20 3.4 A 2 2 0 0 0 18 5.4 L 18 15.3 L 2 15.3 A 2 2 0 0 0 0 17.3 L 0 32.3 A 2 2 0 0 0 0.268 33.3 A 2 2 0 0 0 0 34.3 L 0 49.3 A 2 2 0 0 0 0.268 50.3 A 2 2 0 0 0 0 51.3 L 0 66.3 A 2 2 0 0 0 0.268 67.3 A 2 2 0 0 0 0 68.3 L 0 83.3 A 2 2 0 0 0 2 85.3 Z" vector-effect="non-scaling-stroke"/></g></svg>