0
SECTION
2
HEADER
9
$INSUNITS
70
4
0
ENDSEC
0
SECTION
2
TABLES
0
TABLE
2
LTYPE
0
LTYPE
72
65
70
64
2
CONTINUOUS
3
______
73
0
40
0
0
ENDTAB
0
TABLE
2
LAYER
0
ENDTAB
0
ENDSEC
0
SECTION
2
ENTITIES
0
LINE
8
0
10
-9
20
9
11
9
21
9
0
LINE
8
0
10
9
20
9
11
9
21
-9
0
LINE
8
0
10
9
20
-9
11
-9
21
-9
0
LINE
8
0
10
-9
20
-9
11
-9
21
9
0
LINE
8
0
10
-9
20
26
11
9
21
26
0
LINE
8
0
10
9
20
26
11
9
21
8
0
LINE
8
0
10
9
20
8
11
-9
21
8
0
LINE
8
0
10
-9
20
8
11
-9
21
26
0
LINE
8
0
10
-9
20
43
11
9
21
43
0
LINE
8
0
10
9
20
43
11
9
21
25
0
LINE
8
0
10
9
20
25
11
-9
21
25
0
LINE
8
0
10
-9
20
25
11
-9
21
43
0
LINE
8
0
10
-9
20
60
11
9
21
60
0
LINE
8
0
10
9
20
60
11
9
21
42
0
LINE
8
0
10
9
20
42
11
-9
21
42
0
LINE
8
0
10
-9
20
42
11
-9
21
60
0
LINE
8
0
10
9
20
20.9
11
27
21
20.9
0
LINE
8
0
10
27
20
20.9
11
27
21
2.9
0
LINE
8
0
10
27
20
2.9
11
9
21
2.9
0
LINE
8
0
10
9
20
2.9
11
9
21
20.9
0
LINE
8
0
10
9
20
37.9
11
27
21
37.9
0
LINE
8
0
10
27
20
37.9
11
27
21
19.9
0
LINE
8
0
10
27
20
19.9
11
9
21
19.9
0
LINE
8
0
10
9
20
19.9
11
9
21
37.9
0
LINE
8
0
10
9
20
54.9
11
27
21
54.9
0
LINE
8
0
10
27
20
54.9
11
27
21
36.9
0
LINE
8
0
10
27
20
36.9
11
9
21
36.9
0
LINE
8
0
10
9
20
36.9
11
9
21
54.9
0
LINE
8
0
10
9
20
71.9
11
27
21
71.9
0
LINE
8
0
10
27
20
71.9
11
27
21
53.9
0
LINE
8
0
10
27
20
53.9
11
9
21
53.9
0
LINE
8
0
10
9
20
53.9
11
9
21
71.9
0
LINE
8
0
10
27
20
24.3
11
45
21
24.3
0
LINE
8
0
10
45
20
24.3
11
45
21
6.3
0
LINE
8
0
10
45
20
6.3
11
27
21
6.3
0
LINE
8
0
10
27
20
6.3
11
27
21
24.3
0
LINE
8
0
10
27
20
41.3
11
45
21
41.3
0
LINE
8
0
10
45
20
41.3
11
45
21
23.3
0
LINE
8
0
10
45
20
23.3
11
27
21
23.3
0
LINE
8
0
10
27
20
23.3
11
27
21
41.3
0
LINE
8
0
10
27
20
58.3
11
45
21
58.3
0
LINE
8
0
10
45
20
58.3
11
45
21
40.3
0
LINE
8
0
10
45
20
40.3
11
27
21
40.3
0
LINE
8
0
10
27
20
40.3
11
27
21
58.3
0
LINE
8
0
10
27
20
75.3
11
45
21
75.3
0
LINE
8
0
10
45
20
75.3
11
45
21
57.3
0
LINE
8
0
10
45
20
57.3
11
27
21
57.3
0
LINE
8
0
10
27
20
57.3
11
27
21
75.3
0
LINE
8
0
10
45
20
20.9
11
63
21
20.9
0
LINE
8
0
10
63
20
20.9
11
63
21
2.9
0
LINE
8
0
10
63
20
2.9
11
45
21
2.9
0
LINE
8
0
10
45
20
2.9
11
45
21
20.9
0
LINE
8
0
10
45
20
37.9
11
63
21
37.9
0
LINE
8
0
10
63
20
37.9
11
63
21
19.9
0
LINE
8
0
10
63
20
19.9
11
45
21
19.9
0
LINE
8
0
10
45
20
19.9
11
45
21
37.9
0
LINE
8
0
10
45
20
54.9
11
63
21
54.9
0
LINE
8
0
10
63
20
54.9
11
63
21
36.9
0
LINE
8
0
10
63
20
36.9
11
45
21
36.9
0
LINE
8
0
10
45
20
36.9
11
45
21
54.9
0
LINE
8
0
10
45
20
71.9
11
63
21
71.9
0
LINE
8
0
10
63
20
71.9
11
63
21
53.9
0
LINE
8
0
10
63
20
53.9
11
45
21
53.9
0
LINE
8
0
10
45
20
53.9
11
45
21
71.9
0
LINE
8
0
10
63
20
19.2
11
81
21
19.2
0
LINE
8
0
10
81
20
19.2
11
81
21
1.2
0
LINE
8
0
10
81
20
1.2
11
63
21
1.2
0
LINE
8
0
10
63
20
1.2
11
63
21
19.2
0
LINE
8
0
10
63
20
36.2
11
81
21
36.2
0
LINE
8
0
10
81
20
36.2
11
81
21
18.2
0
LINE
8
0
10
81
20
18.2
11
63
21
18.2
0
LINE
8
0
10
63
20
18.2
11
63
21
36.2
0
LINE
8
0
10
63
20
53.2
11
81
21
53.2
0
LINE
8
0
10
81
20
53.2
11
81
21
35.2
0
LINE
8
0
10
81
20
35.2
11
63
21
35.2
0
LINE
8
0
10
63
20
35.2
11
63
21
53.2
0
LINE
8
0
10
63
20
70.2
11
81
21
70.2
0
LINE
8
0
10
81
20
70.2
11
81
21
52.2
0
LINE
8
0
10
81
20
52.2
11
63
21
52.2
0
LINE
8
0
10
63
20
52.2
11
63
21
70.2
0
LINE
8
0
10
58.5293333
20
1.6037019
11
75.9159981
21
-3.0550409
0
LINE
8
0
10
75.9159981
20
-3.0550409
11
71.2572553
21
-20.4417057
0
LINE
8
0
10
71.2572553
20
-20.4417057
11
53.8705905
21
-15.7829629
0
LINE
8
0
10
53.8705905
20
-15.7829629
11
58.5293333
21
1.6037019
0
LINE
8
0
10
80.1366649
20
-4.8032983
11
95.7251221
21
-13.8032983
0
LINE
8
0
10
95.7251221
20
-13.8032983
11
86.7251221
21
-29.3917555
0
LINE
8
0
10
86.7251221
20
-29.3917555
11
71.1366649
21
-20.3917555
0
LINE
8
0
10
71.1366649
20
-20.3917555
11
80.1366649
21
-4.8032983
0
LINE
8
0
10
99.3494908
20
-16.5843741
11
112.0774129
21
-29.3122962
0
LINE
8
0
10
112.0774129
20
-29.3122962
11
99.3494908
21
-42.0402183
0
LINE
8
0
10
99.3494908
20
-42.0402183
11
86.6215687
21
-29.3122962
0
LINE
8
0
10
86.6215687
20
-29.3122962
11
99.3494908
21
-16.5843741
0
ENDSEC
0
EOF