<svg width="121.077mm" height="117.34mm" viewBox="0 0 121.077 117.34" xmlns="http://www.w3.org/2000/svg"><g id="svgGroup" stroke-linecap="round" fill-rule="evenodd" font-size="9pt" stroke="#000" stroke-width="0.25mm" fill="none" style="stroke:#000;stroke-width:0.25mm;fill:none"><path d="M 108.349 91.884 L 121.077 104.612 L 108.349 117.34 L 95.622 104.612 L 108.349 91.884 Z M 18 3.4 L 36 3.4 L 36 21.4 L 18 21.4 L 18 3.4 Z M 54 3.4 L 72 3.4 L 72 21.4 L 54 21.4 L 54 3.4 Z M 0 66.3 L 18 66.3 L 18 84.3 L 0 84.3 L 0 66.3 Z M 0 49.3 L 18 49.3 L 18 67.3 L 0 67.3 L 0 49.3 Z M 0 32.3 L 18 32.3 L 18 50.3 L 0 50.3 L 0 32.3 Z M 0 15.3 L 18 15.3 L 18 33.3 L 0 33.3 L 0 15.3 Z M 18 54.4 L 36 54.4 L 36 72.4 L 18 72.4 L 18 54.4 Z M 18 37.4 L 36 37.4 L 36 55.4 L 18 55.4 L 18 37.4 Z M 18 20.4 L 36 20.4 L 36 38.4 L 18 38.4 L 18 20.4 Z M 36 51 L 54 51 L 54 69 L 36 69 L 36 51 Z M 36 34 L 54 34 L 54 52 L 36 52 L 36 34 Z M 36 17 L 54 17 L 54 35 L 36 35 L 36 17 Z M 36 0 L 54 0 L 54 18 L 36 18 L 36 0 Z M 54 54.4 L 72 54.4 L 72 72.4 L 54 72.4 L 54 54.4 Z M 54 37.4 L 72 37.4 L 72 55.4 L 54 55.4 L 54 37.4 Z M 54 20.4 L 72 20.4 L 72 38.4 L 54 38.4 L 54 20.4 Z M 72 56.1 L 90 56.1 L 90 74.1 L 72 74.1 L 72 56.1 Z M 72 39.1 L 90 39.1 L 90 57.1 L 72 57.1 L 72 39.1 Z M 72 22.1 L 90 22.1 L 90 40.1 L 72 40.1 L 72 22.1 Z M 72 5.1 L 90 5.1 L 90 23.1 L 72 23.1 L 72 5.1 Z M 89.137 80.103 L 104.725 89.103 L 95.725 104.692 L 80.137 95.692 L 89.137 80.103 Z M 67.529 73.696 L 84.916 78.355 L 80.257 95.742 L 62.871 91.083 L 67.529 73.696 Z" vector-effect="non-scaling-stroke"/></g></svg>